<svg width="34" height="136" viewBox="0 0 34 136" fill="none" xmlns="http://www.w3.org/2000/svg">
<g clip-path="url(#clip0_1091_2)">
<path d="M26.4812 10.7618C22.2215 20.5447 33.9375 27.2262 31.1007 44.8155C27.8232 65.1402 10.3439 67.6649 8.63246 86.5669C7.37778 100.394 15.1816 116.192 25.2736 118.755C34.9168 121.203 39.5847 109.794 54.4283 105.08C80.5225 96.8014 97.3208 122.091 113.313 115.739C135.412 106.986 149.649 40.2908 115.498 9.75703C86.8823 -15.8345 34.2615 -7.11236 26.4812 10.7618Z" fill="#F4CC27"/>
<path opacity="0.55" d="M36.366 18.0261C30.8227 27.1433 41.5277 35.3475 36.3387 52.3917C30.3432 72.0866 12.683 72.2247 8.43154 90.7218C5.31885 104.252 10.915 120.96 20.5677 124.864C29.7914 128.594 35.9589 117.921 51.3037 115.257C78.2776 110.583 91.5023 137.911 108.206 133.78C131.286 128.095 154.41 63.9374 124.701 29.0665C99.8085 -0.15915 46.4916 1.36807 36.366 18.0261Z" stroke="black" stroke-miterlimit="10"/>
</g>
<defs>
<clipPath id="clip0_1091_2">
<rect width="143" height="134" fill="white" transform="translate(1.49829) rotate(0.640657)"/>
</clipPath>
</defs>
</svg>
