<svg width="44" height="67" viewBox="0 0 44 67" fill="none" xmlns="http://www.w3.org/2000/svg">
<path d="M20.8298 67C31.9509 67 40.9664 66.2524 40.9664 65.3302C40.9664 64.408 31.9509 63.6604 20.8298 63.6604C9.70861 63.6604 0.693115 64.408 0.693115 65.3302C0.693115 66.2524 9.70861 67 20.8298 67Z" fill="#3F3D56"/>
<path d="M40.86 46.6516C40.86 54.8341 35.9459 57.6911 29.8841 57.6911C23.8223 57.6911 18.9082 54.8341 18.9082 46.6516C18.9082 38.469 29.8841 28.0596 29.8841 28.0596C29.8841 28.0596 40.86 38.469 40.86 46.6516Z" fill="#F2F2F2"/>
<path d="M29.4835 56.4393L29.5959 49.5912L34.2741 41.1193L29.6135 48.517L29.664 45.4378L32.8882 39.3084L29.6774 44.623L29.7683 39.0849L33.2208 34.2052L29.7826 38.2141L29.8393 28.0594L29.4825 41.5025L29.5118 40.9479L26.0016 35.6292L29.4555 42.0125L29.1285 48.1975L29.1187 48.0333L25.072 42.4362L29.1065 48.6133L29.0656 49.3867L29.0582 49.3984L29.0616 49.4618L28.2318 65.1537H29.3405L29.4735 57.0486L33.498 50.8867L29.4835 56.4393Z" fill="#3F3D56"/>
<path d="M37.4305 61.3759C37.4305 63.7208 36.0224 64.5395 34.2852 64.5395C34.245 64.5395 34.2048 64.5391 34.1647 64.5382C34.0842 64.5365 34.0045 64.5327 33.9257 64.5274C32.3579 64.4176 31.1399 63.5567 31.1399 61.3759C31.1399 59.1191 34.0533 56.2714 34.2722 56.0606L34.2726 56.0602C34.281 56.0521 34.2852 56.0481 34.2852 56.0481C34.2852 56.0481 37.4305 59.0311 37.4305 61.3759Z" fill="#F4CC27"/>
<path d="M34.1707 64.1811L35.3211 62.5899L34.1678 64.3558L34.1648 64.5385C34.0843 64.5368 34.0046 64.533 33.9258 64.5276L34.0498 62.1817L34.0488 62.1634L34.0509 62.16L34.0626 61.9385L32.9065 60.1682L34.0663 61.7723L34.069 61.8193L34.1627 60.0468L33.1729 58.2175L34.1747 59.7357L34.2723 56.0609L34.2727 56.0483V56.0605L34.2564 58.9583L35.2418 57.8095L34.2523 59.2079L34.2263 60.795L35.1463 59.2719L34.2225 61.0285L34.2079 61.9108L35.5436 59.7909L34.2029 62.2186L34.1707 64.1811Z" fill="#3F3D56"/>
<path d="M41.4446 4.6029C42.3037 4.6029 43.0002 3.91345 43.0002 3.06298C43.0002 2.21251 42.3037 1.52307 41.4446 1.52307C40.5854 1.52307 39.8889 2.21251 39.8889 3.06298C39.8889 3.91345 40.5854 4.6029 41.4446 4.6029Z" fill="#F2F2F2"/>
<path d="M40.811 4.08117C41.6702 4.08117 42.3667 3.39173 42.3667 2.54126C42.3667 1.69079 41.6702 1.00134 40.811 1.00134C39.9519 1.00134 39.2554 1.69079 39.2554 2.54126C39.2554 3.39173 39.9519 4.08117 40.811 4.08117Z" stroke="#3F3D56" stroke-width="2" stroke-miterlimit="10"/>
<path d="M31.6175 3.40906H28.1033V6.88777H31.6175V3.40906Z" fill="#6C63FF"/>
<path d="M32.3202 2.71338H28.8059V6.1921H32.3202V2.71338Z" stroke="#3F3D56" stroke-width="2" stroke-miterlimit="10"/>
<path d="M20.0391 59.225C20.0391 59.225 19.7229 61.2078 19.1957 61.5209C18.6686 61.834 21.9368 62.5645 21.9368 62.5645L22.464 59.4337L20.0391 59.225Z" fill="#FBBEBE"/>
<path d="M23.939 36.5786L25.0987 37.9353L24.5716 42.6316L24.1499 51.9198C24.1499 51.9198 24.9933 59.9556 24.1499 60.1643C23.3065 60.3731 19.5111 60.2687 19.6165 59.7469C19.7219 59.2251 19.8273 58.8076 20.0382 58.0771C20.2491 57.3466 19.8273 54.7375 19.8273 54.7375L20.3545 51.8154L18.4568 39.1877L23.939 36.5786Z" fill="#2F2E41"/>
<path d="M20.1431 61.208C20.1431 61.208 18.9834 60.9993 18.878 61.208C18.7725 61.4167 16.7694 63.6083 16.4531 63.6083C16.1369 63.6083 13.8175 65.6955 16.2423 65.7999C18.6671 65.9042 22.6734 64.0257 22.6734 64.0257C22.6734 64.0257 22.0838 61.3701 22.115 61.4978C22.1462 61.6254 20.1431 61.7298 20.1431 61.208Z" fill="#2F2E41"/>
<path d="M18.8782 56.4073C18.8782 56.4073 21.8301 59.6425 21.9356 59.9556C22.041 60.2687 23.6224 59.9556 23.6224 59.9556L24.255 57.8684L23.7278 57.1379L20.7759 54.7375L18.8782 56.4073Z" fill="#FBBEBE"/>
<path d="M23.0953 58.8076L21.5667 60.2319C21.5667 60.2319 23.5171 63.1908 23.5171 63.5038C23.5171 63.8169 23.6225 66.426 24.6768 66.0085C25.731 65.5911 25.8365 61.4166 25.8365 61.4166C25.8365 61.4166 25.731 57.1378 25.0985 56.8247C24.4659 56.5116 23.0795 56.6105 23.0795 56.6105C23.0795 56.6105 23.9388 58.7032 23.0953 58.8076Z" fill="#2F2E41"/>
<path d="M14.3447 27.2905C14.3447 27.2905 13.8175 28.9603 13.7121 29.3777C13.6067 29.7951 12.9741 30.9431 12.9741 32.7173C12.9741 34.4914 13.185 36.5786 12.9741 36.7874C12.7633 36.9961 9.38957 48.6846 10.8656 49.9369C12.3415 51.1893 17.1912 55.3637 17.5075 55.8855C17.8238 56.4073 17.9292 57.6597 18.5618 57.451C19.1943 57.2422 21.6192 55.155 21.7246 54.7376C21.83 54.3201 20.354 53.5896 20.354 53.5896C20.354 53.5896 17.4021 49.3108 16.6641 49.4151C15.9261 49.5195 16.0315 48.8933 16.1369 48.5802C16.2424 48.2671 16.4532 48.0584 16.1369 48.0584C15.8207 48.0584 16.0315 47.2235 16.1369 46.8061C16.2424 46.3886 18.6672 40.7531 18.6672 40.7531L25.0983 37.9353C25.0983 37.9353 24.782 30.317 22.4626 28.2297L21.9355 26.9774C21.9355 26.9774 16.0315 26.5599 14.3447 27.2905Z" fill="#2F2E41"/>
<path d="M16.9815 10.8015C16.9815 10.8015 17.5086 14.4542 16.2435 14.6629C14.9783 14.8716 13.9241 14.7673 13.9241 14.8716C13.9241 14.976 17.0869 18.2112 17.0869 18.2112L20.0389 18.0025L22.6746 15.1847C22.6746 15.1847 20.2497 14.7673 20.2497 13.3062C20.2497 11.8451 20.1443 10.8015 20.1443 10.8015H16.9815Z" fill="#FBBEBE"/>
<path opacity="0.1" d="M16.9815 10.8015C16.9815 10.8015 17.5086 14.4542 16.2435 14.6629C14.9783 14.8716 13.9241 14.7673 13.9241 14.8716C13.9241 14.976 17.0869 18.2112 17.0869 18.2112L20.0389 18.0025L22.6746 15.1847C22.6746 15.1847 20.2497 14.7673 20.2497 13.3062C20.2497 11.8451 20.1443 10.8015 20.1443 10.8015H16.9815Z" fill="black"/>
<path d="M18.6152 12.3149C20.4202 12.3149 21.8834 10.8664 21.8834 9.07969C21.8834 7.29293 20.4202 5.84448 18.6152 5.84448C16.8102 5.84448 15.3469 7.29293 15.3469 9.07969C15.3469 10.8664 16.8102 12.3149 18.6152 12.3149Z" fill="#FBBEBE"/>
<path d="M15.7151 14.3499C15.7151 14.3499 11.6035 14.8717 11.2872 16.2284C10.9709 17.5851 13.3957 26.0384 13.712 26.7689C14.0283 27.4994 13.9229 28.0212 13.9229 28.0212C14.3999 27.6681 14.9478 27.4201 15.5297 27.2941C16.1117 27.1681 16.7141 27.1669 17.2965 27.2907C19.2997 27.7081 22.1462 27.4994 22.1462 27.4994C22.1462 27.4994 23.0951 23.638 23.3059 23.2206C23.5168 22.8031 24.3602 20.5072 24.3602 19.881C24.3602 19.2548 25.6253 16.6458 25.6253 16.6458C25.6253 16.6458 24.9928 14.7673 22.6734 14.8717C22.6734 14.8717 21.6617 14.4234 21.3768 14.7519C21.0919 15.0804 19.5105 16.5414 17.5074 15.9153C15.5043 15.2891 15.7151 14.3499 15.7151 14.3499Z" fill="#F4CC27"/>
<path d="M12.447 16.1239H11.2873L10.6548 24.3685C10.6548 24.3685 12.9742 24.9946 13.2905 24.5772C13.6067 24.1597 12.447 16.1239 12.447 16.1239Z" fill="#F4CC27"/>
<path d="M10.9701 23.5337L10.6538 24.3686C10.6538 24.3686 10.4429 27.082 11.7081 26.9776C12.9732 26.8733 13.7112 25.3079 13.7112 25.3079C13.7112 25.3079 12.9732 23.325 12.1298 23.5337C11.2864 23.7424 10.9701 23.5337 10.9701 23.5337Z" fill="#F4CC27"/>
<path d="M23.6221 16.1239L25.6252 16.6457C25.6252 16.6457 27.1012 21.9682 27.2066 22.0725C27.312 22.1769 27.4175 22.803 27.4175 22.803C27.4175 22.803 27.4175 22.9074 27.6283 23.2205C27.8392 23.5336 28.1554 23.3249 27.9446 23.7423C27.7337 24.1597 27.4175 23.951 27.6283 24.3685C27.8392 24.7859 27.7337 25.9339 27.7337 25.9339C27.7337 25.9339 27.2066 23.951 25.3089 24.4728L24.0438 18.8373L23.6221 16.1239Z" fill="#F4CC27"/>
<path d="M14.8909 6.41337C14.2263 7.56926 14.0766 8.93838 13.9849 10.2653C13.9456 10.8344 13.916 11.4184 14.0866 11.9633C14.2663 12.5378 14.6664 13.1216 14.4612 13.6877C14.2628 14.2353 13.5993 14.4544 13.2287 14.9059C12.9147 15.2885 12.8359 15.8127 12.8631 16.305C12.8903 16.7972 13.0109 17.2805 13.0463 17.7722C13.1193 18.8523 12.7825 19.9206 12.1018 20.7679C13.6898 20.7073 15.3875 20.0102 16.0572 18.5836C16.2574 18.1572 16.3548 17.6904 16.5354 17.2555C16.7398 16.7635 17.0482 16.3181 17.2417 15.8219C17.5338 15.0731 17.5496 14.2508 17.5617 13.4482C17.569 12.9678 17.5741 12.4746 17.4062 12.0238C17.0364 11.0314 15.8866 10.3902 15.7725 9.3386C15.7528 9.22739 15.7694 9.11287 15.8199 9.01166C15.8736 8.93771 15.9386 8.87258 16.0127 8.81867C16.7307 8.1914 16.6123 6.8634 17.4669 6.43578C17.8505 6.24389 18.3128 6.3114 18.7246 6.43287C19.1819 6.56775 19.6382 6.77665 19.9357 7.14595C20.5348 7.88961 20.2984 8.96383 20.113 9.89715C19.8443 11.251 19.749 12.6329 19.8294 14.0103C19.8346 14.2306 19.8674 14.4494 19.9271 14.6617C20.0372 15.0062 20.2719 15.2955 20.4491 15.6114C20.8101 16.2607 20.9272 17.0156 20.7797 17.7423C20.649 18.3747 20.3241 19.0481 20.6101 19.6282C20.736 19.8523 20.9113 20.0453 21.1231 20.1929C22.0574 20.9178 23.2434 21.3669 23.9381 22.3198C24.0577 21.5415 23.8295 20.7582 23.661 19.9888C23.4925 19.2194 23.39 18.3817 23.7363 17.673C23.8882 17.362 24.1204 17.0915 24.2445 16.7687C24.5313 16.0233 24.1895 15.2057 23.9819 14.435C23.8335 13.8297 23.7264 13.2153 23.6613 12.5958L23.4472 10.9238C23.2702 9.54149 23.085 8.13106 22.4718 6.87687C21.3163 4.51334 18.7013 3.63554 16.3599 4.9452C15.7464 5.29568 15.2391 5.8027 14.8909 6.41337Z" fill="#FF6584"/>
<path d="M12.0253 24.0553C12.0253 24.0553 11.3927 25.9338 12.1307 25.9338C12.8687 25.9338 14.2392 24.7858 14.3447 23.8465C14.4501 22.9073 16.3478 19.359 14.9772 19.6721C13.6067 19.9852 12.9741 22.5942 12.9741 22.5942L12.0253 24.0553Z" fill="#FBBEBE"/>
<path d="M22.6739 16.1234L19.1948 27.2901L23.9391 28.3337L27.4182 17.4801L22.6739 16.1234Z" fill="#6C63FF"/>
<path d="M27.1012 24.1596L27.7598 25.2492C27.7598 25.2492 28.05 27.2905 26.574 27.2905C25.098 27.2905 22.9895 25.3076 22.9895 25.3076C22.9895 25.3076 21.9352 24.8902 21.3026 24.9945C20.6701 25.0989 17.191 24.9945 18.667 23.2204C20.1429 21.4462 22.6732 23.2204 22.6732 23.2204L25.3089 24.4727L26.6795 23.7422L27.1012 24.1596Z" fill="#FBBEBE"/>
<path d="M26.2054 22.751L25.1511 24.4207C25.1511 24.4207 27.576 24.7338 27.7868 25.2556C27.9977 25.7774 26.838 22.5422 26.838 22.5422L26.2054 22.751Z" fill="#F4CC27"/>
</svg>
