<?xml version="1.0" encoding="UTF-8"?>
<svg version="1.1" xmlns="http://www.w3.org/2000/svg" width="183" height="142">
<path d="M0 0 C60.39 0 120.78 0 183 0 C183 46.86 183 93.72 183 142 C122.61 142 62.22 142 0 142 C0 95.14 0 48.28 0 0 Z " fill="#E4E4E4" transform="translate(0,0)"/>
<path d="M0 0 C1.794375 -0.04253906 1.794375 -0.04253906 3.625 -0.0859375 C7.60699476 0.45789975 9.11597708 1.65232102 12 4.375 C13.36125 5.426875 13.36125 5.426875 14.75 6.5 C17 8.375 17 8.375 18 10.375 C18.48145487 16.42117745 17.94225759 22.27568594 17 28.25 C14.84140891 42.24968205 14.84140891 42.24968205 19 55.375 C21.01939864 57.8992483 21.84500596 58.32333532 25 59.375 C31.46740939 59.83772646 37.40593211 59.20960745 43.71484375 57.83984375 C46.97343838 57.17698433 49.69576603 56.92147769 53 57.375 C55.9375 59.4375 55.9375 59.4375 58 62.375 C59.72107113 73.34682845 53.09121037 84.6379004 46.9609375 93.234375 C39.50599402 102.77038044 31.10715725 109.55878728 20 114.375 C19.20207031 114.72820312 18.40414062 115.08140625 17.58203125 115.4453125 C3.26518735 120.60024268 -14.63558822 118.53749944 -28.20019531 112.26464844 C-35.37548453 108.71788312 -41.42199049 104.25662663 -47.296875 98.859375 C-49.05294053 97.23073939 -49.05294053 97.23073939 -51.625 95.875 C-59.6665234 90.79614312 -64.08347519 81.12457442 -67 72.375 C-67.84647014 61.93923236 -67.12341606 53.74165551 -62 44.375 C-61.53851563 43.48683594 -61.07703125 42.59867188 -60.6015625 41.68359375 C-49.8096047 22.86614449 -31.16723064 11.21652122 -12 2.375 C-10.74703125 1.78138672 -10.74703125 1.78138672 -9.46875 1.17578125 C-6.25101264 0.13205315 -3.37857227 0.03640703 0 0 Z " fill="#E4E4E4" transform="translate(99,6.625)"/>
<path d="M0 0 C1.794375 -0.04253906 1.794375 -0.04253906 3.625 -0.0859375 C7.60699476 0.45789975 9.11597708 1.65232102 12 4.375 C13.36125 5.426875 13.36125 5.426875 14.75 6.5 C17 8.375 17 8.375 18 10.375 C18.48145487 16.42117745 17.94225759 22.27568594 17 28.25 C14.84140891 42.24968205 14.84140891 42.24968205 19 55.375 C21.01939864 57.8992483 21.84500596 58.32333532 25 59.375 C31.46740939 59.83772646 37.40593211 59.20960745 43.71484375 57.83984375 C46.97343838 57.17698433 49.69576603 56.92147769 53 57.375 C55.9375 59.4375 55.9375 59.4375 58 62.375 C59.72107113 73.34682845 53.09121037 84.6379004 46.9609375 93.234375 C39.50599402 102.77038044 31.10715725 109.55878728 20 114.375 C19.20207031 114.72820312 18.40414062 115.08140625 17.58203125 115.4453125 C3.26518735 120.60024268 -14.63558822 118.53749944 -28.20019531 112.26464844 C-35.37548453 108.71788312 -41.42199049 104.25662663 -47.296875 98.859375 C-49.05294053 97.23073939 -49.05294053 97.23073939 -51.625 95.875 C-59.6665234 90.79614312 -64.08347519 81.12457442 -67 72.375 C-67.84647014 61.93923236 -67.12341606 53.74165551 -62 44.375 C-61.53851563 43.48683594 -61.07703125 42.59867188 -60.6015625 41.68359375 C-49.8096047 22.86614449 -31.16723064 11.21652122 -12 2.375 C-10.74703125 1.78138672 -10.74703125 1.78138672 -9.46875 1.17578125 C-6.25101264 0.13205315 -3.37857227 0.03640703 0 0 Z M-46.859375 39.73828125 C-55.59226647 51.73667701 -60.13716357 63.34861337 -58 78.375 C-53.70017801 92.1744287 -43.68038564 101.96583234 -31.27880859 108.79467773 C-16.63951607 116.39963549 -1.25142838 118.52545651 14.76953125 114.41015625 C31.71168829 108.98129094 43.84111458 97.719298 51.9375 82 C54.88258346 75.61221552 57.26547781 69.51882637 56 62.375 C54.79006944 60.55563472 54.79006944 60.55563472 53 59.375 C48.57154553 58.99323668 44.92343777 59.31563324 40.625 60.375 C34.47209893 61.85212133 28.65260643 62.30832448 22.625 60.1875 C19.16263874 57.79682199 16.87971195 55.1344239 15 51.375 C14.90369043 49.69358028 14.86924945 48.0083932 14.8671875 46.32421875 C14.86589844 45.31552734 14.86460938 44.30683594 14.86328125 43.26757812 C14.86714844 42.20990234 14.87101562 41.15222656 14.875 40.0625 C14.87113281 39.01642578 14.86726563 37.97035156 14.86328125 36.89257812 C14.86457031 35.88001953 14.86585937 34.86746094 14.8671875 33.82421875 C14.86831543 32.89955811 14.86944336 31.97489746 14.87060547 31.0222168 C14.99998858 28.37523374 15.44800686 25.96258422 16 23.375 C16.16402347 21.00338199 16.2645603 18.62679984 16.3125 16.25 C16.34988281 15.03054687 16.38726562 13.81109375 16.42578125 12.5546875 C16.30962315 9.33057833 16.30962315 9.33057833 14.19921875 7.47265625 C-4.38800819 -1.80444991 -36.31134026 26.33164046 -46.859375 39.73828125 Z " fill="#E2E2E2" transform="translate(99,6.625)"/>
<path d="M0 0 C2.9375 0.375 2.9375 0.375 6 1 C8.11395526 5.22791053 7.4418085 10.19284356 6.3515625 14.65234375 C3.95584704 21.78829964 0.34392212 27.88206995 -4 34 C-4.44988281 34.63679688 -4.89976562 35.27359375 -5.36328125 35.9296875 C-13.98313196 46.9651306 -27.41113737 54.68821995 -41.1953125 56.71875 C-57.12560209 58.31621637 -70.21749652 54.64530968 -84 47 C-82 46 -82 46 -79.390625 46.7421875 C-78.35421875 47.11601563 -77.3178125 47.48984375 -76.25 47.875 C-68.03166899 50.82781742 -60.66103202 51.2359036 -52 51 C-51.22269531 50.98324219 -50.44539063 50.96648437 -49.64453125 50.94921875 C-35.8336596 50.06874424 -23.46129115 41.34988597 -14.16796875 31.62890625 C-6.31489726 22.10617272 -2.54374301 11.94889808 0 0 Z " fill="#E2E2E2" transform="translate(148,66)"/>
<path d="M0 0 C1.65902344 -0.05994141 1.65902344 -0.05994141 3.3515625 -0.12109375 C6.375 0.4375 6.375 0.4375 8.75 2.65625 C12.39022514 8.88663534 10.42652698 16.4775746 9.375 23.3125 C7.21640891 37.31218205 7.21640891 37.31218205 11.375 50.4375 C13.39439864 52.9617483 14.22000596 53.38583532 17.375 54.4375 C23.84240939 54.90022646 29.78093211 54.27210745 36.08984375 52.90234375 C39.34843838 52.23948433 42.07076603 51.98397769 45.375 52.4375 C48.3125 54.5 48.3125 54.5 50.375 57.4375 C52.09607113 68.40932845 45.46621037 79.7004004 39.3359375 88.296875 C31.88099402 97.83288044 23.48215725 104.62128728 12.375 109.4375 C11.57707031 109.79070312 10.77914062 110.14390625 9.95703125 110.5078125 C-4.36362532 115.66411547 -22.26283625 113.59846036 -35.82958984 107.32275391 C-49.66471275 100.50113905 -61.41584128 90.41334132 -66.5625 75.5 C-69.62373004 63.50225992 -67.33714411 52.24495628 -61.12890625 41.71875 C-48.67065897 22.82104504 -24.07273739 0.47919969 0 0 Z M-54.484375 34.80078125 C-63.21726647 46.79917701 -67.76216357 58.41111337 -65.625 73.4375 C-61.32517801 87.2369287 -51.30538564 97.02833234 -38.90380859 103.85717773 C-24.26451607 111.46213549 -8.87642838 113.58795651 7.14453125 109.47265625 C24.08668829 104.04379094 36.21611458 92.781798 44.3125 77.0625 C47.25758346 70.67471552 49.64047781 64.58132637 48.375 57.4375 C47.16506944 55.61813472 47.16506944 55.61813472 45.375 54.4375 C40.94654553 54.05573668 37.29843777 54.37813324 33 55.4375 C26.84709893 56.91462133 21.02760643 57.37082448 15 55.25 C11.53763874 52.85932199 9.25471195 50.1969239 7.375 46.4375 C7.27869043 44.75608028 7.24424945 43.0708932 7.2421875 41.38671875 C7.24089844 40.37802734 7.23960938 39.36933594 7.23828125 38.33007812 C7.24214844 37.27240234 7.24601562 36.21472656 7.25 35.125 C7.24613281 34.07892578 7.24226563 33.03285156 7.23828125 31.95507812 C7.23957031 30.94251953 7.24085937 29.92996094 7.2421875 28.88671875 C7.24331543 27.96205811 7.24444336 27.03739746 7.24560547 26.0847168 C7.37498858 23.43773374 7.82300686 21.02508422 8.375 18.4375 C8.53902347 16.06588199 8.6395603 13.68929984 8.6875 11.3125 C8.72488281 10.09304687 8.76226562 8.87359375 8.80078125 7.6171875 C8.68462315 4.39307833 8.68462315 4.39307833 6.57421875 2.53515625 C-12.01300819 -6.74194991 -43.93634026 21.39414046 -54.484375 34.80078125 Z " fill="#838285" transform="translate(106.625,11.5625)"/>
<path d="M0 0 C4.75 0.75 4.75 0.75 7 3 C7.23046875 6.08203125 7.23046875 6.08203125 7.1875 9.8125 C7.18105469 11.03582031 7.17460938 12.25914063 7.16796875 13.51953125 C7 17 7 17 6.49780273 19.38134766 C5.97928525 22.10896834 5.87061902 24.60452215 5.8671875 27.37890625 C5.86589844 28.38244141 5.86460938 29.38597656 5.86328125 30.41992188 C5.86714844 31.45697266 5.87101562 32.49402344 5.875 33.5625 C5.87113281 34.60341797 5.86726563 35.64433594 5.86328125 36.71679688 C5.86457031 37.71904297 5.86585937 38.72128906 5.8671875 39.75390625 C5.86831543 40.66470947 5.86944336 41.5755127 5.87060547 42.51391602 C5.99062705 44.81991558 6.35052526 46.7913344 7 49 C3.36726588 48.09181647 2.105166 47.14245213 -0.1484375 44.08984375 C-2.76295851 39.25508437 -2.51781399 34.50239305 -2.375 29.125 C-2.36210938 28.12009521 -2.34921875 27.11519043 -2.3359375 26.07983398 C-2.15762084 17.30400756 -1.30403604 8.67416828 0 0 Z " fill="#DBDBDC" transform="translate(108,13)"/>
<path d="M0 0 C2.5822943 1.43073062 3.36536162 2.48517172 5 5 C2.69 5 0.38 5 -2 5 C-1.34 4.34 -0.68 3.68 0 3 C-5.94550005 0.02724998 -12.71731233 2.81575181 -18.59765625 4.7421875 C-39.77339564 12.57064684 -59.02013703 28.5926285 -69 49 C-72.57428214 59.29535753 -72.41047131 70.76870944 -68.13671875 80.80078125 C-66.07851036 84.78281329 -63.49614502 87.51539323 -60.3125 90.625 C-58 93 -58 93 -57 96 C-65.66680562 92.09435798 -69.28992492 83.26609563 -73 75 C-76.03694581 65.88916257 -74.65196903 55.25891019 -70.5234375 46.78515625 C-70.02070312 45.86605469 -69.51796875 44.94695313 -69 44 C-68.53851563 43.11183594 -68.07703125 42.22367188 -67.6015625 41.30859375 C-56.8096047 22.49114449 -38.16723064 10.84152122 -19 2 C-18.1646875 1.60554687 -17.329375 1.21109375 -16.46875 0.8046875 C-11.1780888 -0.91980017 -5.47228008 -0.67260722 0 0 Z " fill="#C9C9CA" transform="translate(106,7)"/>
<path d="M0 0 C0.33 0 0.66 0 1 0 C2.49103697 10.27158799 -2.20895581 18.27439551 -7.70703125 26.578125 C-9.380426 28.81976855 -11.13718654 30.91364892 -13 33 C-13.64324219 33.74765625 -14.28648437 34.4953125 -14.94921875 35.265625 C-24.41400126 45.55267143 -37.55798477 52.79637498 -51.6171875 53.50390625 C-54.03627618 53.53944237 -56.45565342 53.55863523 -58.875 53.5625 C-60.07769531 53.59923828 -61.28039062 53.63597656 -62.51953125 53.67382812 C-71.14642639 53.71597908 -76.86096721 51.83267433 -84 47 C-82 46 -82 46 -79.390625 46.7421875 C-78.35421875 47.11601563 -77.3178125 47.48984375 -76.25 47.875 C-68.03166899 50.82781742 -60.66103202 51.2359036 -52 51 C-51.22269531 50.98324219 -50.44539063 50.96648437 -49.64453125 50.94921875 C-35.8336596 50.06874424 -23.46129115 41.34988597 -14.16796875 31.62890625 C-6.31489726 22.10617272 -2.54374301 11.94889808 0 0 Z " fill="#C9C9CA" transform="translate(148,66)"/>
<path d="M0 0 C2.4375 2 2.4375 2 4 4 C-3.48021405 8.05533244 -12.6227295 8.9038279 -21 8 C-24.11937969 6.62747293 -25.4897715 6.020457 -27 3 C-23.813827 2.49129467 -20.62588525 1.99463419 -17.4375 1.5 C-16.54224609 1.35691406 -15.64699219 1.21382812 -14.72460938 1.06640625 C-9.7680015 0.30385119 -5.01475928 -0.36565953 0 0 Z " fill="#E2E2E2" transform="translate(145,59)"/>
<path d="M0 0 C2.4375 2 2.4375 2 4 4 C3.01 4.495 3.01 4.495 2 5 C2 4.34 2 3.68 2 3 C-4.39651259 2.84633003 -10.27698902 3.35153626 -16.5625 4.5 C-17.38041016 4.64308594 -18.19832031 4.78617188 -19.04101562 4.93359375 C-21.02854504 5.28228312 -23.01445896 5.64016085 -25 6 C-25.66 5.01 -26.32 4.02 -27 3 C-23.813827 2.49129467 -20.62588525 1.99463419 -17.4375 1.5 C-16.54224609 1.35691406 -15.64699219 1.21382812 -14.72460938 1.06640625 C-9.7680015 0.30385119 -5.01475928 -0.36565953 0 0 Z " fill="#CCCCCC" transform="translate(145,59)"/>
<path d="M0 0 C0.33 0 0.66 0 1 0 C1.31274919 8.51372785 0.37292913 16.6030674 -1 25 C-1.66 24.67 -2.32 24.34 -3 24 C-2.76277499 21.39052489 -2.52512382 18.78109989 -2.28515625 16.171875 C-2.09699199 14.07886978 -1.91712499 11.98509987 -1.74609375 9.890625 C-1.66488281 8.91609375 -1.58367187 7.9415625 -1.5 6.9375 C-1.4278125 6.03902344 -1.355625 5.14054687 -1.28125 4.21484375 C-1 2 -1 2 0 0 Z " fill="#8F8E91" transform="translate(116,17)"/>
<path d="M0 0 C2.02910711 0.25327449 4.04962145 0.57730068 6.0625 0.9375 C7.16722656 1.13214844 8.27195312 1.32679687 9.41015625 1.52734375 C10.69212891 1.76130859 10.69212891 1.76130859 12 2 C11.34 2.66 10.68 3.32 10 4 C2.81578947 3.54385965 2.81578947 3.54385965 -1 1 C-0.67 0.67 -0.34 0.34 0 0 Z " fill="#929295" transform="translate(80,120)"/>
</svg>
