<svg width="283" height="254" viewBox="0 0 283 254" fill="none" xmlns="http://www.w3.org/2000/svg">
<g opacity="0.8" clip-path="url(#clip0)">
<path d="M51.2629 18.1687C56.963 35.7239 122.403 13.0958 162.437 55.0295C181.275 74.7627 174.664 88.035 193.225 109.066C226.264 146.526 296.791 160.704 319.195 137.299C352.018 103.016 310.117 -41.6943 216.324 -65.5422C133.173 -86.6871 44.065 -3.98539 51.2629 18.1687Z" fill="#EFDC70"/>
<path d="M40.4889 21.3867C45.5041 46.1307 111.717 23.3804 191.301 78.5874C240.769 112.905 261.096 153.543 303.52 150.867C305.169 150.761 333.455 148.582 350.621 128.103C388.733 82.6328 357.548 -35.832 283.254 -75.8934C180.629 -131.233 32.6976 -17.0592 40.4889 21.3867Z" stroke="black" stroke-miterlimit="10"/>
</g>
<defs>
<clipPath id="clip0">
<rect width="330.634" height="298.736" fill="white" transform="translate(266.883 -176) rotate(63.1082)"/>
</clipPath>
</defs>
</svg>
