<svg width="189" height="179" viewBox="0 0 189 179" fill="none" xmlns="http://www.w3.org/2000/svg">
<g clip-path="url(#clip0_1063_94)">
<path opacity="0.65" d="M183.097 14.0726C165.356 9.63671 159.563 59.7803 98.6817 94.3956C60.8366 115.894 27.9611 116.499 16.466 144.969C16.0207 146.072 8.60828 165.145 16.625 182.676C34.4217 221.604 121.506 238.131 170.856 202.255C239.014 152.657 210.637 20.9444 183.097 14.0726Z" stroke="black" stroke-miterlimit="10"/>
<path opacity="0.3" d="M163.941 16.0458C145.921 13.0645 144.157 63.5103 86.2597 102.908C50.2673 127.397 17.545 130.629 8.37216 159.888C8.02527 161.017 2.16956 180.637 11.5771 197.459C32.4464 234.821 120.578 244.292 166.872 204.562C230.835 149.688 191.941 20.6936 163.941 16.0458Z" stroke="black" stroke-miterlimit="10"/>
</g>
<defs>
<clipPath id="clip0_1063_94">
<rect width="211" height="229" fill="white" transform="translate(15.4347) rotate(3.86468)"/>
</clipPath>
</defs>
</svg>
