<svg width="225" height="224" viewBox="0 0 225 224" fill="none" xmlns="http://www.w3.org/2000/svg">
<path d="M-29.5 205.5C-11.3 208.34 -1.89997 140.14 53.5 123.5C79.57 115.67 88.4 127.5 115.5 120.5C163.76 108.05 208.22 51.8899 197.5 21.4999C181.8 -23.0201 34.07 -50.9401 -29.5 21.4999C-85.86 85.7199 -52.47 201.92 -29.5 205.5Z" fill="#F2E38D"/>
<path d="M-31.5 216.5C-7.21 223.18 2.43 154.24 87.5 108.5C140.38 80.07 185.73 80.32 202.5 41.5C203.15 39.99 213.98 13.93 203.5 -10.5C180.23 -64.74 60.7 -90.36 -8.5 -42.5C-104.09 23.61 -69.24 206.12 -31.5 216.5Z" stroke="black" stroke-miterlimit="10"/>
</svg>
