<svg width="59" height="79" viewBox="0 0 59 79" fill="none" xmlns="http://www.w3.org/2000/svg">
<g clip-path="url(#clip0_9051_259)">
<path opacity="0.16" d="M-31.8656 55.6519C-27.5955 73.561 -2.24995 86.8476 17.9872 80.7305C38.425 74.5611 49.7843 49.7783 45.1281 43.944C41.3976 39.2759 28.8097 48.4079 21.241 42.3481C11.4426 34.5126 23.7094 12.1723 17.1707 7.69183C8.14963 1.51642 -38.4537 27.9824 -31.8656 55.6519Z" stroke="#1C1B22" stroke-miterlimit="10"/>
<path opacity="0.6" d="M-27.0136 59.0562C-22.7444 76.9722 2.59516 90.2511 22.8391 84.1349C43.2769 77.9655 54.6362 53.1827 49.9663 47.3467C46.2351 42.6854 33.648 51.8106 26.0785 45.7577C16.2877 37.9162 28.5606 15.5835 22.0158 11.0954C13.0024 4.91397 -33.6154 31.3851 -27.0136 59.0562Z" stroke="#1C1B22" stroke-miterlimit="10"/>
</g>
<defs>
<clipPath id="clip0_9051_259">
<rect width="86.9448" height="83.7246" fill="white" transform="translate(-28.2115) rotate(6.71398)"/>
</clipPath>
</defs>
</svg>
