<?xml version="1.0" encoding="UTF-8"?>
<svg version="1.1" xmlns="http://www.w3.org/2000/svg" width="150" height="177">
<path d="M0 0 C49.5 0 99 0 150 0 C150 58.41 150 116.82 150 177 C100.5 177 51 177 0 177 C0 118.59 0 60.18 0 0 Z " fill="#F2F2F2" transform="translate(0,0)"/>
<path d="M0 0 C0.8758374 0.00249756 1.7516748 0.00499512 2.65405273 0.00756836 C3.73887939 0.01667236 4.82370605 0.02577637 5.94140625 0.03515625 C9.42703125 0.05578125 12.91265625 0.07640625 16.50390625 0.09765625 C16.50390625 7.35765625 16.50390625 14.61765625 16.50390625 22.09765625 C15.18390625 22.09765625 13.86390625 22.09765625 12.50390625 22.09765625 C12.50390625 23.41765625 12.50390625 24.73765625 12.50390625 26.09765625 C4.25390625 26.09765625 -3.99609375 26.09765625 -12.49609375 26.09765625 C-12.49609375 17.84765625 -12.49609375 9.59765625 -12.49609375 1.09765625 C-8.04392818 0.4616326 -4.3769856 -0.02589932 0 0 Z " fill="#F6473C" transform="translate(71.49609375,123.90234375)"/>
<path d="M0 0 C7.26 0 14.52 0 22 0 C22 0.66 22 1.32 22 2 C23.98 2 25.96 2 28 2 C28 10.25 28 18.5 28 27 C19.75 27 11.5 27 3 27 C3 25.02 3 23.04 3 21 C2.01 21 1.02 21 0 21 C0 14.07 0 7.14 0 0 Z " fill="#FA4236" transform="translate(13,48)"/>
<path d="M0 0 C8.25 0 16.5 0 25 0 C25 7.92 25 15.84 25 24 C16.75 24 8.5 24 0 24 C0 16.08 0 8.16 0 0 Z " fill="#F64338" transform="translate(79,20)"/>
<path d="M0 0 C3.62416894 1.64734952 6.12851416 3.45402683 8 7 C9.01589971 13.47636063 6.59481466 17.82746113 3 23 C0.64790536 25.75531086 -0.78621895 26.80940628 -4.36328125 27.37109375 C-8.63083918 27.57972992 -11.26308416 27.42986757 -15 25.25 C-18.59328374 21.2075558 -19.43991311 18.50902472 -19.234375 12.94921875 C-18.75133161 8.9319079 -17.09617141 6.91675812 -14.04296875 4.36328125 C-9.35984722 0.94069328 -5.97085661 -1.03341749 0 0 Z " fill="#1C64AF" transform="translate(139,96)"/>
<path d="M0 0 C4.35786493 1.52907541 6.56524714 3.12370791 9 7 C9.80503292 11.06541625 9.95254041 15.23956421 7.9453125 18.94921875 C5.60150191 21.81310565 3.61612588 23.73115486 -0.06640625 24.34375 C-6.82546567 24.76685231 -10.17576093 23.09065059 -15.28515625 18.7265625 C-17.88910189 16.10482224 -18.19754663 14.28735568 -18.3125 10.6875 C-18.28413514 7.16458401 -18.06650675 6.10641081 -16.125 3 C-11.53650813 -1.31858059 -5.99541884 -0.43888033 0 0 Z " fill="#1C65B0" transform="translate(71,67)"/>
<path d="M0 0 C4.56005984 1.86547902 6.71582225 4.68544202 9 9 C9.30644155 12.18699217 9.43304064 14.13391871 8 17 C-0.91 17 -9.82 17 -19 17 C-19 9.0327381 -19 9.0327381 -15.48046875 5.35546875 C-10.24370177 0.56085623 -6.94237201 -0.77137467 0 0 Z " fill="#1C65B0" transform="translate(65,160)"/>
<path d="M0 0 C0.8758374 0.00249756 1.7516748 0.00499512 2.65405273 0.00756836 C3.73887939 0.01667236 4.82370605 0.02577637 5.94140625 0.03515625 C9.42703125 0.05578125 12.91265625 0.07640625 16.50390625 0.09765625 C16.50390625 7.35765625 16.50390625 14.61765625 16.50390625 22.09765625 C15.18390625 22.09765625 13.86390625 22.09765625 12.50390625 22.09765625 C12.50390625 23.41765625 12.50390625 24.73765625 12.50390625 26.09765625 C4.25390625 26.09765625 -3.99609375 26.09765625 -12.49609375 26.09765625 C-12.49609375 17.84765625 -12.49609375 9.59765625 -12.49609375 1.09765625 C-8.04392818 0.4616326 -4.3769856 -0.02589932 0 0 Z M-10.49609375 4.09765625 C-10.49609375 10.69765625 -10.49609375 17.29765625 -10.49609375 24.09765625 C-3.89609375 24.09765625 2.70390625 24.09765625 9.50390625 24.09765625 C9.50390625 17.49765625 9.50390625 10.89765625 9.50390625 4.09765625 C2.90390625 4.09765625 -3.69609375 4.09765625 -10.49609375 4.09765625 Z " fill="#090909" transform="translate(71.49609375,123.90234375)"/>
<path d="M0 0 C7.26 0 14.52 0 22 0 C22 0.66 22 1.32 22 2 C23.98 2 25.96 2 28 2 C28 10.25 28 18.5 28 27 C19.75 27 11.5 27 3 27 C3 25.02 3 23.04 3 21 C2.01 21 1.02 21 0 21 C0 14.07 0 7.14 0 0 Z M6 5 C6 11.6 6 18.2 6 25 C12.6 25 19.2 25 26 25 C26 18.4 26 11.8 26 5 C19.4 5 12.8 5 6 5 Z " fill="#B94039" transform="translate(13,48)"/>
<path d="M0 0 C3.62416894 1.64734952 6.12851416 3.45402683 8 7 C9.01589971 13.47636063 6.59481466 17.82746113 3 23 C0.64790536 25.75531086 -0.78621895 26.80940628 -4.36328125 27.37109375 C-8.63083918 27.57972992 -11.26308416 27.42986757 -15 25.25 C-18.59328374 21.2075558 -19.43991311 18.50902472 -19.234375 12.94921875 C-18.75133161 8.9319079 -17.09617141 6.91675812 -14.04296875 4.36328125 C-9.35984722 0.94069328 -5.97085661 -1.03341749 0 0 Z M-16 10 C-17.43304064 12.86608129 -17.30644155 14.81300783 -17 18 C-14.7241177 22.22481746 -14.7241177 22.22481746 -11 25 C-6.02932218 25.3751455 -2.94848498 25.15878799 1 22 C3.32849047 18.78446554 3.54457007 15.88978623 3 12 C1.03437609 8.39980343 1.03437609 8.39980343 -2 6 C-7.65460262 4.79417198 -12.54463192 4.89206457 -16 10 Z " fill="#1A1B1E" transform="translate(139,96)"/>
<path d="M0 0 C4.35786493 1.52907541 6.56524714 3.12370791 9 7 C9.80503292 11.06541625 9.95254041 15.23956421 7.9453125 18.94921875 C5.60150191 21.81310565 3.61612588 23.73115486 -0.06640625 24.34375 C-6.82546567 24.76685231 -10.17576093 23.09065059 -15.28515625 18.7265625 C-17.88910189 16.10482224 -18.19754663 14.28735568 -18.3125 10.6875 C-18.28413514 7.16458401 -18.06650675 6.10641081 -16.125 3 C-11.53650813 -1.31858059 -5.99541884 -0.43888033 0 0 Z M-10.0625 4.9375 C-12.66676523 9.05391923 -13.04704003 12.2539907 -12 17 C-10.0125694 20.0432531 -8.67958873 21.62073803 -5.0625 22.4375 C-1.22273235 22.67021319 0.63711804 22.23162678 3.9375 20.125 C6.77493852 17.20157849 6.96451772 16.36073651 7.375 12.1875 C7.30791111 8.83915436 6.97938747 7.96808382 5.0625 5 C1.49193154 2.66820019 -0.6450206 2.25422505 -4.83984375 2.52734375 C-7.27857956 2.93206316 -7.27857956 2.93206316 -10.0625 4.9375 Z " fill="#121B2A" transform="translate(71,67)"/>
<path d="M0 0 C8.25 0 16.5 0 25 0 C25 7.92 25 15.84 25 24 C16.75 24 8.5 24 0 24 C0 16.08 0 8.16 0 0 Z M2 2 C2 8.6 2 15.2 2 22 C8.6 22 15.2 22 22 22 C22 15.4 22 8.8 22 2 C15.4 2 8.8 2 2 2 Z " fill="#241413" transform="translate(79,20)"/>
<path d="M0 0 C0.99 0.33 1.98 0.66 3 1 C4.04777631 3.47334238 4.90161461 5.82027892 5.6875 8.375 C5.91244141 9.06078125 6.13738281 9.7465625 6.36914062 10.453125 C7.31470473 13.40765356 8 15.8803551 8 19 C1.3227105 18.39297368 -4.70127996 16.22368606 -11 14 C-11 11 -11 11 -8.59375 8.30078125 C-7.5700032 7.29697757 -6.5383946 6.30114351 -5.5 5.3125 C-4.97535156 4.80138672 -4.45070312 4.29027344 -3.91015625 3.76367188 C-2.61339096 2.50227292 -1.30753883 1.25022788 0 0 Z " fill="#222222" transform="translate(134,21)"/>
<path d="M0 0 C7.59 0 15.18 0 23 0 C23 7.59 23 15.18 23 23 C21.35 23 19.7 23 18 23 C18 16.73 18 10.46 18 4 C9.75 4 1.5 4 -7 4 C-7 3.67 -7 3.34 -7 3 C-4.69 3 -2.38 3 0 3 C0 2.01 0 1.02 0 0 Z " fill="#F06057" transform="translate(86,16)"/>
<path d="M0 0 C-1.77910928 6.75052102 -3.70438191 13.40620337 -6 20 C-10.91935902 15.88380164 -15.52647956 11.59589638 -20 7 C-17.28390082 4.28390082 -14.13404955 3.53079778 -10.5625 2.375 C-9.88123047 2.14554687 -9.19996094 1.91609375 -8.49804688 1.6796875 C-5.55017182 0.70957387 -3.12333158 0 0 0 Z " fill="#161512" transform="translate(102,97)"/>
<path d="M0 0 C4.88049925 3.9419417 9.0580583 8.11950075 13 13 C6.43252132 15.7527517 -0.14381674 18.07443364 -7 20 C-5.27068234 12.99102311 -3.16032658 6.49711809 0 0 Z " fill="#252517" transform="translate(28,18)"/>
<path d="M0 0 C1.98 0 3.96 0 6 0 C6 5.28 6 10.56 6 16 C10.62 16 15.24 16 20 16 C20 17.32 20 18.64 20 20 C13.4 20 6.8 20 0 20 C0 13.4 0 6.8 0 0 Z " fill="#DBC7C5" transform="translate(81,22)"/>
<path d="M0 0 C0.66 0 1.32 0 2 0 C2 3.63 2 7.26 2 11 C2.66 11 3.32 11 4 11 C4 9.02 4 7.04 4 5 C4.99 5 5.98 5 7 5 C8.1922117 14.66543055 8.09622024 24.28175551 8 34 C7.34 34 6.68 34 6 34 C6 30.37 6 26.74 6 23 C5.34 23 4.68 23 4 23 C4 24.98 4 26.96 4 29 C3.01 29 2.02 29 1 29 C-0.26693763 19.33960055 -0.08984092 9.72278418 0 0 Z " fill="#5C7A77" transform="translate(13,88)"/>
<path d="M0 0 C0.99 0 1.98 0 3 0 C3 1.65 3 3.3 3 5 C4.65 5 6.3 5 8 5 C8 6.65 8 8.3 8 10 C9.98 10 11.96 10 14 10 C14 11.98 14 13.96 14 16 C15.32 16 16.64 16 18 16 C17.67 16.99 17.34 17.98 17 19 C16.96045766 21.33299825 16.95598268 23.66708189 17 26 C16.34 26 15.68 26 15 26 C15 24.35 15 22.7 15 21 C13.02 21 11.04 21 9 21 C9 19.35 9 17.7 9 16 C7.35 16 5.7 16 4 16 C4 14.02 4 12.04 4 10 C2.68 10 1.36 10 0 10 C0 6.7 0 3.4 0 0 Z " fill="#D3A3BC" transform="translate(89,56)"/>
<path d="M0 0 C0.99 0 1.98 0 3 0 C3.33 0.66 3.66 1.32 4 2 C5.98 2 7.96 2 10 2 C10 2.66 10 3.32 10 4 C8.68 4 7.36 4 6 4 C6 5.65 6 7.3 6 9 C4.02 9 2.04 9 0 9 C0 10.98 0 12.96 0 15 C-1.65 15 -3.3 15 -5 15 C-5 16.32 -5 17.64 -5 19 C-8.3 19 -11.6 19 -15 19 C-15 18.01 -15 17.02 -15 16 C-13.68 16 -12.36 16 -11 16 C-11 14.35 -11 12.7 -11 11 C-9.02 11 -7.04 11 -5 11 C-5 9.02 -5 7.04 -5 5 C-3.35 5 -1.7 5 0 5 C0 3.35 0 1.7 0 0 Z " fill="#D0A5BC" transform="translate(52,102)"/>
<path d="M0 0 C3.485625 0.020625 6.97125 0.04125 10.5625 0.0625 C10.5625 7.3225 10.5625 14.5825 10.5625 22.0625 C9.2425 22.0625 7.9225 22.0625 6.5625 22.0625 C6.2325 23.3825 5.9025 24.7025 5.5625 26.0625 C5.5625 18.1425 5.5625 10.2225 5.5625 2.0625 C-2.3575 2.0625 -10.2775 2.0625 -18.4375 2.0625 C-18.4375 1.7325 -18.4375 1.4025 -18.4375 1.0625 C-12.27026611 -0.03601151 -6.25193394 -0.05246703 0 0 Z " fill="#BF4741" transform="translate(77.4375,123.9375)"/>
<path d="M0 0 C4.91935902 4.11619836 9.52647956 8.40410362 14 13 C10.25764681 15.44989101 6.55774581 15.23086143 2.25 15.125 C1.55261719 15.11597656 0.85523437 15.10695312 0.13671875 15.09765625 C-1.57566958 15.07419888 -3.28788004 15.03833104 -5 15 C-4.35814255 12.68632778 -3.71172608 10.3741043 -3.0625 8.0625 C-2.78889648 7.0734668 -2.78889648 7.0734668 -2.50976562 6.06445312 C-1.11328125 1.11328125 -1.11328125 1.11328125 0 0 Z " fill="#1B1A11" transform="translate(97,162)"/>
<path d="M0 0 C8.25 0 16.5 0 25 0 C23.10013588 3.79972824 22.3890073 4.84335899 19 7 C16.22947819 7.92350727 14.43311242 8.16329585 11.5625 8.1875 C10.80066406 8.20167969 10.03882813 8.21585938 9.25390625 8.23046875 C5.66802383 7.8638014 3.60821822 6.69510654 1.25 4 C0 2 0 2 0 0 Z " fill="#080E1A" transform="translate(47,0)"/>
<path d="M0 0 C7.59 0 15.18 0 23 0 C23 7.92 23 15.84 23 24 C15.41 24 7.82 24 0 24 C0 16.08 0 8.16 0 0 Z M2 2 C2 8.6 2 15.2 2 22 C8.6 22 15.2 22 22 22 C22 15.4 22 8.8 22 2 C15.4 2 8.8 2 2 2 Z " fill="#050505" transform="translate(17,51)"/>
<path d="M0 0 C4.56005984 1.86547902 6.71582225 4.68544202 9 9 C9.30644155 12.18699217 9.43304064 14.13391871 8 17 C7.01 16.67 6.02 16.34 5 16 C5.0825 14.7625 5.165 13.525 5.25 12.25 C5.26153532 8.99127351 5.19423516 8.25250571 3.125 5.5625 C-0.40724087 2.96526407 -2.59636677 2.4819255 -7 3 C-10.06078239 4.80996117 -10.06078239 4.80996117 -12 8 C-12.40276286 11.04876188 -12.29949079 13.94519396 -12 17 C-14.31 17 -16.62 17 -19 17 C-19.43998855 12.60011453 -19.36533691 10.54800537 -16.875 6.8125 C-11.59916361 1.30021156 -7.57896377 -0.84210709 0 0 Z " fill="#0E1623" transform="translate(65,160)"/>
<path d="M0 0 C1.65 0 3.3 0 5 0 C5 5.94 5 11.88 5 18 C9.95 18 14.9 18 20 18 C20 18.66 20 19.32 20 20 C13.4 20 6.8 20 0 20 C0 13.4 0 6.8 0 0 Z " fill="#E4E0DF" transform="translate(61,128)"/>
<path d="M0 0 C1.32 0 2.64 0 4 0 C4 6.6 4 13.2 4 20 C-2.6 20 -9.2 20 -16 20 C-16 19.01 -16 18.02 -16 17 C-10.72 17 -5.44 17 0 17 C0 11.39 0 5.78 0 0 Z " fill="#DBD8D7" transform="translate(35,53)"/>
<path d="M0 0 C4.70959024 0.48719899 7.07846879 1.88179745 10.4375 5.125 C12.13236606 8.33632517 11.94446003 10.79704766 11.625 14.375 C10.625 16.8125 10.625 16.8125 9.625 18.375 C9.295 18.375 8.965 18.375 8.625 18.375 C8.52703125 17.77171875 8.4290625 17.1684375 8.328125 16.546875 C7.65648918 12.95709734 7.04752723 10.03414248 5.0625 6.9375 C1.49846637 4.65286306 -2.23553569 4.0472207 -6.375 3.375 C-4.10048104 0.76964192 -3.646191 0.40513233 0 0 Z " fill="#2969AD" transform="translate(135.375,95.625)"/>
<path d="M0 0 C0.66 0 1.32 0 2 0 C2 1.32 2 2.64 2 4 C3.98 4 5.96 4 8 4 C8 5.65 8 7.3 8 9 C9.65 9 11.3 9 13 9 C13 10.65 13 12.3 13 14 C10.03 14 7.06 14 4 14 C4 12.35 4 10.7 4 9 C2.68 9 1.36 9 0 9 C0 6.03 0 3.06 0 0 Z " fill="#DEAAC5" transform="translate(126,163)"/>
<path d="M0 0 C0.33 0 0.66 0 1 0 C1.226875 1.2375 1.45375 2.475 1.6875 3.75 C2.47533807 6.84117022 2.98665592 7.98513088 5.1875 10.4375 C8.49436781 12.27464878 11.25143965 12.70599527 15 13 C14.67 13.66 14.34 14.32 14 15 C10.36217368 16.21260877 7.82264001 16.39544552 4 16 C1.36983839 13.8272578 -0.47336894 12.05326212 -2 9 C-2.25860135 4.94857881 -2.30441554 3.45662331 0 0 Z " fill="#E2E7E9" transform="translate(124,105)"/>
<path d="M0 0 C5.28 0 10.56 0 16 0 C16 5.61 16 11.22 16 17 C10.72 17 5.44 17 0 17 C0 11.39 0 5.78 0 0 Z M1 1 C0.95875 2.77375 0.9175 4.5475 0.875 6.375 C0.85179688 7.37273438 0.82859375 8.37046875 0.8046875 9.3984375 C0.72783152 12.16262173 0.72783152 12.16262173 3 14 C3.99 14.33 4.98 14.66 6 15 C6.33 15.33 6.66 15.66 7 16 C9.67058851 16.14115161 12.32432238 16.04247107 15 16 C15 11.05 15 6.1 15 1 C10.38 1 5.76 1 1 1 Z " fill="#EE574E" transform="translate(19,53)"/>
<path d="M0 0 C5.94 0 11.88 0 18 0 C18 0.99 18 1.98 18 3 C12.11599345 3.85695967 6.44090708 4.12539234 0.5 4.0625 C-0.32242188 4.05798828 -1.14484375 4.05347656 -1.9921875 4.04882812 C-3.99482396 4.03718489 -5.99742227 4.01925556 -8 4 C-8 3.34 -8 2.68 -8 2 C-5.36 2 -2.72 2 0 2 C0 1.34 0 0.68 0 0 Z " fill="#4F6B69" transform="translate(112,139)"/>
<path d="M0 0 C4.29 1.32 8.58 2.64 13 4 C13.33 5.98 13.66 7.96 14 10 C8.19834261 9.02541328 3.16017278 7.98746845 -2 5 C-1.34 3.35 -0.68 1.7 0 0 Z " fill="#F6F375" transform="translate(125,35)"/>
<path d="M0 0 C1.18239258 0.00676758 1.18239258 0.00676758 2.38867188 0.01367188 C4.32164761 0.02538688 6.25458393 0.04332002 8.1875 0.0625 C8.24540353 3.35409316 8.28106261 6.64555603 8.3125 9.9375 C8.32925781 10.87464844 8.34601563 11.81179687 8.36328125 12.77734375 C8.36972656 13.67324219 8.37617187 14.56914062 8.3828125 15.4921875 C8.39328613 16.31960449 8.40375977 17.14702148 8.41455078 17.99951172 C8.1875 20.0625 8.1875 20.0625 6.1875 22.0625 C6.1875 15.4625 6.1875 8.8625 6.1875 2.0625 C-0.4125 2.0625 -7.0125 2.0625 -13.8125 2.0625 C-13.8125 1.7325 -13.8125 1.4025 -13.8125 1.0625 C-9.18790756 -0.11450048 -4.73383538 -0.05158412 0 0 Z " fill="#1E0808" transform="translate(74.8125,125.9375)"/>
<path d="M0 0 C5.94 0 11.88 0 18 0 C18 0.66 18 1.32 18 2 C18.99 2 19.98 2 21 2 C21 2.66 21 3.32 21 4 C18.06243881 4.0269501 15.12512445 4.04681474 12.1875 4.0625 C11.35412109 4.07087891 10.52074219 4.07925781 9.66210938 4.08789062 C8.45844727 4.09272461 8.45844727 4.09272461 7.23046875 4.09765625 C6.12288208 4.10551147 6.12288208 4.10551147 4.99291992 4.11352539 C3 4 3 4 0 3 C0 2.01 0 1.02 0 0 Z " fill="#4B6664" transform="translate(108,144)"/>
<path d="M0 0 C-0.28359887 1.4391134 -0.57721399 2.87625518 -0.875 4.3125 C-1.03742188 5.11300781 -1.19984375 5.91351563 -1.3671875 6.73828125 C-2 9 -2 9 -4 12 C-6.64 9.36 -9.28 6.72 -12 4 C-8.54145481 0.54145481 -4.78095787 0 0 0 Z " fill="#DDDCCC" transform="translate(98,101)"/>
<path d="M0 0 C1.32 3.96 2.64 7.92 4 12 C-0.35806333 11.27365611 -3.90729837 10.46167915 -8 9 C-6.68994234 5.06982701 -4.75047804 0 0 0 Z " fill="#EBEBDB" transform="translate(135,25)"/>
<path d="M0 0 C1.17539996 0.92652701 2.34010577 1.86663387 3.5 2.8125 C4.1496875 3.33457031 4.799375 3.85664063 5.46875 4.39453125 C7 6 7 6 7 9 C5.73160474 9.50615298 4.46016898 10.00469099 3.1875 10.5 C2.47980469 10.7784375 1.77210937 11.056875 1.04296875 11.34375 C-1 12 -1 12 -4 12 C-3.71640113 10.5608866 -3.42278601 9.12374482 -3.125 7.6875 C-2.96257813 6.88699219 -2.80015625 6.08648437 -2.6328125 5.26171875 C-2 3 -2 3 0 0 Z " fill="#EAEAE2" transform="translate(29,22)"/>
<path d="M0 0 C0.66 0.66 1.32 1.32 2 2 C1.01 3.485 1.01 3.485 0 5 C0.99 6.32 1.98 7.64 3 9 C2.01 10.32 1.02 11.64 0 13 C0.99 14.32 1.98 15.64 3 17 C2.01 18.32 1.02 19.64 0 21 C0.66 21.99 1.32 22.98 2 24 C-1 24 -1 24 -2.6875 22.625 C-4 21 -4 21 -4 19 C-3.34 18.67 -2.68 18.34 -2 18 C-2.165 17.401875 -2.33 16.80375 -2.5 16.1875 C-3.09891665 13.56723967 -3.18059296 11.57789749 -2.375 9 C-1.70113419 6.6915506 -1.70113419 6.6915506 -4 4 C-2.68 2.68 -1.36 1.36 0 0 Z " fill="#1A1919" transform="translate(61,18)"/>
<path d="M0 0 C-0.763125 0.556875 -1.52625 1.11375 -2.3125 1.6875 C-5.19399758 4.16692815 -6.64075724 5.45086613 -8 9 C-7.94235448 12.71027506 -7.53341652 16.33035139 -7 20 C-9.69097695 17.91449286 -11.72333049 16.26444827 -12.47265625 12.83984375 C-12.63015353 8.73806669 -12.33665957 6.53865531 -10.125 3 C-6.70155528 -0.22206562 -4.6094546 -0.10020553 0 0 Z " fill="#2867A9" transform="translate(65,67)"/>
<path d="M0 0 C0.66 0 1.32 0 2 0 C3.65625 1.6796875 3.65625 1.6796875 5.5 3.875 C7.28933258 5.99035504 9.04019124 8.04019124 11 10 C10.67 10.99 10.34 11.98 10 13 C7.69 10.69 5.38 8.38 3 6 C0.65085508 8.34914492 0.26859643 9.95679446 -0.625 13.125 C-0.88539062 14.03507812 -1.14578125 14.94515625 -1.4140625 15.8828125 C-1.60742188 16.58148437 -1.80078125 17.28015625 -2 18 C-2.99 17.34 -3.98 16.68 -5 16 C-4.566875 15.0409375 -4.566875 15.0409375 -4.125 14.0625 C-2.90235751 10.73419545 -2.17014194 7.45648312 -1.46484375 3.98828125 C-1 2 -1 2 0 0 Z " fill="#F3F192" transform="translate(26,13)"/>
<path d="M0 0 C1.15224028 0.92961422 2.29659176 1.8690125 3.4375 2.8125 C4.07558594 3.33457031 4.71367188 3.85664063 5.37109375 4.39453125 C7 6 7 6 8 9 C4.17679443 10.42258812 1.08718695 11.24042276 -3 11 C-2.5251065 6.88425629 -1.9789756 3.63616656 0 0 Z " fill="#ECECE8" transform="translate(98,166)"/>
<path d="M0 0 C1.98 0 3.96 0 6 0 C6 1.98 6 3.96 6 6 C7.98 6 9.96 6 12 6 C12 7.65 12 9.3 12 11 C13.65 11 15.3 11 17 11 C17 13.31 17 15.62 17 18 C16.34 18 15.68 18 15 18 C15 16.35 15 14.7 15 13 C13.02 13 11.04 13 9 13 C9 11.35 9 9.7 9 8 C7.35 8 5.7 8 4 8 C4 6.02 4 4.04 4 2 C2.68 2 1.36 2 0 2 C0 1.34 0 0.68 0 0 Z " fill="#312F30" transform="translate(89,64)"/>
<path d="M0 0 C0.9075 0.37125 1.815 0.7425 2.75 1.125 C6.4739723 2.12760793 6.81531823 1.69849695 10 0 C12.0625 0.9375 12.0625 0.9375 14 2 C14.99 1.67 15.98 1.34 17 1 C16.34 2.32 15.68 3.64 15 5 C8.33333333 5 1.66666667 5 -5 5 C-5.66 3.68 -6.32 2.36 -7 1 C-5.824375 1.309375 -5.824375 1.309375 -4.625 1.625 C-3.75875 1.74875 -2.8925 1.8725 -2 2 C-1.34 1.34 -0.68 0.68 0 0 Z " fill="#171315" transform="translate(18,136)"/>
<path d="M0 0 C0.33 0.66 0.66 1.32 1 2 C1.99 2 2.98 2 4 2 C3.43179252 7.45479185 2.05362055 11.91059256 0 17 C-1.32 16.34 -2.64 15.68 -4 15 C-2.9318153 9.88634986 -1.76892524 4.92772031 0 0 Z " fill="#E6E471" transform="translate(101,99)"/>
<path d="M0 0 C0 1.32 0 2.64 0 4 C0.99 4 1.98 4 3 4 C1.625 7 1.625 7 -1 10 C-4.3854069 10.5412406 -7.59961015 10.35042185 -11 10 C-10.06409496 8.8944811 -9.12620142 7.79064547 -8.1875 6.6875 C-7.66542969 6.07261719 -7.14335937 5.45773438 -6.60546875 4.82421875 C-2.35974304 0 -2.35974304 0 0 0 Z " fill="#7B9C99" transform="translate(25,167)"/>
<path d="M0 0 C2.5 1.5 2.5 1.5 5 4 C5.69059386 8.83415704 5.75252273 10.82104773 3.125 14.9375 C0.41715488 17.56570262 -0.32057956 17.98641159 -4.125 18.0625 C-5.07375 18.041875 -6.0225 18.02125 -7 18 C-3.25 15 -3.25 15 -1 15 C1.32086397 9.675665 0.91457003 5.56157448 0 0 Z " fill="#E0E7EC" transform="translate(73,71)"/>
<path d="M0 0 C0.66 0 1.32 0 2 0 C2 1.98 2 3.96 2 6 C0.35 6 -1.3 6 -3 6 C-3 7.98 -3 9.96 -3 12 C-4.98 12 -6.96 12 -9 12 C-9 13.65 -9 15.3 -9 17 C-10.98 17 -12.96 17 -15 17 C-15 16.34 -15 15.68 -15 15 C-13.68 15 -12.36 15 -11 15 C-11 13.35 -11 11.7 -11 10 C-9.02 10 -7.04 10 -5 10 C-5 8.02 -5 6.04 -5 4 C-3.35 4 -1.7 4 0 4 C0 2.68 0 1.36 0 0 Z " fill="#131112" transform="translate(52,103)"/>
<path d="M0 0 C5.61 0 11.22 0 17 0 C14 4 14 4 11.9140625 4.78515625 C11.15867187 4.87667969 10.40328125 4.96820312 9.625 5.0625 C8.49964844 5.23458984 8.49964844 5.23458984 7.3515625 5.41015625 C5 5 5 5 0 0 Z " fill="#3977B9" transform="translate(53,0)"/>
<path d="M0 0 C4.33125 -0.061875 4.33125 -0.061875 8.75 -0.125 C10.10496582 -0.15231201 10.10496582 -0.15231201 11.48730469 -0.18017578 C12.20821289 -0.1851709 12.92912109 -0.19016602 13.671875 -0.1953125 C14.4050293 -0.20578613 15.13818359 -0.21625977 15.89355469 -0.22705078 C18 0 18 0 22 2 C15.4 2 8.8 2 2 2 C2 8.6 2 15.2 2 22 C1.67 22 1.34 22 1 22 C0.67 14.74 0.34 7.48 0 0 Z " fill="#2D0E0E" transform="translate(17,51)"/>
<path d="M0 0 C4.22963468 1.51058382 5.91246173 4.12314321 8 8 C8.66954002 12.01724014 8.19231067 13.64285162 6.25 17.25 C4.18547572 19.77330745 3.0134177 20.92377939 0 22 C1.20381448 19.50638429 2.45428722 17.31856917 4 15 C4.38762578 10.95508485 4.38762578 10.95508485 4 7 C2.10415891 4.68622853 2.10415891 4.68622853 0 3 C0 2.01 0 1.02 0 0 Z " fill="#282828" transform="translate(0,11)"/>
<path d="M0 0 C0.99 0 1.98 0 3 0 C3 6.6 3 13.2 3 20 C2.01 20 1.02 20 0 20 C0 13.4 0 6.8 0 0 Z " fill="#F94337" transform="translate(84,125)"/>
<path d="M0 0 C1.32 0 2.64 0 4 0 C4 4.95 4 9.9 4 15 C3.34 14.67 2.68 14.34 2 14 C1.34 14.66 0.68 15.32 0 16 C0 10.72 0 5.44 0 0 Z " fill="#F6F5F5" transform="translate(82,22)"/>
<path d="M0 0 C-1.53830895 3.46119514 -3.5727411 6.10077409 -6 9 C-6.47953125 9.60714844 -6.9590625 10.21429688 -7.453125 10.83984375 C-7.96359375 11.47019531 -8.4740625 12.10054687 -9 12.75 C-9.474375 13.34296875 -9.94875 13.9359375 -10.4375 14.546875 C-12.25257165 16.23489163 -13.58255856 16.60403976 -16 17 C-6.41818182 0 -6.41818182 0 0 0 Z " fill="#81C5BF" transform="translate(23,160)"/>
<path d="M0 0 C0.66 0.66 1.32 1.32 2 2 C1.175 2.763125 0.35 3.52625 -0.5 4.3125 C-3.34055197 6.75434142 -3.34055197 6.75434142 -3 10 C-2.54625 9.505 -2.0925 9.01 -1.625 8.5 C0 7 0 7 2 7 C1.67 8.32 1.34 9.64 1 11 C0.34 11 -0.32 11 -1 11 C-1.33 11.66 -1.66 12.32 -2 13 C-4.0625 13.625 -4.0625 13.625 -6 14 C-5.67 12.35 -5.34 10.7 -5 9 C-6.98 10.32 -8.96 11.64 -11 13 C-9.46356148 9.31930113 -7.21849055 7.01224796 -4.375 4.25 C-3.55773437 3.45078125 -2.74046875 2.6515625 -1.8984375 1.828125 C-0.95871094 0.92320312 -0.95871094 0.92320312 0 0 Z " fill="#85CAC2" transform="translate(30,158)"/>
<path d="M0 0 C5.94 0 11.88 0 18 0 C18 0.99 18 1.98 18 3 C12.06 3 6.12 3 0 3 C0 2.01 0 1.02 0 0 Z " fill="#444444" transform="translate(115,149)"/>
<path d="M0 0 C0.99 0 1.98 0 3 0 C3 5.94 3 11.88 3 18 C2.01 18 1.02 18 0 18 C0 12.06 0 6.12 0 0 Z " fill="#393F40" transform="translate(129,66)"/>
<path d="M0 0 C0.99 0 1.98 0 3 0 C3 5.94 3 11.88 3 18 C2.01 18 1.02 18 0 18 C0 12.06 0 6.12 0 0 Z " fill="#3D4142" transform="translate(124,61)"/>
<path d="M0 0 C3.7694321 0.26298363 5.77431907 0.83809846 8.875 3.0625 C11.75392054 7.04218427 11.40810976 9.18430485 11 14 C10.01 14.33 9.02 14.66 8 15 C7.9175 13.7625 7.835 12.525 7.75 11.25 C7.25568833 7.24607544 6.21931892 5.55651796 3 3 C2 2 1 1 0 0 Z " fill="#D9E0E4" transform="translate(60,162)"/>
<path d="M0 0 C5.01615953 -0.29506821 7.99681229 -0.13763361 12 3 C14.37139148 5.24320816 15.85905273 6.79635504 16.24609375 10.1015625 C16.24957052 12.06941577 16.13310843 14.03665064 16 16 C15.34 16.33 14.68 16.66 14 17 C13.91363281 16.32453125 13.82726562 15.6490625 13.73828125 14.953125 C12.86293053 9.23132037 12.86293053 9.23132037 9.8125 4.4375 C6.51166205 2.75040505 3.67837373 2.2884999 0 2 C0 1.34 0 0.68 0 0 Z " fill="#060D1D" transform="translate(128,99)"/>
<path d="M0 0 C0.99 0 1.98 0 3 0 C3 5.61 3 11.22 3 17 C2.01 17 1.02 17 0 17 C0 11.39 0 5.78 0 0 Z " fill="#3E3E3E" transform="translate(134,59)"/>
<path d="M0 0 C1.9375 0.3125 1.9375 0.3125 4 1 C4.33 1.99 4.66 2.98 5 4 C5.66 4 6.32 4 7 4 C6.67 4.99 6.34 5.98 6 7 C4.68 6.01 3.36 5.02 2 4 C0.68 8.29 -0.64 12.58 -2 17 C-4 14 -4 14 -3.828125 11.9140625 C-3.63734375 11.15867188 -3.4465625 10.40328125 -3.25 9.625 C-3.05148438 8.83480469 -2.85296875 8.04460937 -2.6484375 7.23046875 C-1.9247606 4.7411946 -1.06719259 2.3630693 0 0 Z " fill="#EFED81" transform="translate(95,159)"/>
<path d="M0 0 C2.64 0 5.28 0 8 0 C8 1.32 8 2.64 8 4 C9.98 4 11.96 4 14 4 C14 6.31 14 8.62 14 11 C13.01 11 12.02 11 11 11 C11 9.68 11 8.36 11 7 C9.35 7 7.7 7 6 7 C6 5.02 6 3.04 6 1 C4.02 1 2.04 1 0 1 C0 0.67 0 0.34 0 0 Z " fill="#303030" transform="translate(130,0)"/>
<path d="M0 0 C0.78375 0.04125 1.5675 0.0825 2.375 0.125 C1.385 1.61 1.385 1.61 0.375 3.125 C1.49688559 4.27388283 2.62261684 5.41901137 3.75 6.5625 C4.37648438 7.20058594 5.00296875 7.83867188 5.6484375 8.49609375 C7.29223061 10.20382176 7.29223061 10.20382176 9.375 11.125 C9.045 12.445 8.715 13.765 8.375 15.125 C4.085 10.835 -0.205 6.545 -4.625 2.125 C-2.625 0.125 -2.625 0.125 0 0 Z " fill="#161617" transform="translate(86.625,101.875)"/>
<path d="M0 0 C0.33 0.66 0.66 1.32 1 2 C3.32854865 2.36526253 5.66298962 2.69350684 8 3 C10.01416562 3.62256028 12.02015519 4.27566653 14 5 C14.33 4.34 14.66 3.68 15 3 C17 5 17 5 17 8 C10.58008874 7.42934122 4.98410537 5.32655091 -1 3 C-0.67 2.01 -0.34 1.02 0 0 Z " fill="#1F1E15" transform="translate(125,32)"/>
<path d="M0 0 C3.01956721 2.0426484 4.40365726 4.24072062 6.125 7.4375 C6.43144155 10.62449217 6.55804064 12.57141871 5.125 15.4375 C4.135 15.1075 3.145 14.7775 2.125 14.4375 C2.2075 13.2 2.29 11.9625 2.375 10.6875 C2.38646573 7.44269727 2.34127505 6.71144839 0.25 4.0625 C-0.45125 3.52625 -1.1525 2.99 -1.875 2.4375 C-2.535 1.7775 -3.195 1.1175 -3.875 0.4375 C-1.875 -0.5625 -1.875 -0.5625 0 0 Z " fill="#313131" transform="translate(67.875,161.5625)"/>
<path d="M0 0 C5 5 5 5 5 8 C4.34 8 3.68 8 3 8 C3.33 10.31 3.66 12.62 4 15 C0.83884224 13.63016497 0.0072908 13.0109362 -2 10 C-1.34 9.34 -0.68 8.68 0 8 C-0.28730055 5.66055264 -0.61936779 3.3260857 -1 1 C-0.67 0.67 -0.34 0.34 0 0 Z " fill="#DFAAC6" transform="translate(57,39)"/>
<path d="M0 0 C2.08268593 -0.08126087 4.16628658 -0.13930839 6.25 -0.1875 C7.99023438 -0.23970703 7.99023438 -0.23970703 9.765625 -0.29296875 C13 0 13 0 17 3 C11.39 3 5.78 3 0 3 C0 2.01 0 1.02 0 0 Z " fill="#DC3F34" transform="translate(87,17)"/>
<path d="M0 0 C4.88049925 3.9419417 9.0580583 8.11950075 13 13 C11.68 13.33 10.36 13.66 9 14 C9.33 13.01 9.66 12.02 10 11 C9.13375 10.62875 9.13375 10.62875 8.25 10.25 C5.67060021 8.81700012 3.93878408 7.21575324 2 5 C2 4.34 2 3.68 2 3 C1.01 3.33 0.02 3.66 -1 4 C-0.67 2.68 -0.34 1.36 0 0 Z " fill="#15140F" transform="translate(28,18)"/>
<path d="M0 0 C0.59554688 0.22042969 1.19109375 0.44085938 1.8046875 0.66796875 C0.37657935 2.17691321 -1.06312269 3.6748922 -2.5078125 5.16796875 C-3.30832031 6.00328125 -4.10882813 6.83859375 -4.93359375 7.69921875 C-7.1953125 9.66796875 -7.1953125 9.66796875 -10.1953125 9.66796875 C-8.63343218 5.60707993 -4.82747362 -0.73013391 0 0 Z " fill="#363738" transform="translate(22.1953125,0.33203125)"/>
<path d="M0 0 C1.32 0 2.64 0 4 0 C4.86625 1.175625 4.86625 1.175625 5.75 2.375 C8.87742879 6.02366693 11.34209423 6.14605061 16 7 C16 7.33 16 7.66 16 8 C14.58376784 8.05447047 13.16691809 8.09300508 11.75 8.125 C10.96109375 8.14820313 10.1721875 8.17140625 9.359375 8.1953125 C5.69922255 7.89231975 3.65181582 6.74493237 1.25 4 C0 2 0 2 0 0 Z " fill="#1E5FA4" transform="translate(47,0)"/>
<path d="M0 0 C1.11375 0.556875 1.11375 0.556875 2.25 1.125 C4.94283647 2.29515863 4.94283647 2.29515863 7.3125 1.125 C7.869375 0.75375 8.42625 0.3825 9 0 C8.75 1.875 8.75 1.875 8 4 C6.1875 5.375 6.1875 5.375 4 6 C2 5 2 5 0 4 C-2.23470405 4.78309467 -2.23470405 4.78309467 -4 6 C-2.68 4.02 -1.36 2.04 0 0 Z " fill="#DAA5C0" transform="translate(36,136)"/>
<path d="M0 0 C0.33 0 0.66 0 1 0 C1.34751969 2.91916538 1.53280018 5.13195476 -0.04296875 7.69921875 C-1.84637235 9.88339965 -3.44412384 11.72206192 -6 13 C-8.6723621 13.13415472 -11.32250488 13.04318541 -14 13 C-14 12.67 -14 12.34 -14 12 C-13.39671875 11.85304688 -12.7934375 11.70609375 -12.171875 11.5546875 C-7.77488463 10.32069343 -5.49851381 9.59821658 -2.5 6 C-0.94107443 3.05892557 -0.94107443 3.05892557 0 0 Z " fill="#131313" transform="translate(79,78)"/>
<path d="M0 0 C0.33 0 0.66 0 1 0 C1.16435547 0.93972656 1.16435547 0.93972656 1.33203125 1.8984375 C1.49058594 2.71570313 1.64914063 3.53296875 1.8125 4.375 C1.96332031 5.18710938 2.11414062 5.99921875 2.26953125 6.8359375 C2.87544942 9.35820641 2.87544942 9.35820641 6 11 C7.9896995 11.39013716 9.99019869 11.73202649 12 12 C12 12.33 12 12.66 12 13 C5.78693624 14.46189736 5.78693624 14.46189736 2.125 12.3125 C-0.81700555 9.11090573 -0.81700555 9.11090573 -1 6 C-0.72949547 3.99053778 -0.40632091 1.98645776 0 0 Z " fill="#192231" transform="translate(58,77)"/>
<path d="M0 0 C3.96 0 7.92 0 12 0 C9.14415227 1.90389849 7.0688238 2.69462177 3.8125 3.625 C2.91144531 3.88539062 2.01039062 4.14578125 1.08203125 4.4140625 C0.05142578 4.70410156 0.05142578 4.70410156 -1 5 C-0.67 3.35 -0.34 1.7 0 0 Z " fill="#2E2E2E" transform="translate(92,0)"/>
<path d="M0 0 C0 3 0 3 -1 5 C-1.0689472 6.37342831 -1.08467708 7.75002102 -1.0625 9.125 C-1.041875 10.40375 -1.02125 11.6825 -1 13 C-2.32 13 -3.64 13 -5 13 C-5.602537 6.97463002 -5.602537 6.97463002 -3.88671875 4.19921875 C-2.65378147 2.74400545 -1.33191067 1.36520843 0 0 Z " fill="#326EAD" transform="translate(51,164)"/>
<path d="M0 0 C-0.66 1.98 -1.32 3.96 -2 6 C-3.875 5.75 -3.875 5.75 -6 5 C-7.25 2.9375 -7.25 2.9375 -8 1 C-3.375 -1.125 -3.375 -1.125 0 0 Z " fill="#F6F375" transform="translate(98,104)"/>
<path d="M0 0 C0.66 0.99 1.32 1.98 2 3 C0.7251791 5.84383123 -0.45137078 8.13754018 -3 10 C-5.1015625 9.57421875 -5.1015625 9.57421875 -7 9 C-6.57847656 8.51789063 -6.15695312 8.03578125 -5.72265625 7.5390625 C-5.17480469 6.90742188 -4.62695312 6.27578125 -4.0625 5.625 C-3.51722656 4.99851563 -2.97195312 4.37203125 -2.41015625 3.7265625 C-0.93041376 2.04367666 -0.93041376 2.04367666 0 0 Z " fill="#DBDFDE" transform="translate(17,167)"/>
<path d="M0 0 C1.98 0 3.96 0 6 0 C6 1.98 6 3.96 6 6 C7.65 6 9.3 6 11 6 C11 7.65 11 9.3 11 11 C10.67 9.68 10.34 8.36 10 7 C8.02 7 6.04 7 4 7 C4 5.35 4 3.7 4 2 C2.68 2 1.36 2 0 2 C0 1.34 0 0.68 0 0 Z " fill="#090808" transform="translate(89,64)"/>
<path d="M0 0 C0.99 0.33 1.98 0.66 3 1 C2.360625 1.86625 1.72125 2.7325 1.0625 3.625 C-0.97548296 6.9598812 -1.63433093 9.16047478 -2 13 C-2.66 12.67 -3.32 12.34 -4 12 C-4.50423019 6.70558305 -3.18923033 4.18586481 0 0 Z " fill="#050D1D" transform="translate(60,70)"/>
<path d="M0 0 C0.66 0 1.32 0 2 0 C2.99 3.63 3.98 7.26 5 11 C4.01 11 3.02 11 2 11 C1.01 7.7 0.02 4.4 -1 1 C-0.67 0.67 -0.34 0.34 0 0 Z " fill="#3A3A3A" transform="translate(136,25)"/>
<path d="M0 0 C-1.65091778 4.29238623 -4.73754566 6.8793915 -8 10 C-8.99 9.67 -9.98 9.34 -11 9 C-9.54782324 7.49403892 -8.08807139 5.99537896 -6.625 4.5 C-5.40683594 3.24703125 -5.40683594 3.24703125 -4.1640625 1.96875 C-2 0 -2 0 0 0 Z " fill="#181D1D" transform="translate(25,167)"/>
<path d="M0 0 C1.98 0 3.96 0 6 0 C6 1.98 6 3.96 6 6 C7.98 6 9.96 6 12 6 C12 6.33 12 6.66 12 7 C9.36 7 6.72 7 4 7 C4 5.35 4 3.7 4 2 C2.68 2 1.36 2 0 2 C0 1.34 0 0.68 0 0 Z " fill="#141213" transform="translate(126,170)"/>
<path d="M0 0 C1.65 1.65 3.3 3.3 5 5 C2.69 5.66 0.38 6.32 -2 7 C-1.125 1.125 -1.125 1.125 0 0 Z " fill="#DFDE72" transform="translate(98,166)"/>
<path d="M0 0 C2.25450812 0.27025649 4.4469848 0.6215213 6.6640625 1.109375 C6.6640625 1.439375 6.6640625 1.769375 6.6640625 2.109375 C3.68554688 2.45117188 3.68554688 2.45117188 0.70703125 2.79296875 C-1.52990143 3.08108235 -1.52990143 3.08108235 -4.3359375 4.109375 C-5.54475846 6.10953966 -5.54475846 6.10953966 -6.3359375 8.109375 C-6.6659375 7.119375 -6.9959375 6.129375 -7.3359375 5.109375 C-3.60020811 0.16857162 -3.60020811 0.16857162 0 0 Z " fill="#1B2430" transform="translate(128.3359375,99.890625)"/>
<path d="M0 0 C3.16115776 1.36983503 3.9927092 1.9890638 6 5 C5.625 8.6875 5.625 8.6875 5 12 C4.67 12 4.34 12 4 12 C3.731875 10.9275 3.46375 9.855 3.1875 8.75 C2.13772173 5.43491072 1.25387672 3.56122354 -1 1 C-0.67 0.67 -0.34 0.34 0 0 Z " fill="#2B2B2B" transform="translate(74,69)"/>
<path d="M0 0 C0.99 0.33 1.98 0.66 3 1 C1.515 3.475 1.515 3.475 0 6 C0.99 7.485 0.99 7.485 2 9 C-1 9 -1 9 -2.6875 7.625 C-4 6 -4 6 -4 4 C-2.70766393 2.62689293 -1.37562854 1.28965176 0 0 Z " fill="#211D1F" transform="translate(61,33)"/>
<path d="M0 0 C1.98 0 3.96 0 6 0 C5.01 0.33 4.02 0.66 3 1 C3 2.65 3 4.3 3 6 C0.03 6 -2.94 6 -6 6 C-6 5.67 -6 5.34 -6 5 C-4.02 5 -2.04 5 0 5 C0 3.35 0 1.7 0 0 Z " fill="#C19EB0" transform="translate(43,115)"/>
<path d="M0 0 C-0.33 0.99 -0.66 1.98 -1 3 C-2.45635371 3.22174933 -3.91522956 3.42698698 -5.375 3.625 C-6.18710938 3.74101563 -6.99921875 3.85703125 -7.8359375 3.9765625 C-8.55007812 3.98429687 -9.26421875 3.99203125 -10 4 C-10.66 3.34 -11.32 2.68 -12 2 C-10.56656 1.46809459 -9.12804633 0.94984742 -7.6875 0.4375 C-6.48673828 0.00244141 -6.48673828 0.00244141 -5.26171875 -0.44140625 C-3 -1 -3 -1 0 0 Z " fill="#2F2F2F" transform="translate(99,99)"/>
<path d="M0 0 C0.33 0.99 0.66 1.98 1 3 C2.98 3 4.96 3 7 3 C6.67 4.32 6.34 5.64 6 7 C3.03 6.505 3.03 6.505 0 6 C0 4.02 0 2.04 0 0 Z " fill="#C398AE" transform="translate(132,170)"/>
<path d="M0 0 C-0.33 1.32 -0.66 2.64 -1 4 C-1.66 4 -2.32 4 -3 4 C-3.33 4.66 -3.66 5.32 -4 6 C-6.0625 6.625 -6.0625 6.625 -8 7 C-7.67 5.02 -7.34 3.04 -7 1 C-6.34 1.66 -5.68 2.32 -5 3 C-4.54625 2.505 -4.0925 2.01 -3.625 1.5 C-2 0 -2 0 0 0 Z " fill="#9DD1CD" transform="translate(32,165)"/>
<path d="M0 0 C0.66 0.33 1.32 0.66 2 1 C1.34 1.66 0.68 2.32 0 3 C-0.6425235 5.06874034 -0.6425235 5.06874034 -1 7 C-1.66 7 -2.32 7 -3 7 C-3 7.66 -3 8.32 -3 9 C-3.99 9 -4.98 9 -6 9 C-4.68775452 5.06326356 -3.08089673 2.77280706 0 0 Z " fill="#D5D4B9" transform="translate(133,25)"/>
<path d="M0 0 C0.99 0.33 1.98 0.66 3 1 C0.69 3.31 -1.62 5.62 -4 8 C-4.99 7.67 -5.98 7.34 -7 7 C-4.69 4.69 -2.38 2.38 0 0 Z " fill="#151A19" transform="translate(14,169)"/>
<path d="M0 0 C0.125 5.75 0.125 5.75 -1 8 C-2.32 7.34 -3.64 6.68 -5 6 C-2.84615385 0 -2.84615385 0 0 0 Z " fill="#FBF772" transform="translate(102,108)"/>
<path d="M0 0 C0.33 0.66 0.66 1.32 1 2 C0 4 0 4 -2.8125 5.1875 C-6 6 -6 6 -10 5 C-6.7 3.35 -3.4 1.7 0 0 Z " fill="#202020" transform="translate(37,29)"/>
<path d="M0 0 C2 4 2 4 1.125 7.75 C0.75375 8.8225 0.3825 9.895 0 11 C-0.99 10.67 -1.98 10.34 -3 10 C-2.01 6.7 -1.02 3.4 0 0 Z " fill="#282719" transform="translate(95,166)"/>
<path d="M0 0 C0.99 0.33 1.98 0.66 3 1 C3 2.98 3 4.96 3 7 C2.01 7.33 1.02 7.66 0 8 C0 5.36 0 2.72 0 0 Z " fill="#E7EEF1" transform="translate(68,169)"/>
<path d="M0 0 C0.66 0 1.32 0 2 0 C2.33 3.63 2.66 7.26 3 11 C0 8 0 8 -0.29296875 5.95703125 C-0.1953125 3.97135417 -0.09765625 1.98567708 0 0 Z " fill="#161616" transform="translate(120,107)"/>
<path d="M0 0 C5 5 5 5 5 8 C4.01 8.33 3.02 8.66 2 9 C-1.07692308 4.56923077 -1.07692308 4.56923077 -0.6875 1.6875 C-0.460625 1.130625 -0.23375 0.57375 0 0 Z " fill="#DBA2BF" transform="translate(57,39)"/>
<path d="M0 0 C0.66 0 1.32 0 2 0 C2.33 2.31 2.66 4.62 3 7 C0.525 6.01 0.525 6.01 -2 5 C-2 4.34 -2 3.68 -2 3 C-1.34 3 -0.68 3 0 3 C0 2.01 0 1.02 0 0 Z " fill="#F2F171" transform="translate(132,29)"/>
<path d="M0 0 C3.91593446 0.78318689 7.36406635 2.39179858 11 4 C11 4.33 11 4.66 11 5 C8.3125 5.3125 8.3125 5.3125 5 5 C2.125 2.5 2.125 2.5 0 0 Z " fill="#1B5A9E" transform="translate(53,0)"/>
<path d="M0 0 C1.32 0.66 2.64 1.32 4 2 C0.36576791 4.32590854 -2.77088331 4.16265833 -7 4 C-4 2 -4 2 0 2 C0 1.34 0 0.68 0 0 Z " fill="#212121" transform="translate(107,173)"/>
<path d="M0 0 C0.66 1.32 1.32 2.64 2 4 C0.02 5.32 -1.96 6.64 -4 8 C-3.50168276 4.31245243 -2.89932357 2.39509338 0 0 Z " fill="#E2F3F2" transform="translate(30,161)"/>
<path d="M0 0 C0.33 0.99 0.66 1.98 1 3 C-0.4375 5.1875 -0.4375 5.1875 -2 7 C-2.33 6.67 -2.66 6.34 -3 6 C-3.66 6.66 -4.32 7.32 -5 8 C-5 5 -5 5 -2.5 2.3125 C-1.675 1.549375 -0.85 0.78625 0 0 Z " fill="#353636" transform="translate(128,27)"/>
<path d="M0 0 C3.37503669 1.1858237 5.64722731 2.27573689 8 5 C7.67 5.99 7.34 6.98 7 8 C5.83035398 6.8572081 4.66435444 5.71068285 3.5 4.5625 C2.8503125 3.92441406 2.200625 3.28632813 1.53125 2.62890625 C0 1 0 1 0 0 Z " fill="#D9D76B" transform="translate(29,18)"/>
<path d="M0 0 C2.97 1.98 2.97 1.98 6 4 C4 5 4 5 1 5 C0.34 5.66 -0.32 6.32 -1 7 C-1.33 6.34 -1.66 5.68 -2 5 C-1.0625 2.375 -1.0625 2.375 0 0 Z " fill="#EDEB72" transform="translate(27,14)"/>
<path d="M0 0 C3.82946843 1.45255699 5.12050295 3.42895561 7 7 C4 7 4 7 1.8125 5.1875 C0 3 0 3 0 0 Z " fill="#222222" transform="translate(0,11)"/>
<path d="M0 0 C3.23356015 1.21258505 4.00856305 2.01284458 6 5 C5.34 5.66 4.68 6.32 4 7 C2 5 0 3 -2 1 C-1.34 0.67 -0.68 0.34 0 0 Z " fill="#272727" transform="translate(66,161)"/>
<path d="M0 0 C2 4 2 4 1.125 7.25 C0.75375 8.1575 0.3825 9.065 0 10 C-0.66 9.67 -1.32 9.34 -2 9 C-1.34 6.03 -0.68 3.06 0 0 Z " fill="#272614" transform="translate(97,104)"/>
<path d="M0 0 C4.34464536 0.60825035 8.67551867 1.26167392 13 2 C13 2.33 13 2.66 13 3 C4.80743982 3.4726477 4.80743982 3.4726477 1.4375 1.5 C0.963125 1.005 0.48875 0.51 0 0 Z " fill="#5B85B2" transform="translate(50,5)"/>
<path d="M0 0 C2.4375 0.375 2.4375 0.375 5 1 C5.33 1.66 5.66 2.32 6 3 C3.69 3.66 1.38 4.32 -1 5 C-0.67 3.35 -0.34 1.7 0 0 Z " fill="#2D2D2D" transform="translate(22,33)"/>
<path d="M0 0 C0.66 0 1.32 0 2 0 C0.95125002 2.62187494 0.35068687 3.79371361 -2.125 5.25 C-2.74375 5.4975 -3.3625 5.745 -4 6 C-4.66 5.34 -5.32 4.68 -6 4 C-5.195625 3.525625 -4.39125 3.05125 -3.5625 2.5625 C-1.15246512 1.23099846 -1.15246512 1.23099846 0 0 Z " fill="#17181D" transform="translate(70,0)"/>
<path d="M0 0 C1.32 1.32 2.64 2.64 4 4 C2.02 4.33 0.04 4.66 -2 5 C-1.34 3.35 -0.68 1.7 0 0 Z " fill="#E3E068" transform="translate(29,22)"/>
</svg>
