<?xml version="1.0" encoding="UTF-8"?>
<svg version="1.1" xmlns="http://www.w3.org/2000/svg" width="192" height="271">
<path d="M0 0 C63.36 0 126.72 0 192 0 C192 89.43 192 178.86 192 271 C128.64 271 65.28 271 0 271 C0 181.57 0 92.14 0 0 Z " fill="#F6F5F5" transform="translate(0,0)"/>
<path d="M0 0 C8.91 0 17.82 0 27 0 C27 9.24 27 18.48 27 28 C25.02 28 23.04 28 21 28 C21 30.31 21 32.62 21 35 C10.77 35 0.54 35 -10 35 C-10 25.1 -10 15.2 -10 5 C-6.7 5 -3.4 5 0 5 C0 3.35 0 1.7 0 0 Z " fill="#F32827" transform="translate(110,20)"/>
<path d="M0 0 C9.24 0 18.48 0 28 0 C28 1.32 28 2.64 28 4 C30.31 4 32.62 4 35 4 C35 14.23 35 24.46 35 35 C25.1 35 15.2 35 5 35 C5 32.69 5 30.38 5 28 C3.35 28 1.7 28 0 28 C0 18.76 0 9.52 0 0 Z " fill="#FB2B2C" transform="translate(17,59)"/>
<path d="M0 0 C8.91 0 17.82 0 27 0 C27 8.91 27 17.82 27 27 C25.35 27 23.7 27 22 27 C22 28.98 22 30.96 22 33 C11.77 33 1.54 33 -9 33 C-9 22.77 -9 12.54 -9 2 C-6.03 2 -3.06 2 0 2 C0 1.34 0 0.68 0 0 Z " fill="#FA2928" transform="translate(84,155)"/>
<path d="M0 0 C5.11280275 1.84060899 8.10397971 4.40043837 11 9 C12.23165746 13.44957941 11.60295075 16.76050793 9.59765625 20.8828125 C6.24173807 26.39033686 2.9088303 31.04558485 -3 34 C-7.89633308 34.53718762 -11.8677559 34.52418708 -16.375 32.4375 C-20.88073422 28.25360394 -23.19132559 24.54925323 -23.5 18.4375 C-23.23882635 13.89768735 -22.12526635 11.42291076 -19 8 C-8.04259377 -0.53617292 -8.04259377 -0.53617292 0 0 Z " fill="#0665B6" transform="translate(174,120)"/>
<path d="M0 0 C4.25169391 1.83468968 6.89158731 4.15121459 8.890625 8.35546875 C10.33403714 12.75742751 10.39507712 16.27116457 8.56640625 20.453125 C6.2299703 24.49013142 4.0426067 27.70019387 -0.48046875 29.2734375 C-6.9832102 30.39060216 -11.48559195 29.77250425 -16.98046875 26.0234375 C-21.03574599 22.94248012 -23.85353546 20.15423737 -25.48046875 15.2734375 C-25.87028152 11.1414221 -25.7556578 8.81323141 -23.85546875 5.0859375 C-17.01845904 -3.01052136 -9.82092827 -2.87668135 0 0 Z " fill="#0564B6" transform="translate(92.48046875,84.7265625)"/>
<path d="M0 0 C8.91 0 17.82 0 27 0 C27 9.24 27 18.48 27 28 C25.02 28 23.04 28 21 28 C21 30.31 21 32.62 21 35 C10.77 35 0.54 35 -10 35 C-10 25.1 -10 15.2 -10 5 C-6.7 5 -3.4 5 0 5 C0 3.35 0 1.7 0 0 Z M-7 7 C-7 15.25 -7 23.5 -7 32 C1.25 32 9.5 32 18 32 C18 23.75 18 15.5 18 7 C9.75 7 1.5 7 -7 7 Z " fill="#2B2020" transform="translate(110,20)"/>
<path d="M0 0 C9.24 0 18.48 0 28 0 C28 1.32 28 2.64 28 4 C30.31 4 32.62 4 35 4 C35 14.23 35 24.46 35 35 C25.1 35 15.2 35 5 35 C5 32.69 5 30.38 5 28 C3.35 28 1.7 28 0 28 C0 18.76 0 9.52 0 0 Z M8 7 C8 15.25 8 23.5 8 32 C15.92 32 23.84 32 32 32 C32 23.75 32 15.5 32 7 C24.08 7 16.16 7 8 7 Z " fill="#251717" transform="translate(17,59)"/>
<path d="M0 0 C8.91 0 17.82 0 27 0 C27 8.91 27 17.82 27 27 C25.35 27 23.7 27 22 27 C22 28.98 22 30.96 22 33 C11.77 33 1.54 33 -9 33 C-9 22.77 -9 12.54 -9 2 C-6.03 2 -3.06 2 0 2 C0 1.34 0 0.68 0 0 Z M-6 5 C-6 13.25 -6 21.5 -6 30 C2.25 30 10.5 30 19 30 C19 21.75 19 13.5 19 5 C10.75 5 2.5 5 -6 5 Z " fill="#160E0E" transform="translate(84,155)"/>
<path d="M0 0 C3.5677811 2.35149209 5.84221079 4.99692157 7.75 8.8125 C7.81996014 10.51952735 7.83440154 12.22918003 7.8125 13.9375 C7.80347656 14.84757812 7.79445312 15.75765625 7.78515625 16.6953125 C7.77355469 17.39398438 7.76195312 18.09265625 7.75 18.8125 C6.43 19.1425 5.11 19.4725 3.75 19.8125 C3.79640625 19.07644531 3.8428125 18.34039062 3.890625 17.58203125 C4.14405193 11.42470062 4.14405193 11.42470062 2.1875 5.6875 C-0.92784748 3.29107886 -3.37454437 3.03608398 -7.25 2.8125 C-6.30125 3.410625 -5.3525 4.00875 -4.375 4.625 C-1.25 6.8125 -1.25 6.8125 0.75 9.8125 C0.75 13.1125 0.75 16.4125 0.75 19.8125 C-8.16 19.8125 -17.07 19.8125 -26.25 19.8125 C-26.25 10.4125 -26.25 10.4125 -22.25 5.8125 C-15.39230412 -0.07932322 -8.99687165 -3.28731849 0 0 Z " fill="#0265B8" transform="translate(85.25,201.1875)"/>
<path d="M0 0 C5.11280275 1.84060899 8.10397971 4.40043837 11 9 C12.23165746 13.44957941 11.60295075 16.76050793 9.59765625 20.8828125 C6.24173807 26.39033686 2.9088303 31.04558485 -3 34 C-7.89633308 34.53718762 -11.8677559 34.52418708 -16.375 32.4375 C-20.88073422 28.25360394 -23.19132559 24.54925323 -23.5 18.4375 C-23.23882635 13.89768735 -22.12526635 11.42291076 -19 8 C-8.04259377 -0.53617292 -8.04259377 -0.53617292 0 0 Z M-18 11 C-20.28357247 14.04476329 -20.41548086 17.20594291 -20.32421875 20.96875 C-19.79002404 24.31551204 -18.13123774 26.44251471 -16 29 C-11.74557709 31.83628194 -7.99310819 31.51845373 -3 31 C-0.00391081 29.75162951 1.42078687 28.9523006 3.09765625 26.1953125 C4.73403997 22.21415385 4.67023333 18.21384322 4 14 C2.31712073 10.87822767 0.2172593 8.60862965 -3 7 C-9.09068072 6.34242208 -13.68345787 6.1438901 -18 11 Z " fill="#040D1F" transform="translate(174,120)"/>
<path d="M0 0 C4.25169391 1.83468968 6.89158731 4.15121459 8.890625 8.35546875 C10.33403714 12.75742751 10.39507712 16.27116457 8.56640625 20.453125 C6.2299703 24.49013142 4.0426067 27.70019387 -0.48046875 29.2734375 C-6.9832102 30.39060216 -11.48559195 29.77250425 -16.98046875 26.0234375 C-21.03574599 22.94248012 -23.85353546 20.15423737 -25.48046875 15.2734375 C-25.87028152 11.1414221 -25.7556578 8.81323141 -23.85546875 5.0859375 C-17.01845904 -3.01052136 -9.82092827 -2.87668135 0 0 Z M-16.48046875 7.2734375 C-18.81166532 11.05480986 -18.68360807 13.78821478 -18.08984375 18.0859375 C-16.92799399 22.25668023 -13.96230536 24.14928559 -10.66796875 26.6484375 C-7.17059319 27.64768766 -3.92654037 27.22573165 -0.48046875 26.2734375 C2.92522716 24.12636834 5.32913907 22.16926647 6.51953125 18.2734375 C6.85400499 14.05906832 6.95827942 11.37030792 5.39453125 7.4609375 C2.59870829 4.19914405 -0.19310102 2.68890749 -4.4375 1.91796875 C-10.11562121 1.5162661 -12.6026394 3.21094961 -16.48046875 7.2734375 Z " fill="#070E1B" transform="translate(92.48046875,84.7265625)"/>
<path d="M0 0 C2 1 2 1 2.86962891 2.99365234 C3.15241699 3.84910645 3.43520508 4.70456055 3.7265625 5.5859375 C4.190625 6.98199219 4.190625 6.98199219 4.6640625 8.40625 C4.98117188 9.3859375 5.29828125 10.365625 5.625 11.375 C5.94984375 12.34695312 6.2746875 13.31890625 6.609375 14.3203125 C9 21.59263393 9 21.59263393 9 25 C0.45115106 22.85406445 -7.74050475 20.0505873 -16 17 C-15.06558465 15.72689688 -14.12732889 14.456612 -13.1875 13.1875 C-12.66542969 12.47980469 -12.14335937 11.77210937 -11.60546875 11.04296875 C-10.15747502 9.20038793 -8.76898495 7.53635131 -7 6 C-6.34 6 -5.68 6 -5 6 C-4.731875 5.38125 -4.46375 4.7625 -4.1875 4.125 C-3 2 -3 2 0 0 Z " fill="#1D1C17" transform="translate(170,26)"/>
<path d="M0 0 C6.03331362 4.98404168 11.5184171 10.41915303 17 16 C14.7465128 18.2534872 13.28025546 18.73648451 10.28125 19.7265625 C8.88326172 20.190625 8.88326172 20.190625 7.45703125 20.6640625 C6.48121094 20.98117188 5.50539063 21.29828125 4.5 21.625 C3.03626953 22.11226562 3.03626953 22.11226562 1.54296875 22.609375 C-5.71930804 25 -5.71930804 25 -8 25 C-7.33634152 19.79028096 -5.78385895 15.15561211 -4 10.25 C-3.72671875 9.48300781 -3.4534375 8.71601563 -3.171875 7.92578125 C-1.16731366 2.33462733 -1.16731366 2.33462733 0 0 Z " fill="#1A1913" transform="translate(36,22)"/>
<path d="M0 0 C-2.14593555 8.54884894 -4.9494127 16.74050475 -8 25 C-14.03331362 20.01595832 -19.5184171 14.58084697 -25 9 C-22.811636 6.811636 -21.4227652 6.28365452 -18.53515625 5.2734375 C-17.65279297 4.9640625 -16.77042969 4.6546875 -15.86132812 4.3359375 C-14.93771484 4.01882812 -14.01410156 3.70171875 -13.0625 3.375 C-11.68288086 2.88773437 -11.68288086 2.88773437 -10.27539062 2.390625 C-3.38978795 0 -3.38978795 0 0 0 Z " fill="#181712" transform="translate(129,121)"/>
<path d="M0 0 C8.91 0 17.82 0 27 0 C27 9.24 27 18.48 27 28 C25.02 28 23.04 28 21 28 C21 20.41 21 12.82 21 5 C14.07 5 7.14 5 0 5 C0 3.35 0 1.7 0 0 Z " fill="#ED4844" transform="translate(110,20)"/>
<path d="M0 0 C0.99 0 1.98 0 3 0 C3 1.98 3 3.96 3 6 C5.31 6 7.62 6 10 6 C10 8.31 10 10.62 10 13 C12.31 13 14.62 13 17 13 C17 15.31 17 17.62 17 20 C18.65 20 20.3 20 22 20 C21.67 23.96 21.34 27.92 21 32 C20.01 32 19.02 32 18 32 C18 30.35 18 28.7 18 27 C15.69 27 13.38 27 11 27 C11 24.69 11 22.38 11 20 C8.69 20 6.38 20 4 20 C4 17.69 4 15.38 4 13 C2.35 13 0.7 13 -1 13 C-0.67 8.71 -0.34 4.42 0 0 Z " fill="#D99CB9" transform="translate(113,70)"/>
<path d="M0 0 C3.96 0.33 7.92 0.66 12 1 C12 1.99 12 2.98 12 4 C10.02 4 8.04 4 6 4 C6 6.31 6 8.62 6 11 C3.69 11 1.38 11 -1 11 C-1 13.31 -1 15.62 -1 18 C-3.31 18 -5.62 18 -8 18 C-8 19.65 -8 21.3 -8 23 C-11.96 23 -15.92 23 -20 23 C-20 22.01 -20 21.02 -20 20 C-18.02 20 -16.04 20 -14 20 C-14 17.69 -14 15.38 -14 13 C-11.69 13 -9.38 13 -7 13 C-7 10.69 -7 8.38 -7 6 C-4.69 6 -2.38 6 0 6 C0 4.02 0 2.04 0 0 Z " fill="#DE9FBD" transform="translate(67,128)"/>
<path d="M0 0 C8.91 0 17.82 0 27 0 C27 8.91 27 17.82 27 27 C25.35 27 23.7 27 22 27 C22 28.98 22 30.96 22 33 C11.77 33 1.54 33 -9 33 C-9 32.67 -9 32.34 -9 32 C0.9 32 10.8 32 21 32 C21 22.1 21 12.2 21 2 C14.07 2 7.14 2 0 2 C0 1.34 0 0.68 0 0 Z " fill="#DE3837" transform="translate(84,155)"/>
<path d="M0 0 C2.31 0 4.62 0 7 0 C7 6.6 7 13.2 7 20 C12.94 20 18.88 20 25 20 C25 21.32 25 22.64 25 24 C16.75 24 8.5 24 0 24 C0 16.08 0 8.16 0 0 Z " fill="#F4DEDE" transform="translate(103,28)"/>
<path d="M0 0 C4.10328564 1.02582141 4.68503277 1.32572116 7.1875 4.375 C7.69667969 4.98085938 8.20585937 5.58671875 8.73046875 6.2109375 C11.40065949 9.97385245 11.30297523 13.53111529 11 18 C9.11327126 23.24091316 6.40227139 25.81537814 2 29 C1.34 29 0.68 29 0 29 C0 19.43 0 9.86 0 0 Z " fill="#EEEEEE" transform="translate(0,13)"/>
<path d="M0 0 C10.56 0 21.12 0 32 0 C27.69987849 7.16686918 27.69987849 7.16686918 22.6328125 8.73046875 C10.66144593 10.9121664 10.66144593 10.9121664 5.8125 8.25 C3.34386814 6.27509451 1.6163061 4.69384349 0 2 C0 1.34 0 0.68 0 0 Z " fill="#13151B" transform="translate(60,0)"/>
<path d="M0 0 C9.24 0 18.48 0 28 0 C28 1.32 28 2.64 28 4 C20.41 4 12.82 4 5 4 C5 11.92 5 19.84 5 28 C3.35 28 1.7 28 0 28 C0 18.76 0 9.52 0 0 Z " fill="#F53B3A" transform="translate(17,59)"/>
<path d="M0 0 C7.26 0 14.52 0 22 0 C22 0.99 22 1.98 22 3 C23.65 3 25.3 3 27 3 C27 4.32 27 5.64 27 7 C23.7 7 20.4 7 17 7 C17 7.66 17 8.32 17 9 C9.41 9 1.82 9 -6 9 C-6 8.01 -6 7.02 -6 6 C-2.7 6 0.6 6 4 6 C4 5.01 4 4.02 4 3 C2.68 3 1.36 3 0 3 C0 2.01 0 1.02 0 0 Z " fill="#93DBD6" transform="translate(137,170)"/>
<path d="M0 0 C3.5677811 2.35149209 5.84221079 4.99692157 7.75 8.8125 C7.81996014 10.51952735 7.83440154 12.22918003 7.8125 13.9375 C7.80347656 14.84757812 7.79445312 15.75765625 7.78515625 16.6953125 C7.77355469 17.39398438 7.76195312 18.09265625 7.75 18.8125 C6.43 19.1425 5.11 19.4725 3.75 19.8125 C3.79640625 19.07644531 3.8428125 18.34039062 3.890625 17.58203125 C4.20105596 11.34002158 4.20105596 11.34002158 1.875 5.6875 C-1.73058078 2.50610519 -4.33541419 2.53743633 -8.9921875 2.58984375 C-12.05267911 2.89165694 -13.88453205 3.87711713 -16.25 5.8125 C-18.53062828 9.23344242 -18.46925007 10.49437222 -18.375 14.5 C-18.35695313 15.49386719 -18.33890625 16.48773438 -18.3203125 17.51171875 C-18.29710938 18.27097656 -18.27390625 19.03023437 -18.25 19.8125 C-20.89 19.8125 -23.53 19.8125 -26.25 19.8125 C-26.66981564 13.72517324 -26.41672773 10.60423689 -22.25 5.8125 C-15.39230412 -0.07932322 -8.99687165 -3.28731849 0 0 Z " fill="#1A1B1D" transform="translate(85.25,201.1875)"/>
<path d="M0 0 C1.98 0 3.96 0 6 0 C6 7.26 6 14.52 6 22 C12.27 22 18.54 22 25 22 C25 22.99 25 23.98 25 25 C16.75 25 8.5 25 0 25 C0 16.75 0 8.5 0 0 Z " fill="#EFE4E4" transform="translate(78,160)"/>
<path d="M0 0 C1.32 0 2.64 0 4 0 C4 8.25 4 16.5 4 25 C-3.92 25 -11.84 25 -20 25 C-20 23.68 -20 22.36 -20 21 C-13.4 21 -6.8 21 0 21 C0 14.07 0 7.14 0 0 Z " fill="#F3EBEA" transform="translate(45,66)"/>
<path d="M0 0 C5.11280275 1.84060899 8.10397971 4.40043837 11 9 C11.83892492 13.48745688 11.50104138 16.93256401 9.5625 21.0625 C9.046875 21.701875 8.53125 22.34125 8 23 C7.67 23 7.34 23 7 23 C6.98582031 22.34773438 6.97164062 21.69546875 6.95703125 21.0234375 C6.6075929 14.62021592 5.79305116 11.35731923 1 7 C-3.06805083 4.69110628 -7.41198688 4.46657761 -12 4 C-8.11952573 -0.05685946 -5.67663103 -0.37844207 0 0 Z " fill="#0C66B1" transform="translate(174,120)"/>
<path d="M0 0 C9.57 0 19.14 0 29 0 C29 8.58 29 17.16 29 26 C28.34 26.33 27.68 26.66 27 27 C27 18.75 27 10.5 27 2 C18.75 2 10.5 2 2 2 C2 9.92 2 17.84 2 26 C1.67 26 1.34 26 1 26 C-0.01463922 17.28497384 -0.08038401 8.76185714 0 0 Z " fill="#0C0303" transform="translate(101,25)"/>
<path d="M0 0 C1.44375 0.12375 2.8875 0.2475 4.375 0.375 C5.59316406 0.47941406 5.59316406 0.47941406 6.8359375 0.5859375 C9 1 9 1 11 3 C11.67911715 10.13073005 11.67911715 10.13073005 9.4375 13 C7 14 7 14 0 14 C0 9.38 0 4.76 0 0 Z " fill="#292929" transform="translate(61,241)"/>
<path d="M0 0 C1.32 0 2.64 0 4 0 C5.14724086 12.00505617 5.1063689 23.95249476 5 36 C4.01 36 3.02 36 2 36 C2 31.38 2 26.76 2 22 C1.34 22 0.68 22 0 22 C0 14.74 0 7.48 0 0 Z " fill="#74C2BB" transform="translate(23,116)"/>
<path d="M0 0 C0.99 0 1.98 0 3 0 C3 1.98 3 3.96 3 6 C5.31 6 7.62 6 10 6 C10 8.31 10 10.62 10 13 C12.31 13 14.62 13 17 13 C17 14.65 17 16.3 17 18 C13.37 18 9.74 18 6 18 C6 16.35 6 14.7 6 13 C4.02 13 2.04 13 0 13 C0 8.71 0 4.42 0 0 Z " fill="#C69AB0" transform="translate(158,203)"/>
<path d="M0 0 C7.92 0 15.84 0 24 0 C24 8.25 24 16.5 24 25 C22.68 25 21.36 25 20 25 C20 17.41 20 9.82 20 2 C13.07 2 6.14 2 -1 2 C-0.67 1.34 -0.34 0.68 0 0 Z " fill="#FF2526" transform="translate(112,22)"/>
<path d="M0 0 C6.93 0 13.86 0 21 0 C21 9.9 21 19.8 21 30 C11.43 30 1.86 30 -8 30 C-8 28.35 -8 26.7 -8 25 C-7.67 25.99 -7.34 26.98 -7 28 C1.58 28 10.16 28 19 28 C18.96044452 19.86251556 18.96044452 19.86251556 18.90991211 11.72509766 C18.90741455 10.71495605 18.90491699 9.70481445 18.90234375 8.6640625 C18.89448853 7.10872803 18.89448853 7.10872803 18.88647461 5.52197266 C19 3 19 3 20 1 C13.4 1 6.8 1 0 1 C0 0.67 0 0.34 0 0 Z " fill="#170001" transform="translate(84,157)"/>
<path d="M0 0 C1.01587057 1.99164099 1.98941091 3.9749231 2.859375 6.03515625 C4.4677636 9.69635662 5.48821614 11.65510218 8.875 13.9375 C11.93242609 14.97702487 14.79643227 15.61862289 18 16 C16.29603331 18.09933151 15.39392968 18.92588781 12.6953125 19.43359375 C8.43633316 19.44006636 5.74442286 19.43424667 2 17.25 C-1.10061165 13.76181189 -2.10551236 11.58660232 -2.25 6.9375 C-2 3 -2 3 0 0 Z " fill="#E5ECEF" transform="translate(156,132)"/>
<path d="M0 0 C2.89852365 1.31307372 4.98277217 2.72684638 7.234375 4.96875 C8.09482422 5.82533203 8.09482422 5.82533203 8.97265625 6.69921875 C9.85244141 7.59060547 9.85244141 7.59060547 10.75 8.5 C11.35199219 9.09425781 11.95398438 9.68851563 12.57421875 10.30078125 C13.14269531 10.87183594 13.71117187 11.44289062 14.296875 12.03125 C14.81604492 12.55267578 15.33521484 13.07410156 15.87011719 13.61132812 C17 15 17 15 17 17 C14.11788698 17.96070434 12.30149956 18.10581883 9.3125 18.0625 C8.10013672 18.04896484 8.10013672 18.04896484 6.86328125 18.03515625 C6.24839844 18.02355469 5.63351563 18.01195312 5 18 C7 16.66666667 9 15.33333333 11 14 C9.71142987 12.68445979 8.41904109 11.37265903 7.125 10.0625 C6.40570313 9.33160156 5.68640625 8.60070312 4.9453125 7.84765625 C3.12972808 5.94332001 3.12972808 5.94332001 1 5 C0.86722656 5.60328125 0.73445313 6.2065625 0.59765625 6.828125 C0.33275391 8.02695313 0.33275391 8.02695313 0.0625 9.25 C-0.11152344 10.03890625 -0.28554687 10.8278125 -0.46484375 11.640625 C-0.947556 13.76878703 -1.46163178 15.88532842 -2 18 C-2.99 18 -3.98 18 -5 18 C-4.42934122 11.58008874 -2.32655091 5.98410537 0 0 Z " fill="#19170C" transform="translate(122,203)"/>
<path d="M0 0 C1.23556641 0.01740234 1.23556641 0.01740234 2.49609375 0.03515625 C3.32238281 0.04417969 4.14867188 0.05320313 5 0.0625 C5.63808594 0.07410156 6.27617188 0.08570313 6.93359375 0.09765625 C7.01466958 2.03446786 7.0728185 3.97224965 7.12109375 5.91015625 C7.15589844 6.98910156 7.19070312 8.06804687 7.2265625 9.1796875 C6.93359375 12.09765625 6.93359375 12.09765625 5.62109375 14.00390625 C3.93359375 15.09765625 3.93359375 15.09765625 0.74609375 14.78515625 C-0.18203125 14.55828125 -1.11015625 14.33140625 -2.06640625 14.09765625 C-2.06640625 13.10765625 -2.06640625 12.11765625 -2.06640625 11.09765625 C0.90359375 11.59265625 0.90359375 11.59265625 3.93359375 12.09765625 C3.93359375 11.43765625 3.93359375 10.77765625 3.93359375 10.09765625 C3.14984375 10.13890625 2.36609375 10.18015625 1.55859375 10.22265625 C-1.06640625 10.09765625 -1.06640625 10.09765625 -3.06640625 8.09765625 C-3.25390625 4.53515625 -3.25390625 4.53515625 -3.06640625 1.09765625 C-2.06640625 0.09765625 -2.06640625 0.09765625 0 0 Z " fill="#424242" transform="translate(104.06640625,244.90234375)"/>
<path d="M0 0 C2.64 0 5.28 0 8 0 C8 2.31 8 4.62 8 7 C10.31 7 12.62 7 15 7 C15 9.31 15 11.62 15 14 C17.31 14 19.62 14 22 14 C22 16.64 22 19.28 22 22 C21.01 22 20.02 22 19 22 C19 20.35 19 18.7 19 17 C16.69 17 14.38 17 12 17 C12 14.69 12 12.38 12 10 C9.69 10 7.38 10 5 10 C5 7.69 5 5.38 5 3 C3.35 3 1.7 3 0 3 C0 2.01 0 1.02 0 0 Z " fill="#3C3C3C" transform="translate(112,80)"/>
<path d="M0 0 C-0.53625 0.391875 -1.0725 0.78375 -1.625 1.1875 C-7.43089858 5.21086578 -7.43089858 5.21086578 -11 11 C-11.29098034 16.04936467 -11.31036161 21.08614397 -10 26 C-13.73456644 23.34649227 -15.85100903 21.49151015 -17 17 C-17.45659831 12.81451546 -17.29820536 10.58494127 -15.375 6.8125 C-10.74589003 1.33065925 -7.21823593 -0.57745887 0 0 Z " fill="#0463B1" transform="translate(84,83)"/>
<path d="M0 0 C2.49551158 2.49551158 3.07575992 4.66076626 4.1875 8 C4.55230469 9.0725 4.91710937 10.145 5.29296875 11.25 C6 14 6 14 5 16 C0.05 14.35 -4.9 12.7 -10 11 C-8.32894169 5.98682507 -4.23448114 2.97982006 0 0 Z " fill="#EBEBE0" transform="translate(169,31)"/>
<path d="M0 0 C1.08839774 0.88967344 2.17044608 1.78711574 3.25 2.6875 C4.15492187 3.43580078 4.15492187 3.43580078 5.078125 4.19921875 C7.3109424 6.2913505 9.13539658 8.57849069 11 11 C8.70967689 11.83719383 6.41789043 12.6698929 4.125 13.5 C3.47402344 13.73847656 2.82304688 13.97695313 2.15234375 14.22265625 C-2.7734375 16 -2.7734375 16 -5 16 C-4.54548816 14.26982492 -4.08621143 12.54090123 -3.625 10.8125 C-3.36976562 9.84957031 -3.11453125 8.88664062 -2.8515625 7.89453125 C-2.05233704 5.17789793 -1.0968638 2.60862825 0 0 Z " fill="#E7E7E5" transform="translate(37,27)"/>
<path d="M0 0 C0.5775 0.33 1.155 0.66 1.75 1 C4.19883862 2.27075898 4.19883862 2.27075898 8 2 C10.20067421 1.06716704 10.20067421 1.06716704 12 0 C12.99 0.99 13.98 1.98 15 3 C16.98 2.34 18.96 1.68 21 1 C20.6875 2.9375 20.6875 2.9375 20 5 C19.01 5.33 18.02 5.66 17 6 C17 6.66 17 7.32 17 8 C16.4225 7.67 15.845 7.34 15.25 7 C12.80116138 5.72924102 12.80116138 5.72924102 9 6 C6.79932579 6.93283296 6.79932579 6.93283296 5 8 C4.01 7.01 3.02 6.02 2 5 C1.13375 5.495 1.13375 5.495 0.25 6 C-2 7 -2 7 -6 7 C-9 3.78571429 -9 3.78571429 -9 1 C-7.68 1.33 -6.36 1.66 -5 2 C-5 2.66 -5 3.32 -5 4 C-3.35 2.68 -1.7 1.36 0 0 Z " fill="#171616" transform="translate(24,170)"/>
<path d="M0 0 C-1.58921525 5.36095277 -3.18972938 10.70843973 -5 16 C-6.08839774 15.11032656 -7.17044608 14.21288426 -8.25 13.3125 C-8.85328125 12.81363281 -9.4565625 12.31476563 -10.078125 11.80078125 C-12.3109424 9.7086495 -14.13539658 7.42150931 -16 5 C-13.70967689 4.16280617 -11.41789043 3.3301071 -9.125 2.5 C-8.47402344 2.26152344 -7.82304688 2.02304688 -7.15234375 1.77734375 C-2.2265625 0 -2.2265625 0 0 0 Z " fill="#DEDCD1" transform="translate(125,125)"/>
<path d="M0 0 C-0.66 1.98 -1.32 3.96 -2 6 C-1.01 6.99 -0.02 7.98 1 9 C0.67 9.5775 0.34 10.155 0 10.75 C-1.27075898 13.19883862 -1.27075898 13.19883862 -1 17 C-0.06716704 19.20067421 -0.06716704 19.20067421 1 21 C0.01 21.66 -0.98 22.32 -2 23 C-1.835 23.598125 -1.67 24.19625 -1.5 24.8125 C-1 27 -1 27 -1 30 C-3.62187494 28.95125002 -4.79371361 28.35068687 -6.25 25.875 C-6.4975 25.25625 -6.745 24.6375 -7 24 C-6.01 22.515 -6.01 22.515 -5 21 C-4.34 21 -3.68 21 -3 21 C-4.32 19.35 -5.64 17.7 -7 16 C-6.67 15.4225 -6.34 14.845 -6 14.25 C-4.72924102 11.80116138 -4.72924102 11.80116138 -5 8 C-5.93283296 5.79932579 -5.93283296 5.79932579 -7 4 C-3.375 0 -3.375 0 0 0 Z " fill="#171415" transform="translate(80,23)"/>
<path d="M0 0 C2.6245228 0.99550865 3.95028727 1.93963454 5.75 4.125 C7.35893408 7.82554839 7.68685943 11.06406394 7 15 C4.59743191 19.89754264 2.11158745 22.122274 -3 24 C-5.875 24.1875 -5.875 24.1875 -8 24 C-8 23.34 -8 22.68 -8 22 C-7.071875 21.5875 -6.14375 21.175 -5.1875 20.75 C-1.28659614 18.61455295 -1.28659614 18.61455295 1 15 C2.25389646 9.52465212 2.2854133 5.24300698 0 0 Z " fill="#E4E9EC" transform="translate(92,88)"/>
<path d="M0 0 C4.95 1.65 9.9 3.3 15 5 C15.33 7.31 15.66 9.62 16 12 C15.46632812 11.81824219 14.93265625 11.63648438 14.3828125 11.44921875 C8.62408217 9.5063945 2.83006078 7.71615568 -3 6 C-1.125 1.125 -1.125 1.125 0 0 Z " fill="#FCFA3D" transform="translate(158,44)"/>
<path d="M0 0 C0.99 0 1.98 0 3 0 C4.14724086 12.00505617 4.1063689 23.95249476 4 36 C3.34 36 2.68 36 2 36 C2 31.71 2 27.42 2 23 C1.34 23 0.68 23 0 23 C0 15.41 0 7.82 0 0 Z " fill="#335F5B" transform="translate(30,107)"/>
<path d="M0 0 C0.66 0.33 1.32 0.66 2 1 C1.01 1.8971875 1.01 1.8971875 0 2.8125 C-2.90454381 7.44161669 -2.33587245 11.67268974 -2 17 C-4.64 17 -7.28 17 -10 17 C-10.31774533 12.3926927 -10.42909733 9.8746984 -8.375 5.6875 C-5.77166691 2.74162308 -3.67473325 1.35805359 0 0 Z " fill="#020E1F" transform="translate(69,204)"/>
<path d="M0 0 C1.98 0 3.96 0 6 0 C4.95518663 6.70880162 3.30199356 12.0564116 0 18 C-1.65 17.67 -3.3 17.34 -5 17 C-1.92482916 5.47835991 -1.92482916 5.47835991 0 0 Z " fill="#F2F152" transform="translate(127,126)"/>
<path d="M0 0 C0.99 0 1.98 0 3 0 C4.46560818 10.93971819 4.09470423 21.98954106 4 33 C3.34 33 2.68 33 2 33 C2 29.7 2 26.4 2 23 C1.34 23 0.68 23 0 23 C0 15.41 0 7.82 0 0 Z " fill="#325A57" transform="translate(157,76)"/>
<path d="M0 0 C0.33 0 0.66 0 1 0 C1.04898438 0.84304687 1.09796875 1.68609375 1.1484375 2.5546875 C1.22320312 3.65039062 1.29796875 4.74609375 1.375 5.875 C1.44460937 6.96554688 1.51421875 8.05609375 1.5859375 9.1796875 C1.73253491 12.13046474 1.73253491 12.13046474 4 14 C4 14.99 4 15.98 4 17 C10.6 17 17.2 17 24 17 C24 17.99 24 18.98 24 20 C16.08 20 8.16 20 0 20 C0 13.4 0 6.8 0 0 Z " fill="#F5F6F6" transform="translate(104,32)"/>
<path d="M0 0 C3.17225278 0.10938803 4.27846994 1.24608971 6.6875 3.375 C9.87489059 6.99311905 10.41449141 10.01195692 10.34375 14.8046875 C9.70903685 18.85819645 7.69820776 21.96713081 5 25 C1.6875 27 1.6875 27 -1 28 C-1 27.34 -1 26.68 -1 26 C-1.66 25.67 -2.32 25.34 -3 25 C-2.071875 24.608125 -1.14375 24.21625 -0.1875 23.8125 C3.36991639 21.78965539 4.49294801 20.76762999 6 17 C6.57811023 12.47605804 6.53057511 7.91088881 4 4 C0.97017694 2.62810173 0.97017694 2.62810173 -2 2 C-1.34 1.34 -0.68 0.68 0 0 Z " fill="#191A1C" transform="translate(92,86)"/>
<path d="M0 0 C0 0.99 0 1.98 0 3 C-0.66 3 -1.32 3 -2 3 C-2.268125 3.639375 -2.53625 4.27875 -2.8125 4.9375 C-4 7 -4 7 -7 8 C-7.30164062 8.90878906 -7.60328125 9.81757813 -7.9140625 10.75390625 C-9.14713137 14.43980637 -10.64214055 16.20918018 -13.375 18.9375 C-14.53128906 20.12666016 -14.53128906 20.12666016 -15.7109375 21.33984375 C-18 23 -18 23 -20.2890625 22.75390625 C-20.85367187 22.50511719 -21.41828125 22.25632813 -22 22 C-20.69791667 20.50260417 -19.39583333 19.00520833 -18.09375 17.5078125 C-16.80427542 16.04063579 -16.80427542 16.04063579 -17 14 C-15.49609375 12.51953125 -15.49609375 12.51953125 -13.4375 10.8125 C-9.89003826 7.81322507 -6.63477128 4.66004868 -3.4453125 1.28515625 C-2 0 -2 0 0 0 Z " fill="#67CEC3" transform="translate(41,198)"/>
<path d="M0 0 C4.94515667 2.62711448 8.87775489 6.26645294 13 10 C12.67 11.32 12.34 12.64 12 14 C10.8944811 13.06409496 9.79064547 12.12620142 8.6875 11.1875 C8.07261719 10.66542969 7.45773438 10.14335937 6.82421875 9.60546875 C5.14575321 8.12827531 3.56117966 6.59960869 2 5 C0.11304374 9.28853694 -1.58192622 13.52761347 -3 18 C-3.99 18 -4.98 18 -6 18 C-5.43039304 12.73113562 -3.894811 3.894811 0 0 Z " fill="#ECEB58" transform="translate(35,18)"/>
<path d="M0 0 C6.93 0 13.86 0 21 0 C17 5 17 5 15 6 C10.65915473 6.44346553 7.02668978 6.44917678 3 4.6875 C1 3 1 3 0 0 Z " fill="#2374BA" transform="translate(68,0)"/>
<path d="M0 0 C2.89614093 1.3737342 4.74393232 2.74393232 7 5 C7.99 5.33 8.98 5.66 10 6 C11.75 8.375 11.75 8.375 13 11 C12.67 11.99 12.34 12.98 12 14 C11.37351563 13.36191406 10.74703125 12.72382813 10.1015625 12.06640625 C9.28429687 11.24011719 8.46703125 10.41382813 7.625 9.5625 C6.81289062 8.73878906 6.00078125 7.91507813 5.1640625 7.06640625 C3.17651485 4.96565328 3.17651485 4.96565328 1 4 C0.89042969 4.58007812 0.78085938 5.16015625 0.66796875 5.7578125 C-0.3143365 10.59746277 -1.54821911 14.65366116 -4 19 C-4.66 19 -5.32 19 -6 19 C-5.00944361 11.90970159 -3.53531978 6.24573162 0 0 Z " fill="#EEED5A" transform="translate(121,199)"/>
<path d="M0 0 C0.66 0.33 1.32 0.66 2 1 C1.505 1.99 1.01 2.98 0.5 4 C-1.30491005 8.27478696 -1.51455239 11.36902849 -1 16 C0.25 19.5 0.25 19.5 3 22 C5.96178177 23.06032807 8.88332819 23.6137458 12 24 C12 24.33 12 24.66 12 25 C10.35 25 8.7 25 7 25 C7 25.66 7 26.32 7 27 C1.31417757 25.67771571 -0.7161093 23.59744698 -4 19 C-5.48855749 14.53432752 -6.14767116 9.51965987 -4.140625 5.11328125 C-2.90834657 3.26932839 -1.57086336 1.57086336 0 0 Z " fill="#1E1E1F" transform="translate(156,127)"/>
<path d="M0 0 C3.45152861 0.25566879 4.24488569 1.26197074 6.6875 3.875 C10.01774891 8.37533636 10.37429547 11.47914179 10 17 C8.1090817 22.25255082 5.33055443 24.72802554 1 28 C0.67 26.68 0.34 25.36 0 24 C1.2065625 23.1028125 1.2065625 23.1028125 2.4375 22.1875 C5.88053529 19.24832354 5.95078524 17.61026298 6.3125 13.125 C6.28213286 9.82712823 5.99760714 8.99625119 4.125 6.0625 C2.17402388 3.96116416 2.17402388 3.96116416 0 3 C0 2.01 0 1.02 0 0 Z " fill="#1E1E1E" transform="translate(1,14)"/>
<path d="M0 0 C0.66 0 1.32 0 2 0 C2 2.97 2 5.94 2 9 C-0.31 9 -2.62 9 -5 9 C-5 10.98 -5 12.96 -5 15 C-7.31 15 -9.62 15 -12 15 C-12 17.31 -12 19.62 -12 22 C-14.64 22 -17.28 22 -20 22 C-20 21.34 -20 20.68 -20 20 C-18.02 20 -16.04 20 -14 20 C-14 17.69 -14 15.38 -14 13 C-11.69 13 -9.38 13 -7 13 C-7 10.69 -7 8.38 -7 6 C-4.69 6 -2.38 6 0 6 C0 4.02 0 2.04 0 0 Z " fill="#040303" transform="translate(67,128)"/>
<path d="M0 0 C-0.57215828 3.24455611 -1.43595909 4.74721699 -3.875 6.9375 C-5.82363284 8.77992773 -7.10371743 10.17286238 -8.5 12.5 C-9.84593139 14.74321899 -11.17143076 16.46359339 -12.9375 18.375 C-13.42089844 18.89835937 -13.90429688 19.42171875 -14.40234375 19.9609375 C-16 21 -16 21 -18.19140625 20.6640625 C-18.78824219 20.44492188 -19.38507812 20.22578125 -20 20 C-19.566875 19.608125 -19.13375 19.21625 -18.6875 18.8125 C-16.91176525 17.0519693 -16.91176525 17.0519693 -15.7734375 14.78125 C-13.54755821 11.29044371 -10.8752304 8.58301152 -7.9375 5.6875 C-7.39544922 5.13771484 -6.85339844 4.58792969 -6.29492188 4.02148438 C-2.25345497 0 -2.25345497 0 0 0 Z " fill="#69CAC2" transform="translate(30,200)"/>
<path d="M0 0 C0.99 0 1.98 0 3 0 C3 0.99 3 1.98 3 3 C3.99 3.33 4.98 3.66 6 4 C5.0919838 5.13199353 4.17316174 6.25532363 3.25 7.375 C2.73953125 8.00148437 2.2290625 8.62796875 1.703125 9.2734375 C-0.08199481 11.08312318 -1.67949644 12.00117455 -4 13 C-3.67 13.99 -3.34 14.98 -3 16 C-5.31 17.98 -7.62 19.96 -10 22 C-10.33 20.68 -10.66 19.36 -11 18 C-9.25 16.0625 -9.25 16.0625 -7 14 C-6.525625 13.195625 -6.05125 12.39125 -5.5625 11.5625 C-3.74391153 8.5800149 -1.46212012 6.46212012 1 4 C1.33 3.01 1.66 2.02 2 1 C1.34 0.67 0.68 0.34 0 0 Z " fill="#DEF4F2" transform="translate(28,199)"/>
<path d="M0 0 C7.76785714 -0.66964286 7.76785714 -0.66964286 11.4375 2.375 C14.95826377 5.98163606 14.95826377 5.98163606 15.09765625 9.3828125 C15.08605469 10.28773438 15.07445313 11.19265625 15.0625 12.125 C15.05347656 13.03507813 15.04445313 13.94515625 15.03515625 14.8828125 C15.02355469 15.58148438 15.01195313 16.28015625 15 17 C13.68 17 12.36 17 11 17 C10.98582031 16.40832031 10.97164062 15.81664062 10.95703125 15.20703125 C10.69647397 10.89023098 10.4418354 8.57684066 7.75 5.0625 C5.18507257 3.13880443 3.04467519 1.95689792 0 1 C0 0.67 0 0.34 0 0 Z " fill="#DDE6EB" transform="translate(75,203)"/>
<path d="M0 0 C1.98 1.32 3.96 2.64 6 4 C5.01 4.495 5.01 4.495 4 5 C4 5.66 4 6.32 4 7 C4.66 7 5.32 7 6 7 C5.505 7.86625 5.505 7.86625 5 8.75 C3.72924102 11.19883862 3.72924102 11.19883862 4 15 C4 16.32 4 17.64 4 19 C3.34 19 2.68 19 2 19 C0.61767557 17.37373596 -0.71937515 15.7074998 -2 14 C-1.505 13.1028125 -1.505 13.1028125 -1 12.1875 C0.20787988 9.94613529 0.20787988 9.94613529 0 7 C-1.43990623 4.82967524 -1.43990623 4.82967524 -3 3 C-2.01 2.01 -1.02 1.02 0 0 Z " fill="#E7A2C4" transform="translate(73,49)"/>
<path d="M0 0 C3.0625 0.1875 3.0625 0.1875 5.0625 2.1875 C5.0625 3.5075 5.0625 4.8275 5.0625 6.1875 C3.0825 6.5175 1.1025 6.8475 -0.9375 7.1875 C0.7125 7.1875 2.3625 7.1875 4.0625 7.1875 C3.7325 8.1775 3.4025 9.1675 3.0625 10.1875 C0.1875 10.375 0.1875 10.375 -2.9375 10.1875 C-4.9375 7.1875 -4.9375 7.1875 -4.625 4.0625 C-3.71016322 0.23681893 -3.71016322 0.23681893 0 0 Z " fill="#444444" transform="translate(78.9375,244.8125)"/>
<path d="M0 0 C0.66 0 1.32 0 2 0 C2.66 2.97 3.32 5.94 4 9 C1.69 9 -0.62 9 -3 9 C-3 10.65 -3 12.3 -3 14 C-6.96 14 -10.92 14 -15 14 C-15 13.67 -15 13.34 -15 13 C-12.36 13 -9.72 13 -7 13 C-7 10.69 -7 8.38 -7 6 C-4.69 6 -2.38 6 0 6 C0 4.02 0 2.04 0 0 Z " fill="#C394AB" transform="translate(62,137)"/>
<path d="M0 0 C0.66 0 1.32 0 2 0 C2.33 4.95 2.66 9.9 3 15 C4.98 15 6.96 15 9 15 C9 15.66 9 16.32 9 17 C11.97 17 14.94 17 18 17 C18 17.66 18 18.32 18 19 C12.06 19 6.12 19 0 19 C0 12.73 0 6.46 0 0 Z " fill="#FE2720" transform="translate(26,67)"/>
<path d="M0 0 C7.59 0 15.18 0 23 0 C23 0.66 23 1.32 23 2 C16.07 2 9.14 2 2 2 C1.67 8.93 1.34 15.86 1 23 C0.67 23 0.34 23 0 23 C0 15.41 0 7.82 0 0 Z " fill="#140001" transform="translate(22,64)"/>
<path d="M0 0 C3.3 0 6.6 0 10 0 C10 1.65 10 3.3 10 5 C12.31 5 14.62 5 17 5 C17 7.97 17 10.94 17 14 C16.01 14 15.02 14 14 14 C14 12.02 14 10.04 14 8 C11.69 8 9.38 8 7 8 C7 5.69 7 3.38 7 1 C4.69 1 2.38 1 0 1 C0 0.67 0 0.34 0 0 Z " fill="#272426" transform="translate(164,0)"/>
<path d="M0 0 C0.99 0 1.98 0 3 0 C3 7.59 3 15.18 3 23 C2.01 23 1.02 23 0 23 C0 15.41 0 7.82 0 0 Z " fill="#161818" transform="translate(17,110)"/>
<path d="M0 0 C0.99 0 1.98 0 3 0 C3 7.59 3 15.18 3 23 C2.01 23 1.02 23 0 23 C0 15.41 0 7.82 0 0 Z " fill="#6ACEC3" transform="translate(152,81)"/>
<path d="M0 0 C7.26 0 14.52 0 22 0 C22 0.99 22 1.98 22 3 C14.74 3 7.48 3 0 3 C0 2.01 0 1.02 0 0 Z " fill="#1A1C1D" transform="translate(136,180)"/>
<path d="M0 0 C7.26 0 14.52 0 22 0 C22 0.99 22 1.98 22 3 C14.74 3 7.48 3 0 3 C0 2.01 0 1.02 0 0 Z " fill="#111616" transform="translate(142,174)"/>
<path d="M0 0 C0.99 0 1.98 0 3 0 C3 7.26 3 14.52 3 22 C2.01 22 1.02 22 0 22 C0 14.74 0 7.48 0 0 Z " fill="#292929" transform="translate(23,116)"/>
<path d="M0 0 C0.99 0 1.98 0 3 0 C3 7.26 3 14.52 3 22 C2.01 22 1.02 22 0 22 C0 14.74 0 7.48 0 0 Z " fill="#0D1413" transform="translate(163,82)"/>
<path d="M0 0 C0.99 0 1.98 0 3 0 C3 7.26 3 14.52 3 22 C2.01 22 1.02 22 0 22 C0 14.74 0 7.48 0 0 Z " fill="#252525" transform="translate(169,73)"/>
<path d="M0 0 C0.33 0.99 0.66 1.98 1 3 C9.58 3 18.16 3 27 3 C27 2.34 27 1.68 27 1 C27.66 1 28.32 1 29 1 C29 2.32 29 3.64 29 5 C19.43 5 9.86 5 0 5 C0 3.35 0 1.7 0 0 Z " fill="#020202" transform="translate(76,182)"/>
<path d="M0 0 C0.33 0.99 0.66 1.98 1 3 C4.96 3 8.92 3 13 3 C13 3.66 13 4.32 13 5 C5.41 5 -2.18 5 -10 5 C-10 4.01 -10 3.02 -10 2 C-6.7 2 -3.4 2 0 2 C0 1.34 0 0.68 0 0 Z " fill="#77CDC5" transform="translate(141,174)"/>
<path d="M0 0 C0.66 0.33 1.32 0.66 2 1 C2.625 4.0625 2.625 4.0625 3 7 C1.33333333 7 -0.33333333 7 -2 7 C-3.2065625 8.2375 -3.2065625 8.2375 -4.4375 9.5 C-7 12 -7 12 -10 12 C-9.75 10.125 -9.75 10.125 -9 8 C-7.67532254 7.3162955 -6.34136367 6.65035814 -5 6 C-4.30062468 4.68352881 -3.63270867 3.34977849 -3 2 C-2.01 1.34 -1.02 0.68 0 0 Z " fill="#171617" transform="translate(170,26)"/>
<path d="M0 0 C4.75 0.75 4.75 0.75 7 3 C6.67028521 6.29714793 6.3773161 7.6226839 4 10 C2.68 10 1.36 10 0 10 C0 6.7 0 3.4 0 0 Z " fill="#EAEAEA" transform="translate(63,243)"/>
<path d="M0 0 C2.31 1.98 4.62 3.96 7 6 C6.67 7.32 6.34 8.64 6 10 C3 11 3 11 0 11 C-2 8 -2 8 -1.6875 4.9375 C-1 2 -1 2 0 0 Z " fill="#F5F4DC" transform="translate(37,27)"/>
<path d="M0 0 C5.61 0 11.22 0 17 0 C13.81099544 2.12600304 11.09585431 3.02136239 7.4375 4.125 C5.70306641 4.65480469 5.70306641 4.65480469 3.93359375 5.1953125 C1 6 1 6 -1 6 C-0.67 4.02 -0.34 2.04 0 0 Z " fill="#5B5B5B" transform="translate(116,0)"/>
<path d="M0 0 C0.66 0 1.32 0 2 0 C2 7.26 2 14.52 2 22 C1.01 22 0.02 22 -1 22 C-1.10331031 14.57313685 -0.99862699 7.36487404 0 0 Z " fill="#66CABF" transform="translate(20,124)"/>
<path d="M0 0 C1.87620422 3.16609462 2.09662822 5.35832401 2 9 C0.3743193 8.69106068 -1.25052748 8.3777305 -2.875 8.0625 C-3.77992188 7.88847656 -4.68484375 7.71445312 -5.6171875 7.53515625 C-8 7 -8 7 -10 6 C-9.67 5.01 -9.34 4.02 -9 3 C-8.67 3.66 -8.34 4.32 -8 5 C-7.05125 4.175 -6.1025 3.35 -5.125 2.5 C-2.25 0 -2.25 0 0 0 Z " fill="#E8E969" transform="translate(169,36)"/>
<path d="M0 0 C0.99 0.33 1.98 0.66 3 1 C2.38511719 1.68835938 2.38511719 1.68835938 1.7578125 2.390625 C1.21898437 3.00421875 0.68015625 3.6178125 0.125 4.25 C-0.40867187 4.85328125 -0.94234375 5.4565625 -1.4921875 6.078125 C-2.98806867 7.98479219 -3.96187373 9.81906245 -5 12 C-5.99 13.485 -5.99 13.485 -7 15 C-10.125 15.1875 -10.125 15.1875 -13 15 C-8.70214922 9.96836982 -4.36574458 4.97281557 0 0 Z " fill="#4E9D95" transform="translate(39,206)"/>
<path d="M0 0 C1.98 1.32 3.96 2.64 6 4 C7.32 3.01 8.64 2.02 10 1 C10 2.32 10 3.64 10 5 C7.5 7.25 7.5 7.25 5 9 C3.35 7.68 1.7 6.36 0 5 C-0.99 5.99 -1.98 6.98 -3 8 C-3.99 7.67 -4.98 7.34 -6 7 C-5.01 6.34 -4.02 5.68 -3 5 C-1.94895617 3.36504293 -0.94011682 1.70116376 0 0 Z " fill="#E19DBE" transform="translate(47,169)"/>
<path d="M0 0 C2.64 0 5.28 0 8 0 C8 2.31 8 4.62 8 7 C10.31 7 12.62 7 15 7 C15 8.65 15 10.3 15 12 C14.34 12 13.68 12 13 12 C13 11.01 13 10.02 13 9 C10.69 9 8.38 9 6 9 C6 7.02 6 5.04 6 3 C4.02 3 2.04 3 0 3 C0 2.01 0 1.02 0 0 Z " fill="#040102" transform="translate(112,80)"/>
<path d="M0 0 C2.25 -0.375 2.25 -0.375 5 0 C6.34331654 1.99330842 7.67594012 3.99384866 9 6 C12.10935018 7.42779274 12.10935018 7.42779274 15 8 C15 8.66 15 9.32 15 10 C9.69356959 10.50537432 7.13319688 9.30655751 3 6 C0 2.6 0 2.6 0 0 Z " fill="#1668AB" transform="translate(60,0)"/>
<path d="M0 0 C0.99 0 1.98 0 3 0 C3 6.27 3 12.54 3 19 C2.01 18.67 1.02 18.34 0 18 C0 12.06 0 6.12 0 0 Z " fill="#F6F7F6" transform="translate(46,67)"/>
<path d="M0 0 C-0.99 2.64 -1.98 5.28 -3 8 C-7.27210984 6.93197254 -7.84168743 6.56121574 -10 3 C-10 2.34 -10 1.68 -10 1 C-5.8922935 -0.58706842 -4.40767604 -1.10191901 0 0 Z " fill="#F5F454" transform="translate(124,130)"/>
<path d="M0 0 C0.33 0.66 0.66 1.32 1 2 C1.99 2 2.98 2 4 2 C4 2.99 4 3.98 4 5 C-3.26 5 -10.52 5 -18 5 C-18 4.34 -18 3.68 -18 3 C-12.06 3 -6.12 3 0 3 C0 2.01 0 1.02 0 0 Z " fill="#6EC2BB" transform="translate(158,180)"/>
<path d="M0 0 C1.32 0 2.64 0 4 0 C3.69078116 1.45903258 3.37751201 2.91720722 3.0625 4.375 C2.88847656 5.18710938 2.71445313 5.99921875 2.53515625 6.8359375 C2 9 2 9 1 11 C-0.65 10.67 -2.3 10.34 -4 10 C-2.8905928 6.51329166 -1.73662334 3.22515763 0 0 Z " fill="#FCFA3D" transform="translate(126,133)"/>
<path d="M0 0 C1.32 0.33 2.64 0.66 4 1 C0.04 4.96 -3.92 8.92 -8 13 C-8.99 12.67 -9.98 12.34 -11 12 C-3.18791946 2.68456376 -3.18791946 2.68456376 0 0 Z " fill="#191919" transform="translate(27,0)"/>
<path d="M0 0 C6.15234375 -0.09765625 6.15234375 -0.09765625 8 0 C9 1 9 1 9.09765625 3.06640625 C9.08605469 3.89011719 9.07445313 4.71382812 9.0625 5.5625 C9.05347656 6.38878906 9.04445313 7.21507812 9.03515625 8.06640625 C9.02355469 8.70449219 9.01195313 9.34257812 9 10 C8.34 10 7.68 10 7 10 C7 7.36 7 4.72 7 2 C5.68 2.33 4.36 2.66 3 3 C2.67 5.31 2.34 7.62 2 10 C1.34 10 0.68 10 0 10 C0 6.7 0 3.4 0 0 Z " fill="#303030" transform="translate(114,245)"/>
<path d="M0 0 C0.33 0.66 0.66 1.32 1 2 C0.67 2.66 0.34 3.32 0 4 C-0.07033769 5.87379605 -0.0843022 7.75001102 -0.0625 9.625 C-0.04896484 11.12933594 -0.04896484 11.12933594 -0.03515625 12.6640625 C-0.02355469 13.43492187 -0.01195312 14.20578125 0 15 C-1.65 15 -3.3 15 -5 15 C-5.42277492 8.86976372 -4.99795398 5.96715495 -1 1 C-0.67 0.67 -0.34 0.34 0 0 Z " fill="#1064A8" transform="translate(64,206)"/>
<path d="M0 0 C1.67542976 0.28604898 3.34385343 0.61781233 5 1 C5 1.66 5 2.32 5 3 C3.68 3 2.36 3 1 3 C1 3.66 1 4.32 1 5 C2.32 5.33 3.64 5.66 5 6 C4.67 7.65 4.34 9.3 4 11 C2.35 11 0.7 11 -1 11 C-1.33 10.34 -1.66 9.68 -2 9 C-0.35 9 1.3 9 3 9 C3 8.34 3 7.68 3 7 C0.525 6.01 0.525 6.01 -2 5 C-1.125 1.125 -1.125 1.125 0 0 Z " fill="#494949" transform="translate(88,244)"/>
<path d="M0 0 C0.99 0 1.98 0 3 0 C3 7.26 3 14.52 3 22 C2.34 22 1.68 22 1 22 C0.67 14.74 0.34 7.48 0 0 Z " fill="#7AD1C9" transform="translate(165,78)"/>
<path d="M0 0 C0.99 0.33 1.98 0.66 3 1 C1.01929563 3.35043586 -0.98581322 5.67822804 -3 8 C-3.70125 8.825 -4.4025 9.65 -5.125 10.5 C-5.74375 10.995 -6.3625 11.49 -7 12 C-8.32 11.67 -9.64 11.34 -11 11 C-7.37 7.37 -3.74 3.74 0 0 Z " fill="#0F1414" transform="translate(30,209)"/>
<path d="M0 0 C0.99 0 1.98 0 3 0 C1.48209259 4.25014075 -1.06377171 5.95899274 -5 8 C-7.76497381 8.31827037 -10.20236613 8.19294027 -13 8 C-13 7.34 -13 6.68 -13 6 C-12.31292969 5.79503906 -11.62585938 5.59007812 -10.91796875 5.37890625 C-10.01691406 5.10949219 -9.11585938 4.84007812 -8.1875 4.5625 C-7.29417969 4.29566406 -6.40085938 4.02882812 -5.48046875 3.75390625 C-3.64526945 3.19612127 -1.81966274 2.60655425 0 2 C0 1.34 0 0.68 0 0 Z " fill="#0E0D0E" transform="translate(176,146)"/>
<path d="M0 0 C3.30624582 0.2449071 4.29042449 1.27722338 6.75 3.625 C9.41830608 6.98690246 9.42559968 9.74400319 9 14 C8.01 14.495 8.01 14.495 7 15 C6.773125 13.7625 6.54625 12.525 6.3125 11.25 C5.29016021 7.01885649 3.55825865 5.52823641 0 3 C0 2.01 0 1.02 0 0 Z " fill="#161616" transform="translate(1,14)"/>
<path d="M0 0 C3.78611227 0.54087318 5.55400767 2.11722332 8 5 C8 5.66 8 6.32 8 7 C5.11788698 7.96070434 3.30149956 8.10581883 0.3125 8.0625 C-0.89986328 8.04896484 -0.89986328 8.04896484 -2.13671875 8.03515625 C-3.05904297 8.01775391 -3.05904297 8.01775391 -4 8 C-2 6.66666667 0 5.33333333 2 4 C1.34 2.68 0.68 1.36 0 0 Z " fill="#1A1A1A" transform="translate(131,213)"/>
<path d="M0 0 C0.86625 0.495 0.86625 0.495 1.75 1 C5.1391755 2.50630022 7.54532069 2.15155977 11 1 C10.6875 2.9375 10.6875 2.9375 10 5 C9.01 5.33 8.02 5.66 7 6 C7 6.66 7 7.32 7 8 C5.0625 7.1875 5.0625 7.1875 3 6 C2.67 5.01 2.34 4.02 2 3 C-0.01508358 2.26676204 -0.01508358 2.26676204 -2 2 C-1.34 1.34 -0.68 0.68 0 0 Z " fill="#191315" transform="translate(34,170)"/>
<path d="M0 0 C0.99 0 1.98 0 3 0 C3 2.31 3 4.62 3 7 C4.32 7 5.64 7 7 7 C7 7.99 7 8.98 7 10 C4.36 10 1.72 10 -1 10 C-0.67 6.7 -0.34 3.4 0 0 Z " fill="#E5ABC7" transform="translate(113,70)"/>
<path d="M0 0 C2.64 0 5.28 0 8 0 C8 2.31 8 4.62 8 7 C10.31 7 12.62 7 15 7 C15 7.33 15 7.66 15 8 C11.7 8 8.4 8 5 8 C5 6.02 5 4.04 5 2 C3.35 2 1.7 2 0 2 C0 1.34 0 0.68 0 0 Z " fill="#120D0F" transform="translate(159,213)"/>
<path d="M0 0 C2.92090003 1.30936898 4.75619462 2.75619462 7 5 C7.99 5.33 8.98 5.66 10 6 C11.75 8.375 11.75 8.375 13 11 C12.67 11.99 12.34 12.98 12 14 C10.51780033 12.54474941 9.03932861 11.085701 7.5625 9.625 C6.32693359 8.40683594 6.32693359 8.40683594 5.06640625 7.1640625 C3 5 3 5 2 3 C1.01 3 0.02 3 -1 3 C-0.67 2.01 -0.34 1.02 0 0 Z " fill="#EFF071" transform="translate(121,199)"/>
<path d="M0 0 C0.99 0.33 1.98 0.66 3 1 C3 1.99 3 2.98 3 4 C-1.95 4 -6.9 4 -12 4 C-7.7577199 -0.2422801 -5.91425608 -0.20751776 0 0 Z " fill="#136CB8" transform="translate(174,120)"/>
<path d="M0 0 C2.31111107 0.39846743 3.66633716 0.65044845 5.3125 2.375 C7.8480208 4.81661262 10.7387107 5.70779103 14 7 C12.4375 8.1875 12.4375 8.1875 10 9 C5.49317101 7.57679084 2.32262752 6.2353796 0 2 C0 1.34 0 0.68 0 0 Z " fill="#020C1D" transform="translate(65,0)"/>
<path d="M0 0 C0.98320351 3.05885536 1.34808088 5.03422206 0 8 C-1.90047954 9.84240933 -3.89091152 11.38452797 -6 13 C-6.75 11.25 -6.75 11.25 -7 9 C-5.25 7.0625 -5.25 7.0625 -3 5 C-1.95650161 3.36021682 -0.94392019 1.69905634 0 0 Z " fill="#E5E9E8" transform="translate(24,208)"/>
<path d="M0 0 C-1.53416298 3.98882376 -4.4247074 7.64783382 -8 10 C-10.1953125 9.66796875 -10.1953125 9.66796875 -12 9 C-10.57189185 7.49105554 -9.13218981 5.99307655 -7.6875 4.5 C-6.88699219 3.6646875 -6.08648437 2.829375 -5.26171875 1.96875 C-3 0 -3 0 0 0 Z " fill="#121918" transform="translate(22,211)"/>
<path d="M0 0 C0.99 0 1.98 0 3 0 C3 1.98 3 3.96 3 6 C4.98 6 6.96 6 9 6 C9 6.99 9 7.98 9 9 C6.03 8.67 3.06 8.34 0 8 C0 5.36 0 2.72 0 0 Z " fill="#E79EC2" transform="translate(158,203)"/>
<path d="M0 0 C3.36720387 1.39332574 4.9859524 2.9789286 7 6 C4.03 6.66 1.06 7.32 -2 8 C-1.34 5.36 -0.68 2.72 0 0 Z " fill="#F5F652" transform="translate(123,208)"/>
<path d="M0 0 C4.29 1.32 8.58 2.64 13 4 C11 6 11 6 7.375 6.125 C6.26125 6.08375 5.1475 6.0425 4 6 C3.67 4.68 3.34 3.36 3 2 C2.01 2.33 1.02 2.66 0 3 C-0.33 3.99 -0.66 4.98 -1 6 C-1.66 6 -2.32 6 -3 6 C-1.125 1.125 -1.125 1.125 0 0 Z " fill="#F1F25C" transform="translate(158,44)"/>
<path d="M0 0 C1.28497537 3.85492611 0.4052209 5.40346836 -0.9375 9.1875 C-1.31777344 10.27417969 -1.69804688 11.36085938 -2.08984375 12.48046875 C-2.39019531 13.31191406 -2.69054688 14.14335938 -3 15 C-3.99 15 -4.98 15 -6 15 C-5.57388649 13.24719267 -5.13360733 11.49782565 -4.6875 9.75 C-4.44386719 8.77546875 -4.20023438 7.8009375 -3.94921875 6.796875 C-3.00347644 4.01024335 -1.89291287 2.22695632 0 0 Z " fill="#0F0F09" transform="translate(36,26)"/>
<path d="M0 0 C3.465 1.485 3.465 1.485 7 3 C7 3.66 7 4.32 7 5 C1.58264203 5.93402724 -1.80451575 6.20808081 -7 4 C-7 3.67 -7 3.34 -7 3 C-4.69 3 -2.38 3 0 3 C0 2.01 0 1.02 0 0 Z " fill="#E8E8E8" transform="translate(84,248)"/>
<path d="M0 0 C1.32 0.66 2.64 1.32 4 2 C4.44041451 7.37305699 4.44041451 7.37305699 4 10 C1.5 12 1.5 12 -1 13 C-0.855625 12.443125 -0.71125 11.88625 -0.5625 11.3125 C-0.376875 10.549375 -0.19125 9.78625 0 9 C0.226875 8.154375 0.45375 7.30875 0.6875 6.4375 C1.30360761 3.74474036 1.30360761 3.74474036 -1 1 C-0.67 0.67 -0.34 0.34 0 0 Z " fill="#3E3E3E" transform="translate(68,242)"/>
<path d="M0 0 C0 0.66 0 1.32 0 2 C-0.99 2.66 -1.98 3.32 -3 4 C-2.67 5.65 -2.34 7.3 -2 9 C-4.31 7.02 -6.62 5.04 -9 3 C-6.01800145 0.01800145 -4.21244839 0 0 0 Z " fill="#0F0F0F" transform="translate(113,127)"/>
<path d="M0 0 C0.66 0.66 1.32 1.32 2 2 C1.01 3.485 1.01 3.485 0 5 C2.97 5.495 2.97 5.495 6 6 C6 6.66 6 7.32 6 8 C4.54077307 7.88590407 3.08259402 7.75834456 1.625 7.625 C0.40683594 7.52058594 0.40683594 7.52058594 -0.8359375 7.4140625 C-3 7 -3 7 -5 5 C-3.35 3.35 -1.7 1.7 0 0 Z " fill="#0F0F0B" transform="translate(159,37)"/>
<path d="M0 0 C0.66 0 1.32 0 2 0 C2 2.97 2 5.94 2 9 C-1.375 9.1875 -1.375 9.1875 -5 9 C-5.66 8.01 -6.32 7.02 -7 6 C-4.69 6 -2.38 6 0 6 C0 4.02 0 2.04 0 0 Z " fill="#1A1316" transform="translate(67,128)"/>
<path d="M0 0 C0.66 0.66 1.32 1.32 2 2 C-0.97 4.97 -3.94 7.94 -7 11 C-7.99 10.67 -8.98 10.34 -10 10 C-6.7 6.7 -3.4 3.4 0 0 Z " fill="#C6E0DF" transform="translate(33,210)"/>
<path d="M0 0 C0.99 0 1.98 0 3 0 C3 4.29 3 8.58 3 13 C2.67 11.68 2.34 10.36 2 9 C1.34 9 0.68 9 0 9 C0 6.03 0 3.06 0 0 Z " fill="#D9F0EE" transform="translate(29,130)"/>
<path d="M0 0 C0.99 0.66 1.98 1.32 3 2 C0.34345343 5.73884332 -1.58110387 7.64978174 -6 9 C-6 8.34 -6 7.68 -6 7 C-6.66 6.67 -7.32 6.34 -8 6 C-7.05125 5.566875 -6.1025 5.13375 -5.125 4.6875 C-1.79958063 3.20697799 -1.79958063 3.20697799 0 0 Z " fill="#161617" transform="translate(97,105)"/>
<path d="M0 0 C0.99 1.485 0.99 1.485 2 3 C2.66 3 3.32 3 4 3 C4 5.97 4 8.94 4 12 C3.34 12 2.68 12 2 12 C0.00214565 7.8794254 -0.17835515 4.54805635 0 0 Z " fill="#126CB5" transform="translate(67,93)"/>
<path d="M0 0 C-2.51830747 3.12270126 -3.7261549 3.94523098 -7.75 4.75 C-9.35875 4.87375 -9.35875 4.87375 -11 5 C-11 4.01 -11 3.02 -11 2 C-9.54494642 1.47007308 -8.08581873 0.9513211 -6.625 0.4375 C-5.81289063 0.14746094 -5.00078125 -0.14257812 -4.1640625 -0.44140625 C-2 -1 -2 -1 0 0 Z " fill="#202020" transform="translate(47,39)"/>
<path d="M0 0 C3.96 0 7.92 0 12 0 C10.35 1.65 8.7 3.3 7 5 C3.90837736 3.61410019 2.50816459 2.50816459 0 0 Z " fill="#251F23" transform="translate(24,173)"/>
<path d="M0 0 C0.99 0 1.98 0 3 0 C1.76465298 3.70604107 -0.19735224 5.33748463 -3 8 C-3.33 8.33 -3.66 8.66 -4 9 C-5.66617115 9.04063832 -7.33388095 9.042721 -9 9 C-9 8.34 -9 7.68 -9 7 C-8.071875 6.5875 -7.14375 6.175 -6.1875 5.75 C-3.0502234 4.02757363 -2.02814629 2.80077345 0 0 Z " fill="#D3DFE3" transform="translate(93,103)"/>
<path d="M0 0 C1.32 0 2.64 0 4 0 C4 1.98 4 3.96 4 6 C2.35 5.67 0.7 5.34 -1 5 C-0.67 3.35 -0.34 1.7 0 0 Z " fill="#ECECEC" transform="translate(104,247)"/>
<path d="M0 0 C2.25 0.125 2.25 0.125 5 1 C7.1875 4 7.1875 4 9 7 C9.66 7.33 10.32 7.66 11 8 C10.67 8.99 10.34 9.98 10 11 C8.33035479 9.35718838 6.6643536 7.71067239 5 6.0625 C4.071875 5.14597656 3.14375 4.22945312 2.1875 3.28515625 C0 1 0 1 0 0 Z " fill="#F3F2D4" transform="translate(109,130)"/>
<path d="M0 0 C1.98 1.32 3.96 2.64 6 4 C5.01 4.66 4.02 5.32 3 6 C2.67 5.67 2.34 5.34 2 5 C1.34 5.66 0.68 6.32 0 7 C-0.99 5.68 -1.98 4.36 -3 3 C-2.01 2.01 -1.02 1.02 0 0 Z " fill="#E2B1C9" transform="translate(73,49)"/>
<path d="M0 0 C2 1.375 2 1.375 4 3 C4 3.66 4 4.32 4 5 C2 6.625 2 6.625 0 8 C-0.99 6.35 -1.98 4.7 -3 3 C-2.01 2.01 -1.02 1.02 0 0 Z " fill="#D9A3BD" transform="translate(73,39)"/>
<path d="M0 0 C0.96661363 3.12180401 0.98988909 5.52083795 0.5625 8.75 C0.40974609 9.94882813 0.40974609 9.94882813 0.25390625 11.171875 C0.12822266 12.07679687 0.12822266 12.07679687 0 13 C-0.66 12.67 -1.32 12.34 -2 12 C-2.05395478 10.37536158 -2.09277195 8.75021459 -2.125 7.125 C-2.14820312 6.22007813 -2.17140625 5.31515625 -2.1953125 4.3828125 C-2 2 -2 2 0 0 Z " fill="#02040F" transform="translate(74,92)"/>
<path d="M0 0 C-2.55991624 2.01136276 -5.04590299 3.62845496 -8 5 C-8 4.34 -8 3.68 -8 3 C-9.32 3.33 -10.64 3.66 -12 4 C-8.07829422 -0.09996514 -5.68430095 -0.10526483 0 0 Z " fill="#2C76B1" transform="translate(84,83)"/>
<path d="M0 0 C2 1.3125 2 1.3125 4 3 C4 3.99 4 4.98 4 6 C2.02 6.33 0.04 6.66 -2 7 C-1.34 4.69 -0.68 2.38 0 0 Z " fill="#E6E64C" transform="translate(37,27)"/>
<path d="M0 0 C3.63 0 7.26 0 11 0 C11 0.33 11 0.66 11 1 C9.02 1 7.04 1 5 1 C5.33 2.32 5.66 3.64 6 5 C3.5625 4.1875 3.5625 4.1875 1 3 C0.67 2.01 0.34 1.02 0 0 Z " fill="#0660AE" transform="translate(68,0)"/>
<path d="M0 0 C1.98 0.99 1.98 0.99 4 2 C3.3405469 5.69293736 2.47070566 6.70572579 0 10 C0 6.7 0 3.4 0 0 Z " fill="#EEDAE4" transform="translate(0,115)"/>
<path d="M0 0 C0.33 0 0.66 0 1 0 C1 2.97 1 5.94 1 9 C-0.32 9.33 -1.64 9.66 -3 10 C-2.69201674 8.51988629 -2.378482 7.04092675 -2.0625 5.5625 C-1.88847656 4.73878906 -1.71445313 3.91507813 -1.53515625 3.06640625 C-1 1 -1 1 0 0 Z " fill="#0B0B0B" transform="translate(92,211)"/>
<path d="M0 0 C0.66 0 1.32 0 2 0 C4 3 4 3 3.625 5.6875 C3.41875 6.450625 3.2125 7.21375 3 8 C2.34 8 1.68 8 1 8 C-0.35439668 5.29120665 -0.06501451 2.99066732 0 0 Z " fill="#F5F2F4" transform="translate(154,137)"/>
<path d="M0 0 C2.31 1.98 4.62 3.96 7 6 C6.01 6.66 5.02 7.32 4 8 C2 6.25 2 6.25 0 4 C0 2.68 0 1.36 0 0 Z " fill="#222323" transform="translate(111,133)"/>
<path d="M0 0 C2.45823172 3.68734758 3.01242616 6.69699971 4 11 C2.68 10.67 1.36 10.34 0 10 C0 6.7 0 3.4 0 0 Z " fill="#D6D5D2" transform="translate(171,36)"/>
<path d="M0 0 C0.66 0.33 1.32 0.66 2 1 C0.68 1.99 -0.64 2.98 -2 4 C-1.34 2.68 -0.68 1.36 0 0 Z M-4 4 C-3.34 4.33 -2.68 4.66 -2 5 C-2.66 5.66 -3.32 6.32 -4 7 C-4 7.99 -4 8.98 -4 10 C-4.99 10 -5.98 10 -7 10 C-6.42655063 7.13275314 -6.1385485 6.1385485 -4 4 Z " fill="#383939" transform="translate(167,28)"/>
<path d="M0 0 C0.99 0.33 1.98 0.66 3 1 C2.67 3.97 2.34 6.94 2 10 C1.34 10 0.68 10 0 10 C0 6.7 0 3.4 0 0 Z " fill="#292929" transform="translate(114,245)"/>
<path d="M0 0 C0.99 0.495 0.99 0.495 2 1 C1.01 1.495 1.01 1.495 0 2 C0 1.34 0 0.68 0 0 Z M-13 1 C-8.71 1.33 -4.42 1.66 0 2 C-0.33 2.99 -0.66 3.98 -1 5 C-6.94 3.515 -6.94 3.515 -13 2 C-13 1.67 -13 1.34 -13 1 Z " fill="#055DA1" transform="translate(177,122)"/>
<path d="M0 0 C2.31 0.33 4.62 0.66 7 1 C7 1.99 7 2.98 7 4 C4.69 4 2.38 4 0 4 C0 2.68 0 1.36 0 0 Z " fill="#E4A5C5" transform="translate(174,0)"/>
<path d="M0 0 C1.32 0.33 2.64 0.66 4 1 C2.35 2.65 0.7 4.3 -1 6 C-1.99 5.67 -2.98 5.34 -4 5 C-2.68 3.35 -1.36 1.7 0 0 Z " fill="#151515" transform="translate(9,0)"/>
<path d="M0 0 C1.98 0.66 3.96 1.32 6 2 C6 2.66 6 3.32 6 4 C4.02 4 2.04 4 0 4 C0 2.68 0 1.36 0 0 Z " fill="#8B8B8B" transform="translate(76,245)"/>
<path d="M0 0 C1.32 0.66 2.64 1.32 4 2 C4 2.99 4 3.98 4 5 C2.68 5.33 1.36 5.66 0 6 C-1.125 2.25 -1.125 2.25 0 0 Z " fill="#EEEFEE" transform="translate(129,214)"/>
<path d="M0 0 C0.99 0.66 1.98 1.32 3 2 C1.00449854 3.99550146 -0.47924835 4.81376393 -3 6 C-4.11375 6.556875 -4.11375 6.556875 -5.25 7.125 C-5.8275 7.41375 -6.405 7.7025 -7 8 C-7 7.34 -7 6.68 -7 6 C-5.46875 4.4921875 -5.46875 4.4921875 -3.5 2.875 C-2.8503125 2.33617187 -2.200625 1.79734375 -1.53125 1.2421875 C-1.0259375 0.83226562 -0.520625 0.42234375 0 0 Z " fill="#6DC0B7" transform="translate(31,206)"/>
<path d="M0 0 C0.66 0.66 1.32 1.32 2 2 C2.99 2 3.98 2 5 2 C4.67 3.32 4.34 4.64 4 6 C2.35 5.67 0.7 5.34 -1 5 C-0.67 3.35 -0.34 1.7 0 0 Z " fill="#ECEA53" transform="translate(123,138)"/>
<path d="M0 0 C-0.3125 1.9375 -0.3125 1.9375 -1 4 C-1.99 4.33 -2.98 4.66 -4 5 C-4.99 4.34 -5.98 3.68 -7 3 C-2.25 0 -2.25 0 0 0 Z " fill="#0964B1" transform="translate(76,86)"/>
<path d="M0 0 C2.1640625 -0.29296875 2.1640625 -0.29296875 4.625 -0.1875 C5.44226563 -0.16042969 6.25953125 -0.13335938 7.1015625 -0.10546875 C8.04128906 -0.05326172 8.04128906 -0.05326172 9 0 C6.09907498 1.93395001 5.10325263 2.30131941 1.8125 2.625 C0.554375 2.74875 -0.70375 2.8725 -2 3 C-1.34 2.01 -0.68 1.02 0 0 Z " fill="#181818" transform="translate(124,0)"/>
<path d="M0 0 C0.33 0 0.66 0 1 0 C1.66 2.64 2.32 5.28 3 8 C1.35 8 -0.3 8 -2 8 C-1.125 1.125 -1.125 1.125 0 0 Z " fill="#0364B8" transform="translate(61,213)"/>
<path d="M0 0 C1.4540625 0.0309375 1.4540625 0.0309375 2.9375 0.0625 C0.05662454 2.46322955 -2.62654834 4.53541037 -6.0625 6.0625 C-3.76028481 0.07674051 -3.76028481 0.07674051 0 0 Z " fill="#090B11" transform="translate(162.0625,124.9375)"/>
<path d="M0 0 C1.98 0 3.96 0 6 0 C5.67 1.98 5.34 3.96 5 6 C4.67 4.68 4.34 3.36 4 2 C3.01 2 2.02 2 1 2 C0.67 2.99 0.34 3.98 0 5 C-0.33 4.34 -0.66 3.68 -1 3 C-0.67 2.01 -0.34 1.02 0 0 Z " fill="#EAEC6C" transform="translate(127,126)"/>
<path d="M0 0 C-1.0975223 2.99324263 -1.67682892 3.84610901 -4.625 5.25 C-5.40875 5.4975 -6.1925 5.745 -7 6 C-5.52522876 2.59668175 -4.14385429 0 0 0 Z " fill="#E3E2E2" transform="translate(97,105)"/>
<path d="M0 0 C1.9375 0.375 1.9375 0.375 4 1 C4.33 1.66 4.66 2.32 5 3 C2.69 3.66 0.38 4.32 -2 5 C-1.34 3.35 -0.68 1.7 0 0 Z " fill="#0C0C0C" transform="translate(48,36)"/>
<path d="M0 0 C0.66 0.33 1.32 0.66 2 1 C1.01 3.31 0.02 5.62 -1 8 C-1.99 7.67 -2.98 7.34 -4 7 C-2.92598892 4.08482708 -2.22189824 2.22189824 0 0 Z " fill="#262525" transform="translate(156,127)"/>
<path d="M0 0 C2.97 0 5.94 0 9 0 C9 0.66 9 1.32 9 2 C6.69 2.33 4.38 2.66 2 3 C1.34 2.01 0.68 1.02 0 0 Z " fill="#061327" transform="translate(161,124)"/>
<path d="M0 0 C1.70884005 1.62339805 3.37446717 3.29319053 5 5 C5 5.66 5 6.32 5 7 C4.01 7.33 3.02 7.66 2 8 C2 7.01 2 6.02 2 5 C1.01 4.67 0.02 4.34 -1 4 C-0.67 2.68 -0.34 1.36 0 0 Z " fill="#201D1E" transform="translate(76,37)"/>
<path d="M0 0 C1.98 0 3.96 0 6 0 C6 2.31 6 4.62 6 7 C5.34 7 4.68 7 4 7 C3.896875 6.21625 3.79375 5.4325 3.6875 4.625 C3.22404978 1.66954819 3.22404978 1.66954819 0 0 Z " fill="#020202" transform="translate(174,6)"/>
<path d="M0 0 C0.99 0.33 1.98 0.66 3 1 C1.515 3.475 1.515 3.475 0 6 C1.32 6.33 2.64 6.66 4 7 C2.02 7.33 0.04 7.66 -2 8 C-1.34 5.36 -0.68 2.72 0 0 Z " fill="#DDDC5C" transform="translate(123,208)"/>
<path d="M0 0 C3.83736322 0.95934081 4.59660228 1.23609263 7 4 C6.67 4.99 6.34 5.98 6 7 C4.02 4.69 2.04 2.38 0 0 Z " fill="#DEDF65" transform="translate(127,206)"/>
<path d="M0 0 C0.99 0.33 1.98 0.66 3 1 C2.01 1.495 2.01 1.495 1 2 C0.34444881 4.52733235 0.34444881 4.52733235 0 7 C-0.66 7 -1.32 7 -2 7 C-1.125 1.125 -1.125 1.125 0 0 Z " fill="#E6E64D" transform="translate(121,201)"/>
<path d="M0 0 C0.5775 0.37125 1.155 0.7425 1.75 1.125 C0.8425 1.41375 -0.065 1.7025 -1 2 C-3.57202908 2.89031776 -5.86346766 3.83994413 -8.25 5.125 C-7.26858061 2.67145152 -6.52754408 1.32853232 -4.375 -0.25 C-2.25 -0.875 -2.25 -0.875 0 0 Z " fill="#0B60A4" transform="translate(76.25,203.875)"/>
<path d="M0 0 C0.65234375 1.796875 0.65234375 1.796875 1 4 C-0.36489377 6.33370072 -2.1419038 8.00594554 -4 10 C-4.33 9.34 -4.66 8.68 -5 8 C-4.00390625 6.0546875 -4.00390625 6.0546875 -2.5625 3.875 C-2.08941406 3.15054688 -1.61632812 2.42609375 -1.12890625 1.6796875 C-0.75636719 1.12539062 -0.38382813 0.57109375 0 0 Z " fill="#D2E2E6" transform="translate(184,138)"/>
<path d="M0 0 C0.33 0 0.66 0 1 0 C1.66 4.29 2.32 8.58 3 13 C-1 9 -1 9 -1.171875 6.640625 C-1.03265625 5.85171875 -0.8934375 5.0628125 -0.75 4.25 C-0.62109375 3.45078125 -0.4921875 2.6515625 -0.359375 1.828125 C-0.24078125 1.22484375 -0.1221875 0.6215625 0 0 Z " fill="#0F5189" transform="translate(71,96)"/>
<path d="M0 0 C1.98 0 3.96 0 6 0 C6 0.99 6 1.98 6 3 C4.02 3 2.04 3 0 3 C0 2.01 0 1.02 0 0 Z " fill="#191818" transform="translate(112,80)"/>
<path d="M0 0 C0.66 0 1.32 0 2 0 C2.33 2.31 2.66 4.62 3 7 C1.68 6.34 0.36 5.68 -1 5 C-0.67 3.35 -0.34 1.7 0 0 Z " fill="#F9F955" transform="translate(171,49)"/>
<path d="M0 0 C0.99 0 1.98 0 3 0 C1.84826645 2.46800047 0.95216435 4.04783565 -1 6 C-1.66 5.67 -2.32 5.34 -3 5 C-1.125 1.125 -1.125 1.125 0 0 Z " fill="#1D1D1D" transform="translate(77,23)"/>
<path d="M0 0 C0.99 0.33 1.98 0.66 3 1 C3 2.32 3 3.64 3 5 C1.68 5.33 0.36 5.66 -1 6 C-0.67 4.02 -0.34 2.04 0 0 Z " fill="#0C0C0C" transform="translate(116,0)"/>
<path d="M0 0 C2 3 2 3 2 6 C1.01 6 0.02 6 -1 6 C-1.33 6.99 -1.66 7.98 -2 9 C-1.125 2.25 -1.125 2.25 0 0 Z " fill="#F8F676" transform="translate(118,205)"/>
<path d="M0 0 C0.66 0 1.32 0 2 0 C2.66 0.66 3.32 1.32 4 2 C4.66 1.34 5.32 0.68 6 0 C5.67 1.98 5.34 3.96 5 6 C3.2925002 4.71937515 1.62626404 3.38232443 0 2 C0 1.34 0 0.68 0 0 Z " fill="#070709" transform="translate(116,140)"/>
<path d="M0 0 C1.98 0 3.96 0 6 0 C4.68 0.33 3.36 0.66 2 1 C2.33 1.99 2.66 2.98 3 4 C2.01 4.99 1.02 5.98 0 7 C0 4.69 0 2.38 0 0 Z " fill="#FBECF5" transform="translate(73,132)"/>
<path d="M0 0 C0.33 0 0.66 0 1 0 C1.25 7.625 1.25 7.625 -1 11 C-1.66 11 -2.32 11 -3 11 C-3 10.01 -3 9.02 -3 8 C-2.34 7.67 -1.68 7.34 -1 7 C-0.59270772 4.67843403 -0.25561323 2.3431213 0 0 Z " fill="#282828" transform="translate(101,95)"/>
</svg>
