<svg width="99" height="63" viewBox="0 0 99 63" fill="none" xmlns="http://www.w3.org/2000/svg">
<path d="M14.9045 17.2037C15.0696 15.435 15.5257 13.7054 16.2546 12.0837C16.4577 11.6325 16.6813 11.1911 16.9253 10.7597C16.9375 10.7371 16.9405 10.7107 16.9335 10.686C16.9265 10.6614 16.9102 10.6403 16.888 10.6274C16.8657 10.6145 16.8393 10.6106 16.8142 10.6167C16.7892 10.6228 16.7675 10.6383 16.7537 10.66C15.8663 12.2313 15.2446 13.9369 14.9135 15.7088C14.8214 16.2036 14.7522 16.7019 14.7058 17.2037C14.694 17.3302 14.8928 17.3294 14.9045 17.2037Z" fill="#E6E6E6"/>
<path d="M17.407 11.0763C18.102 11.0763 18.6654 10.516 18.6654 9.8249C18.6654 9.13376 18.102 8.57349 17.407 8.57349C16.7121 8.57349 16.1487 9.13376 16.1487 9.8249C16.1487 10.516 16.7121 11.0763 17.407 11.0763Z" fill="#E6E6E6"/>
<path d="M15.0347 17.2373C15.1419 16.0899 15.4378 14.9677 15.9106 13.9157C16.0424 13.6229 16.1874 13.3366 16.3457 13.0567C16.3537 13.0421 16.3556 13.025 16.351 13.009C16.3465 12.993 16.3359 12.9793 16.3215 12.9709C16.3071 12.9625 16.2899 12.96 16.2737 12.964C16.2574 12.9679 16.2433 12.978 16.2344 12.992C15.6587 14.0114 15.2554 15.118 15.0406 16.2675C14.9808 16.5885 14.9359 16.9117 14.9058 17.2373C14.8982 17.3194 15.0271 17.3188 15.0347 17.2373Z" fill="#E6E6E6"/>
<path d="M16.6569 13.2619C17.1078 13.2619 17.4733 12.8984 17.4733 12.45C17.4733 12.0017 17.1078 11.6382 16.6569 11.6382C16.2061 11.6382 15.8406 12.0017 15.8406 12.45C15.8406 12.8984 16.2061 13.2619 16.6569 13.2619Z" fill="#E6E6E6"/>
<path d="M14.8713 17.1602C14.2462 16.19 13.7855 15.1243 13.5076 14.0055C13.4305 13.6941 13.3678 13.3796 13.3195 13.0621C13.3167 13.0457 13.3076 13.031 13.2942 13.0212C13.2807 13.0113 13.2639 13.007 13.2473 13.0092C13.2307 13.0115 13.2157 13.02 13.2053 13.033C13.1949 13.0461 13.1901 13.0626 13.1917 13.0792C13.3682 14.2351 13.7346 15.3543 14.2761 16.392C14.4275 16.6817 14.5921 16.964 14.7697 17.2391C14.8144 17.3085 14.9158 17.2292 14.8713 17.1602Z" fill="#E6E6E6"/>
<path d="M13.1899 13.2051C13.6407 13.2051 14.0062 12.8416 14.0062 12.3933C14.0062 11.9449 13.6407 11.5814 13.1899 11.5814C12.739 11.5814 12.3735 11.9449 12.3735 12.3933C12.3735 12.8416 12.739 13.2051 13.1899 13.2051Z" fill="#E6E6E6"/>
<path d="M12.365 17.8786V16.2835C12.3652 16.1249 12.4286 15.9728 12.5414 15.8607C12.6541 15.7486 12.807 15.6855 12.9665 15.6853H16.709C16.8685 15.6855 17.0214 15.7486 17.1341 15.8607C17.2469 15.9728 17.3103 16.1249 17.3105 16.2835V17.8786C17.3103 18.0372 17.2469 18.1892 17.1341 18.3013C17.0214 18.4135 16.8685 18.4766 16.709 18.4767H12.9665C12.807 18.4766 12.6541 18.4135 12.5414 18.3013C12.4286 18.1892 12.3652 18.0372 12.365 17.8786Z" fill="white"/>
<path d="M16.5743 7.7097H14.9704C14.8109 7.70952 14.658 7.64644 14.5453 7.5343C14.4325 7.42216 14.3691 7.27012 14.3689 7.11153V0.598166C14.3691 0.439577 14.4325 0.287535 14.5453 0.175396C14.658 0.0632569 14.8109 0.000178727 14.9704 0H16.5743C16.7338 0.000178727 16.8867 0.0632569 16.9994 0.175396C17.1122 0.287535 17.1756 0.439577 17.1758 0.598166V7.11153C17.1756 7.27012 17.1122 7.42216 16.9994 7.5343C16.8867 7.64644 16.7338 7.70952 16.5743 7.7097Z" fill="white"/>
<path d="M17.1103 1.26306H14.437V1.79476H17.1103V1.26306Z" fill="#CCCCCC"/>
<path d="M17.1103 5.38318H14.437V5.91488H17.1103V5.38318Z" fill="#CCCCCC"/>
<path d="M20.5846 7.7097H18.9806C18.8212 7.70952 18.6683 7.64644 18.5555 7.5343C18.4428 7.42216 18.3793 7.27012 18.3792 7.11153V0.598166C18.3793 0.439577 18.4428 0.287535 18.5555 0.175396C18.6683 0.0632569 18.8212 0.000178727 18.9806 0H20.5846C20.744 0.000178727 20.8969 0.0632569 21.0097 0.175396C21.1224 0.287535 21.1859 0.439577 21.186 0.598166V7.11153C21.1859 7.27012 21.1224 7.42216 21.0097 7.5343C20.8969 7.64644 20.744 7.70952 20.5846 7.7097Z" fill="white"/>
<path d="M21.1205 1.26306H18.4473V1.79476H21.1205V1.26306Z" fill="#CCCCCC"/>
<path d="M21.1205 5.38318H18.4473V5.91488H21.1205V5.38318Z" fill="#CCCCCC"/>
<path d="M24.5938 7.7097H22.9899C22.8304 7.70952 22.6776 7.64644 22.5648 7.5343C22.452 7.42216 22.3886 7.27012 22.3884 7.11153V0.598166C22.3886 0.439577 22.452 0.287535 22.5648 0.175396C22.6776 0.0632569 22.8304 0.000178727 22.9899 0H24.5938C24.7533 0.000178727 24.9062 0.0632569 25.0189 0.175396C25.1317 0.287535 25.1951 0.439577 25.1953 0.598166V7.11153C25.1951 7.27012 25.1317 7.42216 25.0189 7.5343C24.9062 7.64644 24.7533 7.70952 24.5938 7.7097Z" fill="white"/>
<path d="M25.1295 1.26306H22.4563V1.79476H25.1295V1.26306Z" fill="#CCCCCC"/>
<path d="M25.1295 5.38318H22.4563V5.91488H25.1295V5.38318Z" fill="#CCCCCC"/>
<path d="M26.7313 18.4765H25.1274C24.9679 18.4764 24.815 18.4133 24.7022 18.3011C24.5895 18.189 24.5261 18.037 24.5259 17.8784V11.365C24.5261 11.2064 24.5895 11.0544 24.7022 10.9422C24.815 10.8301 24.9679 10.767 25.1274 10.7668H26.7313C26.8908 10.767 27.0437 10.8301 27.1564 10.9422C27.2692 11.0544 27.3326 11.2064 27.3328 11.365V17.8784C27.3326 18.037 27.2692 18.189 27.1564 18.3011C27.0437 18.4133 26.8908 18.4764 26.7313 18.4765Z" fill="white"/>
<path d="M27.267 12.0302H24.5938V12.5619H27.267V12.0302Z" fill="#CCCCCC"/>
<path d="M27.267 16.15H24.5938V16.6817H27.267V16.15Z" fill="#CCCCCC"/>
<path d="M30.7442 18.4765H29.1403C28.9808 18.4764 28.8279 18.4133 28.7152 18.3011C28.6024 18.189 28.539 18.037 28.5388 17.8784V11.365C28.539 11.2064 28.6024 11.0544 28.7152 10.9422C28.8279 10.8301 28.9808 10.767 29.1403 10.7668H30.7442C30.9037 10.767 31.0566 10.8301 31.1694 10.9422C31.2821 11.0544 31.3455 11.2064 31.3457 11.365V17.8784C31.3455 18.037 31.2821 18.189 31.1694 18.3011C31.0566 18.4133 30.9037 18.4764 30.7442 18.4765Z" fill="white"/>
<path d="M31.2765 12.0302H28.6033V12.5619H31.2765V12.0302Z" fill="#CCCCCC"/>
<path d="M31.2765 16.15H28.6033V16.6817H31.2765V16.15Z" fill="#CCCCCC"/>
<path d="M34.753 18.4765H33.1491C32.9896 18.4764 32.8367 18.4133 32.724 18.3011C32.6112 18.189 32.5478 18.037 32.5476 17.8784V11.365C32.5478 11.2064 32.6112 11.0544 32.724 10.9422C32.8367 10.8301 32.9896 10.767 33.1491 10.7668H34.753C34.9125 10.767 35.0654 10.8301 35.1781 10.9422C35.2909 11.0544 35.3543 11.2064 35.3545 11.365V17.8784C35.3543 18.037 35.2909 18.189 35.1781 18.3011C35.0654 18.4133 34.9125 18.4764 34.753 18.4765Z" fill="white"/>
<path d="M35.2877 12.0302H32.6145V12.5619H35.2877V12.0302Z" fill="#CCCCCC"/>
<path d="M35.2877 16.15H32.6145V16.6817H35.2877V16.15Z" fill="#CCCCCC"/>
<path d="M16.1739 29.2439H14.57C14.4105 29.2437 14.2576 29.1806 14.1449 29.0685C14.0321 28.9563 13.9687 28.8043 13.9685 28.6457V22.1323C13.9687 21.9738 14.0321 21.8217 14.1449 21.7096C14.2576 21.5974 14.4105 21.5344 14.57 21.5342H16.1739C16.3334 21.5344 16.4863 21.5974 16.599 21.7096C16.7118 21.8217 16.7752 21.9738 16.7754 22.1323V28.6457C16.7752 28.8043 16.7118 28.9563 16.599 29.0685C16.4863 29.1806 16.3334 29.2437 16.1739 29.2439Z" fill="white"/>
<path d="M16.7089 22.7969H14.0356V23.3286H16.7089V22.7969Z" fill="#CCCCCC"/>
<path d="M16.7089 26.9172H14.0356V27.4489H16.7089V26.9172Z" fill="#CCCCCC"/>
<path d="M20.1849 29.2439H18.581C18.4215 29.2437 18.2686 29.1806 18.1559 29.0685C18.0431 28.9563 17.9797 28.8043 17.9795 28.6457V22.1323C17.9797 21.9738 18.0431 21.8217 18.1559 21.7096C18.2686 21.5974 18.4215 21.5344 18.581 21.5342H20.1849C20.3444 21.5344 20.4973 21.5974 20.61 21.7096C20.7228 21.8217 20.7862 21.9738 20.7864 22.1323V28.6457C20.7862 28.8043 20.7228 28.9563 20.61 29.0685C20.4973 29.1806 20.3444 29.2437 20.1849 29.2439Z" fill="white"/>
<path d="M20.7167 22.7969H18.0435V23.3286H20.7167V22.7969Z" fill="#CCCCCC"/>
<path d="M20.7167 26.9172H18.0435V27.4489H20.7167V26.9172Z" fill="#CCCCCC"/>
<path d="M24.1932 29.2439H22.5893C22.4298 29.2437 22.2769 29.1806 22.1642 29.0685C22.0514 28.9563 21.988 28.8043 21.9878 28.6457V22.1323C21.988 21.9738 22.0514 21.8217 22.1642 21.7096C22.2769 21.5974 22.4298 21.5344 22.5893 21.5342H24.1932C24.3527 21.5344 24.5056 21.5974 24.6183 21.7096C24.7311 21.8217 24.7945 21.9738 24.7947 22.1323V28.6457C24.7945 28.8043 24.7311 28.9563 24.6183 29.0685C24.5056 29.1806 24.3527 29.2437 24.1932 29.2439Z" fill="white"/>
<path d="M24.7299 22.7969H22.0566V23.3286H24.7299V22.7969Z" fill="#CCCCCC"/>
<path d="M24.7299 26.9172H22.0566V27.4489H24.7299V26.9172Z" fill="#CCCCCC"/>
<path d="M28.6056 7.7097H27.0016C26.8422 7.70952 26.6893 7.64644 26.5765 7.5343C26.4638 7.42216 26.4003 7.27012 26.4001 7.11153V0.598166C26.4003 0.439577 26.4638 0.287535 26.5765 0.175396C26.6893 0.0632569 26.8422 0.000178727 27.0016 0H28.6056C28.765 0.000178727 28.9179 0.0632569 29.0307 0.175396C29.1434 0.287535 29.2069 0.439577 29.207 0.598166V7.11153C29.2069 7.27012 29.1434 7.42216 29.0307 7.5343C28.9179 7.64644 28.765 7.70952 28.6056 7.7097Z" fill="white"/>
<path d="M29.1373 1.26306H26.4641V1.79476H29.1373V1.26306Z" fill="#CCCCCC"/>
<path d="M29.1373 5.38318H26.4641V5.91488H29.1373V5.38318Z" fill="#CCCCCC"/>
<path d="M32.6141 7.7097H31.0102C30.8507 7.70952 30.6978 7.64644 30.5851 7.5343C30.4723 7.42216 30.4089 7.27012 30.4087 7.11153V0.598166C30.4089 0.439577 30.4723 0.287535 30.5851 0.175396C30.6978 0.0632569 30.8507 0.000178727 31.0102 0H32.6141C32.7736 0.000178727 32.9265 0.0632569 33.0392 0.175396C33.152 0.287535 33.2154 0.439577 33.2156 0.598166V7.11153C33.2154 7.27012 33.152 7.42216 33.0392 7.5343C32.9265 7.64644 32.7736 7.70952 32.6141 7.7097Z" fill="white"/>
<path d="M33.15 1.26306H30.4768V1.79476H33.15V1.26306Z" fill="#CCCCCC"/>
<path d="M33.15 5.38318H30.4768V5.91488H33.15V5.38318Z" fill="#CCCCCC"/>
<path d="M36.6234 7.7097H35.0194C34.86 7.70952 34.7071 7.64644 34.5943 7.5343C34.4816 7.42216 34.4181 7.27012 34.418 7.11153V0.598166C34.4181 0.439577 34.4816 0.287535 34.5943 0.175396C34.7071 0.0632569 34.86 0.000178727 35.0194 0H36.6234C36.7829 0.000178727 36.9357 0.0632569 37.0485 0.175396C37.1613 0.287535 37.2247 0.439577 37.2249 0.598166V7.11153C37.2247 7.27012 37.1613 7.42216 37.0485 7.5343C36.9357 7.64644 36.7829 7.70952 36.6234 7.7097Z" fill="white"/>
<path d="M37.1591 1.26306H34.4858V1.79476H37.1591V1.26306Z" fill="#CCCCCC"/>
<path d="M37.1591 5.38318H34.4858V5.91488H37.1591V5.38318Z" fill="#CCCCCC"/>
<path d="M40.6346 7.7097H39.0307C38.8712 7.70952 38.7183 7.64644 38.6056 7.5343C38.4928 7.42216 38.4294 7.27012 38.4292 7.11153V0.598166C38.4294 0.439577 38.4928 0.287535 38.6056 0.175396C38.7183 0.0632569 38.8712 0.000178727 39.0307 0H40.6346C40.7941 0.000178727 40.947 0.0632569 41.0597 0.175396C41.1725 0.287535 41.2359 0.439577 41.2361 0.598166V7.11153C41.2359 7.27012 41.1725 7.42216 41.0597 7.5343C40.947 7.64644 40.7941 7.70952 40.6346 7.7097Z" fill="white"/>
<path d="M41.1669 1.26306H38.4937V1.79476H41.1669V1.26306Z" fill="#CCCCCC"/>
<path d="M41.1669 5.38318H38.4937V5.91488H41.1669V5.38318Z" fill="#CCCCCC"/>
<path d="M46.6416 7.90916H8.54797C8.51252 7.90916 8.47852 7.89516 8.45346 7.87023C8.42839 7.8453 8.41431 7.81149 8.41431 7.77624C8.41431 7.74098 8.42839 7.70717 8.45346 7.68224C8.47852 7.65731 8.51252 7.64331 8.54797 7.64331H46.6416C46.677 7.64331 46.711 7.65731 46.7361 7.68224C46.7612 7.70717 46.7752 7.74098 46.7752 7.77624C46.7752 7.81149 46.7612 7.8453 46.7361 7.87023C46.711 7.89516 46.677 7.90916 46.6416 7.90916Z" fill="#CCCCCC"/>
<path d="M46.6416 18.6762H8.54797C8.51252 18.6762 8.47852 18.6622 8.45346 18.6373C8.42839 18.6124 8.41431 18.5786 8.41431 18.5433C8.41431 18.5081 8.42839 18.4743 8.45346 18.4493C8.47852 18.4244 8.51252 18.4104 8.54797 18.4104H46.6416C46.677 18.4104 46.711 18.4244 46.7361 18.4493C46.7612 18.4743 46.7752 18.5081 46.7752 18.5433C46.7752 18.5786 46.7612 18.6124 46.7361 18.6373C46.711 18.6622 46.677 18.6762 46.6416 18.6762Z" fill="#CCCCCC"/>
<path d="M46.6416 29.4431H8.54797C8.51252 29.4431 8.47852 29.4291 8.45346 29.4042C8.42839 29.3792 8.41431 29.3454 8.41431 29.3102C8.41431 29.2749 8.42839 29.2411 8.45346 29.2162C8.47852 29.1912 8.51252 29.1772 8.54797 29.1772H46.6416C46.677 29.1772 46.711 29.1912 46.7361 29.2162C46.7612 29.2411 46.7752 29.2749 46.7752 29.3102C46.7752 29.3454 46.7612 29.3792 46.7361 29.4042C46.711 29.4291 46.677 29.4431 46.6416 29.4431Z" fill="#CCCCCC"/>
<path d="M44.386 50.3099C44.386 49.2822 40.4963 48.449 35.698 48.449C30.8998 48.449 27.01 49.2822 27.01 50.3099C27.01 50.9686 28.6092 51.547 31.0199 51.8777V62.0739C31.0199 62.303 31.1114 62.5228 31.2743 62.6848C31.4373 62.8469 31.6582 62.9379 31.8887 62.9379C32.1191 62.9379 32.3401 62.8469 32.503 62.6848C32.6659 62.5228 32.7575 62.303 32.7575 62.0739V52.0614C33.676 52.1321 34.6657 52.1709 35.698 52.1709C36.7303 52.1709 37.7201 52.1321 38.6386 52.0614V62.0739C38.6386 62.303 38.7301 62.5228 38.8931 62.6848C39.056 62.8469 39.277 62.9379 39.5074 62.9379C39.7378 62.9379 39.9588 62.8469 40.1217 62.6848C40.2847 62.5228 40.3762 62.303 40.3762 62.0739V51.8777C42.7869 51.547 44.386 50.9686 44.386 50.3099Z" fill="#CCCCCC"/>
<path d="M42.7139 61.2663H44.3526L45.1321 54.9805H42.7136L42.7139 61.2663Z" fill="#A0616A"/>
<path d="M47.5112 62.7791L42.3611 62.7793L42.3611 60.8004L45.5213 60.8003C46.0491 60.8002 46.5552 61.0087 46.9284 61.3798C47.3015 61.7509 47.5112 62.2542 47.5112 62.779L47.5112 62.7791Z" fill="#2F2E41"/>
<path d="M45.2697 60.3571L46.8332 59.8691L45.6847 53.6395L43.3772 54.3596L45.2697 60.3571Z" fill="#A0616A"/>
<path d="M50.3066 60.3718L45.3928 61.9053L44.797 60.0173L47.8123 59.0763C48.3159 58.9191 48.8615 58.9674 49.3293 59.2103C49.7971 59.4533 50.1486 59.8711 50.3066 60.3718Z" fill="#2F2E41"/>
<path d="M44.1753 57.4631L41.1777 49.6376C40.5052 49.7946 34.8653 51.0357 32.9763 49.0356C32.329 48.3501 32.2027 47.3569 32.6011 46.0836L33.7035 44.7059L33.7377 44.7077C34.1545 44.7296 43.9542 45.2758 44.626 48.2155C45.1924 50.6938 46.2268 55.3144 46.5303 56.6716C46.5611 56.8122 46.54 56.9591 46.471 57.0856C46.4019 57.2121 46.2895 57.3097 46.1542 57.3606L44.9486 57.8102C44.8815 57.8353 44.8103 57.8482 44.7385 57.8482C44.6165 57.8482 44.4973 57.8114 44.3968 57.7426C44.2962 57.6738 44.219 57.5764 44.1753 57.4631Z" fill="#2F2E41"/>
<path d="M42.4385 58.3942L39.4409 50.5687C38.7683 50.7258 33.1285 51.9668 31.2395 49.9668C30.5922 49.2812 30.4659 48.2881 30.8643 47.0148L31.9666 45.6371L32.0009 45.6389C32.4177 45.6607 42.2174 46.207 42.8892 49.1466C43.4556 51.625 44.49 56.2456 44.7935 57.6027C44.8242 57.7434 44.8032 57.8903 44.7342 58.0168C44.6651 58.1432 44.5527 58.2408 44.4173 58.2918L43.2118 58.7413C43.1446 58.7665 43.0735 58.7793 43.0017 58.7793C42.8797 58.7793 42.7605 58.7425 42.66 58.6737C42.5594 58.605 42.4822 58.5075 42.4385 58.3942Z" fill="#2F2E41"/>
<path d="M46.4879 39.6354C46.4436 39.6943 46.4041 39.7566 46.3696 39.8217L39.7774 40.5124L38.8284 39.2185L36.6777 40.3876L38.5416 43.5274L46.6264 41.4774C46.8304 41.6751 47.0901 41.8065 47.371 41.8539C47.6518 41.9013 47.9405 41.8626 48.1987 41.7428C48.4569 41.6231 48.6723 41.428 48.8163 41.1836C48.9602 40.9391 49.026 40.6569 49.0047 40.3744C48.9835 40.0918 48.8763 39.8225 48.6973 39.602C48.5184 39.3816 48.2762 39.2206 48.003 39.1403C47.7298 39.0601 47.4385 39.0645 47.1678 39.153C46.8972 39.2414 46.66 39.4097 46.4879 39.6354V39.6354Z" fill="#A0616A"/>
<path d="M30.8209 47.4277C30.7307 47.363 30.6602 47.2748 30.6173 47.1728C30.5744 47.0708 30.5607 46.9589 30.5778 46.8496C30.9497 44.4114 30.5218 40.9186 30.0973 38.4178C30.0104 37.9104 30.0443 37.3898 30.1961 36.8977C30.3479 36.4056 30.6134 35.9558 30.9715 35.5841C31.3296 35.2125 31.7702 34.9294 32.2581 34.7576C32.7459 34.5857 33.2675 34.5299 33.781 34.5946C34.2277 34.6533 34.6702 34.7401 35.1059 34.8544C35.8297 35.0356 36.4698 35.4564 36.9212 36.0475C37.3726 36.6385 37.6083 37.3648 37.5896 38.1068C37.5262 40.5199 38.0189 43.5309 38.2337 44.7133C38.2483 44.7946 38.246 44.8779 38.2268 44.9582C38.2076 45.0385 38.172 45.114 38.1222 45.18C38.0734 45.2453 38.0113 45.2998 37.9401 45.3398C37.8688 45.3799 37.7899 45.4047 37.7085 45.4126C35.3282 45.6542 32.7614 46.8086 31.4432 47.4752C31.3584 47.5187 31.2645 47.5415 31.1692 47.5418C31.0439 47.5414 30.9219 47.5014 30.8209 47.4277Z" fill="#F4CC27"/>
<path d="M37.2445 41.139C37.171 41.1102 37.1039 41.0673 37.0471 41.0126C36.9904 40.9578 36.9451 40.8925 36.9139 40.8203L35.5864 37.7706C35.5061 37.5864 35.463 37.3882 35.4597 37.1874C35.4564 36.9865 35.4929 36.787 35.5671 36.6003C35.6414 36.4135 35.7519 36.2431 35.8924 36.0988C36.0329 35.9545 36.2007 35.8392 36.386 35.7594C36.5713 35.6797 36.7707 35.637 36.9726 35.6339C37.1745 35.6307 37.3751 35.6672 37.5629 35.7412C37.7506 35.8152 37.9219 35.9253 38.0668 36.0651C38.2118 36.205 38.3276 36.3719 38.4077 36.5563L39.7351 39.6059C39.7983 39.7515 39.8008 39.9161 39.7421 40.0635C39.6834 40.211 39.5684 40.3292 39.4221 40.3924L37.7048 41.1317C37.6324 41.1631 37.5544 41.18 37.4754 41.1812C37.3964 41.1824 37.3179 41.1681 37.2445 41.139H37.2445Z" fill="#F4CC27"/>
<path d="M40.2081 39.3699C40.1638 39.4288 40.1243 39.4911 40.0898 39.5562L33.4976 40.2469L32.5487 38.953L30.3979 40.1221L32.2618 43.2619L40.3466 41.2119C40.5506 41.4097 40.8103 41.541 41.0912 41.5884C41.372 41.6358 41.6607 41.5971 41.9189 41.4773C42.1771 41.3576 42.3925 41.1625 42.5365 40.9181C42.6805 40.6736 42.7462 40.3914 42.7249 40.1089C42.7037 39.8263 42.5965 39.557 42.4175 39.3365C42.2386 39.1161 41.9964 38.9551 41.7232 38.8748C41.45 38.7946 41.1587 38.799 40.888 38.8875C40.6174 38.9759 40.3802 39.1442 40.2081 39.3699V39.3699Z" fill="#A0616A"/>
<path d="M30.9628 41.272C30.8892 41.2433 30.8221 41.2003 30.7654 41.1456C30.7086 41.0909 30.6633 41.0256 30.6322 40.9533L29.3047 37.9037C29.2243 37.7194 29.1813 37.5212 29.1779 37.3204C29.1746 37.1196 29.2111 36.9201 29.2854 36.7333C29.3597 36.5465 29.4702 36.3761 29.6107 36.2319C29.7512 36.0876 29.9189 35.9723 30.1043 35.8925C30.2896 35.8127 30.4889 35.77 30.6909 35.7669C30.8928 35.7638 31.0934 35.8003 31.2811 35.8743C31.4689 35.9483 31.6401 36.0583 31.7851 36.1982C31.93 36.338 32.0459 36.5049 32.1259 36.6893L33.4534 39.739C33.5166 39.8846 33.5191 40.0491 33.4604 40.1966C33.4017 40.344 33.2866 40.4623 33.1404 40.5255L31.4231 41.2647C31.3507 41.2962 31.2727 41.313 31.1937 41.3143C31.1147 41.3155 31.0362 41.3011 30.9628 41.272H30.9628Z" fill="#F4CC27"/>
<path d="M33.536 33.5568C35.3491 33.5568 36.8189 32.0951 36.8189 30.292C36.8189 28.4889 35.3491 27.0272 33.536 27.0272C31.723 27.0272 30.2532 28.4889 30.2532 30.292C30.2532 32.0951 31.723 33.5568 33.536 33.5568Z" fill="#A0616A"/>
<path d="M31.1899 32.5332C31.1758 32.4923 31.1714 32.4486 31.1769 32.4057C31.1824 32.3627 31.1977 32.3216 31.2216 32.2854C31.2456 32.2492 31.2775 32.219 31.315 32.197C31.3525 32.175 31.3946 32.1618 31.438 32.1585C31.527 32.1633 31.614 32.186 31.6938 32.2252C31.7737 32.2644 31.8447 32.3193 31.9027 32.3865C32.0215 32.5227 32.1598 32.6408 32.3132 32.737C32.472 32.8166 32.6874 32.8053 32.7779 32.6535C32.8629 32.511 32.8046 32.3201 32.7532 32.1546C32.6222 31.7334 32.5489 31.2966 32.5353 30.8559C32.5205 30.364 32.5903 29.8507 32.8641 29.4671C33.2175 28.972 33.8494 28.784 34.4474 28.7976C35.0454 28.8113 35.6337 28.9948 36.226 29.1109C36.4305 29.151 36.6709 29.1714 36.8077 29.0138C36.9531 28.8462 36.8997 28.575 36.8378 28.3487C36.6773 27.7615 36.507 27.1544 36.1341 26.6802C35.7308 26.1874 35.1548 25.8649 34.522 25.7776C33.9145 25.7028 33.2978 25.7724 32.7226 25.9808C31.7855 26.2745 30.9609 26.8458 30.3591 27.6182C29.7387 28.4397 29.4706 29.472 29.6135 30.4894C29.753 31.3756 30.2252 32.1762 30.9348 32.7299L31.1899 32.5332Z" fill="#2F2E41"/>
<path d="M18.6552 40.3927C18.8204 38.6241 19.2765 36.8944 20.0053 35.2728C20.2084 34.8215 20.432 34.3802 20.676 33.9488C20.6883 33.9262 20.6912 33.8998 20.6842 33.8751C20.6773 33.8505 20.661 33.8294 20.6387 33.8165C20.6164 33.8036 20.59 33.7997 20.565 33.8058C20.5399 33.8119 20.5182 33.8274 20.5045 33.8491C19.6171 35.4204 18.9954 37.126 18.6642 38.8979C18.5721 39.3927 18.5029 39.8909 18.4566 40.3927C18.4448 40.5193 18.6435 40.5185 18.6552 40.3927Z" fill="#3F3D56"/>
<path d="M21.1573 34.2662C21.8522 34.2662 22.4156 33.706 22.4156 33.0148C22.4156 32.3237 21.8522 31.7634 21.1573 31.7634C20.4623 31.7634 19.8989 32.3237 19.8989 33.0148C19.8989 33.706 20.4623 34.2662 21.1573 34.2662Z" fill="#F4CC27"/>
<path d="M18.7833 40.4261C18.8904 39.2787 19.1863 38.1566 19.6591 37.1046C19.7909 36.8118 19.9359 36.5255 20.0943 36.2456C20.1022 36.231 20.1041 36.2138 20.0996 36.1978C20.0951 36.1818 20.0845 36.1682 20.07 36.1598C20.0556 36.1514 20.0384 36.1489 20.0222 36.1528C20.006 36.1568 19.9919 36.1668 19.983 36.1809C19.4072 37.2003 19.0039 38.3068 18.7891 39.4563C18.7294 39.7773 18.6844 40.1006 18.6544 40.4261C18.6467 40.5082 18.7757 40.5077 18.7833 40.4261Z" fill="#3F3D56"/>
<path d="M20.4067 36.4513C20.8575 36.4513 21.223 36.0879 21.223 35.6395C21.223 35.1911 20.8575 34.8276 20.4067 34.8276C19.9558 34.8276 19.5903 35.1911 19.5903 35.6395C19.5903 36.0879 19.9558 36.4513 20.4067 36.4513Z" fill="#F4CC27"/>
<path d="M18.6208 40.3498C17.9957 39.3796 17.535 38.3138 17.2572 37.1951C17.18 36.8837 17.1173 36.5692 17.069 36.2517C17.0662 36.2353 17.0571 36.2206 17.0437 36.2107C17.0302 36.2009 17.0134 36.1966 16.9968 36.1988C16.9803 36.201 16.9652 36.2096 16.9548 36.2226C16.9445 36.2356 16.9396 36.2522 16.9412 36.2687C17.1178 37.4246 17.4841 38.5438 18.0256 39.5816C18.1771 39.8712 18.3416 40.1536 18.5192 40.4287C18.5639 40.4981 18.6653 40.4188 18.6208 40.3498Z" fill="#3F3D56"/>
<path d="M16.9401 36.3946C17.391 36.3946 17.7565 36.0311 17.7565 35.5827C17.7565 35.1343 17.391 34.7709 16.9401 34.7709C16.4893 34.7709 16.1238 35.1343 16.1238 35.5827C16.1238 36.0311 16.4893 36.3946 16.9401 36.3946Z" fill="#F4CC27"/>
<path d="M16.1138 41.0675V39.4724C16.1139 39.3138 16.1774 39.1618 16.2901 39.0497C16.4029 38.9375 16.5558 38.8744 16.7152 38.8743H20.4578C20.6172 38.8744 20.7701 38.9375 20.8829 39.0497C20.9957 39.1618 21.0591 39.3138 21.0593 39.4724V41.0675C21.0591 41.2261 20.9957 41.3782 20.8829 41.4903C20.7701 41.6025 20.6172 41.6655 20.4578 41.6657H16.7152C16.5558 41.6655 16.4029 41.6025 16.2901 41.4903C16.1774 41.3782 16.1139 41.2261 16.1138 41.0675Z" fill="#CCCCCC"/>
<path d="M49.6628 40.6057H39.1036C38.8452 40.6057 38.6357 40.814 38.6357 41.071C38.6357 41.3279 38.8452 41.5362 39.1036 41.5362H49.6628C49.9212 41.5362 50.1306 41.3279 50.1306 41.071C50.1306 40.814 49.9212 40.6057 49.6628 40.6057Z" fill="#CCCCCC"/>
<path d="M56.7486 41.5369H44.8527C44.6223 41.5367 44.4015 41.4456 44.2386 41.2836C44.0758 41.1216 43.9841 40.902 43.9839 40.6729V34.1595C43.9841 33.9305 44.0758 33.7109 44.2386 33.5489C44.4015 33.3869 44.6223 33.2958 44.8527 33.2955H56.7486C56.9789 33.2958 57.1997 33.3869 57.3626 33.5489C57.5255 33.7109 57.6171 33.9305 57.6174 34.1595V40.6729C57.6171 40.902 57.5255 41.1216 57.3626 41.2836C57.1997 41.4456 56.9789 41.5367 56.7486 41.5369Z" fill="#CCCCCC"/>
<path d="M50.8 38.214C51.2429 38.214 51.602 37.8569 51.602 37.4165C51.602 36.976 51.2429 36.6189 50.8 36.6189C50.3571 36.6189 49.998 36.976 49.998 37.4165C49.998 37.8569 50.3571 38.214 50.8 38.214Z" fill="white"/>
<path d="M87.024 50.3099C87.024 49.2822 83.1342 48.449 78.336 48.449C73.5377 48.449 69.6479 49.2822 69.6479 50.3099C69.6479 50.9686 71.2471 51.547 73.6578 51.8777V62.0739C73.6578 62.303 73.7493 62.5228 73.9123 62.6848C74.0752 62.8469 74.2962 62.9379 74.5266 62.9379C74.757 62.9379 74.978 62.8469 75.1409 62.6848C75.3039 62.5228 75.3954 62.303 75.3954 62.0739V52.0614C76.3139 52.1321 77.3037 52.1709 78.336 52.1709C79.3683 52.1709 80.358 52.1321 81.2765 52.0614V62.0739C81.2765 62.303 81.3681 62.5228 81.531 62.6848C81.6939 62.8469 81.9149 62.9379 82.1453 62.9379C82.3758 62.9379 82.5967 62.8469 82.7597 62.6848C82.9226 62.5228 83.0141 62.303 83.0141 62.0739V51.8777C85.4248 51.547 87.024 50.9686 87.024 50.3099Z" fill="#CCCCCC"/>
<path d="M79.295 33.277C81.362 33.277 83.0375 31.6106 83.0375 29.5551C83.0375 27.4995 81.362 25.8331 79.295 25.8331C77.2281 25.8331 75.5525 27.4995 75.5525 29.5551C75.5525 31.6106 77.2281 33.277 79.295 33.277Z" fill="#2F2E41"/>
<path d="M69.9822 61.3993H68.3435L67.564 55.1135H69.9824L69.9822 61.3993Z" fill="#FFB8B8"/>
<path d="M67.1734 60.9341H70.3337V62.9129H65.1836C65.1836 62.6531 65.2351 62.3958 65.3351 62.1557C65.4351 61.9156 65.5816 61.6974 65.7664 61.5137C65.9512 61.3299 66.1705 61.1842 66.4119 61.0847C66.6533 60.9853 66.9121 60.9341 67.1734 60.9341Z" fill="#2F2E41"/>
<path d="M67.425 60.4901L65.8616 60.0022L67.01 53.7726L69.3175 54.4926L67.425 60.4901Z" fill="#FFB8B8"/>
<path d="M64.8836 59.2092L67.8989 60.1502L67.3031 62.0383L62.3893 60.5048C62.4676 60.2568 62.5941 60.0266 62.7618 59.8273C62.9295 59.628 63.135 59.4635 63.3667 59.3432C63.5983 59.2229 63.8515 59.1492 64.1117 59.1262C64.372 59.1032 64.6343 59.1314 64.8836 59.2092Z" fill="#2F2E41"/>
<path d="M67.9579 57.9814C67.8862 57.9814 67.815 57.9685 67.7478 57.9433L66.5423 57.4938C66.4069 57.4429 66.2945 57.3453 66.2255 57.2188C66.1564 57.0923 66.1354 56.9454 66.1661 56.8048C66.4697 55.4476 67.5041 50.827 68.0705 48.3487C68.7422 45.409 78.5419 44.8627 78.9587 44.8409L78.993 44.8391L80.0954 46.2168C80.4937 47.4901 80.3674 48.4833 79.7201 49.1688C77.8311 51.1689 72.1913 49.9278 71.5188 49.7707L68.5211 57.5962C68.4774 57.7095 68.4002 57.807 68.2997 57.8758C68.1991 57.9445 68.08 57.9814 67.9579 57.9814Z" fill="#2F2E41"/>
<path d="M69.6962 58.9123C69.6244 58.9123 69.5533 58.8994 69.4861 58.8743L68.2806 58.4247C68.1452 58.3738 68.0328 58.2762 67.9638 58.1497C67.8947 58.0232 67.8737 57.8763 67.9044 57.7357C68.2079 56.3785 69.2424 51.7579 69.8088 49.2796C70.4805 46.3399 80.2802 45.7936 80.697 45.7718L80.7313 45.77L81.8337 47.1477C82.232 48.421 82.1058 49.4142 81.4584 50.0997C79.5695 52.0997 73.9296 50.8587 73.2571 50.7016L70.2594 58.5271C70.2157 58.6405 70.1385 58.7379 70.0379 58.8067C69.9374 58.8755 69.8182 58.9123 69.6962 58.9123Z" fill="#2F2E41"/>
<path d="M66.206 39.7686C66.2503 39.8275 66.2899 39.8898 66.3243 39.9549L72.9166 40.6456L73.8655 39.3517L76.0162 40.5207L74.1524 43.6606L66.0675 41.6106C65.8635 41.8083 65.6039 41.9397 65.323 41.9871C65.0422 42.0345 64.7534 41.9958 64.4953 41.876C64.2371 41.7563 64.0217 41.5612 63.8777 41.3168C63.7337 41.0723 63.668 40.79 63.6892 40.5075C63.7105 40.225 63.8177 39.9556 63.9966 39.7352C64.1756 39.5148 64.4178 39.3537 64.691 39.2735C64.9642 39.1933 65.2555 39.1977 65.5261 39.2862C65.7968 39.3746 66.0339 39.5429 66.206 39.7686Z" fill="#FFB8B8"/>
<path d="M81.5274 47.6748C81.432 47.6745 81.3381 47.6517 81.2534 47.6082C79.9352 46.9416 77.3683 45.7873 74.9881 45.5457C74.9066 45.5377 74.8277 45.5129 74.7564 45.4729C74.6852 45.4328 74.6232 45.3784 74.5743 45.3131C74.5245 45.2471 74.4889 45.1715 74.4697 45.0913C74.4505 45.011 74.4482 44.9276 74.4629 44.8464C74.6777 43.6639 75.1704 40.653 75.1069 38.2398C75.0882 37.4978 75.3239 36.7716 75.7753 36.1805C76.2267 35.5894 76.8669 35.1687 77.5906 34.9874C78.0263 34.8731 78.4689 34.7864 78.9156 34.7277C79.429 34.663 79.9506 34.7188 80.4385 34.8906C80.9263 35.0625 81.367 35.3455 81.725 35.7172C82.0831 36.0888 82.3487 36.5387 82.5005 37.0308C82.6523 37.5228 82.6861 38.0434 82.5992 38.5508C82.1747 41.0516 81.7468 44.5444 82.1187 46.9827C82.1358 47.0919 82.1222 47.2038 82.0793 47.3058C82.0364 47.4078 81.9659 47.4961 81.8757 47.5607C81.7746 47.6345 81.6527 47.6744 81.5274 47.6748Z" fill="#F4CC27"/>
<path d="M75.2288 41.3143C75.1466 41.3142 75.0653 41.2973 74.99 41.2647L73.2727 40.5255C73.1264 40.4623 73.0114 40.344 72.9527 40.1966C72.894 40.0491 72.8965 39.8846 72.9596 39.7389L74.2871 36.6893C74.3672 36.5049 74.483 36.338 74.628 36.1982C74.7729 36.0583 74.9442 35.9483 75.1319 35.8743C75.3197 35.8003 75.5202 35.7638 75.7222 35.7669C75.9241 35.77 76.1234 35.8127 76.3088 35.8925C76.4941 35.9723 76.6618 36.0876 76.8024 36.2319C76.9429 36.3761 77.0534 36.5465 77.1276 36.7333C77.2019 36.9201 77.2384 37.1196 77.2351 37.3204C77.2318 37.5212 77.1887 37.7194 77.1083 37.9037L75.7809 40.9533C75.7342 41.0604 75.6571 41.1516 75.559 41.2157C75.4609 41.2799 75.3461 41.3141 75.2288 41.3143Z" fill="#F4CC27"/>
<path d="M79.1593 33.6897C80.9724 33.6897 82.4422 32.228 82.4422 30.425C82.4422 28.6219 80.9724 27.1602 79.1593 27.1602C77.3463 27.1602 75.8765 28.6219 75.8765 30.425C75.8765 32.228 77.3463 33.6897 79.1593 33.6897Z" fill="#FFB8B8"/>
<path d="M75.8162 28.8218C77.3711 29.7658 79.1242 30.3402 80.9389 30.5004L80.3989 29.857C80.7921 30.0015 81.2058 30.0832 81.6247 30.099C82.0431 30.0925 82.4814 29.9323 82.7189 29.5897C82.8248 29.4194 82.8877 29.2261 82.9023 29.0263C82.9168 28.8266 82.8826 28.6263 82.8025 28.4426C82.6379 28.0761 82.3818 27.7576 82.0584 27.5174C81.4853 27.0665 80.809 26.7637 80.0897 26.6358C79.3703 26.508 78.6304 26.5591 77.9357 26.7846C77.4593 26.9263 77.0325 27.1985 76.7044 27.5702C76.3932 27.952 75.7941 28.2922 75.9534 28.7574L75.8162 28.8218Z" fill="#2F2E41"/>
<path d="M79.7094 26.1868C78.6739 25.1426 77.421 24.3368 76.0386 23.8262C75.1513 23.4993 74.1854 23.2973 73.2577 23.4829C72.3301 23.6686 71.4528 24.3068 71.194 25.212C70.9823 25.9522 71.2009 26.7491 71.5293 27.4459C71.8577 28.1427 72.2962 28.7888 72.5618 29.5115C72.8328 30.249 72.9143 31.0421 72.7989 31.8189C72.6835 32.5956 72.3748 33.3314 71.901 33.9594C71.4271 34.5875 70.803 35.0878 70.0854 35.4152C69.3677 35.7425 68.5793 35.8864 67.7915 35.8338C68.703 35.9553 69.5432 36.3813 70.4341 36.6081C71.325 36.8348 72.3766 36.8194 73.0387 36.1847C73.7392 35.5131 73.7532 34.4211 73.7193 33.4541L73.5683 29.1413C73.5426 28.4081 73.5207 27.6515 73.7866 26.9672C74.0524 26.2829 74.6842 25.6837 75.4219 25.6899C75.9809 25.6947 76.4757 26.0315 76.9241 26.3636C77.3724 26.6957 77.8469 27.0501 78.4038 27.0995C78.9606 27.1489 79.5964 26.7391 79.5548 26.1847" fill="#2F2E41"/>
<path d="M64.4521 37.3639L72.0111 37.5413L73.1062 45.5775L66.1255 45.7333L64.4521 37.3639Z" fill="white"/>
<path d="M72.4885 39.5025C72.5328 39.5614 72.5723 39.6237 72.6068 39.6888L79.199 40.3795L80.148 39.0856L82.2987 40.2546L80.4348 43.3945L72.35 41.3445C72.146 41.5422 71.8863 41.6735 71.6055 41.721C71.3246 41.7684 71.0359 41.7296 70.7777 41.6099C70.5195 41.4902 70.3041 41.2951 70.1602 41.0506C70.0162 40.8062 69.9504 40.5239 69.9717 40.2414C69.9929 39.9589 70.1002 39.6895 70.2791 39.4691C70.458 39.2487 70.7002 39.0876 70.9735 39.0074C71.2467 38.9272 71.538 38.9316 71.8086 39.02C72.0792 39.1085 72.3164 39.2768 72.4885 39.5025V39.5025Z" fill="#FFB8B8"/>
<path d="M81.5117 41.4473C81.4295 41.4471 81.3483 41.4303 81.2729 41.3977L79.5556 40.6584C79.4094 40.5952 79.2943 40.477 79.2356 40.3295C79.1769 40.1821 79.1795 40.0175 79.2426 39.8719L80.5701 36.8223C80.6501 36.6379 80.766 36.471 80.9109 36.3311C81.0559 36.1913 81.2271 36.0812 81.4149 36.0072C81.6026 35.9332 81.8032 35.8967 82.0051 35.8998C82.2071 35.903 82.4064 35.9456 82.5917 36.0254C82.7771 36.1052 82.9448 36.2205 83.0853 36.3648C83.2258 36.5091 83.3363 36.6795 83.4106 36.8662C83.4848 37.053 83.5213 37.2525 83.518 37.4534C83.5147 37.6542 83.4716 37.8524 83.3913 38.0366L82.0638 41.0863C82.0171 41.1934 81.94 41.2846 81.8419 41.3487C81.7438 41.4128 81.6291 41.4471 81.5117 41.4473Z" fill="#F4CC27"/>
<path d="M65.9717 41.4042H12.7743C12.5439 41.4042 12.3229 41.4952 12.16 41.6572C11.9971 41.8193 11.9055 42.039 11.9055 42.2682C11.9055 42.4973 11.9971 42.7171 12.16 42.8791C12.3229 43.0412 12.5439 43.1322 12.7743 43.1322H14.3114V61.9412C14.3114 62.1704 14.403 62.3901 14.5659 62.5522C14.7288 62.7142 14.9498 62.8052 15.1802 62.8052C15.4107 62.8052 15.6316 62.7142 15.7946 62.5522C15.9575 62.3901 16.049 62.1704 16.049 61.9412V44.7925L25.7891 62.349C25.9046 62.547 26.0943 62.6913 26.3166 62.7503C26.539 62.8093 26.7758 62.7782 26.975 62.6638C27.1743 62.5494 27.3198 62.361 27.3796 62.14C27.4394 61.919 27.4086 61.6834 27.2939 61.485L17.1121 43.1322H63.6326V43.1434L53.4571 61.485C53.3419 61.6835 53.3107 61.9193 53.3703 62.1406C53.4299 62.362 53.5755 62.5507 53.7751 62.6652C53.9746 62.7798 54.2118 62.8109 54.4343 62.7516C54.6569 62.6923 54.8466 62.5475 54.9618 62.349L63.6326 46.7199V61.9412C63.6326 62.1704 63.7242 62.3901 63.8871 62.5522C64.05 62.7142 64.271 62.8052 64.5014 62.8052C64.7319 62.8052 64.9528 62.7142 65.1158 62.5522C65.2787 62.3901 65.3702 62.1704 65.3702 61.9412V43.5878L65.623 43.1322H65.9717C66.2021 43.1322 66.4231 43.0412 66.5861 42.8791C66.749 42.7171 66.8405 42.4973 66.8405 42.2682C66.8405 42.039 66.749 41.8193 66.5861 41.6572C66.4231 41.4952 66.2021 41.4042 65.9717 41.4042Z" fill="#3F3D56"/>
<path d="M98.8406 62.9999H0.158933C0.116804 62.9998 0.0764428 62.9831 0.0466962 62.9534C0.0169495 62.9237 0.000244141 62.8835 0.000244141 62.8416C0.000244141 62.7997 0.0169495 62.7595 0.0466962 62.7299C0.0764428 62.7002 0.116804 62.6835 0.158933 62.6833H98.8406C98.8828 62.6833 98.9233 62.7 98.9531 62.7297C98.983 62.7594 98.9998 62.7996 98.9998 62.8416C98.9998 62.8836 98.983 62.9239 98.9531 62.9536C98.9233 62.9832 98.8828 62.9999 98.8406 62.9999Z" fill="#3F3D56"/>
</svg>
