<svg width="78" height="56" viewBox="0 0 78 56" fill="none" xmlns="http://www.w3.org/2000/svg">
<path d="M49.7053 41.9812V55.4805H15.5594C11.669 55.4805 8.50366 52.4525 8.50366 48.7309C8.50366 45.0092 11.669 41.9812 15.5594 41.9812H49.7053Z" fill="white"/>
<path d="M50.5439 55.3766C50.5439 55.5143 50.4886 55.6463 50.3903 55.7436C50.292 55.841 50.1587 55.8957 50.0197 55.8958H14.9512C13.0466 55.8958 11.22 55.1464 9.87317 53.8124C8.52639 52.4784 7.76978 50.6692 7.76978 48.7827C7.76978 46.8962 8.52639 45.0869 9.87317 43.7529C11.22 42.419 13.0466 41.6696 14.9512 41.6696H50.0197C50.1588 41.6696 50.2921 41.7243 50.3904 41.8216C50.4887 41.919 50.5439 42.0511 50.5439 42.1888C50.5439 42.3265 50.4887 42.4585 50.3904 42.5559C50.2921 42.6533 50.1588 42.708 50.0197 42.708H14.9512C13.3246 42.708 11.7647 43.348 10.6145 44.4872C9.46432 45.6264 8.81816 47.1716 8.81816 48.7827C8.81816 50.3938 9.46432 51.9389 10.6145 53.0781C11.7647 54.2174 13.3246 54.8574 14.9512 54.8574H50.0197C50.1587 54.8574 50.292 54.9121 50.3903 55.0095C50.4886 55.1069 50.5439 55.2389 50.5439 55.3766Z" fill="#EFDC70"/>
<path d="M49.7054 45.0963H13.0118C12.984 45.0963 12.9574 45.0854 12.9377 45.0659C12.918 45.0465 12.907 45.02 12.907 44.9925C12.907 44.965 12.918 44.9386 12.9377 44.9191C12.9574 44.8996 12.984 44.8887 13.0118 44.8887H49.7054C49.7332 44.8887 49.7599 44.8996 49.7796 44.9191C49.7992 44.9386 49.8103 44.965 49.8103 44.9925C49.8103 45.02 49.7992 45.0465 49.7796 45.0659C49.7599 45.0854 49.7332 45.0963 49.7054 45.0963Z" fill="#CCCCCC"/>
<path d="M49.7054 47.5885H13.0118C12.984 47.5885 12.9574 47.5776 12.9377 47.5581C12.918 47.5386 12.907 47.5122 12.907 47.4847C12.907 47.4572 12.918 47.4307 12.9377 47.4113C12.9574 47.3918 12.984 47.3809 13.0118 47.3809H49.7054C49.7332 47.3809 49.7599 47.3918 49.7796 47.4113C49.7992 47.4307 49.8103 47.4572 49.8103 47.4847C49.8103 47.5122 49.7992 47.5386 49.7796 47.5581C49.7599 47.5776 49.7332 47.5885 49.7054 47.5885Z" fill="#CCCCCC"/>
<path d="M49.7054 50.0808H13.0118C12.984 50.0808 12.9574 50.0699 12.9377 50.0504C12.918 50.0309 12.907 50.0045 12.907 49.977C12.907 49.9495 12.918 49.923 12.9377 49.9036C12.9574 49.8841 12.984 49.8732 13.0118 49.8732H49.7054C49.7332 49.8732 49.7599 49.8841 49.7796 49.9036C49.7992 49.923 49.8103 49.9495 49.8103 49.977C49.8103 50.0045 49.7992 50.0309 49.7796 50.0504C49.7599 50.0699 49.7332 50.0808 49.7054 50.0808Z" fill="#CCCCCC"/>
<path d="M49.7054 52.5729H13.0118C12.984 52.5729 12.9574 52.562 12.9377 52.5425C12.918 52.523 12.907 52.4966 12.907 52.4691C12.907 52.4415 12.918 52.4151 12.9377 52.3957C12.9574 52.3762 12.984 52.3652 13.0118 52.3652H49.7054C49.7332 52.3652 49.7599 52.3762 49.7796 52.3957C49.7992 52.4151 49.8103 52.4415 49.8103 52.4691C49.8103 52.4966 49.7992 52.523 49.7796 52.5425C49.7599 52.562 49.7332 52.5729 49.7054 52.5729Z" fill="#CCCCCC"/>
<path d="M76.0945 44.5226L67.5434 55.0343L40.9547 33.8144C37.9252 31.3966 37.3785 27.0717 39.736 24.1737C42.0935 21.2757 46.4764 20.885 49.5058 23.3027L76.0945 44.5226Z" fill="white"/>
<path d="M68.2619 55.4748C68.1747 55.582 68.048 55.6505 67.9098 55.6652C67.7716 55.6799 67.6331 55.6397 67.5249 55.5534L40.2177 33.76C38.7346 32.5764 37.7869 30.8577 37.5832 28.982C37.3795 27.1063 37.9364 25.2272 39.1314 23.7583C40.3264 22.2893 42.0617 21.3506 43.9554 21.1489C45.8491 20.9471 47.7462 21.4987 49.2293 22.6823L76.5365 44.4757C76.5901 44.5185 76.6347 44.5713 76.6678 44.6311C76.7008 44.691 76.7216 44.7567 76.729 44.8245C76.7364 44.8923 76.7302 44.9609 76.7108 45.0263C76.6914 45.0918 76.6592 45.1528 76.616 45.2059C76.5728 45.259 76.5194 45.3032 76.459 45.3359C76.3985 45.3686 76.3322 45.3891 76.2637 45.3964C76.1952 45.4037 76.126 45.3975 76.0599 45.3783C75.9939 45.359 75.9323 45.3271 75.8787 45.2843L48.5715 23.4909C47.9444 22.99 47.2238 22.6164 46.4508 22.3914C45.6779 22.1665 44.8678 22.0945 44.0668 22.1797C43.2658 22.2649 42.4896 22.5055 41.7825 22.8879C41.0754 23.2703 40.4514 23.7869 39.9459 24.4083C39.4404 25.0296 39.0635 25.7435 38.8367 26.5092C38.6098 27.2748 38.5375 28.0772 38.6238 28.8706C38.7102 29.6639 38.9534 30.4327 39.3398 31.1329C39.7261 31.8331 40.2479 32.451 40.8755 32.9514L68.1826 54.7448C68.2909 54.8312 68.36 54.9566 68.3749 55.0935C68.3897 55.2304 68.3491 55.3676 68.2619 55.4748Z" fill="#CCCCCC"/>
<path d="M74.1228 46.9485L45.5503 24.1453C45.5396 24.1367 45.5307 24.1261 45.5241 24.1142C45.5175 24.1022 45.5133 24.0891 45.5118 24.0755C45.5104 24.062 45.5116 24.0482 45.5155 24.0352C45.5194 24.0221 45.5258 24.0099 45.5344 23.9993C45.5431 23.9886 45.5537 23.9798 45.5658 23.9733C45.5779 23.9667 45.5912 23.9626 45.6049 23.9612C45.6185 23.9597 45.6324 23.9609 45.6456 23.9648C45.6588 23.9686 45.6711 23.975 45.6818 23.9836L74.2543 46.7868C74.2651 46.7953 74.274 46.8059 74.2806 46.8179C74.2872 46.8298 74.2914 46.843 74.2929 46.8565C74.2944 46.8701 74.2932 46.8838 74.2893 46.8969C74.2854 46.91 74.2789 46.9222 74.2703 46.9329C74.2617 46.9435 74.251 46.9523 74.2389 46.9589C74.2268 46.9654 74.2135 46.9695 74.1998 46.971C74.1861 46.9724 74.1723 46.9712 74.159 46.9673C74.1458 46.9635 74.1335 46.9571 74.1228 46.9485V46.9485Z" fill="#CCCCCC"/>
<path d="M72.5434 48.8892L43.9708 26.086C43.9492 26.0687 43.9354 26.0436 43.9325 26.0162C43.9295 25.9889 43.9377 25.9615 43.9551 25.9401C43.9725 25.9186 43.9978 25.9049 44.0254 25.902C44.0531 25.899 44.0807 25.907 44.1024 25.9243L72.6749 48.7275C72.6857 48.736 72.6946 48.7466 72.7012 48.7586C72.7078 48.7705 72.712 48.7837 72.7135 48.7973C72.715 48.8108 72.7138 48.8245 72.7099 48.8376C72.706 48.8507 72.6995 48.863 72.6909 48.8736C72.6823 48.8842 72.6716 48.893 72.6595 48.8996C72.6474 48.9061 72.6341 48.9102 72.6204 48.9117C72.6067 48.9131 72.5929 48.9119 72.5796 48.908C72.5664 48.9042 72.5541 48.8978 72.5434 48.8892Z" fill="#CCCCCC"/>
<path d="M70.9641 50.8292L42.3916 28.026C42.37 28.0087 42.3561 27.9836 42.3531 27.9563C42.3502 27.9289 42.3583 27.9014 42.3757 27.88C42.3932 27.8586 42.4185 27.8449 42.4462 27.8419C42.4738 27.839 42.5015 27.847 42.5232 27.8643L71.0957 50.6675C71.1064 50.6761 71.1153 50.6866 71.1219 50.6986C71.1285 50.7106 71.1327 50.7237 71.1342 50.7373C71.1356 50.7508 71.1344 50.7645 71.1305 50.7776C71.1266 50.7907 71.1202 50.8029 71.1116 50.8135C71.1029 50.8241 71.0922 50.833 71.0802 50.8395C71.0681 50.846 71.0548 50.8501 71.0411 50.8516C71.0274 50.8531 71.0136 50.8518 71.0004 50.848C70.9872 50.8442 70.9749 50.8378 70.9641 50.8292V50.8292Z" fill="#CCCCCC"/>
<path d="M69.3863 52.7705L40.8137 29.9673C40.803 29.9587 40.7941 29.9482 40.7875 29.9362C40.7809 29.9242 40.7767 29.9111 40.7753 29.8975C40.7738 29.884 40.775 29.8703 40.7789 29.8572C40.7828 29.8441 40.7892 29.8319 40.7979 29.8213C40.8065 29.8107 40.8172 29.8018 40.8293 29.7953C40.8413 29.7888 40.8546 29.7846 40.8683 29.7832C40.882 29.7817 40.8958 29.783 40.909 29.7868C40.9222 29.7906 40.9346 29.797 40.9453 29.8056L69.5178 52.6088C69.5286 52.6173 69.5375 52.6279 69.5441 52.6399C69.5507 52.6518 69.5549 52.665 69.5564 52.6786C69.5578 52.6921 69.5566 52.7058 69.5527 52.7189C69.5489 52.732 69.5424 52.7443 69.5338 52.7549C69.5251 52.7655 69.5145 52.7743 69.5024 52.7809C69.4903 52.7874 69.477 52.7915 69.4633 52.793C69.4496 52.7944 69.4357 52.7932 69.4225 52.7893C69.4093 52.7855 69.397 52.7791 69.3863 52.7705Z" fill="#CCCCCC"/>
<path d="M77.8952 55.9998H0.104839C0.0770338 55.9998 0.0503675 55.9888 0.0307065 55.9694C0.0110454 55.9499 0 55.9235 0 55.896C0 55.8684 0.0110454 55.842 0.0307065 55.8225C0.0503675 55.8031 0.0770338 55.7921 0.104839 55.7921H77.8952C77.923 55.7921 77.9496 55.8031 77.9693 55.8225C77.989 55.842 78 55.8684 78 55.896C78 55.9235 77.989 55.9499 77.9693 55.9694C77.9496 55.9888 77.923 55.9998 77.8952 55.9998Z" fill="#CCCCCC"/>
<path d="M35.4426 40.5627L34.2441 40.5626L33.6741 35.9836L35.443 35.9839L35.4426 40.5627Z" fill="#FFB8B8"/>
<path d="M33.3907 40.2234H35.7021V41.6649H31.9353C31.9353 41.4756 31.9729 41.2881 32.0461 41.1133C32.1192 40.9384 32.2264 40.7795 32.3616 40.6456C32.4967 40.5117 32.6571 40.4056 32.8337 40.3331C33.0103 40.2607 33.1995 40.2234 33.3907 40.2234Z" fill="#2F2E41"/>
<path d="M23.1979 40.5627L21.9994 40.5626L21.4294 35.9836L23.1984 35.9839L23.1979 40.5627Z" fill="#FFB8B8"/>
<path d="M21.1438 40.2234H23.4553V41.6649H19.6885C19.6885 41.4756 19.7261 41.2881 19.7993 41.1133C19.8724 40.9384 19.9796 40.7795 20.1147 40.6456C20.2499 40.5117 20.4103 40.4056 20.5869 40.3331C20.7635 40.2607 20.9527 40.2234 21.1438 40.2234Z" fill="#2F2E41"/>
<path d="M27.2029 6.59745V6.07824C27.2029 5.19007 27.5591 4.33827 28.1932 3.71023C28.8272 3.0822 29.6872 2.72937 30.5839 2.72937H30.5839C31.4806 2.72937 32.3406 3.0822 32.9747 3.71023C33.6088 4.33827 33.965 5.19007 33.965 6.07824V6.59745C33.965 7.23777 33.7082 7.85185 33.2511 8.30462C32.7939 8.75739 32.1739 9.01175 31.5275 9.01175H29.6404C29.3203 9.01176 29.0033 8.94931 28.7076 8.82798C28.4119 8.70665 28.1432 8.52881 27.9168 8.30462C27.6905 8.08043 27.5109 7.81428 27.3884 7.52137C27.2659 7.22845 27.2029 6.9145 27.2029 6.59745Z" fill="#2F2E41"/>
<path d="M30.5832 9.19036C32.0054 9.19036 33.1582 8.04849 33.1582 6.63992C33.1582 5.23135 32.0054 4.08948 30.5832 4.08948C29.1611 4.08948 28.0083 5.23135 28.0083 6.63992C28.0083 8.04849 29.1611 9.19036 30.5832 9.19036Z" fill="#FFB8B8"/>
<path d="M16.5777 15.4053C16.6822 15.3075 16.807 15.2337 16.9434 15.1889C17.0799 15.1442 17.2245 15.1296 17.3673 15.1462C17.51 15.1628 17.6473 15.2102 17.7696 15.285C17.8918 15.3599 17.996 15.4604 18.0748 15.5795L20.2821 15.1659L20.863 16.4332L17.7376 16.9739C17.5269 17.0917 17.2798 17.1289 17.0433 17.0784C16.8068 17.0279 16.5971 16.8932 16.4542 16.6999C16.3112 16.5065 16.2448 16.2679 16.2676 16.0293C16.2903 15.7907 16.4007 15.5687 16.5777 15.4053V15.4053Z" fill="#FFB8B8"/>
<path d="M28.5763 10.7966L28.6052 10.8399L24.9855 13.2017L18.8778 15.1335C18.7968 15.1592 18.7274 15.212 18.6813 15.2828C18.6352 15.3536 18.6153 15.438 18.6249 15.5217L18.7582 16.6584C18.7641 16.7087 18.7805 16.7572 18.8065 16.8008C18.8325 16.8445 18.8673 16.8823 18.9089 16.9118C18.9504 16.9413 18.9978 16.9619 19.0478 16.9722C19.0979 16.9825 19.1496 16.9824 19.1996 16.9718L24.9479 15.7514C25.226 15.6927 25.4891 15.578 25.7207 15.4144L29.7871 12.5487C29.9346 12.4442 30.0522 12.3038 30.1286 12.141C30.205 11.9782 30.2375 11.7985 30.2231 11.6196C30.2082 11.4404 30.1464 11.2681 30.0439 11.1197C29.9414 10.9713 29.8016 10.8519 29.6384 10.7732C29.4751 10.6945 29.294 10.6593 29.1129 10.671C28.9317 10.6827 28.7567 10.7409 28.6052 10.8399L28.5763 10.7966Z" fill="#CCCCCC"/>
<path d="M34.2659 39.2633C34.1739 39.2633 34.0839 39.2368 34.0068 39.187C33.9298 39.1371 33.8691 39.0662 33.8321 38.9828L28.3375 25.5353C28.3247 25.5061 28.3031 25.4815 28.2758 25.4648C28.2484 25.4482 28.2166 25.4402 28.1845 25.442C28.1524 25.4437 28.1217 25.4552 28.0964 25.4748C28.0711 25.4945 28.0525 25.5213 28.043 25.5517L23.5603 38.6433C23.5414 38.7042 23.5101 38.7607 23.4683 38.8092C23.4266 38.8577 23.3752 38.8972 23.3175 38.9253C23.2597 38.9534 23.1968 38.9696 23.1325 38.9727C23.0682 38.9758 23.004 38.9659 22.9437 38.9435L21.4405 38.3852C21.3589 38.3551 21.2873 38.3033 21.2337 38.2354C21.1801 38.1675 21.1465 38.0862 21.1368 38.0005C20.4605 32.1654 26.3577 17.4369 26.4174 17.2888L26.4339 17.2478L31.8097 18.4256L31.8209 18.4377C33.9657 20.7552 35.7286 35.3723 36.0602 38.279C36.0726 38.384 36.0485 38.49 35.9919 38.5796C35.9352 38.6692 35.8495 38.737 35.7487 38.7719L34.4219 39.2367C34.3718 39.2543 34.319 39.2633 34.2659 39.2633Z" fill="#2F2E41"/>
<path d="M29.6355 18.8998C28.333 18.8998 26.8809 18.6426 26.434 17.581L26.4237 17.5566L26.4376 17.534C26.7904 16.9606 27.2567 15.9825 27.006 15.799C26.5123 15.4374 26.2728 14.8426 26.294 14.031C26.3402 12.2693 27.5521 10.7051 29.3098 10.1388H29.3098C29.8004 9.98328 30.2997 9.85596 30.8051 9.75745C31.1736 9.68381 31.554 9.69191 31.9189 9.78117C32.2838 9.87044 32.6243 10.0386 32.9158 10.2737C33.2109 10.5103 33.4495 10.8088 33.6144 11.1476C33.7793 11.4864 33.8664 11.8572 33.8694 12.2333C33.8878 14.116 33.5952 16.7382 32.0963 18.5385C32.0261 18.6221 31.9283 18.6784 31.8203 18.6975C31.0992 18.8267 30.3683 18.8944 29.6355 18.8998Z" fill="#CCCCCC"/>
<path d="M29.1494 18.8292C29.2203 18.5774 29.3886 18.3634 29.6179 18.2338C29.8472 18.1043 30.1188 18.0695 30.3737 18.1372C30.4258 18.1516 30.4766 18.1702 30.5255 18.1929L32.2016 16.6821L33.3672 17.4599L30.9704 19.5607C30.8621 19.754 30.6917 19.9059 30.4863 19.9922C30.2809 20.0785 30.0522 20.0943 29.8367 20.037C29.7112 20.003 29.5937 19.9446 29.491 19.8653C29.3884 19.7861 29.3026 19.6874 29.2387 19.5751C29.1748 19.4628 29.134 19.339 29.1187 19.211C29.1033 19.083 29.1138 18.9532 29.1494 18.8292Z" fill="#FFB8B8"/>
<path d="M31.9362 18.8483C31.8275 18.8484 31.722 18.8111 31.6379 18.7429L30.9769 18.2079C30.9219 18.1633 30.8777 18.107 30.8477 18.0431C30.8177 17.9792 30.8027 17.9094 30.8038 17.8389C30.8049 17.7684 30.822 17.6991 30.854 17.6361C30.886 17.5732 30.9319 17.5182 30.9884 17.4753L33.7605 15.3694C33.7933 15.3444 33.8149 15.3075 33.8205 15.2667C33.826 15.226 33.8152 15.1848 33.7902 15.1519L32.0792 12.9114C31.8804 12.652 31.7807 12.3313 31.7977 12.006C31.8148 11.6808 31.9474 11.372 32.1722 11.1343C32.409 10.881 32.7333 10.7251 33.0806 10.6976C33.428 10.6701 33.7732 10.7729 34.0476 10.9857L34.0584 10.997L35.8451 13.531C36.0383 13.681 36.1938 13.8733 36.2996 14.0927C36.4054 14.3121 36.4585 14.5528 36.4549 14.796C36.4512 15.0391 36.3909 15.2781 36.2785 15.4944C36.1662 15.7106 36.0049 15.8982 35.8073 16.0424L32.217 18.7567C32.1357 18.8162 32.0373 18.8483 31.9362 18.8483Z" fill="#CCCCCC"/>
<path d="M28.3035 5.9222V4.65678L30.5843 3.67029L32.7591 4.65678V5.9222C32.7591 5.97728 32.737 6.0301 32.6977 6.06905C32.6584 6.108 32.605 6.12988 32.5494 6.12988H28.5131C28.4575 6.12988 28.4042 6.108 28.3649 6.06905C28.3256 6.0301 28.3035 5.97728 28.3035 5.9222Z" fill="#2F2E41"/>
<path d="M30.4781 2.89712C30.1428 1.83395 30.8471 0.615495 31.8883 0.194661C32.9295 -0.226172 34.1752 0.0680036 35.0538 0.763284C35.9324 1.45856 36.4774 2.49996 36.7663 3.57646C37.0551 4.65295 37.1099 5.77548 37.1632 6.88809C38.4425 7.12084 39.3127 8.62372 38.8696 9.83492C38.4264 11.0461 36.7862 11.6479 35.6534 11.0148C34.5206 10.3817 34.1925 8.67997 35.01 7.678C35.3969 7.20389 35.613 6.6155 35.6241 6.00601C35.6352 5.39652 35.4407 4.80078 35.0714 4.31314C34.7021 3.8255 34.1791 3.47384 33.5852 3.31386C32.9913 3.15387 32.3606 3.19471 31.7928 3.42989C31.1623 3.69105 30.3712 3.01252 30.4781 2.89712Z" fill="#2F2E41"/>
<path d="M16.1045 10.4965C14.5728 10.4866 13.0604 10.1585 11.6647 9.5334C11.5817 9.49673 11.5111 9.43691 11.4618 9.36125C11.4124 9.28558 11.3863 9.19732 11.3867 9.10724V5.32556C11.3869 5.20167 11.4366 5.08289 11.5251 4.99529C11.6135 4.90769 11.7334 4.85841 11.8585 4.85828H20.3504C20.4755 4.85842 20.5954 4.90769 20.6839 4.99529C20.7723 5.0829 20.8221 5.20167 20.8222 5.32556V9.10724C20.8226 9.19733 20.7965 9.28558 20.7471 9.36125C20.6978 9.43692 20.6273 9.49673 20.5442 9.53341C19.1486 10.1585 17.6361 10.4866 16.1045 10.4965Z" fill="#EFDC70"/>
<path d="M16.1032 7.43276C16.0402 7.43282 15.9779 7.4204 15.9198 7.39625L9.18584 4.58221C9.099 4.54592 9.02513 4.4847 8.97374 4.40644C8.92235 4.32819 8.89581 4.23648 8.89754 4.14314C8.89927 4.0498 8.92919 3.95911 8.98343 3.88277C9.03768 3.80643 9.11377 3.74793 9.20189 3.71482L15.936 1.18446C16.0444 1.14351 16.1644 1.14377 16.2726 1.18517L22.9165 3.71553C23.0041 3.7489 23.0797 3.80742 23.1336 3.88357C23.1874 3.95973 23.2171 4.05008 23.2188 4.14305C23.2206 4.23602 23.1943 4.32739 23.1433 4.40547C23.0923 4.48354 23.019 4.54478 22.9326 4.58134L16.2887 7.39534C16.23 7.42009 16.1669 7.43282 16.1032 7.43276Z" fill="#EFDC70"/>
<path d="M12.1732 9.79077C12.5206 9.79077 12.8023 9.51182 12.8023 9.16773C12.8023 8.82363 12.5206 8.54468 12.1732 8.54468C11.8258 8.54468 11.5442 8.82363 11.5442 9.16773C11.5442 9.51182 11.8258 9.79077 12.1732 9.79077Z" fill="#3F3D56"/>
<path opacity="0.2" d="M22.9563 4.18193L16.3123 6.99593C16.2605 7.01787 16.2048 7.02924 16.1485 7.02938C16.0921 7.02951 16.0363 7.0184 15.9844 6.99672L9.25045 4.18275C9.16588 4.14825 9.09533 4.08683 9.04993 4.00819C9.02024 4.05918 9.00184 4.11586 8.99596 4.17444C8.99007 4.23302 8.99683 4.29217 9.0158 4.34797C9.03476 4.40376 9.06549 4.45492 9.10595 4.49805C9.14641 4.54118 9.19566 4.57529 9.25045 4.59811L15.9844 7.41208C16.0363 7.43377 16.0921 7.44488 16.1485 7.44474C16.2048 7.44461 16.2605 7.43323 16.3123 7.41129L22.9563 4.59729C23.0108 4.57426 23.0597 4.54004 23.0999 4.4969C23.1401 4.45375 23.1706 4.40265 23.1893 4.34698C23.2081 4.2913 23.2147 4.23232 23.2088 4.17392C23.2029 4.11552 23.1845 4.05903 23.1549 4.00818C23.1098 4.08619 23.04 4.14728 22.9563 4.18193Z" fill="black"/>
<path d="M12.2262 9.1652C12.254 9.1652 12.2807 9.15426 12.3003 9.13479C12.32 9.11532 12.331 9.0889 12.331 9.06136V5.58669L15.7887 4.33903C15.8165 4.33944 15.8434 4.32889 15.8633 4.30971C15.8833 4.29052 15.8947 4.26428 15.8951 4.23674C15.8955 4.20919 15.8849 4.18262 15.8655 4.16286C15.8462 4.14309 15.8196 4.13176 15.7918 4.13135L12.3341 5.37901C12.3063 5.37838 12.2786 5.38334 12.2528 5.39361C12.227 5.40388 12.2035 5.41923 12.1839 5.43874C12.164 5.45801 12.1482 5.48104 12.1375 5.50645C12.1267 5.53186 12.1213 5.55915 12.1213 5.58669V9.06136C12.1213 9.0889 12.1324 9.11531 12.152 9.13479C12.1717 9.15426 12.1984 9.1652 12.2262 9.1652Z" fill="#3F3D56"/>
</svg>
