<svg width="81" height="60" viewBox="0 0 81 60" fill="none" xmlns="http://www.w3.org/2000/svg">
<path d="M23.6656 0L10.7652 6.66097C10.9858 7.023 11.1279 7.42355 11.1831 7.83889C11.2384 8.25423 11.2056 8.67592 11.0867 9.07895C10.9678 9.48199 10.7653 9.85819 10.4911 10.1852C10.2169 10.5123 9.87666 10.7836 9.49048 10.983C9.1043 11.1824 8.68006 11.3058 8.2429 11.3461C7.80574 11.3863 7.36455 11.3425 6.94548 11.2172C6.52641 11.0919 6.13798 10.8878 5.80321 10.6168C5.46844 10.3458 5.19415 10.0134 4.99657 9.63954L0.5979 11.9107L11.9918 31.9628L35.0595 20.0521L23.6656 0Z" fill="white"/>
<path d="M7.73178 10.7705C9.20261 10.7705 10.395 9.63389 10.395 8.23181C10.395 6.82973 9.20261 5.69312 7.73178 5.69312C6.26095 5.69312 5.0686 6.82973 5.0686 8.23181C5.0686 9.63389 6.26095 10.7705 7.73178 10.7705Z" fill="#6C63FF"/>
<path d="M56.0586 53.6811L70.0066 49.3441C69.858 48.9501 69.7939 48.5317 69.8181 48.1137C69.8422 47.6957 69.9541 47.2865 70.1472 46.9105C70.3403 46.5344 70.6106 46.1992 70.9421 45.9245C71.2736 45.6499 71.6596 45.4415 72.0771 45.3117C72.4947 45.1818 72.9353 45.1332 73.3729 45.1687C73.8105 45.2042 74.2362 45.323 74.6247 45.5182C75.0133 45.7134 75.3568 45.9809 75.6349 46.305C75.913 46.629 76.12 47.003 76.2437 47.4047L80.9995 45.9259L73.5809 24.2455L48.6399 32.0007L56.0586 53.6811Z" fill="white"/>
<path d="M73.2879 50.8581C74.7588 50.8581 75.9511 49.7215 75.9511 48.3195C75.9511 46.9174 74.7588 45.7808 73.2879 45.7808C71.8171 45.7808 70.6248 46.9174 70.6248 48.3195C70.6248 49.7215 71.8171 50.8581 73.2879 50.8581Z" fill="#6C63FF"/>
<path d="M73.8381 11.8943H9.43945V39.784H73.8381V11.8943Z" fill="#3F3D56"/>
<path d="M72.7759 12.907H10.5022V38.2258H72.7759V12.907Z" fill="white"/>
<path d="M66.4409 37.0183H60.3933V38.9659H66.4409V37.0183Z" fill="#3F3D56"/>
<path d="M60.0672 38.4984H55.6541V39.0437H60.0672V38.4984Z" fill="#6C63FF"/>
<path d="M15.5686 22.4892H39.3503L43.0374 24.2015L48.912 26.9298L52.7531 20.0742H63.6224" stroke="#3F3D56" stroke-miterlimit="10"/>
<path d="M24.9197 22.489L26.6829 26.4621H31.0143" stroke="#3F3D56" stroke-miterlimit="10"/>
<path d="M31.5298 22.4891L37.5523 19.3729H41.8019" stroke="#3F3D56" stroke-miterlimit="10"/>
<path d="M24.8852 23.1904C25.2914 23.1904 25.6207 22.8764 25.6207 22.4892C25.6207 22.102 25.2914 21.7881 24.8852 21.7881C24.479 21.7881 24.1497 22.102 24.1497 22.4892C24.1497 22.8764 24.479 23.1904 24.8852 23.1904Z" fill="#6C63FF"/>
<path d="M31.7499 23.1904C32.1561 23.1904 32.4854 22.8764 32.4854 22.4892C32.4854 22.102 32.1561 21.7881 31.7499 21.7881C31.3437 21.7881 31.0144 22.102 31.0144 22.4892C31.0144 22.8764 31.3437 23.1904 31.7499 23.1904Z" fill="#6C63FF"/>
<path d="M43.0281 24.2029L43.5184 31.1363H47.7681" stroke="#3F3D56" stroke-miterlimit="10"/>
<path d="M51.2125 22.8235L46.542 19.3729H50.9551" stroke="#3F3D56" stroke-miterlimit="10"/>
<path d="M58.9275 20.0742L63.459 23.502H67.7087" stroke="#3F3D56" stroke-miterlimit="10"/>
<path d="M43.0273 24.9042C43.4335 24.9042 43.7628 24.5903 43.7628 24.2031C43.7628 23.8159 43.4335 23.502 43.0273 23.502C42.621 23.502 42.2917 23.8159 42.2917 24.2031C42.2917 24.5903 42.621 24.9042 43.0273 24.9042Z" fill="#6C63FF"/>
<path d="M58.8825 20.7753C59.2887 20.7753 59.618 20.4614 59.618 20.0742C59.618 19.687 59.2887 19.373 58.8825 19.373C58.4763 19.373 58.147 19.687 58.147 20.0742C58.147 20.4614 58.4763 20.7753 58.8825 20.7753Z" fill="#6C63FF"/>
<path d="M51.1999 23.5019C51.6061 23.5019 51.9354 23.188 51.9354 22.8007C51.9354 22.4135 51.6061 22.0996 51.1999 22.0996C50.7937 22.0996 50.4644 22.4135 50.4644 22.8007C50.4644 23.188 50.7937 23.5019 51.1999 23.5019Z" fill="#6C63FF"/>
<path d="M26.7646 27.0857H31.0143" stroke="#3F3D56" stroke-width="0.5" stroke-miterlimit="10"/>
<path d="M66.159 7.03378C66.825 7.03378 67.3649 6.51912 67.3649 5.88426C67.3649 5.2494 66.825 4.73474 66.159 4.73474C65.493 4.73474 64.9531 5.2494 64.9531 5.88426C64.9531 6.51912 65.493 7.03378 66.159 7.03378Z" stroke="#3F3D56" stroke-width="2" stroke-miterlimit="10"/>
<path d="M12.4221 60C19.2826 60 24.8441 59.0234 24.8441 57.8186C24.8441 56.6139 19.2826 55.6373 12.4221 55.6373C5.56155 55.6373 0 56.6139 0 57.8186C0 59.0234 5.56155 60 12.4221 60Z" fill="#F2F2F2"/>
<path d="M20.9534 38.458L18.7373 39.5238L18.8807 39.7961L21.0968 38.7303L20.9534 38.458Z" fill="#6C63FF"/>
<path d="M20.5925 36.4755L20.493 37.0449C20.493 37.0449 20.6423 40.9835 19.5472 39.7498C18.452 38.516 19.1987 36.8551 19.1987 36.8551L19.4974 36.3806L20.5925 36.4755Z" fill="#FBBEBE"/>
<path d="M14.2206 18.2537C14.2206 18.2537 14.0215 20.2467 13.922 20.3416C13.8224 20.4365 15.4153 22.2397 15.4153 22.2397L16.8092 21.0059C16.8092 21.0059 16.7096 19.2027 17.0083 18.8231C17.307 18.4435 14.2206 18.2537 14.2206 18.2537Z" fill="#FBBEBE"/>
<path opacity="0.1" d="M14.2206 18.2537C14.2206 18.2537 14.0215 20.2467 13.922 20.3416C13.8224 20.4365 15.4153 22.2397 15.4153 22.2397L16.8092 21.0059C16.8092 21.0059 16.7096 19.2027 17.0083 18.8231C17.307 18.4435 14.2206 18.2537 14.2206 18.2537Z" fill="black"/>
<path d="M10.538 54.6022V56.3105L9.84103 56.4055L8.84546 56.1207L9.14408 54.3175L10.538 54.6022Z" fill="#3F3D56"/>
<path d="M9.6412 55.4566C9.6412 55.4566 9.34252 54.6974 8.84472 54.7923C8.34693 54.8872 8.24737 55.4566 8.24737 55.4566C8.24737 55.4566 7.84913 56.8802 7.25178 57.3547C6.65442 57.8292 6.05707 59.063 7.25178 59.2528C8.44649 59.4426 9.44208 58.9681 9.44208 58.8732C9.44208 58.7783 9.74076 58.2089 10.2386 58.114C10.7363 58.0191 11.1346 57.9241 11.1346 57.5445C11.1346 57.1649 10.8359 56.7853 10.8359 56.7853C10.8359 56.7853 10.7363 54.9851 10.5372 55.2208C10.3995 55.4071 10.2983 55.6156 10.2386 55.8362L9.6412 55.4566Z" fill="#2F2E41"/>
<path d="M14.8187 53.7486L14.4204 55.1721L15.416 55.362L15.9138 54.8875L16.0133 53.6537L14.8187 53.7486Z" fill="#3F3D56"/>
<path d="M14.7185 54.9821C14.7185 54.9821 15.1168 54.6974 15.3159 54.6974H15.6146C15.6146 54.6974 15.6146 54.0331 16.1124 54.0331C16.6102 54.0331 16.5106 54.5076 16.5106 54.5076C16.5106 54.5076 17.6058 56.121 17.9044 56.4057C18.2031 56.6904 19.7961 57.5446 18.5018 57.9242C17.2075 58.3038 16.3115 58.3038 15.7141 57.6395C15.7141 57.6395 15.1168 57.3548 14.7185 57.3548C14.3203 57.3548 13.8225 57.1649 13.8225 56.8802C13.8225 56.5955 14.1212 56.0261 14.1212 56.0261C14.1212 56.0261 14.3203 54.3178 14.4199 54.5076C14.5194 54.6974 14.7185 54.9821 14.7185 54.9821Z" fill="#2F2E41"/>
<path d="M10.4379 31.92V35.0519C10.4379 35.0519 9.34279 41.1259 9.34279 43.1189C9.34279 45.1119 7.65028 54.6024 8.44676 54.7923C9.24323 54.9821 11.1349 55.2668 11.2344 54.9821C11.334 54.6974 12.0309 45.6813 12.1304 45.5864C12.23 45.4915 14.3207 37.994 14.3207 37.994L14.719 38.0889L14.9181 46.6304C14.9181 46.6304 13.9225 54.3177 14.4203 54.3177C14.9181 54.3177 17.0088 54.2228 17.0088 53.6534C17.0088 53.084 18.104 42.5495 18.104 42.5495C18.104 42.5495 19.3983 34.1978 18.9005 33.3436C18.4027 32.4895 18.4027 32.015 18.4027 32.015L10.4379 31.92Z" fill="#2F2E41"/>
<path d="M15.8623 19.7249C16.962 19.7249 17.8535 18.8751 17.8535 17.8268C17.8535 16.7785 16.962 15.9287 15.8623 15.9287C14.7626 15.9287 13.8711 16.7785 13.8711 17.8268C13.8711 18.8751 14.7626 19.7249 15.8623 19.7249Z" fill="#FBBEBE"/>
<path d="M15.4158 21.101C15.4158 21.101 14.1713 20.1045 14.0717 19.7249C14.0717 19.7249 13.4246 20.3417 13.4246 20.4366C13.4246 20.5315 10.6369 20.8163 9.94002 21.5755C9.24311 22.3347 8.64575 23.9481 8.64575 23.9481L10.3383 26.9851C10.3383 26.9851 10.4378 28.6934 10.4378 28.8832C10.4378 29.073 9.94002 32.11 10.1391 32.2049C10.3383 32.2998 12.3294 33.2489 14.0219 33.0591C15.7145 32.8692 17.407 32.5845 17.9048 32.5845C18.4025 32.5845 18.8008 32.7743 18.8008 32.5845C18.8008 32.3947 18.5021 32.0151 18.5021 31.8253C18.5021 31.6355 18.4025 31.1609 18.4025 30.8762C18.4025 30.5915 18.2034 30.117 18.2034 29.7374C18.2034 29.3577 20.3937 24.2329 20.3937 24.2329C20.3937 24.2329 20.2942 22.6195 18.7012 21.8602C17.1083 21.101 16.9092 20.8163 16.9092 20.8163C16.9092 20.8163 16.8781 20.2468 16.7941 20.2468C16.71 20.2468 16.4114 21.101 15.6149 21.1959L15.4158 21.101Z" fill="#EFDC70"/>
<path d="M10.0393 33.7232L10.7362 34.7671L12.5283 34.3875L11.234 32.964L10.0393 33.7232Z" fill="#FBBEBE"/>
<path d="M19.796 23.4734L20.3934 24.2326C20.3934 24.2326 21.5881 29.7372 21.389 31.7302C21.1898 33.7232 20.9907 35.2417 20.9907 35.2417C20.9907 35.2417 21.389 36.6652 21.0903 36.6652C20.7916 36.6652 18.9995 36.7602 18.9995 36.4754C18.9995 36.1907 19.1987 34.3875 19.1987 34.3875L18.7009 30.2117L17.6057 28.7881L19.796 23.4734Z" fill="#EFDC70"/>
<path d="M14.5109 16.9052C14.633 16.8559 14.7741 16.8959 14.9048 16.8749C15.0583 16.8502 15.1956 16.7418 15.3506 16.7555C15.4241 16.7684 15.4955 16.7905 15.5629 16.8212C15.5967 16.8363 15.6335 16.8448 15.6708 16.8461C15.7082 16.8473 15.7455 16.8414 15.7803 16.8286C15.797 16.8212 15.8117 16.8104 15.8234 16.797C15.8351 16.7835 15.8435 16.7678 15.8481 16.7508C15.8526 16.7339 15.8531 16.7162 15.8496 16.699C15.846 16.6819 15.8385 16.6657 15.8276 16.6517C15.9588 16.6406 16.0828 16.5898 16.1813 16.5065C16.2009 16.4871 16.2237 16.4708 16.2488 16.4583C16.278 16.451 16.3085 16.4495 16.3383 16.454C16.3681 16.4584 16.3967 16.4686 16.4222 16.484L16.65 16.5841C16.7014 16.6014 16.7465 16.6322 16.7802 16.6729C16.8073 16.7132 16.8126 16.7673 16.851 16.7982C16.9 16.8375 16.9732 16.8183 17.0371 16.8221C17.0951 16.8275 17.1491 16.853 17.1887 16.8938C17.2283 16.9346 17.2508 16.9878 17.252 17.0434C17.2511 17.1071 17.2268 17.1853 17.2797 17.2243C17.3104 17.2469 17.3539 17.2433 17.3898 17.2572C17.4829 17.2932 17.4833 17.4168 17.4696 17.5117C17.4558 17.6066 17.4626 17.7318 17.5583 17.761C17.6257 17.7816 17.6946 17.7377 17.7646 17.728C17.8702 17.7132 17.968 17.7762 18.062 17.8244C18.156 17.8726 18.281 17.9051 18.3625 17.8393C18.4383 17.7782 18.4334 17.6663 18.4126 17.5737C18.3826 17.4409 18.3335 17.3128 18.2665 17.193C18.2417 17.1577 18.2271 17.1168 18.2241 17.0745C18.2298 17.0447 18.2421 17.0163 18.2601 16.9914C18.2781 16.9664 18.3014 16.9453 18.3286 16.9296C18.4438 16.8427 18.5763 16.7553 18.6136 16.6199C18.641 16.5205 18.6102 16.4157 18.6126 16.313C18.6155 16.188 18.6676 16.0635 18.6432 15.9407C18.5988 15.718 18.3389 15.6109 18.1711 15.4503C17.9405 15.2297 17.8656 14.8769 17.5935 14.7046C17.3758 14.5667 17.091 14.5832 16.8431 14.5043C16.5708 14.4177 16.3516 14.2186 16.0829 14.1221C15.9363 14.0705 15.7795 14.0505 15.6238 14.0636C15.4681 14.0766 15.3174 14.1223 15.1824 14.1974C15.1023 14.254 15.0128 14.2976 14.9177 14.3263C14.8376 14.3351 14.7566 14.3343 14.6767 14.3236C14.5179 14.3158 14.3597 14.3469 14.2171 14.414C14.1626 14.4348 14.1171 14.4728 14.0884 14.5217C14.0403 14.6235 14.1102 14.7827 14.0047 14.8314C13.9556 14.8541 13.8975 14.8323 13.8429 14.8335C13.7368 14.8357 13.6551 14.9238 13.6045 15.0128C13.5651 15.107 13.5086 15.1937 13.4375 15.2691C13.3077 15.3775 13.0719 15.3954 13.038 15.5566C13.0373 15.6249 13.0414 15.6932 13.0501 15.7609C13.0403 15.9039 12.8799 16.0125 12.8883 16.1555C12.8979 16.3204 13.1178 16.401 13.1765 16.5564C13.2213 16.6747 13.1624 16.8027 13.1219 16.9224C13.0813 17.0421 13.0691 17.1955 13.1738 17.2722C13.2148 17.3022 13.2675 17.3145 13.3094 17.3436C13.4177 17.4186 13.4163 17.5701 13.4043 17.6972C13.3973 17.7236 13.3973 17.7512 13.4042 17.7776C13.411 17.804 13.4246 17.8284 13.4436 17.8487C13.4615 17.859 13.4815 17.8656 13.5022 17.8679C13.523 17.8703 13.544 17.8684 13.5639 17.8625C13.629 17.8474 13.6901 17.8199 13.7435 17.7816C13.797 17.7432 13.8417 17.6949 13.8748 17.6395C13.9097 17.5845 13.9167 17.5361 13.98 17.5069C14.023 17.4871 14.0752 17.5048 14.119 17.4791C14.3271 17.357 14.2555 17.0084 14.5109 16.9052Z" fill="#2F2E41"/>
<path d="M8.94464 23.6635L8.64596 23.9482C8.64596 23.9482 6.8539 29.0731 7.45125 30.2119C8.0486 31.3508 9.24332 34.1979 9.64155 34.103C10.0398 34.0081 11.4336 33.154 11.4336 33.0591C11.4336 32.9642 9.74111 30.3068 9.74111 30.3068C9.74111 30.3068 9.54199 29.7374 9.64155 29.6425C9.74111 29.5476 9.74111 29.6425 9.64155 29.4527C9.54199 29.2629 9.54199 29.4527 9.74111 29.2629C9.94023 29.0731 9.94023 29.0731 9.94023 28.9781C9.94023 28.8832 10.5376 26.5106 10.5376 26.5106L8.94464 23.6635Z" fill="#EFDC70"/>
<path d="M10.4873 34.8147L12.6777 34.1504L12.9763 34.8147L10.5869 35.2892L10.4873 34.8147Z" fill="#2F2E41"/>
<path opacity="0.1" d="M10.4873 34.8147L12.6777 34.1504L12.9763 34.8147L10.5869 35.2892L10.4873 34.8147Z" fill="black"/>
<path opacity="0.1" d="M13.4744 20.484L15.1669 21.8127L15.366 21.5279L13.4744 20.484Z" fill="black"/>
<path opacity="0.1" d="M16.8599 20.8636L15.6653 21.5279L15.7648 21.8127L16.8599 20.8636Z" fill="black"/>
</svg>
