<?xml version="1.0" encoding="UTF-8"?>
<svg version="1.1" xmlns="http://www.w3.org/2000/svg" width="360" height="177">
<path d="M0 0 C118.8 0 237.6 0 360 0 C360 58.41 360 116.82 360 177 C241.2 177 122.4 177 0 177 C0 118.59 0 60.18 0 0 Z " fill="#630BFE" transform="translate(0,0)"/>
<path d="M0 0 C30.03 0 60.06 0 91 0 C91 45.54 91 91.08 91 138 C83.7257499 137.33870454 78.03903926 136.81565971 71.375 134.5 C70.23285034 134.10796387 70.23285034 134.10796387 69.06762695 133.70800781 C40.7985365 123.57880892 18.44950057 103.44157857 5.5625 76.3125 C2.40410541 69.39131214 -0.17030728 62.39581056 -2 55 C-2.33644531 53.700625 -2.33644531 53.700625 -2.6796875 52.375 C-6.20677567 35.75420096 -5.38085532 16.14256596 0 0 Z " fill="#FED601" transform="translate(269,0)"/>
<path d="M0 0 C19.8 0 39.6 0 60 0 C58 13 58 13 57 19 C55.9552836 36.05420382 57.25643553 51.86331888 63 68 C63 68.99 63 69.98 63 71 C57.53452235 71.2977303 53.22148571 70.36652716 48.1875 68.375 C47.48608887 68.10212158 46.78467773 67.82924316 46.06201172 67.5480957 C35.78641133 63.43477973 27.89385204 57.75127015 20 50 C19.28714844 49.31164063 18.57429688 48.62328125 17.83984375 47.9140625 C5.55353888 35.17796998 0 17.3053307 0 0 Z " fill="#FE2E95" transform="translate(209,0)"/>
</svg>
