<?xml version="1.0" encoding="UTF-8"?>
<svg version="1.1" xmlns="http://www.w3.org/2000/svg" width="360" height="91">
<path d="M0 0 C1.84506362 -0.00233999 1.84506362 -0.00233999 3.72740126 -0.00472724 C7.13415469 -0.00802317 10.54085292 -0.00684035 13.94760299 -0.00374103 C17.62454019 -0.00147771 21.30147257 -0.00497119 24.97840881 -0.00772095 C32.17859066 -0.01216763 39.37876207 -0.01120706 46.57894433 -0.00830831 C52.43067709 -0.00604996 58.28240694 -0.00574363 64.13414001 -0.00683212 C64.96697847 -0.00698536 65.79981693 -0.00713859 66.65789291 -0.00729647 C68.34978632 -0.00761619 70.04167973 -0.0079404 71.73357314 -0.00826906 C87.59858326 -0.01112062 103.4635876 -0.00784189 119.32859677 -0.00246869 C132.94160159 0.00199905 146.55459788 0.00122303 160.16760254 -0.00338745 C175.97583484 -0.00873891 191.78406209 -0.01084596 207.59229517 -0.00777519 C209.27796586 -0.00745664 210.96363656 -0.00714227 212.64930725 -0.00683212 C213.47869024 -0.00667785 214.30807323 -0.00652357 215.16258904 -0.00636462 C221.00731463 -0.00550119 226.852037 -0.00695862 232.69676208 -0.00931168 C239.81947939 -0.01211621 246.94218567 -0.01135758 254.06490171 -0.00603093 C257.69902107 -0.00340277 261.33312206 -0.00237391 264.96724129 -0.00568008 C268.90598701 -0.0092092 272.84470263 -0.00499528 276.78344727 0 C278.50785577 -0.00334608 278.50785577 -0.00334608 280.26710081 -0.00675976 C285.26728436 0.00557924 289.97160231 0.12937947 294.89172363 1.12698364 C295.86109863 1.12698364 296.83047363 1.12698364 297.82922363 1.12698364 C301.28841952 1.12698364 304.49737035 1.46142418 307.89172363 2.12698364 C308.22172363 2.78698364 308.55172363 3.44698364 308.89172363 4.12698364 C309.88172363 4.45698364 310.87172363 4.78698364 311.89172363 5.12698364 C311.89172363 6.11698364 311.89172363 7.10698364 311.89172363 8.12698364 C312.55172363 8.12698364 313.21172363 8.12698364 313.89172363 8.12698364 C314.32484863 9.79760864 314.32484863 9.79760864 314.76672363 11.50198364 C315.58413693 15.12989456 315.58413693 15.12989456 317.89172363 17.12698364 C317.56172363 17.78698364 317.23172363 18.44698364 316.89172363 19.12698364 C317.22172363 20.11698364 317.55172363 21.10698364 317.89172363 22.12698364 C317.99812163 23.67914786 318.05028846 25.23534875 318.06872559 26.79104614 C318.08156082 27.73633179 318.09439606 28.68161743 318.10762024 29.6555481 C318.11870064 31.18828369 318.11870064 31.18828369 318.13000488 32.75198364 C318.13807663 33.80925659 318.14614838 34.86652954 318.15446472 35.95584106 C318.16830536 38.19858156 318.1790276 40.44134312 318.18688965 42.68411255 C318.20401759 46.08606033 318.24789479 49.48701459 318.29211426 52.88870239 C318.30224907 55.07228903 318.3107627 57.2558839 318.31750488 59.43948364 C318.33501297 60.44511353 318.35252106 61.45074341 318.37055969 62.48684692 C318.345501 70.79960607 316.54103406 78.153018 311.89172363 85.12698364 C303.54369136 89.30099978 295.03948676 89.41306531 285.91773987 89.3742218 C284.61868491 89.37663622 283.31962995 89.37905063 281.9812097 89.38153821 C278.39091926 89.38792768 274.80074228 89.38190223 271.21045935 89.37377393 C267.33240575 89.36717787 263.45436444 89.37214959 259.5763092 89.37565613 C251.98501884 89.3806912 244.39377214 89.37506503 236.8024872 89.36580583 C227.95811254 89.35540719 219.11374725 89.35549242 210.26936763 89.35597841 C194.48568087 89.35647879 178.7020144 89.34732428 162.91833496 89.33279419 C147.61071402 89.31870968 132.30311091 89.31162335 116.9954834 89.31228638 C115.58147213 89.31234631 115.58147213 89.31234631 114.13889498 89.31240746 C112.72730362 89.31246799 112.72730362 89.31246799 111.28719527 89.31252974 C93.84992033 89.31322016 76.41265295 89.30732589 58.97538047 89.29837653 C52.81394524 89.29536384 46.6525114 89.2942974 40.49107552 89.29384422 C32.9790899 89.29316102 25.46711705 89.28868148 17.95513684 89.27951141 C14.12418276 89.27490456 10.29324494 89.27184381 6.4622879 89.27310562 C2.30573758 89.27440826 -1.85076474 89.26793674 -6.00730896 89.26069641 C-7.21295799 89.26224501 -8.41860701 89.26379362 -9.66079086 89.26538914 C-26.47322614 89.21701713 -26.47322614 89.21701713 -31.10827637 86.12698364 C-31.10827637 85.46698364 -31.10827637 84.80698364 -31.10827637 84.12698364 C-32.42827637 84.12698364 -33.74827637 84.12698364 -35.10827637 84.12698364 C-35.39702637 83.50823364 -35.68577637 82.88948364 -35.98327637 82.25198364 C-37.04547678 79.99372599 -37.04547678 79.99372599 -39.10827637 78.12698364 C-39.10827637 76.46031698 -39.10827637 74.79365031 -39.10827637 73.12698364 C-39.43352295 72.45836304 -39.75876953 71.78974243 -40.09387207 71.1008606 C-41.59441576 66.70179376 -41.37346484 62.4733265 -41.33874512 57.85745239 C-41.3382869 56.86248245 -41.33782867 55.86751251 -41.33735657 54.84239197 C-41.33434019 52.74022223 -41.32647229 50.63805461 -41.31408691 48.53591919 C-41.2959008 45.33637465 -41.29357695 42.13712123 -41.29382324 38.93753052 C-41.28890465 36.890002 -41.28307484 34.84247543 -41.27624512 32.79495239 C-41.27513229 31.8457341 -41.27401947 30.89651581 -41.27287292 29.91853333 C-41.22782198 23.53349561 -41.14485107 17.23670776 -39.10827637 11.12698364 C-38.44827637 11.12698364 -37.78827637 11.12698364 -37.10827637 11.12698364 C-37.10827637 9.80698364 -37.10827637 8.48698364 -37.10827637 7.12698364 C-36.44827637 7.12698364 -35.78827637 7.12698364 -35.10827637 7.12698364 C-34.77827637 6.46698364 -34.44827637 5.80698364 -34.10827637 5.12698364 C-30.05541398 1.74959832 -25.98539252 1.64026796 -20.92468262 1.33792114 C-18.15829229 1.19244938 -18.15829229 1.19244938 -15.68901825 0.62173653 C-10.45851168 -0.10096516 -5.27408312 -0.01023395 0 0 Z " fill="#FEFEFE" transform="translate(42.1082763671875,0.873016357421875)"/>
<path d="M0 0 C1.84506362 -0.00233999 1.84506362 -0.00233999 3.72740126 -0.00472724 C7.13415469 -0.00802317 10.54085292 -0.00684035 13.94760299 -0.00374103 C17.62454019 -0.00147771 21.30147257 -0.00497119 24.97840881 -0.00772095 C32.17859066 -0.01216763 39.37876207 -0.01120706 46.57894433 -0.00830831 C52.43067709 -0.00604996 58.28240694 -0.00574363 64.13414001 -0.00683212 C64.96697847 -0.00698536 65.79981693 -0.00713859 66.65789291 -0.00729647 C68.34978632 -0.00761619 70.04167973 -0.0079404 71.73357314 -0.00826906 C87.59858326 -0.01112062 103.4635876 -0.00784189 119.32859677 -0.00246869 C132.94160159 0.00199905 146.55459788 0.00122303 160.16760254 -0.00338745 C175.97583484 -0.00873891 191.78406209 -0.01084596 207.59229517 -0.00777519 C209.27796586 -0.00745664 210.96363656 -0.00714227 212.64930725 -0.00683212 C213.47869024 -0.00667785 214.30807323 -0.00652357 215.16258904 -0.00636462 C221.00731463 -0.00550119 226.852037 -0.00695862 232.69676208 -0.00931168 C239.81947939 -0.01211621 246.94218567 -0.01135758 254.06490171 -0.00603093 C257.69902107 -0.00340277 261.33312206 -0.00237391 264.96724129 -0.00568008 C268.90598701 -0.0092092 272.84470263 -0.00499528 276.78344727 0 C278.50785577 -0.00334608 278.50785577 -0.00334608 280.26710081 -0.00675976 C285.26728436 0.00557924 289.97160231 0.12937947 294.89172363 1.12698364 C295.86109863 1.12698364 296.83047363 1.12698364 297.82922363 1.12698364 C301.28841952 1.12698364 304.49737035 1.46142418 307.89172363 2.12698364 C308.22172363 2.78698364 308.55172363 3.44698364 308.89172363 4.12698364 C309.88172363 4.45698364 310.87172363 4.78698364 311.89172363 5.12698364 C311.89172363 6.11698364 311.89172363 7.10698364 311.89172363 8.12698364 C312.55172363 8.12698364 313.21172363 8.12698364 313.89172363 8.12698364 C314.32484863 9.79760864 314.32484863 9.79760864 314.76672363 11.50198364 C315.58413693 15.12989456 315.58413693 15.12989456 317.89172363 17.12698364 C317.56172363 17.78698364 317.23172363 18.44698364 316.89172363 19.12698364 C317.22172363 20.11698364 317.55172363 21.10698364 317.89172363 22.12698364 C317.99812163 23.67914786 318.05028846 25.23534875 318.06872559 26.79104614 C318.08156082 27.73633179 318.09439606 28.68161743 318.10762024 29.6555481 C318.11870064 31.18828369 318.11870064 31.18828369 318.13000488 32.75198364 C318.13807663 33.80925659 318.14614838 34.86652954 318.15446472 35.95584106 C318.16830536 38.19858156 318.1790276 40.44134312 318.18688965 42.68411255 C318.20401759 46.08606033 318.24789479 49.48701459 318.29211426 52.88870239 C318.30224907 55.07228903 318.3107627 57.2558839 318.31750488 59.43948364 C318.33501297 60.44511353 318.35252106 61.45074341 318.37055969 62.48684692 C318.345501 70.79960607 316.54103406 78.153018 311.89172363 85.12698364 C303.54369136 89.30099978 295.03948676 89.41306531 285.91773987 89.3742218 C284.61868491 89.37663622 283.31962995 89.37905063 281.9812097 89.38153821 C278.39091926 89.38792768 274.80074228 89.38190223 271.21045935 89.37377393 C267.33240575 89.36717787 263.45436444 89.37214959 259.5763092 89.37565613 C251.98501884 89.3806912 244.39377214 89.37506503 236.8024872 89.36580583 C227.95811254 89.35540719 219.11374725 89.35549242 210.26936763 89.35597841 C194.48568087 89.35647879 178.7020144 89.34732428 162.91833496 89.33279419 C147.61071402 89.31870968 132.30311091 89.31162335 116.9954834 89.31228638 C115.58147213 89.31234631 115.58147213 89.31234631 114.13889498 89.31240746 C112.72730362 89.31246799 112.72730362 89.31246799 111.28719527 89.31252974 C93.84992033 89.31322016 76.41265295 89.30732589 58.97538047 89.29837653 C52.81394524 89.29536384 46.6525114 89.2942974 40.49107552 89.29384422 C32.9790899 89.29316102 25.46711705 89.28868148 17.95513684 89.27951141 C14.12418276 89.27490456 10.29324494 89.27184381 6.4622879 89.27310562 C2.30573758 89.27440826 -1.85076474 89.26793674 -6.00730896 89.26069641 C-7.21295799 89.26224501 -8.41860701 89.26379362 -9.66079086 89.26538914 C-26.47322614 89.21701713 -26.47322614 89.21701713 -31.10827637 86.12698364 C-31.10827637 85.46698364 -31.10827637 84.80698364 -31.10827637 84.12698364 C-32.42827637 84.12698364 -33.74827637 84.12698364 -35.10827637 84.12698364 C-35.39702637 83.50823364 -35.68577637 82.88948364 -35.98327637 82.25198364 C-37.04547678 79.99372599 -37.04547678 79.99372599 -39.10827637 78.12698364 C-39.10827637 76.46031698 -39.10827637 74.79365031 -39.10827637 73.12698364 C-39.43352295 72.45836304 -39.75876953 71.78974243 -40.09387207 71.1008606 C-41.59441576 66.70179376 -41.37346484 62.4733265 -41.33874512 57.85745239 C-41.3382869 56.86248245 -41.33782867 55.86751251 -41.33735657 54.84239197 C-41.33434019 52.74022223 -41.32647229 50.63805461 -41.31408691 48.53591919 C-41.2959008 45.33637465 -41.29357695 42.13712123 -41.29382324 38.93753052 C-41.28890465 36.890002 -41.28307484 34.84247543 -41.27624512 32.79495239 C-41.27513229 31.8457341 -41.27401947 30.89651581 -41.27287292 29.91853333 C-41.22782198 23.53349561 -41.14485107 17.23670776 -39.10827637 11.12698364 C-38.44827637 11.12698364 -37.78827637 11.12698364 -37.10827637 11.12698364 C-37.10827637 9.80698364 -37.10827637 8.48698364 -37.10827637 7.12698364 C-36.44827637 7.12698364 -35.78827637 7.12698364 -35.10827637 7.12698364 C-34.77827637 6.46698364 -34.44827637 5.80698364 -34.10827637 5.12698364 C-30.05541398 1.74959832 -25.98539252 1.64026796 -20.92468262 1.33792114 C-18.15829229 1.19244938 -18.15829229 1.19244938 -15.68901825 0.62173653 C-10.45851168 -0.10096516 -5.27408312 -0.01023395 0 0 Z M-26.10827637 17.12698364 C-26.71417908 19.54674288 -26.71417908 19.54674288 -26.64172363 22.19924927 C-26.65755997 23.20709473 -26.6733963 24.21494019 -26.68971252 25.25332642 C-26.68475266 26.3356958 -26.67979279 27.41806519 -26.67468262 28.53323364 C-26.6808812 29.65008545 -26.68707977 30.76693726 -26.69346619 31.91763306 C-26.70056721 34.27793506 -26.69738551 36.63828712 -26.68469238 38.99856567 C-26.67082646 42.6139215 -26.70489725 46.22669021 -26.74304199 49.84182739 C-26.74399316 52.13479678 -26.74213451 54.42776941 -26.73718262 56.72073364 C-26.75044083 57.80310303 -26.76369904 58.88547241 -26.77735901 60.00064087 C-26.7648259 61.00848633 -26.75229279 62.01633179 -26.73937988 63.05471802 C-26.73841812 63.93978027 -26.73745636 64.82484253 -26.73646545 65.73672485 C-26.25396486 68.25122258 -26.25396486 68.25122258 -24.36418915 70.24420834 C-19.24187966 73.20625261 -14.20103012 72.68067988 -8.38548279 72.64164734 C-6.42320286 72.65206563 -6.42320286 72.65206563 -4.42128092 72.66269439 C-0.79166643 72.68134467 2.83754071 72.67500883 6.46717227 72.66454136 C10.38202588 72.65755616 14.29679523 72.67354197 18.21162415 72.6865387 C25.87988036 72.70819433 33.54798827 72.708048 41.21626503 72.69991315 C47.44705726 72.69361717 53.67780618 72.69474648 59.90859795 72.70118523 C61.23802283 72.70253771 61.23802283 72.70253771 62.59430478 72.70391751 C64.3946742 72.70576868 66.1950436 72.70763124 67.995413 72.70950507 C84.88236707 72.72608856 101.76923763 72.71735921 118.65618669 72.70051949 C134.11470441 72.68581739 149.57302785 72.70045712 165.03152055 72.72928966 C180.8970935 72.75866161 196.76257672 72.76966268 212.62817568 72.76010746 C214.42167213 72.75908488 216.2151686 72.75809027 218.00866508 72.75712395 C219.33238133 72.75640936 219.33238133 72.75640936 220.68283932 72.75568034 C226.90823886 72.75351355 233.13355367 72.76333418 239.3589344 72.77789497 C246.94258129 72.79538501 254.5259803 72.79534886 262.1096173 72.77254332 C265.98058382 72.7613714 269.8511131 72.75830466 273.72206116 72.77684402 C277.91370817 72.7966615 282.10428205 72.77793138 286.2959137 72.75517273 C288.14097593 72.77292632 288.14097593 72.77292632 290.02331215 72.79103857 C296.39537092 72.8918957 296.39537092 72.8918957 301.64721584 69.74225616 C302.9831036 66.93495308 303.39790844 65.13008029 303.40930176 62.0329895 C303.42821472 60.55136574 303.42821472 60.55136574 303.44750977 59.03981018 C303.43941284 57.98447586 303.43131592 56.92914154 303.42297363 55.84182739 C303.42871399 54.20196617 303.42871399 54.20196617 303.43457031 52.52897644 C303.43728832 50.22171099 303.42993505 47.91441467 303.41320801 45.60720825 C303.39177764 42.07338945 303.41302556 38.54159909 303.43859863 35.00784302 C303.43595574 32.76499999 303.43083157 30.52215822 303.42297363 28.27932739 C303.43511902 26.69328957 303.43511902 26.69328957 303.44750977 25.07521057 C303.43490112 24.09061356 303.42229248 23.10601654 303.40930176 22.09158325 C303.40611938 21.22730209 303.40293701 20.36302094 303.3996582 19.47254944 C302.70646177 16.27147208 301.41181011 15.18180784 298.89172363 13.12698364 C296.29307352 12.53123578 296.29307352 12.53123578 293.3975296 12.62361908 C292.27386222 12.61318809 291.15019485 12.6027571 289.99247694 12.59201002 C288.1405551 12.60539435 288.1405551 12.60539435 286.2512207 12.61904907 C284.93980496 12.61280911 283.62838922 12.60656915 282.2772336 12.60014009 C278.63394952 12.58340971 274.99108341 12.59170965 271.34779763 12.60408497 C267.41998193 12.61311811 263.49223918 12.5991744 259.56443787 12.58816528 C251.86863166 12.57035683 244.17298129 12.57423035 236.47716892 12.58581585 C230.22394776 12.59484077 223.97077035 12.59607825 217.71754456 12.59172058 C216.82835045 12.59110765 215.93915634 12.59049472 215.02301696 12.58986321 C213.21676901 12.58858434 211.41052107 12.58728749 209.60427314 12.58597285 C192.65770781 12.57456024 175.71122897 12.58769141 158.76467782 12.60917431 C144.21632555 12.62704592 129.66810094 12.623942 115.11975098 12.60549927 C98.23480422 12.58410456 81.3499333 12.57565894 64.46497488 12.58794832 C62.66528417 12.58922255 60.86559345 12.59048003 59.06590271 12.59172058 C58.18036611 12.59233768 57.29482952 12.59295479 56.38245848 12.59359059 C50.13504519 12.59704769 43.88767991 12.59120739 37.64027405 12.58180237 C30.02917915 12.57059654 22.4182493 12.57359249 14.80717337 12.59492534 C10.9220964 12.60545496 7.03729485 12.60952535 3.15221977 12.59632874 C-1.05468558 12.58225481 -5.26089243 12.59903194 -9.46777344 12.61904907 C-10.702388 12.61012619 -11.93700255 12.6012033 -13.20902967 12.59201002 C-14.33269705 12.60244101 -15.45636443 12.612872 -16.61408234 12.62361908 C-17.58551697 12.62426849 -18.55695161 12.6249179 -19.55782366 12.62558699 C-22.8489013 13.27258402 -24.0437086 14.53776923 -26.10827637 17.12698364 Z " fill="#CBCBCB" transform="translate(42.1082763671875,0.873016357421875)"/>
<path d="M0 0 C1.84506362 -0.00233999 1.84506362 -0.00233999 3.72740126 -0.00472724 C7.13415469 -0.00802317 10.54085292 -0.00684035 13.94760299 -0.00374103 C17.62454019 -0.00147771 21.30147257 -0.00497119 24.97840881 -0.00772095 C32.17859066 -0.01216763 39.37876207 -0.01120706 46.57894433 -0.00830831 C52.43067709 -0.00604996 58.28240694 -0.00574363 64.13414001 -0.00683212 C64.96697847 -0.00698536 65.79981693 -0.00713859 66.65789291 -0.00729647 C68.34978632 -0.00761619 70.04167973 -0.0079404 71.73357314 -0.00826906 C87.59858326 -0.01112062 103.4635876 -0.00784189 119.32859677 -0.00246869 C132.94160159 0.00199905 146.55459788 0.00122303 160.16760254 -0.00338745 C175.97583484 -0.00873891 191.78406209 -0.01084596 207.59229517 -0.00777519 C209.27796586 -0.00745664 210.96363656 -0.00714227 212.64930725 -0.00683212 C213.47869024 -0.00667785 214.30807323 -0.00652357 215.16258904 -0.00636462 C221.00731463 -0.00550119 226.852037 -0.00695862 232.69676208 -0.00931168 C239.81947939 -0.01211621 246.94218567 -0.01135758 254.06490171 -0.00603093 C257.69902107 -0.00340277 261.33312206 -0.00237391 264.96724129 -0.00568008 C268.90598701 -0.0092092 272.84470263 -0.00499528 276.78344727 0 C278.50785577 -0.00334608 278.50785577 -0.00334608 280.26710081 -0.00675976 C285.26728436 0.00557924 289.97160231 0.12937947 294.89172363 1.12698364 C295.86109863 1.12698364 296.83047363 1.12698364 297.82922363 1.12698364 C301.28841952 1.12698364 304.49737035 1.46142418 307.89172363 2.12698364 C308.22172363 2.78698364 308.55172363 3.44698364 308.89172363 4.12698364 C309.88172363 4.45698364 310.87172363 4.78698364 311.89172363 5.12698364 C312.27235584 7.45306934 312.60442308 9.78753628 312.89172363 12.12698364 C312.56172363 12.45698364 312.23172363 12.78698364 311.89172363 13.12698364 C312.55172363 13.78698364 313.21172363 14.44698364 313.89172363 15.12698364 C313.23172363 16.11698364 312.57172363 17.10698364 311.89172363 18.12698364 C311.23172363 18.12698364 310.57172363 18.12698364 309.89172363 18.12698364 C309.89172363 17.46698364 309.89172363 16.80698364 309.89172363 16.12698364 C309.23172363 15.79698364 308.57172363 15.46698364 307.89172363 15.12698364 C308.22172363 14.13698364 308.55172363 13.14698364 308.89172363 12.12698364 C308.23172363 11.13698364 307.57172363 10.14698364 306.89172363 9.12698364 C306.56172363 10.44698364 306.23172363 11.76698364 305.89172363 13.12698364 C304.24172363 12.46698364 302.59172363 11.80698364 300.89172363 11.12698364 C300.89172363 12.11698364 300.89172363 13.10698364 300.89172363 14.12698364 C300.20978431 14.1262242 299.527845 14.12546476 298.82524085 14.12468231 C258.43386997 14.0799542 218.04250227 14.04562472 177.65111165 14.02485298 C172.80439503 14.02235148 167.95767846 14.01976285 163.11096191 14.01712036 C162.14604258 14.01659574 161.18112325 14.01607112 160.18696395 14.0155306 C144.55036418 14.00682114 128.91377909 13.99104819 113.27718803 13.97267805 C97.24003365 13.95399405 81.20288696 13.9428701 65.16572213 13.93880665 C55.26498406 13.93605848 45.36428742 13.92736958 35.4635621 13.91115071 C28.67999896 13.90060233 21.89645733 13.89737813 15.11288658 13.89998089 C11.19549713 13.90126553 7.27818024 13.89925641 3.3608036 13.88857269 C-0.22309677 13.87886953 -3.8068755 13.87832953 -7.39078137 13.88518585 C-9.30653996 13.88643649 -11.22229703 13.87778437 -13.13803506 13.86882102 C-14.83768651 13.87479417 -14.83768651 13.87479417 -16.57167435 13.88088799 C-18.04119202 13.87974882 -18.04119202 13.87974882 -19.54039693 13.87858665 C-23.36933679 14.24896897 -25.41202084 15.43072811 -28.10827637 18.12698364 C-28.10827637 19.11698364 -28.10827637 20.10698364 -28.10827637 21.12698364 C-30.97552323 20.55353427 -31.96972787 20.26553214 -34.10827637 18.12698364 C-36.17701671 17.48446014 -36.17701671 17.48446014 -38.10827637 17.12698364 C-38.66175276 15.05144716 -39.10827637 13.283324 -39.10827637 11.12698364 C-38.44827637 11.12698364 -37.78827637 11.12698364 -37.10827637 11.12698364 C-37.10827637 9.80698364 -37.10827637 8.48698364 -37.10827637 7.12698364 C-36.44827637 7.12698364 -35.78827637 7.12698364 -35.10827637 7.12698364 C-34.77827637 6.46698364 -34.44827637 5.80698364 -34.10827637 5.12698364 C-30.05541398 1.74959832 -25.98539252 1.64026796 -20.92468262 1.33792114 C-18.15829229 1.19244938 -18.15829229 1.19244938 -15.68901825 0.62173653 C-10.45851168 -0.10096516 -5.27408312 -0.01023395 0 0 Z " fill="#CCCCCC" transform="translate(42.1082763671875,0.873016357421875)"/>
<path d="M0 0 C1.65712761 -0.00503792 1.65712761 -0.00503792 3.34773254 -0.01017761 C6.99216847 -0.01966125 10.63655837 -0.02162918 14.28100586 -0.02270508 C16.81636067 -0.02591856 19.35171529 -0.02928271 21.8870697 -0.03279114 C27.19717921 -0.03877529 32.50727159 -0.04067456 37.81738281 -0.04003906 C43.94997514 -0.03943761 50.0824797 -0.05000705 56.2150498 -0.06578273 C62.12465094 -0.08044133 68.03422526 -0.084027 73.94384575 -0.08342934 C76.45448605 -0.08461044 78.96512699 -0.08903946 81.47575569 -0.0967617 C84.98260969 -0.10654139 88.48923622 -0.10369182 91.99609375 -0.09765625 C93.55396606 -0.10608551 93.55396606 -0.10608551 95.14331055 -0.11468506 C96.57943443 -0.10839333 96.57943443 -0.10839333 98.04457092 -0.10197449 C98.87284425 -0.10251925 99.70111757 -0.10306402 100.55449009 -0.1036253 C103.28819573 0.18238957 105.43560003 1.02464033 107.93334961 2.14526367 C107.93334961 3.13526367 107.93334961 4.12526367 107.93334961 5.14526367 C106.28334961 5.14526367 104.63334961 5.14526367 102.93334961 5.14526367 C102.93334961 5.80526367 102.93334961 6.46526367 102.93334961 7.14526367 C106.70974281 7.44340607 106.70974281 7.44340607 108.93334961 6.14526367 C109.26334961 5.81526367 109.59334961 5.48526367 109.93334961 5.14526367 C110.59334961 5.14526367 111.25334961 5.14526367 111.93334961 5.14526367 C111.93334961 4.48526367 111.93334961 3.82526367 111.93334961 3.14526367 C115.35567933 2.0044871 118.02008178 2.04711251 121.62084961 2.08276367 C123.39008789 2.09629883 123.39008789 2.09629883 125.19506836 2.11010742 C126.09870117 2.12170898 127.00233398 2.13331055 127.93334961 2.14526367 C127.60334961 3.13526367 127.27334961 4.12526367 126.93334961 5.14526367 C126.27334961 5.14526367 125.61334961 5.14526367 124.93334961 5.14526367 C124.93334961 5.80526367 124.93334961 6.46526367 124.93334961 7.14526367 C124.60334961 7.47526367 124.27334961 7.80526367 123.93334961 8.14526367 C128.22334961 8.14526367 132.51334961 8.14526367 136.93334961 8.14526367 C136.60334961 9.79526367 136.27334961 11.44526367 135.93334961 13.14526367 C135.12790081 13.14857382 134.32245201 13.15188396 133.49259567 13.15529442 C113.90494252 13.23647294 94.31736844 13.32854845 74.72982407 13.43279076 C65.25748056 13.48293782 55.7851458 13.5293805 46.31274414 13.56713867 C38.05774132 13.6000535 29.80280596 13.63988189 21.54787755 13.68805373 C17.17593118 13.71332379 12.80402959 13.73510358 8.43202972 13.74860764 C4.31820947 13.76142339 0.20454273 13.78347252 -3.90919304 13.81264687 C-5.42007476 13.82172645 -6.93098121 13.82741376 -8.44188881 13.82947731 C-10.50320249 13.83279721 -12.5640802 13.84826666 -14.62530518 13.86679077 C-15.77938999 13.87232153 -16.93347481 13.87785229 -18.12253189 13.88355064 C-22.18937823 14.24506689 -24.20647252 15.28508581 -27.06665039 18.14526367 C-27.06665039 19.13526367 -27.06665039 20.12526367 -27.06665039 21.14526367 C-29.93389725 20.5718143 -30.92810189 20.28381217 -33.06665039 18.14526367 C-35.13539073 17.50274017 -35.13539073 17.50274017 -37.06665039 17.14526367 C-37.62012679 15.06972719 -38.06665039 13.30160403 -38.06665039 11.14526367 C-37.40665039 11.14526367 -36.74665039 11.14526367 -36.06665039 11.14526367 C-36.06665039 9.82526367 -36.06665039 8.50526367 -36.06665039 7.14526367 C-35.40665039 7.14526367 -34.74665039 7.14526367 -34.06665039 7.14526367 C-33.73665039 6.48526367 -33.40665039 5.82526367 -33.06665039 5.14526367 C-29.01378801 1.76787835 -24.94376654 1.65854799 -19.88305664 1.35620117 C-17.10664706 1.2073146 -17.10664706 1.2073146 -14.58229065 0.64115906 C-9.71282453 -0.04569898 -4.9118429 -0.00214747 0 0 Z " fill="#D0D0D0" transform="translate(41.066650390625,0.854736328125)"/>
<path d="M0 0 C37.27540156 -0.02287219 74.55080206 -0.0405012 111.82620921 -0.05106533 C116.22357633 -0.05231609 120.62094344 -0.0536104 125.01831055 -0.05493164 C125.89377374 -0.05519395 126.76923694 -0.05545626 127.67122933 -0.05572652 C141.85999708 -0.06008179 156.0487608 -0.06796856 170.23752616 -0.0771528 C184.78871007 -0.0864933 199.33989186 -0.09205646 213.89107865 -0.09408849 C222.875129 -0.09546289 231.85916794 -0.09980902 240.84321477 -0.10791647 C246.99789269 -0.11318881 253.15256468 -0.11480317 259.3072447 -0.11350138 C262.86196692 -0.11285877 266.41666916 -0.11386688 269.97138786 -0.11920547 C273.81954053 -0.12494277 277.66766687 -0.12299667 281.51582336 -0.12025452 C282.64713269 -0.12316736 283.77844202 -0.1260802 284.94403344 -0.12908131 C285.97064149 -0.12709026 286.99724954 -0.12509921 288.05496693 -0.12304783 C288.94389222 -0.12342755 289.83281751 -0.12380727 290.74867994 -0.1241985 C293 0 293 0 296 1 C297.56118428 1.06740865 299.1250252 1.08514456 300.6875 1.0625 C301.49574219 1.05347656 302.30398438 1.04445313 303.13671875 1.03515625 C303.75160156 1.02355469 304.36648438 1.01195313 305 1 C305 1.99 305 2.98 305 4 C265.54188154 4.04573642 226.08376652 4.08099833 186.62562687 4.10213066 C181.97160928 4.1046322 177.31759173 4.10722083 172.66357422 4.10986328 C171.73700826 4.1103879 170.8104423 4.11091252 169.85579859 4.11145304 C154.83540066 4.12016548 139.81501798 4.13594005 124.79462911 4.15430559 C109.39255139 4.17298135 93.99048167 4.18411179 78.58839309 4.18817699 C69.0776587 4.19092689 59.5669674 4.19962503 50.05624627 4.21583293 C43.54228184 4.22637116 37.02833982 4.22960784 30.51436748 4.22700275 C26.75114495 4.22571651 22.98799791 4.22774517 19.22478867 4.23841095 C15.15291163 4.24986786 11.08119721 4.2459983 7.00930786 4.24050903 C5.80893957 4.24633472 4.60857128 4.2521604 3.3718282 4.25816262 C2.28799347 4.25418052 1.20415875 4.25019842 0.08748055 4.24609566 C-0.85346643 4.2468551 -1.79441341 4.24761454 -2.76387393 4.24839699 C-5 4 -5 4 -7 2 C-2.25 0.875 -2.25 0.875 0 2 C0 1.34 0 0.68 0 0 Z " fill="#FFFFFF" transform="translate(33,86)"/>
<path d="M0 0 C2.39614126 -0.05425226 4.79103853 -0.09379027 7.1875 -0.125 C8.19780273 -0.15013672 8.19780273 -0.15013672 9.22851562 -0.17578125 C13.28807807 -0.21538674 16.34998815 0.19979998 20 2 C20 2.99 20 3.98 20 5 C18.35 5 16.7 5 15 5 C15 5.66 15 6.32 15 7 C18.7763932 7.2981424 18.7763932 7.2981424 21 6 C21.33 5.67 21.66 5.34 22 5 C22.66 5 23.32 5 24 5 C24 4.34 24 3.68 24 3 C27.42232972 1.85922343 30.08673217 1.90184883 33.6875 1.9375 C35.45673828 1.95103516 35.45673828 1.95103516 37.26171875 1.96484375 C38.16535156 1.97644531 39.06898438 1.98804688 40 2 C39.67 2.99 39.34 3.98 39 5 C38.34 5 37.68 5 37 5 C37 5.66 37 6.32 37 7 C36.67 7.33 36.34 7.66 36 8 C40.29 8 44.58 8 49 8 C48.67 9.65 48.34 11.3 48 13 C27.21 13 6.42 13 -15 13 C-15.33 11.35 -15.66 9.7 -16 8 C-14.35 7.67 -12.7 7.34 -11 7 C-11.66 6.01 -12.32 5.02 -13 4 C-11 2 -11 2 -8.3984375 1.8046875 C-7.40070313 1.82789063 -6.40296875 1.85109375 -5.375 1.875 C-3.87066406 1.90207031 -3.87066406 1.90207031 -2.3359375 1.9296875 C-1.56507812 1.95289063 -0.79421875 1.97609375 0 2 C0 1.34 0 0.68 0 0 Z " fill="#CFCFCF" transform="translate(129,1)"/>
<path d="M0 0 C18.81 0 37.62 0 57 0 C57 0.66 57 1.32 57 2 C54.23157127 2.92280958 52.71056559 3.08370673 49.875 3 C48.59625 3 47.3175 3 46 3 C45.67 3.33 45.34 3.66 45 4 C45.495 4.474375 45.99 4.94875 46.5 5.4375 C48 7 48 7 48 8 C45.75215576 8.24942657 43.50152494 8.47383488 41.25 8.6875 C39.99703125 8.81511719 38.7440625 8.94273438 37.453125 9.07421875 C34 9 34 9 31.546875 7.70703125 C30 6 30 6 30 3 C29.34 4.32 28.68 5.64 28 7 C28 5.35 28 3.7 28 2 C25.36 2 22.72 2 20 2 C20.66 2.66 21.32 3.32 22 4 C19.52956271 5.23521864 18.45126066 4.9042703 15.75 4.5 C11.94496534 4.01438168 8.7706114 4.12985891 5 5 C5 4.01 5 3.02 5 2 C3.35 1.67 1.7 1.34 0 1 C0 0.67 0 0.34 0 0 Z " fill="#9E9E9E" transform="translate(72,1)"/>
<path d="M0 0 C3 1 3 1 4 3 C4.33314595 8.27154469 3.98715915 13.37887747 3.21875 18.59765625 C2.80088837 23.18667234 2.98657157 27.81090134 3.0625 32.4140625 C3.0047557 35.72714177 2.63906558 38.7547451 2 42 C0.5 40.875 0.5 40.875 -1 39 C-1.1875 35.8125 -1.1875 35.8125 -1 33 C-2.485 33.495 -2.485 33.495 -4 34 C-4.66 32.02 -5.32 30.04 -6 28 C-5.34 28 -4.68 28 -4 28 C-4.185625 27.38125 -4.37125 26.7625 -4.5625 26.125 C-5 24 -5 24 -4 22 C-3.01 22 -2.02 22 -1 22 C-0.3121764 19.64632287 -0.3121764 19.64632287 0 17 C-0.66 16.01 -1.32 15.02 -2 14 C-2.66 14.66 -3.32 15.32 -4 16 C-4.6875 13.6875 -4.6875 13.6875 -5 11 C-3.5625 9.1875 -3.5625 9.1875 -2 8 C-1.34 8.33 -0.68 8.66 0 9 C0 6.03 0 3.06 0 0 Z " fill="#D5D5D5" transform="translate(356,20)"/>
<path d="M0 0 C10.56 0 21.12 0 32 0 C33 3 33 3 33 6 C33.66 6.66 34.32 7.32 35 8 C31.99686252 9.50156874 29.20932478 9.09281204 25.875 9.0625 C24.59367187 9.05347656 23.31234375 9.04445313 21.9921875 9.03515625 C21.00476563 9.02355469 20.01734375 9.01195312 19 9 C19 8.34 19 7.68 19 7 C19.66 7 20.32 7 21 7 C21 6.34 21 5.68 21 5 C21.99 4.01 22.98 3.02 24 2 C16.08 2.495 16.08 2.495 8 3 C8 3.66 8 4.32 8 5 C7.34 5 6.68 5 6 5 C6 5.66 6 6.32 6 7 C7.98 7 9.96 7 12 7 C12 7.33 12 7.66 12 8 C9.66705225 8.04241723 7.33297433 8.04092937 5 8 C4.67 7.67 4.34 7.34 4 7 C3.34 7.66 2.68 8.32 2 9 C1.01 8.34 0.02 7.68 -1 7 C-1 6.34 -1 5.68 -1 5 C0.65 5 2.3 5 4 5 C4 4.01 4 3.02 4 2 C2.68 2 1.36 2 0 2 C0 1.34 0 0.68 0 0 Z M35 5 C36.98 5 38.96 5 41 5 C41 5.66 41 6.32 41 7 C39.02 7 37.04 7 35 7 C35 6.34 35 5.68 35 5 Z " fill="#CFCFCF" transform="translate(145,1)"/>
<path d="M0 0 C0.495 0.144375 0.99 0.28875 1.5 0.4375 C3.75553885 0.94499624 5.89177197 1.20669072 8.1875 1.4375 C9.445625 1.623125 10.70375 1.80875 12 2 C12.33 2.66 12.66 3.32 13 4 C9.92382812 4.29296875 9.92382812 4.29296875 6.84765625 4.5859375 C6.23792969 4.72257813 5.62820312 4.85921875 5 5 C4.67 5.66 4.34 6.32 4 7 C1.40483479 8.29758261 -0.54183027 8.13269102 -3.4375 8.125 C-4.40558594 8.12757812 -5.37367188 8.13015625 -6.37109375 8.1328125 C-9 8 -9 8 -12 7 C-12.33 6.01 -12.66 5.02 -13 4 C-13.66 3.67 -14.32 3.34 -15 3 C-14 2 -14 2 -11.05859375 1.90234375 C-9.26615234 1.91974609 -9.26615234 1.91974609 -7.4375 1.9375 C-5.64119141 1.95103516 -5.64119141 1.95103516 -3.80859375 1.96484375 C-2.88175781 1.97644531 -1.95492187 1.98804688 -1 2 C-0.67 1.34 -0.34 0.68 0 0 Z " fill="#D0D0D0" transform="translate(232,1)"/>
<path d="M0 0 C12.21 0 24.42 0 37 0 C37 0.66 37 1.32 37 2 C35.02 2.33 33.04 2.66 31 3 C31 3.66 31 4.32 31 5 C30.2575 5.12375 29.515 5.2475 28.75 5.375 C26.19858515 5.95486701 24.2732427 6.73708739 22 8 C21.01 7.34 20.02 6.68 19 6 C19.33 5.01 19.66 4.02 20 3 C18.89140625 3.02320313 17.7828125 3.04640625 16.640625 3.0703125 C15.17709008 3.08907577 13.71354786 3.10727537 12.25 3.125 C11.52039063 3.14175781 10.79078125 3.15851562 10.0390625 3.17578125 C6.1955376 3.21072239 3.25393228 3.17499684 0 1 C0 0.67 0 0.34 0 0 Z " fill="#9E9E9E" transform="translate(281,1)"/>
<path d="M0 0 C1.25159912 0.00523682 2.50319824 0.01047363 3.79272461 0.01586914 C4.78942421 0.01799156 4.78942421 0.01799156 5.80625916 0.02015686 C7.93590735 0.02577021 10.06545175 0.03832485 12.19506836 0.05102539 C13.63582205 0.05603868 15.07657739 0.06060188 16.51733398 0.06469727 C20.05577938 0.07574394 23.59416375 0.09301747 27.13256836 0.11352539 C27.13256836 0.77352539 27.13256836 1.43352539 27.13256836 2.11352539 C25.15256836 2.44352539 23.17256836 2.77352539 21.13256836 3.11352539 C21.13256836 3.77352539 21.13256836 4.43352539 21.13256836 5.11352539 C20.39006836 5.23727539 19.64756836 5.36102539 18.88256836 5.48852539 C16.33115351 6.0683924 14.40581106 6.85061278 12.13256836 8.11352539 C11.14256836 7.45352539 10.15256836 6.79352539 9.13256836 6.11352539 C9.46256836 5.12352539 9.79256836 4.13352539 10.13256836 3.11352539 C9.28952148 3.13672852 8.44647461 3.15993164 7.57788086 3.18383789 C5.93432617 3.2109082 5.93432617 3.2109082 4.25756836 3.23852539 C3.16702148 3.26172852 2.07647461 3.28493164 0.95288086 3.30883789 C-1.86743164 3.11352539 -1.86743164 3.11352539 -3.86743164 1.11352539 C-2.86743164 0.11352539 -2.86743164 0.11352539 0 0 Z " fill="#9E9E9E" transform="translate(34.867431640625,0.886474609375)"/>
<path d="M0 0 C10.56 0 21.12 0 32 0 C32 0.66 32 1.32 32 2 C31.01 2.495 31.01 2.495 30 3 C28.86649466 5.01669827 28.86649466 5.01669827 28 7 C28 5.35 28 3.7 28 2 C25.36 2 22.72 2 20 2 C20.66 2.66 21.32 3.32 22 4 C19.52956271 5.23521864 18.45126066 4.9042703 15.75 4.5 C11.94496534 4.01438168 8.7706114 4.12985891 5 5 C5 4.01 5 3.02 5 2 C3.35 1.67 1.7 1.34 0 1 C0 0.67 0 0.34 0 0 Z " fill="#A9A9A9" transform="translate(72,1)"/>
<path d="M0 0 C3 1 3 1 4 3 C4.64013945 10.47325588 3.40823445 17.68221029 2 25 C1.34 25 0.68 25 0 25 C-0.5745952 21.26513121 -1 17.78706732 -1 14 C-1.99 14.66 -2.98 15.32 -4 16 C-4.6875 13.6875 -4.6875 13.6875 -5 11 C-3.5625 9.1875 -3.5625 9.1875 -2 8 C-1.34 8.33 -0.68 8.66 0 9 C0 6.03 0 3.06 0 0 Z " fill="#D5D5D5" transform="translate(356,20)"/>
<path d="M0 0 C0.99 0.33 1.98 0.66 3 1 C2.34 1 1.68 1 1 1 C1 1.66 1 2.32 1 3 C2.98 3 4.96 3 7 3 C10.5625 11.3125 10.5625 11.3125 9 16 C8.01 15.67 7.02 15.34 6 15 C6 13.35 6 11.7 6 10 C4.05925139 10.27617533 4.05925139 10.27617533 2 11 C1.34 11.99 0.68 12.98 0 14 C-0.33 13.67 -0.66 13.34 -1 13 C-0.90982004 10.80949979 -0.75333792 8.621534 -0.5625 6.4375 C-0.46066406 5.23996094 -0.35882813 4.04242188 -0.25390625 2.80859375 C-0.17011719 1.88175781 -0.08632813 0.95492188 0 0 Z " fill="#C3C3C3" transform="translate(2,15)"/>
<path d="M0 0 C0.66 0.33 1.32 0.66 2 1 C5.70742294 2.14135101 9.03985402 2.00169249 12.87890625 1.83984375 C15 2 15 2 18 4 C17.01 4 16.02 4 15 4 C15.33 5.65 15.66 7.3 16 9 C12.04 8.67 8.08 8.34 4 8 C4 7.34 4 6.68 4 6 C2.35 5.67 0.7 5.34 -1 5 C-1.33 3.68 -1.66 2.36 -2 1 C-1.34 0.67 -0.68 0.34 0 0 Z " fill="#DADADA" transform="translate(30,1)"/>
<path d="M0 0 C9.24 0 18.48 0 28 0 C28 0.66 28 1.32 28 2 C21.4 2.33 14.8 2.66 8 3 C8 3.66 8 4.32 8 5 C7.34 5 6.68 5 6 5 C6 5.66 6 6.32 6 7 C7.98 7 9.96 7 12 7 C12 7.33 12 7.66 12 8 C9.66705225 8.04241723 7.33297433 8.04092937 5 8 C4.67 7.67 4.34 7.34 4 7 C3.34 7.66 2.68 8.32 2 9 C1.01 8.34 0.02 7.68 -1 7 C-1 6.34 -1 5.68 -1 5 C0.65 5 2.3 5 4 5 C4 4.01 4 3.02 4 2 C2.68 2 1.36 2 0 2 C0 1.34 0 0.68 0 0 Z " fill="#8B8B8B" transform="translate(145,1)"/>
<path d="M0 0 C1.093125 0.350625 2.18625 0.70125 3.3125 1.0625 C6.90920373 2.33039454 6.90920373 2.33039454 10 1 C10.103125 1.639375 10.20625 2.27875 10.3125 2.9375 C10.6528125 3.9584375 10.6528125 3.9584375 11 5 C14 6.33333333 14 6.33333333 17 5 C20 4 20 4 23 5 C22.67 5.66 22.34 6.32 22 7 C21.05125 6.95875 20.1025 6.9175 19.125 6.875 C15.89755144 6.65026182 15.89755144 6.65026182 14 9 C11.46875 9.01171875 11.46875 9.01171875 8.5 8.6875 C7.5203125 8.58824219 6.540625 8.48898438 5.53125 8.38671875 C3 8 3 8 1 7 C1 5.68 1 4.36 1 3 C0.67 2.01 0.34 1.02 0 0 Z " fill="#C6C6C6" transform="translate(11,81)"/>
<path d="M0 0 C1.76923828 0.01353516 1.76923828 0.01353516 3.57421875 0.02734375 C4.47785156 0.03894531 5.38148438 0.05054688 6.3125 0.0625 C5.9825 1.0525 5.6525 2.0425 5.3125 3.0625 C4.6525 3.0625 3.9925 3.0625 3.3125 3.0625 C3.3125 3.7225 3.3125 4.3825 3.3125 5.0625 C1.625 6.1875 1.625 6.1875 -0.6875 7.0625 C-2.37187744 6.44193989 -4.03758418 5.76960678 -5.6875 5.0625 C-8.89620233 4.89492243 -8.89620233 4.89492243 -11.6875 5.0625 C-11.6875 4.4025 -11.6875 3.7425 -11.6875 3.0625 C-11.0275 3.0625 -10.3675 3.0625 -9.6875 3.0625 C-9.6875 2.4025 -9.6875 1.7425 -9.6875 1.0625 C-6.26517028 -0.07827657 -3.60076783 -0.03565117 0 0 Z " fill="#CFCFCF" transform="translate(162.6875,2.9375)"/>
<path d="M0 0 C0.66 0.33 1.32 0.66 2 1 C1.175 1.763125 0.35 2.52625 -0.5 3.3125 C-3.34055197 5.75434142 -3.34055197 5.75434142 -3 9 C-4 11.1875 -4 11.1875 -5 13 C-5.33 11.68 -5.66 10.36 -6 9 C-6.66 10.65 -7.32 12.3 -8 14 C-9.32 13.34 -10.64 12.68 -12 12 C-12 10.33333333 -12 8.66666667 -12 7 C-11.34 7 -10.68 7 -10 7 C-10 5.68 -10 4.36 -10 3 C-9.34 3 -8.68 3 -8 3 C-7.67 2.34 -7.34 1.68 -7 1 C-6.34 1.99 -5.68 2.98 -5 4 C-4.54625 3.525625 -4.0925 3.05125 -3.625 2.5625 C-2 1 -2 1 0 0 Z " fill="#B4B4B4" transform="translate(15,5)"/>
<path d="M0 0 C10.56 0 21.12 0 32 0 C32 0.99 32 1.98 32 3 C31.10796875 2.98839844 30.2159375 2.97679687 29.296875 2.96484375 C28.12640625 2.95582031 26.9559375 2.94679687 25.75 2.9375 C24.58984375 2.92589844 23.4296875 2.91429687 22.234375 2.90234375 C19.13244601 2.86555499 19.13244601 2.86555499 16.765625 3.62890625 C16.18296875 3.75136719 15.6003125 3.87382813 15 4 C14.01 3.34 13.02 2.68 12 2 C9.46286147 2.19266036 9.46286147 2.19266036 6.8125 2.875 C5.91144531 3.07867187 5.01039063 3.28234375 4.08203125 3.4921875 C3.05142578 3.74355469 3.05142578 3.74355469 2 4 C1.34 2.68 0.68 1.36 0 0 Z " fill="#989898" transform="translate(199,1)"/>
<path d="M0 0 C0.33 0.66 0.66 1.32 1 2 C2.65 2 4.3 2 6 2 C6 2.66 6 3.32 6 4 C5.34 4 4.68 4 4 4 C3.67 5.32 3.34 6.64 3 8 C2.38125 7.505 1.7625 7.01 1.125 6.5 C-0.83880904 4.80777227 -0.83880904 4.80777227 -3 5 C-3.33 5.99 -3.66 6.98 -4 8 C-7.375 7.6875 -7.375 7.6875 -11 7 C-11.66 6.01 -12.32 5.02 -13 4 C-11 2 -11 2 -8.3984375 1.8046875 C-7.40070313 1.82789063 -6.40296875 1.85109375 -5.375 1.875 C-3.87066406 1.90207031 -3.87066406 1.90207031 -2.3359375 1.9296875 C-1.56507812 1.95289063 -0.79421875 1.97609375 0 2 C0 1.34 0 0.68 0 0 Z " fill="#DADADA" transform="translate(129,1)"/>
<path d="M0 0 C0.99 0.66 1.98 1.32 3 2 C2.38003999 3.7726041 1.75384007 5.54302667 1.125 7.3125 C0.60292969 8.79169922 0.60292969 8.79169922 0.0703125 10.30078125 C-1 13 -1 13 -3 16 C-5.97 15.505 -5.97 15.505 -9 15 C-9 14.01 -9 13.02 -9 12 C-8.01 12 -7.02 12 -6 12 C-5.67 10.68 -5.34 9.36 -5 8 C-4.34 8 -3.68 8 -3 8 C-3 5.69 -3 3.38 -3 1 C-2.01 0.67 -1.02 0.34 0 0 Z " fill="#B9B9B9" transform="translate(357,70)"/>
<path d="M0 0 C1.875 0.625 1.875 0.625 4 2 C5.25 5.125 5.25 5.125 6 8 C2.5980513 10.09350689 -0.05272412 10.17942163 -4 10 C-4.33 9.01 -4.66 8.02 -5 7 C-8.63 7 -12.26 7 -16 7 C-16.33 6.01 -16.66 5.02 -17 4 C-16.34 4 -15.68 4 -15 4 C-15 4.66 -15 5.32 -15 6 C-12.36 5.34 -9.72 4.68 -7 4 C-7 4.66 -7 5.32 -7 6 C-6.401875 5.773125 -5.80375 5.54625 -5.1875 5.3125 C-4.1046875 5.1578125 -4.1046875 5.1578125 -3 5 C-1.25 6.4375 -1.25 6.4375 0 8 C0.33 7.01 0.66 6.02 1 5 C0.67 4.67 0.34 4.34 0 4 C0 2.68 0 1.36 0 0 Z " fill="#DFDFDF" transform="translate(345,79)"/>
<path d="M0 0 C10.97592998 -0.63019694 10.97592998 -0.63019694 15.25 2 C15.8275 2.66 16.405 3.32 17 4 C10.375 6 10.375 6 7 6 C6.01 5.34 5.02 4.68 4 4 C1.88719655 3.36707617 1.88719655 3.36707617 0 3 C0 2.01 0 1.02 0 0 Z " fill="#D0D0D0" transform="translate(319,1)"/>
<path d="M0 0 C0.33 0.99 0.66 1.98 1 3 C2.0725 2.67 3.145 2.34 4.25 2 C8 1 8 1 12 1 C12 2.32 12 3.64 12 5 C12.66 5.33 13.32 5.66 14 6 C8.06 6.33 2.12 6.66 -4 7 C-4 6.34 -4 5.68 -4 5 C-2.68 5 -1.36 5 0 5 C0 3.35 0 1.7 0 0 Z " fill="#C8C8C8" transform="translate(76,3)"/>
<path d="M0 0 C1.32 0.66 2.64 1.32 4 2 C4 2.99 4 3.98 4 5 C4.66 5 5.32 5 6 5 C6.33 7.31 6.66 9.62 7 12 C4.5625 11.1875 4.5625 11.1875 2 10 C1.67 9.01 1.34 8.02 1 7 C-2.00007271 5.29144978 -2.00007271 5.29144978 -5 4 C-5 3.34 -5 2.68 -5 2 C-3.68 2.33 -2.36 2.66 -1 3 C-0.67 2.01 -0.34 1.02 0 0 Z " fill="#B6B6B6" transform="translate(342,2)"/>
<path d="M0 0 C0.33 0.66 0.66 1.32 1 2 C1.99 1.67 2.98 1.34 4 1 C3 4 3 4 1 6 C1.33 6 1.66 6 2 6 C2.66 6.33 3.32 6.66 4 7 C4 7.99 4 8.98 4 10 C3.01 10.495 3.01 10.495 2 11 C2.165 11.598125 2.33 12.19625 2.5 12.8125 C3 15 3 15 3 18 C1.68 17.67 0.36 17.34 -1 17 C-0.979375 16.236875 -0.95875 15.47375 -0.9375 14.6875 C-0.87057159 11.89814214 -0.87057159 11.89814214 -2 9 C-2.27966763 5.36432086 -1.86113056 3.14065783 0 0 Z " fill="#E8E8E8" transform="translate(4,62)"/>
<path d="M0 0 C1 1 2 2 3 3 C3.99 3.33 4.98 3.66 6 4 C5.67 4.66 5.34 5.32 5 6 C2.9375 6.625 2.9375 6.625 1 7 C1 6.01 1 5.02 1 4 C0.38125 4.165 -0.2375 4.33 -0.875 4.5 C-3 5 -3 5 -5 5 C-6.62514468 6.45833358 -6.62514468 6.45833358 -8 8 C-8.66 5.69 -9.32 3.38 -10 1 C-2.25 0 -2.25 0 0 0 Z " fill="#C3C3C3" transform="translate(28,3)"/>
<path d="M0 0 C0.66 0 1.32 0 2 0 C2 1.32 2 2.64 2 4 C2.66 4.33 3.32 4.66 4 5 C3.34 5 2.68 5 2 5 C2 6.32 2 7.64 2 9 C3.32 8.34 4.64 7.68 6 7 C6.99 8.98 7.98 10.96 9 13 C7.88625 12.8453125 7.88625 12.8453125 6.75 12.6875 C3.2277983 12.76029419 3.2277983 12.76029419 0 18 C0 12.06 0 6.12 0 0 Z " fill="#B4B4B4" transform="translate(1,51)"/>
<path d="M0 0 C9.9 0 19.8 0 30 0 C30 0.66 30 1.32 30 2 C20.14952185 3.90654416 9.89681637 3.38902686 0 2 C0 1.34 0 0.68 0 0 Z " fill="#454545" transform="translate(248,1)"/>
<path d="M0 0 C0.66 0 1.32 0 2 0 C2 0.66 2 1.32 2 2 C4.64 1.67 7.28 1.34 10 1 C10 1.66 10 2.32 10 3 C11.65 3 13.3 3 15 3 C15 3.99 15 4.98 15 6 C10.38 6 5.76 6 1 6 C0 1 0 1 0 0 Z " fill="#D3D3D3" transform="translate(167,81)"/>
<path d="M0 0 C2.31 0 4.62 0 7 0 C7.33 0.99 7.66 1.98 8 3 C9.258125 2.814375 10.51625 2.62875 11.8125 2.4375 C14.82744268 1.99267239 16.00468461 2.00156154 19 3 C19.6875 5.0625 19.6875 5.0625 20 7 C14.125 6.125 14.125 6.125 13 5 C11.9275 5.020625 10.855 5.04125 9.75 5.0625 C6.17259687 5.00287661 4.09512893 4.72963087 1 3 C0.67 2.01 0.34 1.02 0 0 Z " fill="#CBCBCB" transform="translate(321,83)"/>
<path d="M0 0 C0.59167969 0.0721875 1.18335938 0.144375 1.79296875 0.21875 C5.88261722 0.69910023 9.8738531 1.13310151 14 1 C14 1.99 14 2.98 14 4 C8.30494264 4.6416966 2.73266804 5.12462322 -3 5 C-3 4.34 -3 3.68 -3 3 C-2.01 3 -1.02 3 0 3 C0 2.01 0 1.02 0 0 Z " fill="#D1D1D1" transform="translate(141,82)"/>
<path d="M0 0 C0.66 0 1.32 0 2 0 C2.99 2.64 3.98 5.28 5 8 C4.34 8 3.68 8 3 8 C3.020625 8.78375 3.04125 9.5675 3.0625 10.375 C3 13 3 13 2 15 C1.9603287 16.66619446 1.95615553 18.33391013 2 20 C1.34 20 0.68 20 0 20 C0 13.4 0 6.8 0 0 Z " fill="#6D6D6D" transform="translate(1,30)"/>
<path d="M0 0 C1.45823212 -0.0270043 2.91660675 -0.04639787 4.375 -0.0625 C5.18710938 -0.07410156 5.99921875 -0.08570312 6.8359375 -0.09765625 C9 0 9 0 11 1 C11 1.66 11 2.32 11 3 C11.66 3.66 12.32 4.32 13 5 C12.01 5.33 11.02 5.66 10 6 C10 6.66 10 7.32 10 8 C8.68 7.67 7.36 7.34 6 7 C6 5.66666667 6 4.33333333 6 3 C3.69 2.67 1.38 2.34 -1 2 C-0.67 1.34 -0.34 0.68 0 0 Z " fill="#C7C7C7" transform="translate(236,1)"/>
<path d="M0 0 C0.66 0.66 1.32 1.32 2 2 C1.625 4.625 1.625 4.625 1 7 C0.34 7 -0.32 7 -1 7 C-1 6.34 -1 5.68 -1 5 C-1.67546875 5.02320313 -2.3509375 5.04640625 -3.046875 5.0703125 C-4.38492187 5.09738281 -4.38492187 5.09738281 -5.75 5.125 C-6.63171875 5.14820313 -7.5134375 5.17140625 -8.421875 5.1953125 C-11.1135858 4.99139502 -12.69904974 4.36551721 -15 3 C-14 2 -14 2 -10.83984375 1.90234375 C-8.90818359 1.91974609 -8.90818359 1.91974609 -6.9375 1.9375 C-5.64714844 1.94652344 -4.35679687 1.95554688 -3.02734375 1.96484375 C-2.02832031 1.97644531 -1.02929688 1.98804688 0 2 C0 1.34 0 0.68 0 0 Z " fill="#E9E9E9" transform="translate(278,1)"/>
<path d="M0 0 C2.475 0.99 2.475 0.99 5 2 C5 3.65 5 5.3 5 7 C2.69 7 0.38 7 -2 7 C-2 6.34 -2 5.68 -2 5 C-2.99 4.67 -3.98 4.34 -5 4 C-4.67 3.34 -4.34 2.68 -4 2 C-2.68 2 -1.36 2 0 2 C0 1.34 0 0.68 0 0 Z " fill="#D6D6D6" transform="translate(71,1)"/>
<path d="M0 0 C2.64 0 5.28 0 8 0 C8 0.33 8 0.66 8 1 C11.96 1.33 15.92 1.66 20 2 C18 4 18 4 16.02880859 4.22705078 C15.24328613 4.21657715 14.45776367 4.20610352 13.6484375 4.1953125 C12.37226563 4.18564453 12.37226563 4.18564453 11.0703125 4.17578125 C9.73613281 4.15064453 9.73613281 4.15064453 8.375 4.125 C7.02921875 4.11146484 7.02921875 4.11146484 5.65625 4.09765625 C3.43723414 4.0740497 1.21874923 4.0411231 -1 4 C-0.67 2.68 -0.34 1.36 0 0 Z " fill="#D7D7D7" transform="translate(291,83)"/>
<path d="M0 0 C0.66 0.66 1.32 1.32 2 2 C4.21072977 2.24253813 4.21072977 2.24253813 6.625 2.125 C7.44226563 2.10695313 8.25953125 2.08890625 9.1015625 2.0703125 C9.72804687 2.04710938 10.35453125 2.02390625 11 2 C10.01 2.66 9.02 3.32 8 4 C8 4.66 8 5.32 8 6 C3.17639811 6.19294408 -0.49646738 5.75747614 -5 4 C-4.67 3.01 -4.34 2.02 -4 1 C-3.01 1.33 -2.02 1.66 -1 2 C-0.67 1.34 -0.34 0.68 0 0 Z " fill="#D6D6D6" transform="translate(129,81)"/>
<path d="M0 0 C2.64 0 5.28 0 8 0 C8 0.33 8 0.66 8 1 C11.96 1.33 15.92 1.66 20 2 C18 4 18 4 16.02880859 4.22705078 C15.24328613 4.21657715 14.45776367 4.20610352 13.6484375 4.1953125 C12.37226562 4.18564453 12.37226562 4.18564453 11.0703125 4.17578125 C9.73613281 4.15064453 9.73613281 4.15064453 8.375 4.125 C7.02921875 4.11146484 7.02921875 4.11146484 5.65625 4.09765625 C3.43723414 4.0740497 1.21874923 4.0411231 -1 4 C-0.67 2.68 -0.34 1.36 0 0 Z " fill="#D7D7D7" transform="translate(35,83)"/>
<path d="M0 0 C0.66 0.33 1.32 0.66 2 1 C3.2077558 4.62326739 2.54311128 5.64146369 1 9 C1.99 9.33 2.98 9.66 4 10 C2.68 10.99 1.36 11.98 0 13 C-0.66 12.67 -1.32 12.34 -2 12 C-2 11.01 -2 10.02 -2 9 C-2.31088368 7.32900023 -2.64080332 5.66128463 -3 4 C-2.34 3.67 -1.68 3.34 -1 3 C-0.67 2.01 -0.34 1.02 0 0 Z " fill="#C2C2C2" transform="translate(8,68)"/>
<path d="M0 0 C0.33 0 0.66 0 1 0 C1.22134176 2.12368444 1.42670007 4.24904024 1.625 6.375 C1.74101562 7.55835938 1.85703125 8.74171875 1.9765625 9.9609375 C1.98429687 10.96382812 1.99203125 11.96671875 2 13 C1.34 13.66 0.68 14.32 0 15 C-0.99 15 -1.98 15 -3 15 C-3.125 9.25 -3.125 9.25 -2 7 C-2.66 6.67 -3.32 6.34 -4 6 C-3.01 5.67 -2.02 5.34 -1 5 C-0.67 3.35 -0.34 1.7 0 0 Z " fill="#CBCBCB" transform="translate(358,56)"/>
<path d="M0 0 C0.99 0.33 1.98 0.66 3 1 C2.34 1 1.68 1 1 1 C1 1.66 1 2.32 1 3 C1.99 3.33 2.98 3.66 4 4 C4 4.66 4 5.32 4 6 C4.66 5.67 5.32 5.34 6 5 C5.6875 6.875 5.6875 6.875 5 9 C4.01 9.66 3.02 10.32 2 11 C1.34 11.99 0.68 12.98 0 14 C-0.33 13.67 -0.66 13.34 -1 13 C-0.90982004 10.80949979 -0.75333792 8.621534 -0.5625 6.4375 C-0.46066406 5.23996094 -0.35882813 4.04242188 -0.25390625 2.80859375 C-0.17011719 1.88175781 -0.08632813 0.95492188 0 0 Z " fill="#A4A4A4" transform="translate(2,15)"/>
<path d="M0 0 C2.31 0.33 4.62 0.66 7 1 C7 1.66 7 2.32 7 3 C5.68 2.67 4.36 2.34 3 2 C3.33 3.32 3.66 4.64 4 6 C1.36 6.66 -1.28 7.32 -4 8 C-4.66 7.01 -5.32 6.02 -6 5 C-4.02 4.01 -2.04 3.02 0 2 C0 1.34 0 0.68 0 0 Z " fill="#D8D8D8" transform="translate(334,2)"/>
<path d="M0 0 C0.66 0.33 1.32 0.66 2 1 C3.32860925 1.35169068 4.66158328 1.68770276 6 2 C6 2.99 6 3.98 6 5 C6.99 4.67 7.98 4.34 9 4 C9 4.66 9 5.32 9 6 C8.34 6 7.68 6 7 6 C7 6.66 7 7.32 7 8 C6.01 8 5.02 8 4 8 C4 7.34 4 6.68 4 6 C2.35 5.67 0.7 5.34 -1 5 C-1.33 3.68 -1.66 2.36 -2 1 C-1.34 0.67 -0.68 0.34 0 0 Z " fill="#CCCCCC" transform="translate(30,1)"/>
<path d="M0 0 C0 0.66 0 1.32 0 2 C-3.28696233 2.79953138 -4.71023192 3.09658936 -8 2 C-8.33 2.66 -8.66 3.32 -9 4 C-10.65438613 4.69658363 -12.32254318 5.36096883 -14 6 C-14.99 6.66 -15.98 7.32 -17 8 C-16.67 6.02 -16.34 4.04 -16 2 C-10.42932723 0.40837921 -5.78898419 -0.20674944 0 0 Z " fill="#ECECEC" transform="translate(26,2)"/>
<path d="M0 0 C6.93 0 13.86 0 21 0 C21 0.66 21 1.32 21 2 C6.62162162 3.40540541 6.62162162 3.40540541 1 2 C0.67 1.34 0.34 0.68 0 0 Z " fill="#646464" transform="translate(281,1)"/>
<path d="M0 0 C0.495 0.144375 0.99 0.28875 1.5 0.4375 C3.75553885 0.94499624 5.89177197 1.20669072 8.1875 1.4375 C9.445625 1.623125 10.70375 1.80875 12 2 C12.33 2.66 12.66 3.32 13 4 C9.92382812 4.29296875 9.92382812 4.29296875 6.84765625 4.5859375 C6.23792969 4.72257813 5.62820312 4.85921875 5 5 C4.67 5.66 4.34 6.32 4 7 C2.68 6.67 1.36 6.34 0 6 C0.33 5.01 0.66 4.02 1 3 C0.34 2.67 -0.32 2.34 -1 2 C-0.67 1.34 -0.34 0.68 0 0 Z " fill="#E1E1E1" transform="translate(232,1)"/>
<path d="M0 0 C0.99 0 1.98 0 3 0 C3 0.66 3 1.32 3 2 C5.64 2 8.28 2 11 2 C11 2.66 11 3.32 11 4 C10.34 4 9.68 4 9 4 C9 4.66 9 5.32 9 6 C8.01 6 7.02 6 6 6 C6 6.66 6 7.32 6 8 C5.01 7.67 4.02 7.34 3 7 C3 6.34 3 5.68 3 5 C2.34 4.34 1.68 3.68 1 3 C1.33 2.34 1.66 1.68 2 1 C1.34 0.67 0.68 0.34 0 0 Z " fill="#DBDBDB" transform="translate(245,1)"/>
<path d="M0 0 C0.33 0.99 0.66 1.98 1 3 C2.65 2.67 4.3 2.34 6 2 C6 2.66 6 3.32 6 4 C5.34 4 4.68 4 4 4 C4 4.66 4 5.32 4 6 C4.66 6.33 5.32 6.66 6 7 C3.03 7 0.06 7 -3 7 C-3 6.67 -3 6.34 -3 6 C-1.02 6 0.96 6 3 6 C2.67 5.67 2.34 5.34 2 5 C1.236875 5.020625 0.47375 5.04125 -0.3125 5.0625 C-3.14489693 4.9966303 -4.59482179 4.42529079 -7 3 C-5.1875 1.9375 -5.1875 1.9375 -3 1 C-2.01 1.33 -1.02 1.66 0 2 C0 1.34 0 0.68 0 0 Z " fill="#E1E1E1" transform="translate(318,1)"/>
<path d="M0 0 C2.97 0.495 2.97 0.495 6 1 C6 1.99 6 2.98 6 4 C4.35 4 2.7 4 1 4 C0.67 4.66 0.34 5.32 0 6 C-0.66 6 -1.32 6 -2 6 C-2.66 5.34 -3.32 4.68 -4 4 C-4.99 4 -5.98 4 -7 4 C-7 3.01 -7 2.02 -7 1 C-4.69 1.33 -2.38 1.66 0 2 C0 1.34 0 0.68 0 0 Z " fill="#D8D8D8" transform="translate(143,2)"/>
<path d="M0 0 C0.66 0 1.32 0 2 0 C2.33 0.33 2.66 0.66 3 1 C3 0.67 3 0.34 3 0 C6 0 9 0 12 0 C11.67 1.32 11.34 2.64 11 4 C7.04 4 3.08 4 -1 4 C-0.67 2.68 -0.34 1.36 0 0 Z " fill="#D3D3D3" transform="translate(242,83)"/>
<path d="M0 0 C2.31 0 4.62 0 7 0 C7.33 0.66 7.66 1.32 8 2 C6.02 2.99 6.02 2.99 4 4 C4.66 4.33 5.32 4.66 6 5 C6 5.66 6 6.32 6 7 C6.66 7.33 7.32 7.66 8 8 C7.01 8 6.02 8 5 8 C5 7.34 5 6.68 5 6 C2.03 6 -0.94 6 -4 6 C-4 5.67 -4 5.34 -4 5 C-2.35 4.67 -0.7 4.34 1 4 C0.67 2.68 0.34 1.36 0 0 Z " fill="#C8C8C8" transform="translate(63,1)"/>
<path d="M0 0 C1.23556641 0.01740234 1.23556641 0.01740234 2.49609375 0.03515625 C3.32238281 0.04417969 4.14867187 0.05320313 5 0.0625 C5.63808594 0.07410156 6.27617187 0.08570313 6.93359375 0.09765625 C6.60359375 1.74765625 6.27359375 3.39765625 5.93359375 5.09765625 C2.93359375 6.09765625 2.93359375 6.09765625 -0.06640625 5.09765625 C-0.39640625 4.10765625 -0.72640625 3.11765625 -1.06640625 2.09765625 C-1.72640625 1.76765625 -2.38640625 1.43765625 -3.06640625 1.09765625 C-2.06640625 0.09765625 -2.06640625 0.09765625 0 0 Z " fill="#E2E2E2" transform="translate(220.06640625,2.90234375)"/>
<path d="M0 0 C1.49080078 0.02707031 1.49080078 0.02707031 3.01171875 0.0546875 C3.77097656 0.07789062 4.53023437 0.10109375 5.3125 0.125 C5.3125 1.115 5.3125 2.105 5.3125 3.125 C-4.09752278 4.64208428 -4.09752278 4.64208428 -8.6875 2.125 C-5.26655758 -0.15562828 -4.00562778 -0.09425007 0 0 Z " fill="#D4D4D4" transform="translate(225.6875,82.875)"/>
<path d="M0 0 C0.66 -0.33 1.32 -0.66 2 -1 C2 -0.01 2 0.98 2 2 C3.32 2 4.64 2 6 2 C6 2.66 6 3.32 6 4 C1.71 4 -2.58 4 -7 4 C-7.33 2.68 -7.66 1.36 -8 0 C-4.66991025 -1.11002992 -3.34016824 -0.68516272 0 0 Z " fill="#D7D7D7" transform="translate(106,83)"/>
<path d="M0 0 C0.66 0 1.32 0 2 0 C2.71033431 5.52967941 3.30267176 10.49983036 2 16 C0.515625 14.8828125 0.515625 14.8828125 -1 13 C-1.328125 10.1171875 -1.328125 10.1171875 -1.25 6.875 C-1.23453125 5.79992188 -1.2190625 4.72484375 -1.203125 3.6171875 C-1 1 -1 1 0 0 Z " fill="#FFFFFF" transform="translate(356,46)"/>
<path d="M0 0 C0.33 0.99 0.66 1.98 1 3 C2.093125 2.814375 3.18625 2.62875 4.3125 2.4375 C8 2 8 2 11 3 C10.67 3.66 10.34 4.32 10 5 C7.36 5 4.72 5 2 5 C2 5.66 2 6.32 2 7 C1.01 6.67 0.02 6.34 -1 6 C-0.67 4.02 -0.34 2.04 0 0 Z " fill="#DDDDDD" transform="translate(178,1)"/>
<path d="M0 0 C0.99 0.33 1.98 0.66 3 1 C2.34 1 1.68 1 1 1 C1 2.32 1 3.64 1 5 C1.66 5 2.32 5 3 5 C2.67 5.99 2.34 6.98 2 8 C-0.0625 8.6875 -0.0625 8.6875 -2 9 C-2 8.34 -2 7.68 -2 7 C-3.32 7 -4.64 7 -6 7 C-6 6.34 -6 5.68 -6 5 C-4.02 4.67 -2.04 4.34 0 4 C-0.33 3.01 -0.66 2.02 -1 1 C-0.67 0.67 -0.34 0.34 0 0 Z " fill="#B9B9B9" transform="translate(344,78)"/>
<path d="M0 0 C2.64 0.33 5.28 0.66 8 1 C7.01 1.33 6.02 1.66 5 2 C5.33 3.65 5.66 5.3 6 7 C3.03 6.505 3.03 6.505 0 6 C0 4.02 0 2.04 0 0 Z " fill="#D7D7D7" transform="translate(296,3)"/>
<path d="M0 0 C4.62 0 9.24 0 14 0 C13.67 0.66 13.34 1.32 13 2 C10.49609375 2.6328125 10.49609375 2.6328125 7.4375 3.125 C5.91962891 3.37636719 5.91962891 3.37636719 4.37109375 3.6328125 C3.19740234 3.81457031 3.19740234 3.81457031 2 4 C1.34 2.68 0.68 1.36 0 0 Z " fill="#505050" transform="translate(199,1)"/>
<path d="M0 0 C3.63 0 7.26 0 11 0 C11 1.32 11 2.64 11 4 C7.7 3.67 4.4 3.34 1 3 C0.67 2.01 0.34 1.02 0 0 Z " fill="#D5D5D5" transform="translate(65,83)"/>
<path d="M0 0 C4.29 0 8.58 0 13 0 C13 0.66 13 1.32 13 2 C12.01 2.495 12.01 2.495 11 3 C9.86649466 5.01669827 9.86649466 5.01669827 9 7 C9 5.35 9 3.7 9 2 C6.03 2 3.06 2 0 2 C0 1.34 0 0.68 0 0 Z " fill="#4E4E4E" transform="translate(91,1)"/>
<path d="M0 0 C1.32 0.66 2.64 1.32 4 2 C4 4.31 4 6.62 4 9 C2.0625 8.3125 2.0625 8.3125 0 7 C-0.93580311 4.12060581 -1.37245106 2.74490212 0 0 Z " fill="#D3D3D3" transform="translate(353,21)"/>
<path d="M0 0 C1.93166016 0.01740234 1.93166016 0.01740234 3.90234375 0.03515625 C5.19269531 0.04417969 6.48304687 0.05320313 7.8125 0.0625 C8.81152344 0.07410156 9.81054688 0.08570312 10.83984375 0.09765625 C10.83984375 0.75765625 10.83984375 1.41765625 10.83984375 2.09765625 C8.71615931 2.31899801 6.59080351 2.52435632 4.46484375 2.72265625 C3.28148437 2.83867188 2.098125 2.9546875 0.87890625 3.07421875 C-0.12398437 3.08195313 -1.126875 3.0896875 -2.16015625 3.09765625 C-2.82015625 2.43765625 -3.48015625 1.77765625 -4.16015625 1.09765625 C-3.16015625 0.09765625 -3.16015625 0.09765625 0 0 Z " fill="#6A6A6A" transform="translate(35.16015625,0.90234375)"/>
<path d="M0 0 C1.32 0.33 2.64 0.66 4 1 C3.01 1 2.02 1 1 1 C1 1.66 1 2.32 1 3 C-2.25 4.1875 -2.25 4.1875 -6 5 C-8.4375 3.625 -8.4375 3.625 -10 2 C-6.42355152 0.7619986 -3.66305234 1.25073929 0 2 C0 1.34 0 0.68 0 0 Z " fill="#DEDEDE" transform="translate(30,83)"/>
<path d="M0 0 C3.3 0 6.6 0 10 0 C9.67 0.99 9.34 1.98 9 3 C5.7 3 2.4 3 -1 3 C-0.67 2.01 -0.34 1.02 0 0 Z " fill="#E2E2E2" transform="translate(282,3)"/>
<path d="M0 0 C4.62 0 9.24 0 14 0 C13.67 0.99 13.34 1.98 13 3 C11.39592672 3.02708567 9.7917215 3.04643483 8.1875 3.0625 C6.84751953 3.07990234 6.84751953 3.07990234 5.48046875 3.09765625 C3 3 3 3 0 2 C0 1.34 0 0.68 0 0 Z " fill="#585858" transform="translate(130,1)"/>
<path d="M0 0 C3.10551666 0 4.35261084 0.5393715 7 2 C6.67 2.66 6.34 3.32 6 4 C2.9375 4.625 2.9375 4.625 0 5 C-0.5625 3.0625 -0.5625 3.0625 -1 1 C-0.67 0.67 -0.34 0.34 0 0 Z " fill="#D7D7D7" transform="translate(80,82)"/>
<path d="M0 0 C0.99 0.99 1.98 1.98 3 3 C2.67 3.99 2.34 4.98 2 6 C0.35 5.67 -1.3 5.34 -3 5 C-2.625 3.0625 -2.625 3.0625 -2 1 C-1.34 0.67 -0.68 0.34 0 0 Z " fill="#D2D2D2" transform="translate(205,3)"/>
<path d="M0 0 C0.33 0.99 0.66 1.98 1 3 C1.66 3.33 2.32 3.66 3 4 C2 5 2 5 -0.3125 5.1875 C-3.0779203 4.9945637 -4.64045051 4.39825155 -7 3 C-5.1875 1.9375 -5.1875 1.9375 -3 1 C-2.01 1.33 -1.02 1.66 0 2 C0 1.34 0 0.68 0 0 Z " fill="#E5E5E5" transform="translate(62,1)"/>
<path d="M0 0 C3.63 0 7.26 0 11 0 C10.67 0.99 10.34 1.98 10 3 C8.5199159 2.88637738 7.04089926 2.75877092 5.5625 2.625 C4.73878906 2.55539062 3.91507813 2.48578125 3.06640625 2.4140625 C2.38449219 2.27742187 1.70257813 2.14078125 1 2 C0.67 1.34 0.34 0.68 0 0 Z " fill="#E9E9E9" transform="translate(158,3)"/>
<path d="M0 0 C-0.33 0.66 -0.66 1.32 -1 2 C-1.94875 1.95875 -2.8975 1.9175 -3.875 1.875 C-7.10244856 1.65026182 -7.10244856 1.65026182 -9 4 C-9.99 3.67 -10.98 3.34 -12 3 C-12 2.34 -12 1.68 -12 1 C-10.56496445 0.63597631 -9.12683494 0.28413409 -7.6875 -0.0625 C-6.88699219 -0.25972656 -6.08648437 -0.45695312 -5.26171875 -0.66015625 C-3 -1 -3 -1 0 0 Z " fill="#A5A5A5" transform="translate(34,86)"/>
<path d="M0 0 C0.99 0.33 1.98 0.66 3 1 C3 1.66 3 2.32 3 3 C4.98 3 6.96 3 9 3 C5.09971775 5.60018816 1.52565431 5.15085514 -3 5 C-3 4.34 -3 3.68 -3 3 C-2.01 3 -1.02 3 0 3 C0 2.01 0 1.02 0 0 Z " fill="#D7D7D7" transform="translate(141,82)"/>
<path d="M0 0 C0.99 0.33 1.98 0.66 3 1 C2.34 3.31 1.68 5.62 1 8 C0.01 7.67 -0.98 7.34 -2 7 C-2 5.33333333 -2 3.66666667 -2 2 C-1.34 2 -0.68 2 0 2 C0 1.34 0 0.68 0 0 Z " fill="#EEEEEE" transform="translate(5,10)"/>
<path d="M0 0 C0.99 0.33 1.98 0.66 3 1 C3 1.99 3 2.98 3 4 C3.66 4.66 4.32 5.32 5 6 C4.01 6.99 3.02 7.98 2 9 C0.14223235 5.86501708 -0.20140476 3.62528568 0 0 Z " fill="#B0B0B0" transform="translate(279,1)"/>
<path d="M0 0 C1.20462891 -0.02126953 1.20462891 -0.02126953 2.43359375 -0.04296875 C4.5625 0.1875 4.5625 0.1875 6.5625 2.1875 C-2.00892857 3.61607143 -2.00892857 3.61607143 -5.4375 1.1875 C-3.84855928 -0.40144072 -2.18948576 0.01751589 0 0 Z " fill="#484848" transform="translate(240.4375,0.8125)"/>
<path d="M0 0 C0.99 0 1.98 0 3 0 C2.75 2.875 2.75 2.875 2 6 C-0.0625 7.375 -0.0625 7.375 -2 8 C-2.33 7.01 -2.66 6.02 -3 5 C-2.34 5 -1.68 5 -1 5 C-0.67 3.35 -0.34 1.7 0 0 Z " fill="#DADADA" transform="translate(352,72)"/>
<path d="M0 0 C0.33 0 0.66 0 1 0 C1.33 2.97 1.66 5.94 2 9 C1.01 9.33 0.02 9.66 -1 10 C-1.33 9.01 -1.66 8.02 -2 7 C-2.66 6.67 -3.32 6.34 -4 6 C-3.01 5.67 -2.02 5.34 -1 5 C-0.67 3.35 -0.34 1.7 0 0 Z " fill="#B8B8B8" transform="translate(358,56)"/>
<path d="M0 0 C0.73080266 1.97746603 1.39421747 3.98072489 2 6 C1.67 6.66 1.34 7.32 1 8 C-1 7 -1 7 -3 4 C-2.34 4 -1.68 4 -1 4 C-1 3.34 -1 2.68 -1 2 C-1.99 1.67 -2.98 1.34 -4 1 C-2 0 -2 0 0 0 Z " fill="#F9F9F9" transform="translate(356,9)"/>
<path d="M0 0 C2 3.875 2 3.875 2 5 C-1.63 5 -5.26 5 -9 5 C-9 4.67 -9 4.34 -9 4 C-7.02 4 -5.04 4 -3 4 C-2.67 3.01 -2.34 2.02 -2 1 C-1.34 0.67 -0.68 0.34 0 0 Z " fill="#C6C6C6" transform="translate(189,4)"/>
<path d="M0 0 C3.68754757 0.49831724 5.60490662 1.10067643 8 4 C5.36 4.33 2.72 4.66 0 5 C0.33 4.01 0.66 3.02 1 2 C0.67 1.34 0.34 0.68 0 0 Z " fill="#A2A2A2" transform="translate(328,1)"/>
<path d="M0 0 C0.33 0.66 0.66 1.32 1 2 C3.64 2 6.28 2 9 2 C6.23776722 4.76223278 3.79293383 4.57856291 0 5 C-0.33 4.01 -0.66 3.02 -1 2 C-0.67 1.34 -0.34 0.68 0 0 Z " fill="#C3C3C3" transform="translate(104,1)"/>
<path d="M0 0 C0.33 1.32 0.66 2.64 1 4 C-1.31 4 -3.62 4 -6 4 C-6 3.01 -6 2.02 -6 1 C-4 0 -4 0 0 0 Z " fill="#D5D5D5" transform="translate(264,83)"/>
<path d="M0 0 C0.66 0 1.32 0 2 0 C1.67 1.65 1.34 3.3 1 5 C0.67 5 0.34 5 0 5 C0 3.35 0 1.7 0 0 Z M-4 4 C-2.0625 4.3125 -2.0625 4.3125 0 5 C0.33 5.99 0.66 6.98 1 8 C-0.65 7.67 -2.3 7.34 -4 7 C-4 6.01 -4 5.02 -4 4 Z " fill="#989898" transform="translate(352,78)"/>
<path d="M0 0 C0.66 0.66 1.32 1.32 2 2 C1.625 4.625 1.625 4.625 1 7 C0.34 7 -0.32 7 -1 7 C-1 6.34 -1 5.68 -1 5 C-2.32 4.67 -3.64 4.34 -5 4 C-4.01 4 -3.02 4 -2 4 C-2 3.34 -2 2.68 -2 2 C-1.34 2 -0.68 2 0 2 C0 1.34 0 0.68 0 0 Z " fill="#DCDCDC" transform="translate(278,1)"/>
<path d="M0 0 C1.32 0 2.64 0 4 0 C4 0.66 4 1.32 4 2 C4.99 2.33 5.98 2.66 7 3 C5.68 3.99 4.36 4.98 3 6 C2.34 5.67 1.68 5.34 1 5 C1 4.01 1 3.02 1 2 C0.67 1.34 0.34 0.68 0 0 Z " fill="#A1A1A1" transform="translate(5,75)"/>
<path d="M0 0 C0.66 0 1.32 0 2 0 C2 1.32 2 2.64 2 4 C2.66 4.33 3.32 4.66 4 5 C3.34 5 2.68 5 2 5 C2 6.65 2 8.3 2 10 C1.01 10.495 1.01 10.495 0 11 C0 7.37 0 3.74 0 0 Z " fill="#515151" transform="translate(1,51)"/>
<path d="M0 0 C0.99 0.66 1.98 1.32 3 2 C3 3.32 3 4.64 3 6 C2.34 6 1.68 6 1 6 C0.67 6.99 0.34 7.98 0 9 C0 7.68 0 6.36 0 5 C-0.66 4.67 -1.32 4.34 -2 4 C-1.34 4 -0.68 4 0 4 C0 2.68 0 1.36 0 0 Z " fill="#E5E5E5" transform="translate(3,46)"/>
<path d="M0 0 C0.99 0.33 1.98 0.66 3 1 C3.33 2.65 3.66 4.3 4 6 C2.68 6 1.36 6 0 6 C0 4.02 0 2.04 0 0 Z " fill="#FFFFFF" transform="translate(356,20)"/>
<path d="M0 0 C1.65 0.33 3.3 0.66 5 1 C4.01 1.33 3.02 1.66 2 2 C2.33 3.65 2.66 5.3 3 7 C1.68 5.68 0.36 4.36 -1 3 C-0.67 2.01 -0.34 1.02 0 0 Z " fill="#D2D2D2" transform="translate(343,12)"/>
<path d="M0 0 C3.63 0 7.26 0 11 0 C11 0.99 11 1.98 11 3 C6.72213252 2.50639991 3.90432869 1.95216435 0 0 Z " fill="#4A4A4A" transform="translate(220,1)"/>
<path d="M0 0 C2.97 0 5.94 0 9 0 C9.33 1.32 9.66 2.64 10 4 C6.44219804 3.39009109 3.3171411 2.4216319 0 1 C0 0.67 0 0.34 0 0 Z " fill="#D3D3D3" transform="translate(308,83)"/>
<path d="M0 0 C2.97 0 5.94 0 9 0 C9.33 1.32 9.66 2.64 10 4 C6.44219804 3.39009109 3.3171411 2.4216319 0 1 C0 0.67 0 0.34 0 0 Z " fill="#D3D3D3" transform="translate(52,83)"/>
<path d="M0 0 C0.33 0.66 0.66 1.32 1 2 C1.99 2.33 2.98 2.66 4 3 C3.01 4.32 2.02 5.64 1 7 C0.01 6.01 -0.98 5.02 -2 4 C-1.34 2.68 -0.68 1.36 0 0 Z " fill="#C5C5C5" transform="translate(13,8)"/>
<path d="M0 0 C2.31 0 4.62 0 7 0 C7.33 0.66 7.66 1.32 8 2 C5.36 2.33 2.72 2.66 0 3 C0 2.01 0 1.02 0 0 Z " fill="#525252" transform="translate(319,1)"/>
<path d="M0 0 C2.625 -0.1875 2.625 -0.1875 5 0 C4.67 1.32 4.34 2.64 4 4 C1.03 3.505 1.03 3.505 -2 3 C-1.34 2.01 -0.68 1.02 0 0 Z " fill="#8F8F8F" transform="translate(303,1)"/>
<path d="M0 0 C2.31 0 4.62 0 7 0 C7.33 0.66 7.66 1.32 8 2 C5.36 2.33 2.72 2.66 0 3 C0 2.01 0 1.02 0 0 Z " fill="#525252" transform="translate(63,1)"/>
<path d="M0 0 C2.625 -0.1875 2.625 -0.1875 5 0 C4.67 1.32 4.34 2.64 4 4 C1.03 3.505 1.03 3.505 -2 3 C-1.34 2.01 -0.68 1.02 0 0 Z " fill="#8F8F8F" transform="translate(47,1)"/>
<path d="M0 0 C0.99 0.66 1.98 1.32 3 2 C2.67 2.99 2.34 3.98 2 5 C0.35 5.33 -1.3 5.66 -3 6 C-2.625 3.5625 -2.625 3.5625 -2 1 C-1.34 0.67 -0.68 0.34 0 0 Z " fill="#C5C5C5" transform="translate(357,16)"/>
<path d="M0 0 C0.33 0.66 0.66 1.32 1 2 C1.66 2.33 2.32 2.66 3 3 C3.33 3.66 3.66 4.32 4 5 C1.69 5 -0.62 5 -3 5 C-2.67 4.01 -2.34 3.02 -2 2 C-1.34 2 -0.68 2 0 2 C0 1.34 0 0.68 0 0 Z " fill="#C7C7C7" transform="translate(128,4)"/>
<path d="M0 0 C1.32 0.33 2.64 0.66 4 1 C3.67 1.33 3.34 1.66 3 2 C3.99 2.99 4.98 3.98 6 5 C4.68 5.33 3.36 5.66 2 6 C1.34 4.02 0.68 2.04 0 0 Z " fill="#C3C3C3" transform="translate(114,3)"/>
<path d="M0 0 C2 3.875 2 3.875 2 5 C0.02 5 -1.96 5 -4 5 C-3.6875 3.0625 -3.6875 3.0625 -3 1 C-2.01 0.67 -1.02 0.34 0 0 Z " fill="#C5C5C5" transform="translate(95,4)"/>
<path d="M0 0 C2 1 2 1 4 4 C2.35 4.33 0.7 4.66 -1 5 C-1.33 3.68 -1.66 2.36 -2 1 C-1.34 0.67 -0.68 0.34 0 0 Z " fill="#DDDDDD" transform="translate(30,1)"/>
<path d="M0 0 C1.75 1.4375 1.75 1.4375 3 3 C0.69 3.33 -1.62 3.66 -4 4 C-4 3.01 -4 2.02 -4 1 C-2.1875 0.3125 -2.1875 0.3125 0 0 Z " fill="#E8E8E8" transform="translate(198,2)"/>
<path d="M0 0 C2.97 0 5.94 0 9 0 C8.01 1.485 8.01 1.485 7 3 C4.69 2.67 2.38 2.34 0 2 C0 1.34 0 0.68 0 0 Z " fill="#3F3F3F" transform="translate(145,1)"/>
<path d="M0 0 C2.64 0 5.28 0 8 0 C7.67 0.66 7.34 1.32 7 2 C4.67843403 2.40729228 2.3431213 2.74438677 0 3 C0 2.01 0 1.02 0 0 Z " fill="#555555" transform="translate(179,1)"/>
<path d="M0 0 C0.33 1.32 0.66 2.64 1 4 C-1.97 3.505 -1.97 3.505 -5 3 C-5.33 2.01 -5.66 1.02 -6 0 C-3.50907189 -1.24546405 -2.58919267 -0.7767578 0 0 Z " fill="#858585" transform="translate(340,86)"/>
<path d="M0 0 C0.99 0 1.98 0 3 0 C4.125 3.75 4.125 3.75 3 6 C2.01 5.67 1.02 5.34 0 5 C0.33 4.34 0.66 3.68 1 3 C0.34 2.67 -0.32 2.34 -1 2 C-0.67 1.34 -0.34 0.68 0 0 Z " fill="#D5D5D5" transform="translate(5,36)"/>
<path d="M0 0 C1.65 0.33 3.3 0.66 5 1 C4.34 2.32 3.68 3.64 3 5 C2.34 5 1.68 5 1 5 C1 4.34 1 3.68 1 3 C0.34 2.67 -0.32 2.34 -1 2 C-0.67 1.34 -0.34 0.68 0 0 Z " fill="#BFBFBF" transform="translate(351,14)"/>
<path d="M0 0 C1.65 0 3.3 0 5 0 C4.67 1.32 4.34 2.64 4 4 C2.68 3.67 1.36 3.34 0 3 C0 2.01 0 1.02 0 0 Z " fill="#C5C5C5" transform="translate(198,5)"/>
<path d="M0 0 C1.32 0.33 2.64 0.66 4 1 C3.67 2.65 3.34 4.3 3 6 C2.01 5.67 1.02 5.34 0 5 C0 3.35 0 1.7 0 0 Z " fill="#797979" transform="translate(174,1)"/>
<path d="M0 0 C2.97 0 5.94 0 9 0 C8.67 0.99 8.34 1.98 8 3 C5.6568787 2.74438677 3.32156597 2.40729228 1 2 C0.67 1.34 0.34 0.68 0 0 Z " fill="#5F5F5F" transform="translate(72,1)"/>
<path d="" fill="#FFFFFF" transform="translate(0,0)"/>
<path d="" fill="#000000" transform="translate(0,0)"/>
<path d="" fill="#FFFFFF" transform="translate(0,0)"/>
</svg>
