<svg width="191" height="242" viewBox="0 0 191 242" fill="none" xmlns="http://www.w3.org/2000/svg">
<g opacity="0.8" clip-path="url(#clip0)">
<path d="M154.008 251.537C152.212 233.167 83.4383 241.209 53.348 191.654C39.1886 168.335 48.4963 156.792 34.887 132.265C10.6668 88.5823 -55.1686 59.584 -82.0776 77.6297C-121.499 104.062 -111.663 254.395 -25.1834 297.834C51.484 336.349 156.278 274.72 154.008 251.537Z" fill="#EFDC70"/>
<path d="M165.222 250.709C165.639 225.465 96.0848 233.46 30.2187 162.446C-10.7218 118.302 -21.8447 74.2466 -63.8532 67.7464C-65.4867 67.4958 -93.58 63.5471 -114.745 79.8604C-161.735 116.082 -156.727 238.48 -92.7738 293.566C-4.43343 369.66 164.572 289.931 165.222 250.709Z" stroke="black" stroke-miterlimit="10"/>
</g>
<defs>
<clipPath id="clip0">
<rect width="330.634" height="298.736" fill="white" transform="translate(-98.2905 394.852) rotate(-104.487)"/>
</clipPath>
</defs>
</svg>
