<svg width="156" height="144" viewBox="0 0 156 144" fill="none" xmlns="http://www.w3.org/2000/svg">
<path d="M119.259 34.4624C119.05 34.4624 118.841 34.3577 118.701 34.1484C118.387 33.6948 118.038 33.2063 117.689 32.7527C117.445 32.4387 117.515 32.02 117.829 31.7758C118.143 31.5315 118.561 31.6013 118.806 31.9153C119.155 32.3689 119.503 32.8574 119.852 33.3459C120.062 33.6599 119.992 34.1135 119.678 34.3228C119.538 34.4275 119.399 34.4624 119.259 34.4624ZM116.468 30.9035C116.259 30.9035 116.084 30.8337 115.945 30.6593C115.561 30.2406 115.177 29.787 114.793 29.3683C114.514 29.0891 114.549 28.6356 114.828 28.3913C115.107 28.1122 115.561 28.1471 115.805 28.4262C116.189 28.8449 116.607 29.2985 116.991 29.7521C117.236 30.0312 117.201 30.4848 116.922 30.729C116.782 30.8337 116.642 30.9035 116.468 30.9035ZM113.363 27.5888C113.188 27.5888 113.014 27.519 112.874 27.3795C112.455 26.9957 112.037 26.577 111.618 26.228C111.339 25.9838 111.304 25.5302 111.548 25.2511C111.792 24.972 112.246 24.9371 112.525 25.1813C112.979 25.5651 113.397 25.9838 113.816 26.3676C114.095 26.6467 114.095 27.0654 113.851 27.3446C113.711 27.519 113.537 27.5888 113.363 27.5888ZM109.943 24.623C109.804 24.623 109.629 24.5882 109.525 24.4835C109.071 24.1346 108.617 23.7857 108.164 23.4367C107.85 23.1925 107.78 22.7738 108.024 22.4598C108.268 22.1458 108.687 22.076 109.001 22.3202C109.49 22.6691 109.943 23.018 110.397 23.4018C110.711 23.6461 110.746 24.0648 110.501 24.3788C110.362 24.5184 110.153 24.623 109.943 24.623ZM106.245 21.9713C106.105 21.9713 106 21.9364 105.861 21.8666C105.372 21.5526 104.884 21.2386 104.395 20.9594C104.047 20.7501 103.942 20.3314 104.151 20.0174C104.361 19.7034 104.779 19.5638 105.093 19.7731C105.617 20.0872 106.105 20.4012 106.594 20.7152C106.908 20.9246 107.012 21.3433 106.803 21.6922C106.698 21.8666 106.489 21.9713 106.245 21.9713ZM102.337 19.7034C102.232 19.7034 102.128 19.6685 102.023 19.6336C101.5 19.3893 101.011 19.1102 100.488 18.866C100.139 18.6915 99.9992 18.2728 100.139 17.9239C100.313 17.575 100.732 17.4354 101.081 17.575C101.604 17.8192 102.162 18.0984 102.686 18.3426C103.035 18.5171 103.174 18.9357 103 19.2847C102.825 19.5638 102.581 19.7034 102.337 19.7034ZM98.2197 17.8192C98.1499 17.8192 98.0453 17.8192 97.9755 17.7843C97.4521 17.575 96.8938 17.3656 96.3705 17.1912C96.0215 17.0516 95.8122 16.6678 95.9518 16.284C96.0913 15.9351 96.4751 15.7257 96.859 15.8653C97.4172 16.0747 97.9755 16.284 98.5337 16.4934C98.8826 16.6329 99.0571 17.0516 98.9175 17.4005C98.7431 17.6448 98.4988 17.8192 98.2197 17.8192ZM93.9281 16.3538C93.8583 16.3538 93.7885 16.3538 93.7187 16.3189C93.1605 16.1444 92.6022 16.0049 92.0439 15.8653C91.6601 15.7606 91.4508 15.3768 91.5206 15.0279C91.6252 14.6441 91.9741 14.4348 92.358 14.5045C92.9162 14.6441 93.5094 14.8186 94.0676 14.9581C94.4514 15.0628 94.6608 15.4466 94.5561 15.8304C94.4863 16.1444 94.2072 16.3538 93.9281 16.3538ZM89.4969 15.307C89.462 15.307 89.4271 15.307 89.3573 15.307C88.799 15.2024 88.2408 15.0977 87.6476 15.0279C87.2638 14.9581 87.0196 14.6092 87.0545 14.2254C87.1243 13.8416 87.4732 13.5974 87.857 13.6323C88.4501 13.702 89.0084 13.8067 89.6015 13.9114C89.9853 13.9812 90.2296 14.3301 90.1598 14.7139C90.1249 15.0628 89.8458 15.307 89.4969 15.307ZM85.0308 14.679C84.9959 14.679 84.9959 14.679 84.961 14.679C84.4027 14.6441 83.8096 14.5743 83.2513 14.5743C82.8675 14.5394 82.5535 14.2254 82.5884 13.8416C82.6233 13.4578 82.9373 13.1787 83.3211 13.1787C83.9142 13.2136 84.5074 13.2485 85.1005 13.3182C85.4844 13.3531 85.7635 13.702 85.7286 14.0858C85.6588 14.3999 85.3797 14.679 85.0308 14.679ZM78.7503 14.5394C78.3665 14.5394 78.0874 14.2603 78.0525 13.8765C78.0525 13.4927 78.3316 13.1787 78.7154 13.1438C79.3086 13.1089 79.9017 13.1089 80.4949 13.1089C80.8787 13.1089 81.1927 13.4229 81.1927 13.8067C81.1927 14.1905 80.8787 14.5045 80.4949 14.5045C79.9017 14.5045 79.3435 14.5045 78.7503 14.5394Z" fill="#A190EA"/>
<path d="M123.063 36.1023C122.784 36.1023 122.539 35.9279 122.435 35.6836C122.26 35.2998 122.121 34.916 121.946 34.5322C121.772 34.1833 121.946 33.7646 122.295 33.625C122.644 33.4506 123.063 33.625 123.202 33.9739C123.377 34.3577 123.551 34.7416 123.726 35.1254C123.865 35.4743 123.726 35.893 123.342 36.0325C123.272 36.1023 123.167 36.1023 123.063 36.1023ZM121.353 32.4387C121.109 32.4387 120.865 32.2992 120.725 32.0549C120.446 31.5315 120.202 31.0431 119.923 30.5546C119.748 30.2057 119.853 29.787 120.202 29.6125C120.551 29.4381 120.969 29.5427 121.144 29.8917C121.423 30.415 121.702 30.9384 121.981 31.4618C122.156 31.8107 122.016 32.2294 121.667 32.4038C121.562 32.4387 121.458 32.4387 121.353 32.4387ZM119.12 28.496C118.876 28.496 118.666 28.3913 118.527 28.182C118.213 27.6935 117.899 27.205 117.585 26.7165C117.376 26.4025 117.445 25.9489 117.794 25.7396C118.108 25.5302 118.562 25.6 118.771 25.9489C119.085 26.4374 119.399 26.9259 119.713 27.4493C119.923 27.7633 119.818 28.2169 119.504 28.4262C119.364 28.4611 119.26 28.496 119.12 28.496ZM25.4367 25.0069C25.2971 25.0069 25.1576 24.972 25.018 24.8673C24.704 24.6231 24.6342 24.2044 24.8784 23.8903C25.2273 23.4019 25.5763 22.9483 25.9252 22.4947C26.1694 22.1807 26.5881 22.1458 26.9021 22.3551C27.2162 22.5994 27.251 23.018 27.0417 23.3321C26.6928 23.7857 26.3439 24.2392 25.995 24.6928C25.8554 24.9022 25.646 25.0069 25.4367 25.0069ZM116.573 24.7626C116.364 24.7626 116.154 24.6579 116.015 24.4835C115.666 24.0299 115.317 23.5763 114.968 23.1227C114.724 22.8087 114.794 22.39 115.073 22.1458C115.387 21.9015 115.805 21.9713 116.05 22.2504C116.399 22.704 116.782 23.1925 117.131 23.6461C117.375 23.9601 117.306 24.3788 116.992 24.6231C116.887 24.7277 116.713 24.7626 116.573 24.7626ZM28.228 21.4479C28.0536 21.4479 27.914 21.3782 27.7744 21.2735C27.4953 21.0292 27.4604 20.5756 27.7046 20.2965C28.0884 19.8429 28.4722 19.4242 28.8909 18.9706C29.1352 18.6915 29.5888 18.6566 29.8679 18.9358C30.147 19.18 30.1819 19.6336 29.9028 19.9127C29.519 20.3314 29.1352 20.785 28.7514 21.2037C28.6467 21.3782 28.4374 21.4479 28.228 21.4479ZM113.747 21.2037C113.537 21.2037 113.363 21.1339 113.223 20.9595C112.84 20.5408 112.456 20.0872 112.072 19.6685C111.793 19.3893 111.828 18.9358 112.107 18.6915C112.386 18.4473 112.84 18.4473 113.084 18.7264C113.468 19.1451 113.886 19.5987 114.27 20.0523C114.514 20.3314 114.48 20.785 114.2 21.0292C114.061 21.1688 113.921 21.2037 113.747 21.2037ZM31.3333 18.1333C31.1589 18.1333 30.9844 18.0635 30.8449 17.9239C30.5657 17.6448 30.5657 17.1912 30.8449 16.9469C31.2636 16.5282 31.6823 16.1096 32.101 15.7257C32.3801 15.4466 32.8337 15.4815 33.0779 15.7606C33.357 16.0398 33.3222 16.4934 33.043 16.7376C32.6243 17.1214 32.2056 17.5401 31.7869 17.9239C31.6823 18.0635 31.5078 18.1333 31.3333 18.1333ZM110.641 17.9239C110.467 17.9239 110.293 17.8541 110.153 17.7146C109.734 17.3307 109.316 16.9121 108.897 16.5282C108.618 16.284 108.583 15.8304 108.862 15.5513C109.106 15.2722 109.56 15.2373 109.839 15.5164C110.258 15.9002 110.711 16.3189 111.13 16.7376C111.409 17.0167 111.409 17.4354 111.13 17.7146C110.99 17.8541 110.816 17.9239 110.641 17.9239ZM34.6829 15.0628C34.4736 15.0628 34.2991 14.993 34.1595 14.8186C33.9153 14.5394 33.9502 14.0859 34.2293 13.8416C34.6829 13.4578 35.1365 13.074 35.5901 12.7251C35.9041 12.4808 36.3228 12.5506 36.567 12.8298C36.8113 13.1438 36.7415 13.5625 36.4624 13.8067C36.0088 14.1556 35.5552 14.5394 35.1365 14.8884C34.9969 15.0279 34.8225 15.0628 34.6829 15.0628ZM107.292 14.8884C107.117 14.8884 106.978 14.8186 106.838 14.7139C106.385 14.3301 105.931 13.9812 105.512 13.6323C105.198 13.388 105.164 12.9693 105.408 12.6553C105.652 12.3413 106.071 12.3064 106.385 12.5506C106.838 12.8995 107.292 13.2833 107.745 13.6672C108.025 13.9114 108.094 14.365 107.85 14.6441C107.676 14.7837 107.466 14.8884 107.292 14.8884ZM38.2418 12.3064C38.0325 12.3064 37.8231 12.2017 37.6836 12.0273C37.4742 11.7132 37.544 11.2945 37.858 11.0503C38.3465 10.7014 38.835 10.3874 39.3235 10.0384C39.6375 9.8291 40.0911 9.89888 40.3004 10.2129C40.5098 10.5269 40.44 10.9805 40.126 11.1899C39.6375 11.5039 39.1839 11.8528 38.6954 12.1668C38.5559 12.2366 38.4163 12.3064 38.2418 12.3064ZM103.663 12.097C103.524 12.097 103.384 12.0622 103.244 11.9575C102.791 11.6435 102.302 11.2945 101.814 10.9805C101.5 10.7712 101.395 10.3176 101.605 10.0036C101.814 9.68954 102.268 9.58486 102.582 9.79421C103.07 10.1082 103.559 10.4571 104.047 10.8061C104.361 11.0154 104.431 11.469 104.221 11.783C104.117 11.9924 103.907 12.097 103.663 12.097ZM42.045 9.79421C41.8008 9.79421 41.5914 9.68954 41.4518 9.4453C41.2425 9.13127 41.3472 8.67769 41.6961 8.50323C42.1846 8.18921 42.7079 7.91008 43.2313 7.63095C43.5802 7.45649 43.9989 7.56116 44.1734 7.91008C44.3478 8.25899 44.2432 8.67769 43.8942 8.85214C43.4058 9.13128 42.8824 9.41041 42.3939 9.72443C42.2892 9.75932 42.1846 9.79421 42.045 9.79421ZM99.86 9.65464C99.7553 9.65464 99.6158 9.61975 99.5111 9.54997C99.0226 9.27084 98.4993 8.95682 98.0108 8.67769C97.6619 8.50323 97.5572 8.04964 97.7317 7.73562C97.9061 7.3867 98.3597 7.28203 98.6737 7.45649C99.1971 7.73562 99.6856 8.04964 100.209 8.32877C100.523 8.53812 100.663 8.95682 100.453 9.27084C100.349 9.51508 100.104 9.65464 99.86 9.65464ZM46.0226 7.63095C45.7784 7.63095 45.5341 7.49138 45.3946 7.24714C45.2201 6.89822 45.3597 6.47953 45.7086 6.30507C46.232 6.06083 46.7553 5.7817 47.3136 5.53746C47.6625 5.363 48.0812 5.53746 48.2557 5.88637C48.4301 6.23529 48.2557 6.65399 47.9067 6.82844C47.3834 7.07268 46.86 7.31692 46.3366 7.56116C46.232 7.59605 46.1273 7.63095 46.0226 7.63095ZM95.8824 7.49138C95.7777 7.49138 95.6731 7.45649 95.5684 7.4216C95.045 7.17736 94.5216 6.93312 93.9983 6.68888C93.6494 6.51442 93.4749 6.13061 93.6494 5.7817C93.8238 5.43279 94.2076 5.25833 94.5565 5.43279C95.0799 5.67703 95.6382 5.92127 96.1615 6.2004C96.5105 6.37485 96.65 6.79355 96.4756 7.14247C96.4058 7.35181 96.1266 7.49138 95.8824 7.49138ZM50.1747 5.7817C49.8956 5.7817 49.6513 5.60724 49.5118 5.32811C49.3722 4.9792 49.5466 4.5605 49.8956 4.42094C50.4538 4.21159 51.0121 4.00224 51.5355 3.79289C51.8844 3.65333 52.3031 3.86267 52.4426 4.21159C52.5822 4.5605 52.3728 4.9792 52.0239 5.11876C51.5006 5.32811 50.9423 5.50257 50.4189 5.74681C50.3491 5.74681 50.2445 5.7817 50.1747 5.7817ZM91.7303 5.64213C91.6605 5.64213 91.5559 5.64214 91.4861 5.60724C90.9627 5.3979 90.4045 5.18855 89.8811 5.01409C89.5322 4.87452 89.3228 4.49072 89.4624 4.10691C89.602 3.758 89.9858 3.54865 90.3696 3.68822C90.9278 3.89757 91.4861 4.10691 92.0443 4.31626C92.3933 4.45583 92.5677 4.87453 92.4282 5.22344C92.2537 5.50257 92.0095 5.64213 91.7303 5.64213ZM54.4314 4.28137C54.1174 4.28137 53.8732 4.07202 53.7685 3.79289C53.6638 3.40909 53.8732 3.02528 54.2221 2.92061C54.7804 2.74615 55.3386 2.57169 55.9318 2.43213C56.3156 2.32745 56.6994 2.5368 56.8041 2.92061C56.9087 3.30441 56.6994 3.68822 56.3156 3.79289C55.7573 3.93246 55.199 4.10691 54.6757 4.28137C54.571 4.24648 54.5012 4.28137 54.4314 4.28137ZM87.4387 4.1767C87.3689 4.1767 87.2991 4.1767 87.2293 4.14181C86.6711 3.96735 86.1128 3.82778 85.5546 3.65333C85.1707 3.54865 84.9614 3.16485 85.0661 2.81593C85.1707 2.43213 85.5546 2.22278 85.9035 2.32745C86.4617 2.46702 87.0549 2.64148 87.6132 2.81593C87.997 2.92061 88.2063 3.30441 88.0667 3.68822C87.997 3.96735 87.7527 4.1767 87.4387 4.1767ZM58.7929 3.09506C58.4788 3.09506 58.1997 2.88572 58.095 2.5368C58.0253 2.153 58.2346 1.80408 58.6184 1.69941C59.1767 1.55984 59.7698 1.45517 60.3281 1.35049C60.7119 1.28071 61.0608 1.52495 61.1306 1.90876C61.2004 2.29256 60.9561 2.64148 60.5723 2.71126C60.0141 2.81593 59.4558 2.92061 58.8975 3.06017C58.8975 3.09506 58.8626 3.09506 58.7929 3.09506ZM83.0424 3.02528C83.0075 3.02528 82.9377 3.02528 82.9028 3.02528C82.3446 2.92061 81.7863 2.78104 81.228 2.67637C80.8442 2.60658 80.6 2.25767 80.6698 1.87386C80.7395 1.49006 81.0885 1.24582 81.4723 1.3156C82.0654 1.42028 82.6237 1.52495 83.2168 1.66452C83.6006 1.7343 83.8449 2.1181 83.7402 2.50191C83.6355 2.81593 83.3564 3.02528 83.0424 3.02528ZM63.259 2.29256C62.91 2.29256 62.6309 2.04832 62.5611 1.69941C62.4913 1.3156 62.7705 0.966689 63.1543 0.896906C63.7474 0.827123 64.3406 0.757341 64.8989 0.687558C65.2827 0.652667 65.6316 0.931798 65.6665 1.3156C65.7014 1.69941 65.4222 2.04832 65.0384 2.08321C64.4802 2.153 63.887 2.22278 63.3287 2.29256C63.3287 2.29256 63.2938 2.29256 63.259 2.29256ZM78.5763 2.25767C78.5414 2.25767 78.5065 2.25767 78.4716 2.25767C77.9133 2.18789 77.3202 2.1181 76.7619 2.04832C76.3781 2.01343 76.099 1.66452 76.1339 1.28071C76.1688 0.896905 76.5177 0.617775 76.9015 0.652666C77.4946 0.722449 78.0878 0.792232 78.6461 0.862015C79.0299 0.896907 79.309 1.24582 79.2392 1.62962C79.2043 2.01343 78.9252 2.25767 78.5763 2.25767ZM67.7948 1.87386C67.411 1.87386 67.1319 1.59473 67.097 1.21093C67.0621 0.827124 67.3761 0.5131 67.7599 0.478209C68.3531 0.443318 68.9463 0.408426 69.5394 0.408426C69.9232 0.408426 70.2372 0.687558 70.2721 1.07136C70.2721 1.45517 69.993 1.76919 69.6092 1.80408C69.0509 1.80408 68.4578 1.83897 67.8995 1.87386C67.7948 1.87386 67.7948 1.87386 67.7948 1.87386ZM74.0404 1.83897H74.0055C73.4472 1.80408 72.8541 1.80408 72.2958 1.76919C71.912 1.76919 71.598 1.45517 71.598 1.07136C71.598 0.687558 71.9469 0.373535 72.2958 0.373535C72.889 0.373535 73.4821 0.408427 74.0753 0.443318C74.4591 0.47821 74.7731 0.792232 74.7382 1.17604C74.7382 1.55984 74.4242 1.83897 74.0404 1.83897Z" fill="#A190EA"/>
<path d="M117.13 130.727L70.2363 120.818C68.4219 120.434 67.2356 118.655 67.6194 116.84L85.2396 33.4498C85.6234 31.6354 87.4028 30.4491 89.2172 30.8329L136.111 40.7421C137.926 41.1259 139.112 42.9054 138.728 44.7197L121.108 128.11C120.759 129.924 118.98 131.111 117.13 130.727Z" fill="#41306C"/>
<path d="M135.588 44.0577L117.968 127.448C117.584 129.262 115.805 130.414 113.991 130.065L67.0965 120.156C65.2822 119.772 64.0959 117.993 64.4797 116.143L65.0379 113.596L82.0998 32.7878C82.4836 30.9734 84.2631 29.7871 86.1123 30.2058L129.971 39.452L132.971 40.0801C134.786 40.4639 135.972 42.2433 135.588 44.0577Z" fill="#5A4C84"/>
<path d="M126.307 40.3238C128.365 40.7774 129.691 42.8011 129.272 44.8597L113.501 119.597C113.118 121.376 111.373 122.493 109.629 122.109L70.7595 113.91C68.7009 113.456 67.3751 111.432 67.7938 109.374L83.5647 34.6365C83.9485 32.857 85.6931 31.7405 87.4376 32.1243L126.307 40.3238Z" fill="#605997"/>
<path d="M121.806 40.8121C123.586 41.1959 124.737 42.9405 124.354 44.7549L110.188 112.933C109.874 114.468 108.373 115.445 106.838 115.131L73.2725 108.048C71.4931 107.664 70.3416 105.919 70.7255 104.105L84.8914 35.9273C85.2054 34.3921 86.7057 33.4152 88.2409 33.7641L121.806 40.8121Z" fill="#776DA9"/>
<path d="M114.898 102.78C114.758 102.78 114.584 102.78 114.409 102.745C113.188 102.501 112.385 101.28 112.63 100.024L114.967 88.9634C115.212 87.7422 116.433 86.9397 117.689 87.1839C118.91 87.4282 119.713 88.6494 119.468 89.9055L117.131 100.966C116.921 102.048 115.944 102.78 114.898 102.78Z" fill="white"/>
<path d="M110.466 123.051C110.326 123.051 110.152 123.051 109.978 123.016C108.756 122.772 107.954 121.551 108.198 120.295L110.536 109.234C110.78 108.013 112.001 107.211 113.257 107.455C114.479 107.699 115.281 108.92 115.037 110.176L112.699 121.237C112.455 122.319 111.513 123.051 110.466 123.051Z" fill="white"/>
<path d="M119.189 82.4039C119.05 82.4039 118.875 82.4039 118.701 82.369C117.48 82.1248 116.677 80.9036 116.921 79.6475L119.259 68.5869C119.503 67.3657 120.725 66.5632 121.981 66.8075C123.202 67.0517 124.004 68.2729 123.76 69.529L121.422 80.5896C121.213 81.6363 120.236 82.4039 119.189 82.4039Z" fill="white"/>
<path d="M123.446 61.922C123.307 61.922 123.132 61.922 122.958 61.8871C121.737 61.6429 120.934 60.4217 121.178 59.1656L123.516 48.105C123.76 46.8838 124.982 46.0813 126.238 46.3255C127.459 46.5698 128.261 47.791 128.017 49.0471L125.679 60.1076C125.47 61.1544 124.528 61.922 123.446 61.922Z" fill="white"/>
<path d="M97.452 121.027C97.3124 121.027 97.138 121.027 96.9635 120.992C95.7423 120.748 94.9398 119.527 95.1841 118.271L99.4408 99.1504C99.685 97.9292 100.906 97.1267 102.162 97.3709C103.384 97.6152 104.186 98.8364 103.942 100.092L99.685 119.213C99.4408 120.295 98.4987 121.027 97.452 121.027Z" fill="white"/>
<path d="M81.9953 106.199L80.1809 114.363C79.9018 115.549 78.8202 116.352 77.6338 116.317C77.4943 116.317 77.3547 116.282 77.1803 116.247L75.8893 115.968L72.8537 115.34L72.0163 115.166C71.7023 115.096 71.4232 114.991 71.1789 114.817C70.3067 114.258 69.8182 113.212 70.0624 112.165L71.8768 104C72.1908 102.64 73.4818 101.802 74.8425 102.081L76.5871 102.465L77.4245 102.64L79.9716 103.163C81.437 103.477 82.3093 104.838 81.9953 106.199Z" fill="#F3CE29"/>
<path d="M80.9829 106.094L79.3779 113.247C79.1337 114.294 78.1916 114.991 77.1449 114.956C77.0053 114.956 76.9006 114.922 76.7611 114.922L75.6445 114.677L72.9928 114.119L72.2601 113.98C71.981 113.91 71.7367 113.84 71.5274 113.7C70.7598 113.212 70.3411 112.305 70.5504 111.363L72.1554 104.21C72.4345 103.024 73.586 102.291 74.7374 102.535L76.2726 102.849L77.0053 102.989L79.2384 103.477C80.4945 103.687 81.2621 104.873 80.9829 106.094Z" fill="#FFE03B"/>
<path d="M80.0762 105.989L78.6805 112.235C78.4712 113.142 77.6338 113.77 76.7266 113.735C76.6219 113.735 76.5172 113.7 76.3777 113.7L75.4007 113.491L73.0979 113.002L72.4349 112.863C72.1907 112.828 71.9814 112.723 71.8069 112.619C71.144 112.2 70.7602 111.397 70.9695 110.595L72.3652 104.349C72.6094 103.337 73.6213 102.675 74.6331 102.884L75.959 103.163L76.587 103.303L78.5409 103.721C79.6575 103.931 80.3204 104.942 80.0762 105.989Z" fill="#FFF44F"/>
<path d="M78.4009 112.932C78.4009 113.141 78.366 113.35 78.2962 113.56L77.9822 114.816L77.6333 116.316C77.4937 116.316 77.3541 116.281 77.1797 116.246L75.8887 115.967L76.1678 114.746L76.4121 113.699L76.5516 113.141C76.6563 112.757 76.5865 112.339 76.3772 111.99C76.1678 111.641 75.8189 111.397 75.4351 111.327C74.6326 111.152 73.8301 111.641 73.6207 112.443L73.4463 113.106L73.1672 114.153L72.8531 115.374L72.0157 115.2C71.7017 115.13 71.4226 115.025 71.1783 114.851L71.4924 113.63L71.7715 112.583L71.9111 111.99C72.2949 110.559 73.5161 109.617 74.9117 109.547L76.4121 103.267L76.5167 102.883L76.6214 102.464L78.3311 102.883L78.2264 103.267L78.1217 103.651L76.6214 109.966C77.1099 110.245 77.5286 110.629 77.8426 111.117C78.2613 111.641 78.4009 112.269 78.4009 112.932Z" fill="#FFF774"/>
<path d="M78.4006 112.933C78.4006 113.142 78.3657 113.351 78.2959 113.561L77.9819 114.817C77.7376 114.922 77.4585 114.956 77.1794 114.956C77.0398 114.956 76.9351 114.922 76.7956 114.922L76.2024 114.782L76.4467 113.735L76.5862 113.177C76.6909 112.793 76.6211 112.375 76.4118 112.026C76.2024 111.677 75.8535 111.432 75.4697 111.363C74.6672 111.188 73.8647 111.677 73.6553 112.479L73.4809 113.142L73.2018 114.189L73.0273 114.154L72.2946 113.98C72.0155 113.945 71.8061 113.84 71.5619 113.7C71.5619 113.7 71.527 113.7 71.527 113.666L71.8061 112.619L71.9457 112.026C72.3295 110.595 73.5507 109.653 74.9463 109.583L76.4467 103.303L76.5513 102.919L77.0747 103.024L78.261 103.268L78.1563 103.652L76.656 109.967C77.1445 110.246 77.5632 110.63 77.8772 111.118C78.261 111.642 78.4006 112.27 78.4006 112.933Z" fill="#FFFF8B"/>
<path d="M78.4003 112.933C78.0165 113.456 77.4233 113.77 76.7604 113.735C76.6557 113.735 76.5859 113.735 76.4813 113.7L76.6208 113.142C76.7255 112.758 76.6557 112.34 76.4464 111.991C76.237 111.642 75.8881 111.398 75.5043 111.328C74.7018 111.153 73.8993 111.642 73.6899 112.444L73.5155 113.107L73.1666 113.037L72.5036 112.898C72.2594 112.863 72.05 112.758 71.8756 112.654L71.8407 112.619L71.9803 112.026C72.3641 110.595 73.5853 109.653 74.9809 109.583L76.4813 103.303L76.6557 103.338L78.1909 103.652L76.6906 109.967C77.1791 110.246 77.5978 110.63 77.9118 111.118C78.2607 111.642 78.4003 112.27 78.4003 112.933Z" fill="#FFFFA4"/>
<path d="M90.7165 47.4064C93.1253 47.4064 95.0779 45.4538 95.0779 43.045C95.0779 40.6363 93.1253 38.6836 90.7165 38.6836C88.3078 38.6836 86.3551 40.6363 86.3551 43.045C86.3551 45.4538 88.3078 47.4064 90.7165 47.4064Z" fill="#E94F93"/>
<path d="M89.3213 53.4768C91.73 53.4768 93.6827 51.5241 93.6827 49.1153C93.6827 46.7066 91.73 44.7539 89.3213 44.7539C86.9125 44.7539 84.9598 46.7066 84.9598 49.1153C84.9598 51.5241 86.9125 53.4768 89.3213 53.4768Z" fill="#F3CE29"/>
<g opacity="0.2">
<g opacity="0.2">
<path opacity="0.2" d="M133.493 53.8252L128.364 78.2492L65.3855 111.85L70.5145 87.4605L133.493 53.8252Z" fill="white"/>
<path opacity="0.2" d="M130.946 39.659L74.2128 69.9448L77.5275 54.2436L112.279 35.7163L129.969 39.4497L130.946 39.659Z" fill="white"/>
<path opacity="0.2" d="M125.503 91.6816L123.339 101.94L82.9699 123.503L70.723 120.921L125.503 91.6816Z" fill="white"/>
</g>
</g>
<path d="M12.7715 74.6583L72.1566 57.8755C74.4943 57.2126 76.867 58.7478 77.2508 61.1553L78.7511 71.5181L12.7715 74.6583Z" fill="#484484"/>
<path d="M46.5114 74.693C54.6048 74.693 61.1658 68.1321 61.1658 60.0387C61.1658 51.9453 54.6048 45.3843 46.5114 45.3843C38.418 45.3843 31.8571 51.9453 31.8571 60.0387C31.8571 68.1321 38.418 74.693 46.5114 74.693Z" fill="#FFD701"/>
<path d="M46.5115 72.4959C53.3909 72.4959 58.9678 66.9191 58.9678 60.0397C58.9678 53.1603 53.3909 47.5835 46.5115 47.5835C39.6321 47.5835 34.0553 53.1603 34.0553 60.0397C34.0553 66.9191 39.6321 72.4959 46.5115 72.4959Z" fill="#F3CC30"/>
<path d="M53.0365 49.3965C54.2926 51.3155 54.9904 53.6183 54.9904 56.0956C54.9904 62.9692 49.4078 68.5519 42.5342 68.5519C40.1616 68.5519 37.9285 67.8889 36.0095 66.7026C38.2077 70.1569 42.0806 72.4597 46.5118 72.4597C53.3854 72.4597 58.9681 66.8771 58.9681 60.0035C58.9681 55.5374 56.5954 51.5946 53.0365 49.3965Z" fill="#EDBD31"/>
<path d="M18.8771 47.7557C25.0628 47.7557 30.0773 42.7413 30.0773 36.5556C30.0773 30.3699 25.0628 25.3555 18.8771 25.3555C12.6915 25.3555 7.677 30.3699 7.677 36.5556C7.677 42.7413 12.6915 47.7557 18.8771 47.7557Z" fill="#FFD701"/>
<path d="M18.8767 46.0805C24.1374 46.0805 28.402 41.8158 28.402 36.5551C28.402 31.2944 24.1374 27.0298 18.8767 27.0298C13.616 27.0298 9.35132 31.2944 9.35132 36.5551C9.35132 41.8158 13.616 46.0805 18.8767 46.0805Z" fill="#F3CC30"/>
<path d="M23.8317 28.4263C24.7738 29.8917 25.3321 31.6712 25.3321 33.5553C25.3321 38.8239 21.0753 43.0806 15.8067 43.0806C13.9924 43.0806 12.2827 42.5573 10.8173 41.685C12.492 44.3367 15.4578 46.0813 18.8423 46.0813C24.1109 46.0813 28.3676 41.8246 28.3676 36.556C28.3676 33.1017 26.5533 30.1011 23.8317 28.4263Z" fill="#EDBD31"/>
<path d="M65.7359 29.9271C71.9216 29.9271 76.936 24.9127 76.936 18.727C76.936 12.5413 71.9216 7.52686 65.7359 7.52686C59.5502 7.52686 54.5358 12.5413 54.5358 18.727C54.5358 24.9127 59.5502 29.9271 65.7359 29.9271Z" fill="#FFD701"/>
<path d="M65.7351 28.2519C70.9958 28.2519 75.2604 23.9872 75.2604 18.7265C75.2604 13.4658 70.9958 9.20117 65.7351 9.20117C60.4744 9.20117 56.2097 13.4658 56.2097 18.7265C56.2097 23.9872 60.4744 28.2519 65.7351 28.2519Z" fill="#F3CC30"/>
<path d="M70.6893 10.6313C71.6314 12.0968 72.1896 13.8762 72.1896 15.7604C72.1896 21.029 67.9329 25.2857 62.6643 25.2857C60.8499 25.2857 59.1402 24.7624 57.6748 23.8901C59.3496 26.5418 62.3154 28.2864 65.6998 28.2864C70.9684 28.2864 75.2252 24.0296 75.2252 18.761C75.2252 15.3068 73.4108 12.3061 70.6893 10.6313Z" fill="#EDBD31"/>
<path d="M97.3127 118.132C97.1731 121.901 94.3818 125.18 90.5437 125.843L23.4825 137.253C19.0513 138.02 14.8294 135.02 14.0618 130.589L6.10656 83.834C5.51341 80.3798 7.18819 77.1 10.0493 75.4252C10.8867 74.9367 11.7939 74.5878 12.8057 74.4134L79.867 62.969C84.2982 62.2014 88.52 65.202 89.2876 69.6332L97.2429 116.353C97.3127 116.981 97.3475 117.539 97.3127 118.132Z" fill="#594E9F"/>
<path d="M95.0104 116.772C95.1848 117.819 94.5219 118.83 93.5101 119.144C93.1611 119.249 92.8122 119.354 92.4284 119.389L27.0769 130.519C22.7503 131.252 18.6331 128.356 17.9004 124.029L10.1196 78.496C10.1196 78.496 10.1196 78.496 10.1196 78.4611C9.94518 77.4144 10.6081 76.4025 11.62 76.0885C11.9689 75.9838 12.3178 75.8792 12.7016 75.8443L78.0532 64.7139C82.3797 63.9812 86.4969 66.8772 87.2296 71.2037L95.0104 116.772Z" fill="#6861C1"/>
<path d="M92.708 112.864C92.8825 113.806 92.2544 114.713 91.3473 114.992C91.0332 115.097 90.7192 115.166 90.3703 115.236L31.0549 125.355C27.1122 126.018 23.4137 123.366 22.7159 119.458L15.6678 78.1118C15.4934 77.1697 16.1214 76.2625 17.0286 75.9834C17.3426 75.8787 17.6566 75.8089 18.0055 75.7391L77.3209 65.6206C81.2636 64.9577 84.9621 67.6095 85.66 71.5173L92.708 112.864Z" fill="#7775D8"/>
<path d="M74.2377 68.8166C76.3045 68.5727 77.8757 67.4907 77.7469 66.3999C77.6182 65.3091 75.8384 64.6226 73.7716 64.8665C71.7048 65.1104 70.1337 66.1924 70.2624 67.2832C70.3911 68.374 72.1709 69.0605 74.2377 68.8166Z" fill="#9494ED"/>
<path d="M69.2951 67.0515C69.3648 67.6097 68.5274 68.2029 67.4458 68.3425C66.3642 68.482 65.4221 68.0982 65.3523 67.54C65.2825 66.9817 66.1199 66.3885 67.2016 66.249C68.2832 66.1443 69.2253 66.4932 69.2951 67.0515Z" fill="#9494ED"/>
<path d="M81.1937 66.5278C80.9146 66.5278 80.6704 66.5627 80.4261 66.5976L79.4143 66.7721C79.3096 66.7721 79.2398 66.8767 79.2747 66.9814C79.2747 67.0512 79.3794 67.121 79.4492 67.121H79.484C79.484 67.121 80.1121 67.0163 80.3912 66.9814H80.4261C80.6704 66.9465 80.8797 66.9116 81.1239 66.9116C81.2286 66.9116 81.2984 66.8419 81.2984 66.7372C81.2984 66.6325 81.2984 66.5278 81.1937 66.5278ZM76.6927 67.2605C76.6927 67.2605 76.6578 67.2605 76.6927 67.2605L74.9482 67.5397C74.8435 67.5397 74.7737 67.6444 74.8086 67.749C74.8086 67.8188 74.9133 67.8886 74.9831 67.8886H75.018C75.018 67.8886 75.646 67.7839 76.1345 67.7141L76.7276 67.6095C76.8323 67.6095 76.9021 67.5048 76.8672 67.4001C76.8323 67.2954 76.7625 67.2605 76.6927 67.2605ZM72.2266 68.0282C72.2266 68.0282 72.1917 68.0282 72.2266 68.0282L70.4821 68.3073C70.3774 68.3073 70.3076 68.412 70.3425 68.5166C70.3425 68.5864 70.4472 68.6562 70.517 68.6562H70.5519L72.2615 68.3771C72.3662 68.3771 72.436 68.2724 72.4011 68.1677C72.3662 68.0631 72.2964 68.0282 72.2266 68.0282ZM67.7605 68.7609C67.7257 68.7609 67.7257 68.7609 67.7605 68.7609L66.016 69.04C65.9113 69.04 65.8415 69.1447 65.8764 69.2494C65.8764 69.3191 65.9811 69.3889 66.0509 69.3889H66.0858L67.1674 69.2145H67.2023C67.5163 69.1447 67.7954 69.1098 67.7954 69.1098C67.9001 69.1098 67.9699 69.0051 67.935 68.9004C67.9001 68.8307 67.8303 68.7609 67.7605 68.7609ZM63.2944 69.5285C63.2596 69.5285 63.2596 69.5285 63.2944 69.5285L61.5499 69.8076C61.4452 69.8076 61.3754 69.9123 61.4103 70.017C61.4103 70.0868 61.515 70.1565 61.5848 70.1565H61.6197L62.0384 70.0868C62.5617 70.017 63.3293 69.8774 63.3293 69.8774C63.434 69.8774 63.5038 69.7727 63.4689 69.6681C63.434 69.5983 63.3642 69.5285 63.2944 69.5285ZM58.7935 70.2961L57.0489 70.5752C56.9442 70.5752 56.8744 70.6799 56.9093 70.7846C56.9093 70.8544 57.014 70.9241 57.0838 70.9241H57.1187L58.8283 70.645C58.933 70.645 59.0028 70.5403 58.9679 70.4357C58.9679 70.3659 58.8981 70.2961 58.7935 70.2961ZM54.3274 71.0637L52.5828 71.3428C52.4781 71.3428 52.4083 71.4475 52.4432 71.5522C52.4432 71.622 52.5479 71.6918 52.6177 71.6918H52.6526C52.6526 71.6918 52.9666 71.6569 53.3155 71.5871L54.3622 71.4126C54.4669 71.4126 54.5367 71.308 54.5018 71.2033C54.5018 71.1335 54.432 71.0637 54.3274 71.0637ZM49.8613 71.8313L48.1167 72.1105C48.012 72.1105 47.9422 72.2151 47.9771 72.3198C47.9771 72.3896 48.0818 72.4594 48.1516 72.4594H48.1865C48.1865 72.4594 48.989 72.3198 49.5123 72.25L49.8962 72.1802C50.0008 72.1802 50.0706 72.0756 50.0357 71.9709C50.0357 71.9011 49.931 71.8313 49.8613 71.8313ZM45.3952 72.5989C45.3952 72.5989 45.3603 72.5989 45.3952 72.5989L43.6506 72.8781C43.5459 72.8781 43.4761 72.9827 43.511 73.0874C43.511 73.1572 43.6157 73.227 43.6855 73.227H43.7204L44.802 73.0525C45.116 72.9827 45.3952 72.9478 45.3952 72.9478C45.4998 72.9478 45.5696 72.8432 45.5347 72.7385C45.5347 72.6338 45.4649 72.5989 45.3952 72.5989ZM40.9291 73.3665C40.9291 73.3665 40.8942 73.3665 40.9291 73.3665L39.1845 73.6457C39.0798 73.6457 39.01 73.7503 39.0449 73.855C39.0449 73.9248 39.1496 73.9946 39.2194 73.9946H39.2543L39.9521 73.8899C40.4406 73.8201 40.964 73.7155 40.964 73.7155C41.0686 73.7155 41.1384 73.6108 41.1035 73.5061C41.0686 73.4014 40.9988 73.3665 40.9291 73.3665ZM36.463 74.0993C36.4281 74.0993 36.4281 74.0993 36.463 74.0993L34.7184 74.3784C34.6137 74.3784 34.5439 74.4831 34.5788 74.5877C34.5788 74.6575 34.6835 74.7273 34.7533 74.7273H34.7882L36.4979 74.4482C36.6025 74.4482 36.6723 74.3435 36.6374 74.2388C36.6025 74.169 36.5328 74.0993 36.463 74.0993ZM31.962 74.8669L30.2174 75.146C30.1127 75.146 30.043 75.2507 30.0778 75.3553C30.0778 75.4251 30.1825 75.4949 30.2523 75.4949H30.2872C30.2872 75.4949 30.357 75.4949 30.4268 75.46L31.962 75.1809C32.0667 75.1809 32.1364 75.0762 32.1015 74.9715C32.1364 74.9367 32.0667 74.8669 31.962 74.8669ZM27.4959 75.6345L25.7513 75.9136C25.6466 75.9136 25.5769 76.0183 25.6117 76.123C25.6117 76.1927 25.7164 76.2625 25.7862 76.2625H25.8211C25.8211 76.2625 26.4491 76.1579 26.9376 76.0881L27.5308 75.9834C27.6354 75.9834 27.7052 75.8787 27.6703 75.774C27.6703 75.7043 27.6006 75.6345 27.4959 75.6345ZM23.0298 76.4021L21.2852 76.6812C21.1805 76.6812 21.1108 76.7859 21.1456 76.8906C21.1456 76.9604 21.2503 77.0301 21.3201 77.0301H21.355L23.0647 76.751C23.1693 76.751 23.2391 76.6463 23.2042 76.5417C23.2042 76.4719 23.1345 76.4021 23.0298 76.4021ZM18.5637 77.1697C18.5637 77.1697 18.5288 77.1697 18.5637 77.1697L16.8191 77.4488C16.7144 77.4488 16.6447 77.5535 16.6796 77.6582C16.6796 77.728 16.7842 77.7977 16.854 77.7977H16.8889L17.8659 77.6233C18.2497 77.5535 18.5986 77.4837 18.5986 77.4837C18.7033 77.4837 18.773 77.379 18.7381 77.2744C18.7381 77.2395 18.6335 77.1697 18.5637 77.1697ZM14.0976 77.9373C14.0976 77.9373 14.0627 77.9373 14.0976 77.9373L13.3998 78.042C13.016 78.1118 12.667 78.2164 12.3181 78.356C12.2135 78.3909 12.1786 78.4956 12.2135 78.6003C12.2483 78.67 12.3181 78.7049 12.3879 78.7049C12.4228 78.7049 12.4228 78.7049 12.4577 78.7049C12.667 78.6003 12.8764 78.5305 13.1206 78.4607C13.2602 78.4258 13.7836 78.356 13.7836 78.356C13.8882 78.356 13.958 78.2513 13.9231 78.1467C14.2372 77.9722 14.1674 77.9373 14.0976 77.9373ZM10.2944 80.3448C10.2246 80.3448 10.1549 80.3797 10.1549 80.4495C9.87573 81.0078 9.70127 81.6358 9.66638 82.2639C9.66638 82.3685 9.73616 82.4383 9.84084 82.4383C9.94551 82.4383 10.0153 82.3685 10.0153 82.2639C10.0502 81.9149 10.0851 81.566 10.1898 81.252C10.1898 81.252 10.1898 81.252 10.1898 81.2171C10.1898 81.2171 10.1898 81.2171 10.1898 81.1822C10.2246 81.1124 10.1898 81.0078 10.12 80.938C10.3642 80.3448 10.3293 80.3448 10.2944 80.3448ZM10.1898 84.8807C10.0502 84.9156 10.0153 84.9854 10.0153 85.09L10.2944 86.7997C10.2944 86.8695 10.3991 86.9393 10.4689 86.9393H10.5038C10.6084 86.9393 10.6782 86.8346 10.6433 86.7299L10.3642 85.0203C10.3642 84.9156 10.2944 84.8807 10.1898 84.8807ZM10.9574 89.3468C10.8178 89.3817 10.7829 89.4515 10.7829 89.5561L11.062 91.2658C11.062 91.3356 11.1667 91.4054 11.2365 91.4054H11.2714C11.3761 91.4054 11.4458 91.3007 11.411 91.196L11.1318 89.4864C11.1318 89.4166 11.062 89.3468 10.9574 89.3468ZM11.725 93.8129C11.725 93.8129 11.6901 93.8129 11.725 93.8129C11.5854 93.8478 11.5505 93.9176 11.5505 94.0222L11.8296 95.7319C11.8296 95.8017 11.9343 95.8715 12.0041 95.8715H12.039C12.1437 95.8715 12.2135 95.7668 12.1786 95.6621L11.8994 93.9525C11.8645 93.8827 11.7948 93.8129 11.725 93.8129ZM12.4926 98.279C12.4926 98.279 12.4577 98.279 12.4926 98.279C12.353 98.3139 12.3181 98.3837 12.3181 98.4883L12.5973 100.198C12.5973 100.268 12.7019 100.338 12.7717 100.338H12.8066C12.9113 100.338 12.9811 100.233 12.9462 100.128L12.667 98.4186C12.6322 98.3488 12.5624 98.279 12.4926 98.279ZM13.2602 102.745C13.2253 102.745 13.2253 102.745 13.2602 102.745C13.1206 102.78 13.0857 102.85 13.0857 102.954L13.3649 104.664C13.3649 104.734 13.4695 104.804 13.5393 104.804H13.5742C13.6789 104.804 13.7487 104.699 13.7138 104.594L13.4347 102.885C13.3998 102.815 13.33 102.745 13.2602 102.745ZM14.0278 107.211C13.9929 107.211 13.9929 107.211 14.0278 107.211C13.8882 107.246 13.8533 107.316 13.8533 107.421L14.1325 109.13C14.1325 109.2 14.2372 109.27 14.3069 109.27H14.3418C14.4465 109.27 14.5163 109.165 14.4814 109.06L14.2023 107.351C14.1674 107.281 14.0976 107.211 14.0278 107.211ZM14.7605 111.712C14.621 111.747 14.5861 111.817 14.5861 111.922L14.8652 113.631C14.8652 113.701 14.9699 113.771 15.0397 113.771H15.0745C15.1792 113.771 15.249 113.666 15.2141 113.561L14.935 111.852C14.935 111.747 14.8652 111.712 14.7605 111.712ZM15.5281 116.178C15.3886 116.213 15.3537 116.283 15.3537 116.388L15.6328 118.097C15.6328 118.167 15.7375 118.237 15.8073 118.237H15.8422C15.9468 118.237 16.0166 118.132 15.9817 118.028L15.7026 116.318C15.7026 116.213 15.6328 116.178 15.5281 116.178ZM16.2957 120.644C16.1562 120.679 16.1213 120.749 16.1213 120.854L16.4004 122.563C16.4004 122.633 16.5051 122.703 16.5749 122.703H16.6098C16.7144 122.703 16.7842 122.598 16.7493 122.494L16.4702 120.784C16.4702 120.714 16.3655 120.644 16.2957 120.644ZM17.0634 125.11C17.0634 125.11 17.0285 125.11 17.0634 125.11C16.9238 125.145 16.8889 125.215 16.8889 125.32L17.168 127.029C17.168 127.099 17.2727 127.169 17.3425 127.169H17.3774C17.4821 127.169 17.5518 127.064 17.5169 126.96C17.5169 126.96 17.5169 126.89 17.4821 126.785C17.4821 126.785 17.4821 126.785 17.4821 126.75V126.715L17.2378 125.285C17.2029 125.18 17.1331 125.11 17.0634 125.11ZM17.831 129.577C17.7961 129.577 17.7961 129.577 17.831 129.577C17.6914 129.611 17.6565 129.681 17.6565 129.786L17.6914 129.96C17.7961 130.519 17.9705 131.042 18.2846 131.53C18.3194 131.6 18.3892 131.6 18.4241 131.6C18.459 131.6 18.4939 131.6 18.5288 131.565C18.5986 131.53 18.6335 131.391 18.5986 131.321C18.5637 131.286 18.5288 131.216 18.5288 131.182C18.5288 131.182 18.5288 131.147 18.4939 131.147C18.4939 131.112 18.459 131.112 18.459 131.077C18.459 131.042 18.4241 131.007 18.4241 130.972C18.4241 130.937 18.3892 130.937 18.3892 130.902V130.868V130.833V130.798C18.3892 130.763 18.3892 130.763 18.3892 130.728V130.693L18.3543 130.519C17.9705 129.646 17.9007 129.577 17.831 129.577ZM20.6223 133.101C20.5525 133.101 20.4827 133.135 20.4478 133.205C20.4129 133.31 20.4478 133.38 20.5525 133.415C21.041 133.589 21.5643 133.694 22.0877 133.694C22.1924 133.694 22.2971 133.694 22.4017 133.694C22.5064 133.694 22.5762 133.589 22.5762 133.519C22.5762 133.415 22.5064 133.345 22.4017 133.345C22.3668 133.345 22.332 133.345 22.332 133.345C22.332 133.345 22.332 133.345 22.2971 133.345C21.983 133.31 21.669 133.24 21.3899 133.135C20.6572 133.101 20.6572 133.101 20.6223 133.101ZM26.9027 132.577C26.8678 132.577 26.4142 132.647 25.9956 132.717H25.9607H25.9258L25.1931 132.856C25.0884 132.856 25.0186 132.961 25.0535 133.066C25.0535 133.135 25.1582 133.205 25.2279 133.205H25.2628L26.9725 132.926C27.0772 132.926 27.147 132.821 27.1121 132.717C27.0772 132.647 27.0074 132.577 26.9027 132.577ZM31.3688 131.845C31.3339 131.845 30.1476 132.054 29.7638 132.124C29.7638 132.124 29.7638 132.124 29.7289 132.124C29.6243 132.124 29.5545 132.228 29.5894 132.333C29.5894 132.403 29.694 132.473 29.7638 132.473H29.7987L31.5084 132.193C31.6131 132.193 31.6828 132.089 31.648 131.984C31.5433 131.879 31.4735 131.845 31.3688 131.845ZM35.8349 131.077L34.0904 131.356C33.9857 131.356 33.9159 131.461 33.9508 131.565C33.9508 131.635 34.0555 131.705 34.1252 131.705H34.1601L35.8698 131.426C35.9745 131.426 36.0443 131.321 36.0094 131.216C36.0094 131.112 35.9396 131.077 35.8349 131.077ZM40.3359 130.309C40.301 130.309 40.301 130.309 40.3359 130.309L38.5913 130.588C38.4867 130.588 38.4169 130.693 38.4518 130.798C38.4518 130.868 38.5565 130.937 38.6262 130.937H38.6611L40.3708 130.658C40.4755 130.658 40.5453 130.554 40.5104 130.449C40.4755 130.379 40.4057 130.309 40.3359 130.309ZM44.802 129.542C44.7671 129.542 44.7671 129.542 44.802 129.542L43.0574 129.821C42.9528 129.821 42.883 129.925 42.9179 130.03C42.9179 130.1 43.0225 130.17 43.0923 130.17H43.1272L44.8369 129.891C44.9416 129.891 45.0114 129.786 44.9765 129.681C44.9416 129.611 44.8718 129.542 44.802 129.542ZM49.2681 128.774C49.2681 128.774 49.2332 128.774 49.2681 128.774L47.5235 129.053C47.4189 129.053 47.3491 129.158 47.384 129.263C47.384 129.332 47.4886 129.402 47.5584 129.402H47.5933L49.303 129.123C49.4077 129.123 49.4775 129.018 49.4426 128.914C49.4077 128.844 49.3379 128.774 49.2681 128.774ZM53.7342 128.006C53.7342 128.006 53.6993 128.006 53.7342 128.006L51.9896 128.286C51.885 128.286 51.8152 128.39 51.8501 128.495C51.8501 128.565 51.9547 128.635 52.0245 128.635H52.0594L53.7691 128.355C53.8738 128.355 53.9436 128.251 53.9087 128.146C53.9087 128.076 53.804 128.006 53.7342 128.006ZM58.2003 127.274L57.2582 127.448C56.8395 127.518 56.4557 127.588 56.4557 127.588C56.3511 127.588 56.2813 127.692 56.3162 127.797C56.3162 127.867 56.4208 127.937 56.4906 127.937H56.5255L58.2352 127.658C58.3399 127.658 58.4096 127.553 58.3748 127.448C58.3748 127.309 58.305 127.274 58.2003 127.274ZM62.6664 126.506L61.829 126.646C61.3754 126.715 60.9218 126.82 60.9218 126.82C60.8172 126.82 60.7474 126.925 60.7823 127.029C60.7823 127.099 60.8869 127.169 60.9567 127.169H60.9916L62.7013 126.89C62.806 126.89 62.8757 126.785 62.8409 126.681C62.8409 126.541 62.7711 126.506 62.6664 126.506ZM67.1325 125.739L65.3879 126.018C65.2833 126.018 65.2135 126.122 65.2484 126.227C65.2484 126.297 65.353 126.367 65.4228 126.367H65.4577L67.1674 126.087C67.2721 126.087 67.3418 125.983 67.307 125.878C67.307 125.808 67.2372 125.739 67.1325 125.739ZM71.6335 124.971C71.5986 124.971 71.5986 124.971 71.6335 124.971L69.8889 125.25C69.7842 125.25 69.7145 125.355 69.7494 125.459C69.7494 125.529 69.854 125.599 69.9238 125.599H69.9587L71.6684 125.32C71.7731 125.32 71.8428 125.215 71.8079 125.11C71.773 125.041 71.7033 124.971 71.6335 124.971ZM76.0996 124.203C76.0996 124.203 76.0647 124.203 76.0996 124.203L74.355 124.482C74.2503 124.482 74.1806 124.587 74.2154 124.692C74.2154 124.762 74.3201 124.831 74.3899 124.831H74.4248L76.1345 124.552C76.2392 124.552 76.3089 124.448 76.274 124.343C76.2392 124.273 76.1694 124.203 76.0996 124.203ZM80.5657 123.436C80.5657 123.436 80.5308 123.436 80.5657 123.436L78.8211 123.715C78.7164 123.715 78.6467 123.819 78.6815 123.924C78.6815 123.994 78.7862 124.064 78.856 124.064H78.8909L80.6006 123.785C80.7052 123.785 80.775 123.68 80.7401 123.575C80.7052 123.505 80.6355 123.436 80.5657 123.436ZM85.0318 122.668L83.2872 122.947C83.1825 122.947 83.1127 123.052 83.1476 123.157C83.1476 123.226 83.2523 123.296 83.3221 123.296H83.357L85.0667 123.017C85.1713 123.017 85.2411 122.912 85.2062 122.808C85.2062 122.738 85.1016 122.668 85.0318 122.668ZM89.4979 121.935C89.463 121.935 89.463 121.935 89.4979 121.935C89.463 121.935 89.463 121.935 89.4979 121.935C89.463 121.935 89.463 121.935 89.4979 121.935C89.463 121.935 89.463 121.935 89.4979 121.935C89.463 121.935 89.463 121.935 89.463 121.935L87.8231 122.214C87.7184 122.214 87.6486 122.319 87.6835 122.424C87.6835 122.494 87.7882 122.563 87.858 122.563H87.8929L89.6025 122.284C89.7072 122.284 89.777 122.18 89.7421 122.075C89.6723 121.97 89.6026 121.935 89.4979 121.935ZM93.1615 119.284C93.0917 119.284 93.0219 119.319 92.987 119.388C92.8823 119.633 92.7428 119.877 92.6032 120.086C92.6032 120.121 92.5683 120.121 92.5683 120.156C92.4985 120.226 92.4985 120.33 92.5683 120.4C92.6032 120.435 92.6381 120.47 92.7079 120.47C92.7428 120.47 92.7777 120.47 92.8126 120.435C93.2662 120.016 93.65 119.493 93.8942 118.9C93.9291 118.795 93.8942 118.725 93.7895 118.656C93.1964 119.284 93.1615 119.284 93.1615 119.284ZM93.0568 114.748C92.9172 114.783 92.8823 114.852 92.8823 114.957L93.1615 116.667C93.1615 116.737 93.2662 116.806 93.3359 116.806H93.3708C93.4755 116.806 93.5453 116.702 93.5104 116.597L93.2312 114.887C93.2312 114.783 93.1615 114.748 93.0568 114.748ZM92.2892 110.282C92.1496 110.317 92.1147 110.386 92.1147 110.491L92.3939 112.201C92.3939 112.27 92.4985 112.34 92.5683 112.34H92.6032C92.7079 112.34 92.7777 112.236 92.7428 112.131L92.4636 110.421C92.4636 110.317 92.3939 110.282 92.2892 110.282ZM91.5216 105.781C91.382 105.816 91.3471 105.885 91.3471 105.99L91.6263 107.7C91.6263 107.769 91.7309 107.839 91.8007 107.839H91.8356C91.9403 107.839 92.0101 107.735 91.9752 107.63L91.696 105.92C91.696 105.85 91.6263 105.781 91.5216 105.781ZM90.7889 101.315C90.754 101.315 90.754 101.315 90.7889 101.315C90.6493 101.349 90.6144 101.419 90.6144 101.524C90.6144 101.524 90.6842 101.977 90.754 102.431L90.8935 103.234C90.8935 103.303 90.9982 103.373 91.068 103.373H91.1029C91.2076 103.373 91.2773 103.268 91.2424 103.164L90.9633 101.454C90.9284 101.384 90.8586 101.315 90.7889 101.315ZM90.0212 96.8484C89.9864 96.8484 89.9864 96.8484 90.0212 96.8484C89.8817 96.8833 89.8468 96.9531 89.8468 97.0578L90.091 98.4883V98.5232C90.091 98.593 90.1259 98.6628 90.1259 98.6628C90.1259 98.7326 90.2306 98.8024 90.3004 98.8024H90.3353C90.4399 98.8024 90.5097 98.6977 90.4748 98.593L90.1957 96.8833C90.1608 96.9182 90.091 96.8484 90.0212 96.8484ZM89.2536 92.3824C89.2536 92.3824 89.2187 92.3824 89.2536 92.3824C89.1141 92.4172 89.0792 92.487 89.0792 92.5917C89.0792 92.5917 89.149 93.0104 89.2187 93.4291L89.3583 94.3363C89.3583 94.406 89.463 94.4758 89.5328 94.4758H89.5677C89.6723 94.4758 89.7421 94.3712 89.7072 94.2665L89.4281 92.5568C89.3932 92.4521 89.3234 92.3824 89.2536 92.3824ZM88.486 87.9162C88.486 87.9162 88.4511 87.9162 88.486 87.9162C88.3465 87.9511 88.3116 88.0209 88.3116 88.1256L88.4511 88.8932V88.9281V88.963C88.4511 88.963 88.4511 88.963 88.4511 88.9979V89.0328C88.5209 89.4515 88.5907 89.8353 88.5907 89.8353C88.5907 89.9051 88.6954 89.9748 88.7652 89.9748H88.8C88.9047 89.9748 88.9745 89.8702 88.9396 89.7655L88.6605 88.0558C88.6605 87.9511 88.5558 87.9162 88.486 87.9162ZM87.7184 83.4502C87.5788 83.485 87.544 83.5548 87.544 83.6595C87.544 83.6595 87.6137 84.0084 87.6835 84.3922L87.858 85.3692C87.858 85.439 87.9627 85.5087 88.0324 85.5087H88.0673C88.172 85.5087 88.2418 85.4041 88.2069 85.2994L87.9278 83.5897C87.8929 83.485 87.8231 83.4502 87.7184 83.4502ZM86.9508 78.9492C86.8112 78.9841 86.7763 79.0538 86.7763 79.1585L87.0555 80.8682C87.0555 80.938 87.1602 81.0078 87.2299 81.0078H87.2648C87.3695 81.0078 87.4393 80.9031 87.4044 80.7984L87.1253 79.0887C87.1253 79.0189 87.0555 78.9492 86.9508 78.9492ZM86.1832 74.4831C86.0436 74.518 86.0087 74.5877 86.0087 74.6924L86.2879 76.4021C86.2879 76.4719 86.3925 76.5417 86.4623 76.5417H86.4972C86.6019 76.5417 86.6717 76.437 86.6368 76.3323L86.3577 74.6226C86.3577 74.5528 86.2879 74.4831 86.1832 74.4831ZM85.4505 70.017C85.4156 70.017 85.4156 70.017 85.4505 70.017C85.3109 70.0519 85.276 70.1216 85.276 70.2263V70.2612L85.5551 71.8662C85.5551 71.936 85.6598 72.0058 85.7296 72.0058H85.7645C85.8692 72.0058 85.9389 71.9011 85.9041 71.7964L85.6249 70.1914C85.6249 70.1565 85.6249 70.1216 85.59 70.0868C85.59 70.0868 85.5203 70.017 85.4505 70.017ZM82.38 66.7023C82.3103 66.7023 82.2405 66.7372 82.2056 66.8419C82.1707 66.9465 82.2405 67.0163 82.3102 67.0512C82.729 67.1559 83.1127 67.3652 83.4617 67.5746C83.4617 67.5746 83.4617 67.5746 83.4966 67.5746C83.5663 67.6444 83.6361 67.6792 83.7059 67.749C83.7408 67.7839 83.7757 67.7839 83.8106 67.7839C83.8455 67.7839 83.9153 67.749 83.9501 67.7141C84.0199 67.6444 84.0199 67.5397 83.9153 67.4699C83.4268 67.0512 82.8685 66.7721 82.2754 66.5976C82.4149 66.7023 82.4149 66.7023 82.38 66.7023Z" fill="white"/>
<path d="M96.8243 101.523L72.4004 105.815C68.1785 106.548 64.166 103.756 63.4333 99.5346C63.3635 99.081 63.3286 98.6274 63.3286 98.1738C63.3286 97.9296 63.3286 97.7202 63.3635 97.476C63.6775 94.0915 66.1897 91.1606 69.7137 90.5675L94.1377 86.2758C95.4287 86.0316 96.6848 86.9039 96.8941 88.2298L98.3247 96.4292L98.7434 98.7321C98.9876 100.058 98.1153 101.314 96.8243 101.523Z" fill="#F3BF1A"/>
<path d="M98.3258 96.4649C98.1513 97.407 97.3837 98.1746 96.4068 98.349L72.0177 102.606C68.2145 103.269 64.5858 101.036 63.3646 97.5116C63.6786 94.1272 66.1908 91.1963 69.7149 90.6031L94.1388 86.3115C95.4298 86.0673 96.6859 86.9395 96.8952 88.2654L98.3258 96.4649Z" fill="#F3CE29"/>
<path d="M97.5226 95.5919C97.3482 96.3944 96.7201 97.0922 95.8478 97.2318L72.2612 101.489C72.0868 101.523 71.8774 101.558 71.703 101.558C65.1783 102.151 63.5035 92.5214 69.8886 91.0211C70.0282 90.9862 70.1329 90.9513 70.2724 90.9513L93.859 86.6946C95.0104 86.4852 96.0921 87.2528 96.3014 88.4042L97.5226 95.5919Z" fill="#FFE24C"/>
<path d="M94.4515 88.3701L92.7069 88.6841C92.6023 88.6841 92.5325 88.7888 92.5674 88.8935C92.5674 88.9633 92.672 89.0331 92.7418 89.0331H92.7767L94.4864 88.719C94.5911 88.719 94.6609 88.6144 94.626 88.5097C94.626 88.4399 94.5562 88.3701 94.4515 88.3701ZM89.9854 89.1377L88.2408 89.4517C88.1362 89.4517 88.0664 89.5564 88.1013 89.6611C88.1013 89.7309 88.206 89.8007 88.2757 89.8007H88.3106L90.0203 89.4866C90.125 89.4866 90.1948 89.382 90.1599 89.2773C90.1599 89.2075 90.0901 89.1377 89.9854 89.1377ZM85.5193 89.9402L83.7747 90.2543C83.6701 90.2543 83.6003 90.3589 83.6352 90.4636C83.6352 90.5334 83.7398 90.6032 83.8096 90.6032H83.8445L85.5542 90.2891C85.6589 90.2891 85.7287 90.1845 85.6938 90.0798C85.6938 90.01 85.624 89.9402 85.5193 89.9402ZM81.0532 90.7427L79.3086 91.0567C79.204 91.0567 79.1342 91.1614 79.1691 91.2661C79.1691 91.3359 79.2738 91.4057 79.3435 91.4057H79.3784L81.0881 91.0916C81.1928 91.0916 81.2626 90.987 81.2277 90.8823C81.2277 90.7776 81.1579 90.7427 81.0532 90.7427ZM76.5871 91.5103L74.8425 91.8244C74.7379 91.8244 74.6681 91.929 74.703 92.0337C74.703 92.1035 74.8077 92.1733 74.8774 92.1733H74.9123L76.622 91.8593C76.7267 91.8593 76.7965 91.7546 76.7616 91.6499C76.7616 91.5801 76.6918 91.5103 76.5871 91.5103ZM72.121 92.3128L70.3765 92.6269C70.2718 92.6269 70.202 92.7315 70.2369 92.8362C70.2369 92.906 70.3416 92.9758 70.4113 92.9758H70.4462H70.516H70.5509H70.5858C71.0743 92.906 72.0512 92.7315 72.0512 92.7315C72.1559 92.7315 72.2257 92.6269 72.1908 92.5222C72.2955 92.3477 72.2257 92.3128 72.121 92.3128ZM67.7596 93.6736C67.7247 93.6736 67.6898 93.6736 67.6549 93.7085C67.1664 94.0923 66.7129 94.5459 66.3639 95.0344C66.2942 95.1041 66.329 95.2088 66.3988 95.2786C66.4337 95.3135 66.4686 95.3135 66.5035 95.3135C66.5733 95.3135 66.6082 95.2786 66.6431 95.2437C66.7129 95.1041 66.8175 94.9995 66.9222 94.8948C67.0967 94.6855 67.2711 94.511 67.4805 94.3365C67.5154 94.3016 67.5502 94.2668 67.62 94.2319C67.6898 94.1621 67.7247 94.0574 67.6549 93.9876C67.8643 93.7085 67.8294 93.6736 67.7596 93.6736ZM65.5963 97.6512C65.4917 97.6512 65.4219 97.721 65.4219 97.8257C65.4219 97.9652 65.4219 98.0699 65.4219 98.2095C65.4219 98.5235 65.4568 98.8724 65.4917 99.1864C65.5265 99.3609 65.5614 99.5005 65.5963 99.64C65.6312 99.7098 65.701 99.7796 65.7708 99.7796H65.8057C65.9104 99.7447 65.9452 99.6749 65.9452 99.5702C65.9104 99.4307 65.8755 99.2911 65.8406 99.1516C65.8057 98.8375 65.7708 98.5235 65.7708 98.2095C65.7708 98.1397 65.7708 98.1048 65.7708 98.035V98.0001C65.7708 97.7559 65.701 97.6512 65.5963 97.6512ZM67.2013 101.908C67.1664 101.908 67.0967 101.908 67.0618 101.943C66.992 102.013 66.992 102.117 67.0618 102.187C67.5154 102.641 68.0038 102.99 68.5621 103.269C68.597 103.269 68.597 103.304 68.6319 103.304C68.7017 103.304 68.7714 103.269 68.7714 103.199C68.8063 103.129 68.7714 103.024 68.7017 102.955C68.4225 102.815 68.1434 102.641 67.8992 102.466C67.8992 102.466 67.8992 102.466 67.8643 102.466C67.8643 102.466 67.8294 102.466 67.8294 102.431L67.7945 102.396L67.7596 102.362C67.7596 102.362 67.7596 102.362 67.7247 102.327C67.6898 102.292 67.6549 102.257 67.62 102.222C67.2711 101.943 67.2362 101.908 67.2013 101.908ZM73.2027 103.234C73.1678 103.234 73.1678 103.234 73.2027 103.234C73.1678 103.234 72.6095 103.339 72.2606 103.408C72.2606 103.408 72.2606 103.408 72.2257 103.408C72.1559 103.408 72.0512 103.443 71.9815 103.443C71.9815 103.443 71.9815 103.443 71.9466 103.443C71.8768 103.443 71.807 103.443 71.7372 103.478C71.6325 103.478 71.5628 103.583 71.5628 103.653C71.5628 103.757 71.6325 103.827 71.7372 103.827C71.9117 103.827 72.121 103.792 72.2955 103.757L73.4818 103.548C73.5865 103.548 73.6562 103.443 73.6214 103.339C73.3422 103.269 73.2724 103.234 73.2027 103.234ZM77.6687 102.431C77.6339 102.431 77.6339 102.431 77.6687 102.431C77.6339 102.431 77.2501 102.501 76.8314 102.571H76.7965L75.9591 102.71C75.8544 102.71 75.7846 102.815 75.8195 102.92C75.8195 102.99 75.9242 103.059 75.994 103.059H76.0289L77.7385 102.745C77.8432 102.745 77.913 102.641 77.8781 102.536C77.8083 102.501 77.7385 102.431 77.6687 102.431ZM82.1348 101.629C82.1 101.629 82.1 101.629 82.1348 101.629L80.3903 101.943C80.2856 101.943 80.2158 102.048 80.2507 102.152C80.2507 102.222 80.3554 102.292 80.4252 102.292H80.4601L82.1697 101.978C82.2744 101.978 82.3442 101.873 82.3093 101.768C82.2744 101.699 82.2046 101.629 82.1348 101.629ZM86.6009 100.861C86.566 100.861 86.566 100.861 86.6009 100.861L84.8564 101.175C84.7517 101.175 84.6819 101.28 84.7168 101.385C84.7168 101.454 84.8215 101.524 84.8913 101.524H84.9262L86.6358 101.21C86.7405 101.21 86.8103 101.105 86.7754 101.001C86.7405 100.931 86.6707 100.861 86.6009 100.861ZM91.067 100.059C91.0322 100.059 91.0322 100.059 91.067 100.059L89.3225 100.373C89.2178 100.373 89.148 100.477 89.1829 100.582C89.1829 100.652 89.2876 100.722 89.3574 100.722H89.3923L91.1019 100.408C91.2066 100.408 91.2764 100.303 91.2415 100.198C91.2066 100.129 91.1368 100.059 91.067 100.059ZM95.5331 99.2911C95.4982 99.2911 95.4982 99.2911 95.5331 99.2911L94.7655 99.4307C94.3119 99.5005 93.7886 99.6051 93.7886 99.6051C93.6839 99.6051 93.6141 99.7098 93.649 99.8145C93.649 99.8843 93.7537 99.9541 93.8235 99.9541H93.8584L95.568 99.64C95.6727 99.64 95.7425 99.5354 95.7076 99.4307C95.6727 99.326 95.6029 99.2911 95.5331 99.2911ZM95.8821 95.3135C95.8472 95.3135 95.8472 95.3135 95.8821 95.3135C95.7425 95.3484 95.7076 95.4182 95.7076 95.5229C95.7076 95.5229 95.8821 96.6045 95.9518 96.8487V96.8836L96.0216 97.2325C96.0216 97.3023 96.1263 97.3721 96.1961 97.3721H96.231C96.3356 97.3721 96.4054 97.2674 96.3705 97.1627L96.3008 96.8138L96.0565 95.4531C96.0216 95.3484 95.9518 95.3135 95.8821 95.3135ZM95.0796 90.8474C95.0796 90.8474 95.0447 90.8474 95.0796 90.8474C94.94 90.8823 94.9051 90.9521 94.9051 91.0567L95.2191 92.7664C95.2191 92.8362 95.3238 92.906 95.3936 92.906H95.4285C95.5331 92.906 95.6029 92.8013 95.568 92.6966L95.254 90.987C95.2191 90.8823 95.1493 90.8474 95.0796 90.8474Z" fill="white"/>
<path d="M70.7264 101.071C72.2872 101.071 73.5525 99.8055 73.5525 98.2447C73.5525 96.6838 72.2872 95.4185 70.7264 95.4185C69.1655 95.4185 67.9001 96.6838 67.9001 98.2447C67.9001 99.8055 69.1655 101.071 70.7264 101.071Z" fill="#5A4C84"/>
<path d="M72.9934 97.8602C72.9934 99.1163 71.9815 100.128 70.7255 100.128C69.4694 100.128 68.4575 99.1163 68.4575 97.8602C68.4575 96.6041 69.4694 95.5923 70.7255 95.5923C71.9815 95.5923 72.9934 96.6041 72.9934 97.8602Z" fill="#605997"/>
<path d="M72.2617 97.3018C72.2617 98.1392 71.5639 98.837 70.7265 98.837C69.8891 98.837 69.1913 98.1392 69.1913 97.3018C69.1913 96.4644 69.8891 95.7666 70.7265 95.7666C71.5639 95.7666 72.2617 96.4644 72.2617 97.3018Z" fill="#776DA9"/>
<path d="M150.487 69.9468C147.312 69.9468 144.765 72.5288 144.765 75.669C144.765 72.4939 142.183 69.9468 139.043 69.9468C142.218 69.9468 144.765 67.3648 144.765 64.2246C144.765 67.3648 147.347 69.9468 150.487 69.9468Z" fill="white"/>
<path d="M97.3131 73.2261C94.138 73.2261 91.591 75.8081 91.591 78.9483C91.591 75.7732 89.009 73.2261 85.8688 73.2261C89.0439 73.2261 91.591 70.6441 91.591 67.5039C91.5561 70.679 94.138 73.2261 97.3131 73.2261Z" fill="white"/>
<path d="M122.609 6.23488C119.434 6.23488 116.887 8.81684 116.887 11.9571C116.887 8.78195 114.305 6.23488 111.165 6.23488C114.34 6.23488 116.887 3.65292 116.887 0.512695C116.887 3.68781 119.469 6.23488 122.609 6.23488Z" fill="white"/>
<path d="M11.7246 67.9937C8.54953 67.9937 6.00246 70.5756 6.00246 73.7159C6.00246 70.5407 3.4205 67.9937 0.280273 67.9937C3.45539 67.9937 6.00246 65.4117 6.00246 62.2715C5.96757 65.4466 8.54953 67.9937 11.7246 67.9937Z" fill="white"/>
<path d="M56.9093 136.135C53.7342 136.135 51.1872 138.717 51.1872 141.857C51.1872 138.682 48.6052 136.135 45.465 136.135C48.6401 136.135 51.1872 133.553 51.1872 130.413C51.1872 133.553 53.7691 136.135 56.9093 136.135Z" fill="white"/>
<path d="M20.2386 15.1665C17.0634 15.1665 14.5164 17.7485 14.5164 20.8887C14.5164 17.7136 11.9344 15.1665 8.79419 15.1665C11.9693 15.1665 14.5164 12.5846 14.5164 9.44434C14.5164 12.5846 17.0634 15.1665 20.2386 15.1665Z" fill="white"/>
<path d="M156 65.4458C154.186 65.4458 152.72 66.9112 152.72 68.7256C152.72 66.9112 151.255 65.4458 149.44 65.4458C151.255 65.4458 152.72 63.9804 152.72 62.166C152.72 63.9804 154.186 65.4458 156 65.4458Z" fill="white"/>
<path d="M128.298 10.2119C126.483 10.2119 125.018 11.6774 125.018 13.4917C125.018 11.6774 123.552 10.2119 121.738 10.2119C123.552 10.2119 125.018 8.74648 125.018 6.93213C125.018 8.74648 126.483 10.2119 128.298 10.2119Z" fill="white"/>
<path d="M16.9575 61.9912C15.1432 61.9912 13.6777 63.4567 13.6777 65.271C13.6777 63.4567 12.2123 61.9912 10.3979 61.9912C12.2123 61.9912 13.6777 60.5258 13.6777 58.7114C13.6777 60.4909 15.1432 61.9912 16.9575 61.9912Z" fill="white"/>
<path d="M61.7941 140.148C59.9797 140.148 58.5143 141.613 58.5143 143.428C58.5143 141.613 57.0488 140.148 55.2345 140.148C57.0488 140.148 58.5143 138.683 58.5143 136.868C58.5143 138.683 59.9797 140.148 61.7941 140.148Z" fill="white"/>
<path d="M130.879 131.739C129.064 131.739 127.599 133.205 127.599 135.019C127.599 133.205 126.133 131.739 124.319 131.739C126.133 131.739 127.599 130.274 127.599 128.459C127.599 130.274 129.064 131.739 130.879 131.739Z" fill="white"/>
<path d="M81.8561 40.394C80.0417 40.394 78.5763 41.8595 78.5763 43.6738C78.5763 41.8595 77.1109 40.394 75.2965 40.394C77.1109 40.394 78.5763 38.9286 78.5763 37.1143C78.5763 38.9286 80.0417 40.394 81.8561 40.394Z" fill="white"/>
</svg>
